%TF.GenerationSoftware,KiCad,Pcbnew,5.1.9-2.fc34*%
%TF.CreationDate,2021-04-30T18:49:43-07:00*%
%TF.ProjectId,motorbrainz,6d6f746f-7262-4726-9169-6e7a2e6b6963,1.0*%
%TF.SameCoordinates,Original*%
%TF.FileFunction,Paste,Top*%
%TF.FilePolarity,Positive*%
%FSLAX46Y46*%
G04 Gerber Fmt 4.6, Leading zero omitted, Abs format (unit mm)*
G04 Created by KiCad (PCBNEW 5.1.9-2.fc34) date 2021-04-30 18:49:43*
%MOMM*%
%LPD*%
G01*
G04 APERTURE LIST*
%ADD10C,0.010000*%
%ADD11R,1.900000X1.500000*%
%ADD12R,1.350000X0.400000*%
%ADD13R,0.740000X2.790000*%
%ADD14R,3.730000X0.740000*%
%ADD15R,1.000000X1.200000*%
%ADD16R,1.200000X1.000000*%
%ADD17C,0.100000*%
%ADD18R,0.700000X2.000000*%
%ADD19R,2.000000X3.800000*%
%ADD20R,2.000000X1.500000*%
%ADD21R,1.701800X2.209800*%
G04 APERTURE END LIST*
D10*
%TO.C,J1*%
G36*
X93715000Y-94359000D02*
G01*
X92975000Y-94359000D01*
X92975000Y-91569000D01*
X93715000Y-91569000D01*
X93715000Y-94359000D01*
G37*
X93715000Y-94359000D02*
X92975000Y-94359000D01*
X92975000Y-91569000D01*
X93715000Y-91569000D01*
X93715000Y-94359000D01*
G36*
X93715000Y-90295000D02*
G01*
X92975000Y-90295000D01*
X92975000Y-87505000D01*
X93715000Y-87505000D01*
X93715000Y-90295000D01*
G37*
X93715000Y-90295000D02*
X92975000Y-90295000D01*
X92975000Y-87505000D01*
X93715000Y-87505000D01*
X93715000Y-90295000D01*
G36*
X94985000Y-94359000D02*
G01*
X94245000Y-94359000D01*
X94245000Y-91569000D01*
X94985000Y-91569000D01*
X94985000Y-94359000D01*
G37*
X94985000Y-94359000D02*
X94245000Y-94359000D01*
X94245000Y-91569000D01*
X94985000Y-91569000D01*
X94985000Y-94359000D01*
G36*
X94985000Y-90295000D02*
G01*
X94245000Y-90295000D01*
X94245000Y-87505000D01*
X94985000Y-87505000D01*
X94985000Y-90295000D01*
G37*
X94985000Y-90295000D02*
X94245000Y-90295000D01*
X94245000Y-87505000D01*
X94985000Y-87505000D01*
X94985000Y-90295000D01*
G36*
X96255000Y-94359000D02*
G01*
X95515000Y-94359000D01*
X95515000Y-91569000D01*
X96255000Y-91569000D01*
X96255000Y-94359000D01*
G37*
X96255000Y-94359000D02*
X95515000Y-94359000D01*
X95515000Y-91569000D01*
X96255000Y-91569000D01*
X96255000Y-94359000D01*
G36*
X96255000Y-90295000D02*
G01*
X95515000Y-90295000D01*
X95515000Y-87505000D01*
X96255000Y-87505000D01*
X96255000Y-90295000D01*
G37*
X96255000Y-90295000D02*
X95515000Y-90295000D01*
X95515000Y-87505000D01*
X96255000Y-87505000D01*
X96255000Y-90295000D01*
G36*
X97525000Y-94359000D02*
G01*
X96785000Y-94359000D01*
X96785000Y-91569000D01*
X97525000Y-91569000D01*
X97525000Y-94359000D01*
G37*
X97525000Y-94359000D02*
X96785000Y-94359000D01*
X96785000Y-91569000D01*
X97525000Y-91569000D01*
X97525000Y-94359000D01*
G36*
X97525000Y-90295000D02*
G01*
X96785000Y-90295000D01*
X96785000Y-87505000D01*
X97525000Y-87505000D01*
X97525000Y-90295000D01*
G37*
X97525000Y-90295000D02*
X96785000Y-90295000D01*
X96785000Y-87505000D01*
X97525000Y-87505000D01*
X97525000Y-90295000D01*
G36*
X98795000Y-94359000D02*
G01*
X98055000Y-94359000D01*
X98055000Y-91569000D01*
X98795000Y-91569000D01*
X98795000Y-94359000D01*
G37*
X98795000Y-94359000D02*
X98055000Y-94359000D01*
X98055000Y-91569000D01*
X98795000Y-91569000D01*
X98795000Y-94359000D01*
G36*
X98795000Y-90295000D02*
G01*
X98055000Y-90295000D01*
X98055000Y-87505000D01*
X98795000Y-87505000D01*
X98795000Y-90295000D01*
G37*
X98795000Y-90295000D02*
X98055000Y-90295000D01*
X98055000Y-87505000D01*
X98795000Y-87505000D01*
X98795000Y-90295000D01*
%TO.C,J7*%
G36*
X104510000Y-94359000D02*
G01*
X103770000Y-94359000D01*
X103770000Y-91569000D01*
X104510000Y-91569000D01*
X104510000Y-94359000D01*
G37*
X104510000Y-94359000D02*
X103770000Y-94359000D01*
X103770000Y-91569000D01*
X104510000Y-91569000D01*
X104510000Y-94359000D01*
G36*
X104510000Y-90295000D02*
G01*
X103770000Y-90295000D01*
X103770000Y-87505000D01*
X104510000Y-87505000D01*
X104510000Y-90295000D01*
G37*
X104510000Y-90295000D02*
X103770000Y-90295000D01*
X103770000Y-87505000D01*
X104510000Y-87505000D01*
X104510000Y-90295000D01*
G36*
X105780000Y-94359000D02*
G01*
X105040000Y-94359000D01*
X105040000Y-91569000D01*
X105780000Y-91569000D01*
X105780000Y-94359000D01*
G37*
X105780000Y-94359000D02*
X105040000Y-94359000D01*
X105040000Y-91569000D01*
X105780000Y-91569000D01*
X105780000Y-94359000D01*
G36*
X105780000Y-90295000D02*
G01*
X105040000Y-90295000D01*
X105040000Y-87505000D01*
X105780000Y-87505000D01*
X105780000Y-90295000D01*
G37*
X105780000Y-90295000D02*
X105040000Y-90295000D01*
X105040000Y-87505000D01*
X105780000Y-87505000D01*
X105780000Y-90295000D01*
G36*
X107050000Y-94359000D02*
G01*
X106310000Y-94359000D01*
X106310000Y-91569000D01*
X107050000Y-91569000D01*
X107050000Y-94359000D01*
G37*
X107050000Y-94359000D02*
X106310000Y-94359000D01*
X106310000Y-91569000D01*
X107050000Y-91569000D01*
X107050000Y-94359000D01*
G36*
X107050000Y-90295000D02*
G01*
X106310000Y-90295000D01*
X106310000Y-87505000D01*
X107050000Y-87505000D01*
X107050000Y-90295000D01*
G37*
X107050000Y-90295000D02*
X106310000Y-90295000D01*
X106310000Y-87505000D01*
X107050000Y-87505000D01*
X107050000Y-90295000D01*
G36*
X108320000Y-94359000D02*
G01*
X107580000Y-94359000D01*
X107580000Y-91569000D01*
X108320000Y-91569000D01*
X108320000Y-94359000D01*
G37*
X108320000Y-94359000D02*
X107580000Y-94359000D01*
X107580000Y-91569000D01*
X108320000Y-91569000D01*
X108320000Y-94359000D01*
G36*
X108320000Y-90295000D02*
G01*
X107580000Y-90295000D01*
X107580000Y-87505000D01*
X108320000Y-87505000D01*
X108320000Y-90295000D01*
G37*
X108320000Y-90295000D02*
X107580000Y-90295000D01*
X107580000Y-87505000D01*
X108320000Y-87505000D01*
X108320000Y-90295000D01*
G36*
X109590000Y-94359000D02*
G01*
X108850000Y-94359000D01*
X108850000Y-91569000D01*
X109590000Y-91569000D01*
X109590000Y-94359000D01*
G37*
X109590000Y-94359000D02*
X108850000Y-94359000D01*
X108850000Y-91569000D01*
X109590000Y-91569000D01*
X109590000Y-94359000D01*
G36*
X109590000Y-90295000D02*
G01*
X108850000Y-90295000D01*
X108850000Y-87505000D01*
X109590000Y-87505000D01*
X109590000Y-90295000D01*
G37*
X109590000Y-90295000D02*
X108850000Y-90295000D01*
X108850000Y-87505000D01*
X109590000Y-87505000D01*
X109590000Y-90295000D01*
%TO.C,U1*%
G36*
X117023200Y-97215900D02*
G01*
X117023200Y-96453900D01*
X117785200Y-96453900D01*
X117785200Y-97215900D01*
X117023200Y-97215900D01*
G37*
X117023200Y-97215900D02*
X117023200Y-96453900D01*
X117785200Y-96453900D01*
X117785200Y-97215900D01*
X117023200Y-97215900D01*
G36*
X116058000Y-96276100D02*
G01*
X116058000Y-95514100D01*
X116820000Y-95514100D01*
X116820000Y-96276100D01*
X116058000Y-96276100D01*
G37*
X116058000Y-96276100D02*
X116058000Y-95514100D01*
X116820000Y-95514100D01*
X116820000Y-96276100D01*
X116058000Y-96276100D01*
G36*
X118140800Y-96174500D02*
G01*
X118140800Y-95412500D01*
X118902800Y-95412500D01*
X118902800Y-96174500D01*
X118140800Y-96174500D01*
G37*
X118140800Y-96174500D02*
X118140800Y-95412500D01*
X118902800Y-95412500D01*
X118902800Y-96174500D01*
X118140800Y-96174500D01*
G36*
X117124800Y-95158500D02*
G01*
X117124800Y-94396500D01*
X117886800Y-94396500D01*
X117886800Y-95158500D01*
X117124800Y-95158500D01*
G37*
X117124800Y-95158500D02*
X117124800Y-94396500D01*
X117886800Y-94396500D01*
X117886800Y-95158500D01*
X117124800Y-95158500D01*
%TO.C,U2*%
G36*
X138890000Y-99699330D02*
G01*
X138890000Y-103500000D01*
X132888940Y-103500000D01*
X132888940Y-99699330D01*
X138890000Y-99699330D01*
G37*
X138890000Y-99699330D02*
X138890000Y-103500000D01*
X132888940Y-103500000D01*
X132888940Y-99699330D01*
X138890000Y-99699330D01*
%TD*%
D11*
%TO.C,J2*%
X94266500Y-111395000D03*
D12*
X96966500Y-112395000D03*
X96966500Y-113045000D03*
X96966500Y-113695000D03*
X96966500Y-111095000D03*
X96966500Y-111745000D03*
D11*
X94266500Y-113395000D03*
%TD*%
D13*
%TO.C,J1*%
X93345000Y-92964000D03*
X93345000Y-88900000D03*
X94615000Y-92964000D03*
X94615000Y-88900000D03*
X95885000Y-92964000D03*
X95885000Y-88900000D03*
X97155000Y-92964000D03*
X97155000Y-88900000D03*
X98425000Y-92964000D03*
X98425000Y-88900000D03*
%TD*%
%TO.C,J7*%
X104140000Y-92964000D03*
X104140000Y-88900000D03*
X105410000Y-92964000D03*
X105410000Y-88900000D03*
X106680000Y-92964000D03*
X106680000Y-88900000D03*
X107950000Y-92964000D03*
X107950000Y-88900000D03*
X109220000Y-92964000D03*
X109220000Y-88900000D03*
%TD*%
D14*
%TO.C,J6*%
X108445000Y-112839500D03*
X106185000Y-111569500D03*
X108445000Y-110299500D03*
%TD*%
%TO.C,C2*%
G36*
G01*
X102986000Y-97774999D02*
X102986000Y-99075001D01*
G75*
G02*
X102736001Y-99325000I-249999J0D01*
G01*
X102085999Y-99325000D01*
G75*
G02*
X101836000Y-99075001I0J249999D01*
G01*
X101836000Y-97774999D01*
G75*
G02*
X102085999Y-97525000I249999J0D01*
G01*
X102736001Y-97525000D01*
G75*
G02*
X102986000Y-97774999I0J-249999D01*
G01*
G37*
G36*
G01*
X105936000Y-97774999D02*
X105936000Y-99075001D01*
G75*
G02*
X105686001Y-99325000I-249999J0D01*
G01*
X105035999Y-99325000D01*
G75*
G02*
X104786000Y-99075001I0J249999D01*
G01*
X104786000Y-97774999D01*
G75*
G02*
X105035999Y-97525000I249999J0D01*
G01*
X105686001Y-97525000D01*
G75*
G02*
X105936000Y-97774999I0J-249999D01*
G01*
G37*
%TD*%
%TO.C,C5*%
G36*
G01*
X128906000Y-87085000D02*
X128906000Y-91985000D01*
G75*
G02*
X128656000Y-92235000I-250000J0D01*
G01*
X127356000Y-92235000D01*
G75*
G02*
X127106000Y-91985000I0J250000D01*
G01*
X127106000Y-87085000D01*
G75*
G02*
X127356000Y-86835000I250000J0D01*
G01*
X128656000Y-86835000D01*
G75*
G02*
X128906000Y-87085000I0J-250000D01*
G01*
G37*
G36*
G01*
X134006000Y-87085000D02*
X134006000Y-91985000D01*
G75*
G02*
X133756000Y-92235000I-250000J0D01*
G01*
X132456000Y-92235000D01*
G75*
G02*
X132206000Y-91985000I0J250000D01*
G01*
X132206000Y-87085000D01*
G75*
G02*
X132456000Y-86835000I250000J0D01*
G01*
X133756000Y-86835000D01*
G75*
G02*
X134006000Y-87085000I0J-250000D01*
G01*
G37*
%TD*%
D15*
%TO.C,U1*%
X122555000Y-113248900D03*
X121285000Y-113248900D03*
X120015000Y-113248900D03*
X118745000Y-113248900D03*
X117475000Y-113248900D03*
X116205000Y-113248900D03*
X114935000Y-113248900D03*
X113665000Y-113248900D03*
D16*
X111950000Y-92075000D03*
X111950000Y-93345000D03*
X111950000Y-94615000D03*
X111950000Y-95885000D03*
X111950000Y-97155000D03*
X111950000Y-98425000D03*
X111950000Y-99695000D03*
X111950000Y-100965000D03*
X111950000Y-102235000D03*
X111950000Y-103505000D03*
X111950000Y-104775000D03*
X111950000Y-106045000D03*
X111950000Y-107315000D03*
X111950000Y-108585000D03*
X124290000Y-92063700D03*
X124290000Y-93333700D03*
X124290000Y-94603700D03*
X124290000Y-95873700D03*
X124290000Y-97143700D03*
X124290000Y-98413700D03*
X124290000Y-99683700D03*
X124290000Y-100953700D03*
X124290000Y-102223700D03*
X124290000Y-103493700D03*
X124290000Y-104763700D03*
X124290000Y-106033700D03*
X124290000Y-107303700D03*
X124290000Y-108573700D03*
D17*
G36*
X115189951Y-95698890D02*
G01*
X115189954Y-95698881D01*
X115189958Y-95698872D01*
X117309972Y-93578858D01*
X117309981Y-93578854D01*
X117309990Y-93578851D01*
X117310000Y-93578850D01*
X117980000Y-93578850D01*
X117980010Y-93578851D01*
X117980019Y-93578854D01*
X117980028Y-93578858D01*
X117980035Y-93578865D01*
X119770035Y-95378865D01*
X119770042Y-95378872D01*
X119770046Y-95378881D01*
X119770049Y-95378890D01*
X119770050Y-95378900D01*
X119770049Y-95378910D01*
X119770046Y-95378919D01*
X119770041Y-95378928D01*
X119770035Y-95378935D01*
X117310035Y-97828935D01*
X117310028Y-97828942D01*
X117310019Y-97828946D01*
X117310010Y-97828949D01*
X117310000Y-97828950D01*
X117309990Y-97828949D01*
X117309981Y-97828946D01*
X117309972Y-97828942D01*
X117309965Y-97828935D01*
X115189965Y-95698935D01*
X115189958Y-95698928D01*
X115189954Y-95698919D01*
X115189951Y-95698910D01*
X115189950Y-95698900D01*
X115189951Y-95698890D01*
G37*
%TD*%
D18*
%TO.C,U2*%
X141605000Y-108300000D03*
X140335000Y-108300000D03*
X139065000Y-108300000D03*
X137795000Y-108300000D03*
X136525000Y-108300000D03*
X135255000Y-108300000D03*
X133985000Y-108300000D03*
X132715000Y-108300000D03*
X131445000Y-108300000D03*
X130175000Y-108300000D03*
X130175000Y-94900000D03*
X131445000Y-94900000D03*
X132715000Y-94900000D03*
X133985000Y-94900000D03*
X135255000Y-94900000D03*
X136525000Y-94900000D03*
X137795000Y-94900000D03*
X139065000Y-94900000D03*
X140335000Y-94900000D03*
X141605000Y-94900000D03*
%TD*%
%TO.C,C4*%
G36*
G01*
X136215000Y-87626000D02*
X136215000Y-87126000D01*
G75*
G02*
X136440000Y-86901000I225000J0D01*
G01*
X136890000Y-86901000D01*
G75*
G02*
X137115000Y-87126000I0J-225000D01*
G01*
X137115000Y-87626000D01*
G75*
G02*
X136890000Y-87851000I-225000J0D01*
G01*
X136440000Y-87851000D01*
G75*
G02*
X136215000Y-87626000I0J225000D01*
G01*
G37*
G36*
G01*
X134665000Y-87626000D02*
X134665000Y-87126000D01*
G75*
G02*
X134890000Y-86901000I225000J0D01*
G01*
X135340000Y-86901000D01*
G75*
G02*
X135565000Y-87126000I0J-225000D01*
G01*
X135565000Y-87626000D01*
G75*
G02*
X135340000Y-87851000I-225000J0D01*
G01*
X134890000Y-87851000D01*
G75*
G02*
X134665000Y-87626000I0J225000D01*
G01*
G37*
%TD*%
D19*
%TO.C,U11*%
X109195000Y-103251000D03*
D20*
X102895000Y-103251000D03*
X102895000Y-105551000D03*
X102895000Y-100951000D03*
%TD*%
%TO.C,C3*%
G36*
G01*
X130485000Y-110240000D02*
X130485000Y-110740000D01*
G75*
G02*
X130260000Y-110965000I-225000J0D01*
G01*
X129810000Y-110965000D01*
G75*
G02*
X129585000Y-110740000I0J225000D01*
G01*
X129585000Y-110240000D01*
G75*
G02*
X129810000Y-110015000I225000J0D01*
G01*
X130260000Y-110015000D01*
G75*
G02*
X130485000Y-110240000I0J-225000D01*
G01*
G37*
G36*
G01*
X132035000Y-110240000D02*
X132035000Y-110740000D01*
G75*
G02*
X131810000Y-110965000I-225000J0D01*
G01*
X131360000Y-110965000D01*
G75*
G02*
X131135000Y-110740000I0J225000D01*
G01*
X131135000Y-110240000D01*
G75*
G02*
X131360000Y-110015000I225000J0D01*
G01*
X131810000Y-110015000D01*
G75*
G02*
X132035000Y-110240000I0J-225000D01*
G01*
G37*
%TD*%
%TO.C,C1*%
G36*
G01*
X103333000Y-108335000D02*
X103333000Y-108835000D01*
G75*
G02*
X103108000Y-109060000I-225000J0D01*
G01*
X102658000Y-109060000D01*
G75*
G02*
X102433000Y-108835000I0J225000D01*
G01*
X102433000Y-108335000D01*
G75*
G02*
X102658000Y-108110000I225000J0D01*
G01*
X103108000Y-108110000D01*
G75*
G02*
X103333000Y-108335000I0J-225000D01*
G01*
G37*
G36*
G01*
X101783000Y-108335000D02*
X101783000Y-108835000D01*
G75*
G02*
X101558000Y-109060000I-225000J0D01*
G01*
X101108000Y-109060000D01*
G75*
G02*
X100883000Y-108835000I0J225000D01*
G01*
X100883000Y-108335000D01*
G75*
G02*
X101108000Y-108110000I225000J0D01*
G01*
X101558000Y-108110000D01*
G75*
G02*
X101783000Y-108335000I0J-225000D01*
G01*
G37*
%TD*%
D21*
%TO.C,U10*%
X147320000Y-103454200D03*
X147320000Y-106857800D03*
%TD*%
%TO.C,U9*%
X151130000Y-106857800D03*
X151130000Y-103454200D03*
%TD*%
%TO.C,U8*%
X147320000Y-113969800D03*
X147320000Y-110566200D03*
%TD*%
%TO.C,U7*%
X151130000Y-110566200D03*
X151130000Y-113969800D03*
%TD*%
%TO.C,U6*%
X147320000Y-89230200D03*
X147320000Y-92633800D03*
%TD*%
%TO.C,U5*%
X151130000Y-92633800D03*
X151130000Y-89230200D03*
%TD*%
%TO.C,U4*%
X147320000Y-99745800D03*
X147320000Y-96342200D03*
%TD*%
%TO.C,U3*%
X151130000Y-96342200D03*
X151130000Y-99745800D03*
%TD*%
M02*
