%TF.GenerationSoftware,KiCad,Pcbnew,5.1.9-2.fc34*%
%TF.CreationDate,2021-04-30T18:49:43-07:00*%
%TF.ProjectId,motorbrainz,6d6f746f-7262-4726-9169-6e7a2e6b6963,1.0*%
%TF.SameCoordinates,Original*%
%TF.FileFunction,Legend,Bot*%
%TF.FilePolarity,Positive*%
%FSLAX46Y46*%
G04 Gerber Fmt 4.6, Leading zero omitted, Abs format (unit mm)*
G04 Created by KiCad (PCBNEW 5.1.9-2.fc34) date 2021-04-30 18:49:43*
%MOMM*%
%LPD*%
G01*
G04 APERTURE LIST*
%ADD10C,0.150000*%
%ADD11C,0.120000*%
%ADD12C,0.100000*%
G04 APERTURE END LIST*
D10*
X148979380Y-95790476D02*
X148312714Y-95790476D01*
X148407952Y-95790476D02*
X148360333Y-95838095D01*
X148312714Y-95933333D01*
X148312714Y-96076190D01*
X148360333Y-96171428D01*
X148455571Y-96219047D01*
X148979380Y-96219047D01*
X148455571Y-96219047D02*
X148360333Y-96266666D01*
X148312714Y-96361904D01*
X148312714Y-96504761D01*
X148360333Y-96600000D01*
X148455571Y-96647619D01*
X148979380Y-96647619D01*
X148979380Y-97266666D02*
X148931761Y-97171428D01*
X148884142Y-97123809D01*
X148788904Y-97076190D01*
X148503190Y-97076190D01*
X148407952Y-97123809D01*
X148360333Y-97171428D01*
X148312714Y-97266666D01*
X148312714Y-97409523D01*
X148360333Y-97504761D01*
X148407952Y-97552380D01*
X148503190Y-97600000D01*
X148788904Y-97600000D01*
X148884142Y-97552380D01*
X148931761Y-97504761D01*
X148979380Y-97409523D01*
X148979380Y-97266666D01*
X148312714Y-97885714D02*
X148312714Y-98266666D01*
X147979380Y-98028571D02*
X148836523Y-98028571D01*
X148931761Y-98076190D01*
X148979380Y-98171428D01*
X148979380Y-98266666D01*
X148979380Y-98742857D02*
X148931761Y-98647619D01*
X148884142Y-98600000D01*
X148788904Y-98552380D01*
X148503190Y-98552380D01*
X148407952Y-98600000D01*
X148360333Y-98647619D01*
X148312714Y-98742857D01*
X148312714Y-98885714D01*
X148360333Y-98980952D01*
X148407952Y-99028571D01*
X148503190Y-99076190D01*
X148788904Y-99076190D01*
X148884142Y-99028571D01*
X148931761Y-98980952D01*
X148979380Y-98885714D01*
X148979380Y-98742857D01*
X148979380Y-99504761D02*
X148312714Y-99504761D01*
X148503190Y-99504761D02*
X148407952Y-99552380D01*
X148360333Y-99600000D01*
X148312714Y-99695238D01*
X148312714Y-99790476D01*
X148979380Y-100123809D02*
X147979380Y-100123809D01*
X148360333Y-100123809D02*
X148312714Y-100219047D01*
X148312714Y-100409523D01*
X148360333Y-100504761D01*
X148407952Y-100552380D01*
X148503190Y-100600000D01*
X148788904Y-100600000D01*
X148884142Y-100552380D01*
X148931761Y-100504761D01*
X148979380Y-100409523D01*
X148979380Y-100219047D01*
X148931761Y-100123809D01*
X148979380Y-101028571D02*
X148312714Y-101028571D01*
X148503190Y-101028571D02*
X148407952Y-101076190D01*
X148360333Y-101123809D01*
X148312714Y-101219047D01*
X148312714Y-101314285D01*
X148979380Y-102076190D02*
X148455571Y-102076190D01*
X148360333Y-102028571D01*
X148312714Y-101933333D01*
X148312714Y-101742857D01*
X148360333Y-101647619D01*
X148931761Y-102076190D02*
X148979380Y-101980952D01*
X148979380Y-101742857D01*
X148931761Y-101647619D01*
X148836523Y-101600000D01*
X148741285Y-101600000D01*
X148646047Y-101647619D01*
X148598428Y-101742857D01*
X148598428Y-101980952D01*
X148550809Y-102076190D01*
X148979380Y-102552380D02*
X148312714Y-102552380D01*
X147979380Y-102552380D02*
X148027000Y-102504761D01*
X148074619Y-102552380D01*
X148027000Y-102600000D01*
X147979380Y-102552380D01*
X148074619Y-102552380D01*
X148312714Y-103028571D02*
X148979380Y-103028571D01*
X148407952Y-103028571D02*
X148360333Y-103076190D01*
X148312714Y-103171428D01*
X148312714Y-103314285D01*
X148360333Y-103409523D01*
X148455571Y-103457142D01*
X148979380Y-103457142D01*
X148312714Y-103838095D02*
X148312714Y-104361904D01*
X148979380Y-103838095D01*
X148979380Y-104361904D01*
X148074619Y-105457142D02*
X148027000Y-105504761D01*
X147979380Y-105600000D01*
X147979380Y-105838095D01*
X148027000Y-105933333D01*
X148074619Y-105980952D01*
X148169857Y-106028571D01*
X148265095Y-106028571D01*
X148407952Y-105980952D01*
X148979380Y-105409523D01*
X148979380Y-106028571D01*
X148884142Y-106457142D02*
X148931761Y-106504761D01*
X148979380Y-106457142D01*
X148931761Y-106409523D01*
X148884142Y-106457142D01*
X148979380Y-106457142D01*
X147979380Y-107123809D02*
X147979380Y-107219047D01*
X148027000Y-107314285D01*
X148074619Y-107361904D01*
X148169857Y-107409523D01*
X148360333Y-107457142D01*
X148598428Y-107457142D01*
X148788904Y-107409523D01*
X148884142Y-107361904D01*
X148931761Y-107314285D01*
X148979380Y-107219047D01*
X148979380Y-107123809D01*
X148931761Y-107028571D01*
X148884142Y-106980952D01*
X148788904Y-106933333D01*
X148598428Y-106885714D01*
X148360333Y-106885714D01*
X148169857Y-106933333D01*
X148074619Y-106980952D01*
X148027000Y-107028571D01*
X147979380Y-107123809D01*
X149867476Y-95219047D02*
X149819857Y-95123809D01*
X149819857Y-94933333D01*
X149867476Y-94838095D01*
X149962714Y-94742857D01*
X150057952Y-94695238D01*
X150248428Y-94695238D01*
X150343666Y-94742857D01*
X150438904Y-94838095D01*
X150486523Y-94933333D01*
X150486523Y-95123809D01*
X150438904Y-95219047D01*
X149486523Y-95028571D02*
X149534142Y-94790476D01*
X149677000Y-94552380D01*
X149915095Y-94409523D01*
X150153190Y-94361904D01*
X150391285Y-94409523D01*
X150629380Y-94552380D01*
X150772238Y-94790476D01*
X150819857Y-95028571D01*
X150772238Y-95266666D01*
X150629380Y-95504761D01*
X150391285Y-95647619D01*
X150153190Y-95695238D01*
X149915095Y-95647619D01*
X149677000Y-95504761D01*
X149534142Y-95266666D01*
X149486523Y-95028571D01*
X149724619Y-96838095D02*
X149677000Y-96885714D01*
X149629380Y-96980952D01*
X149629380Y-97219047D01*
X149677000Y-97314285D01*
X149724619Y-97361904D01*
X149819857Y-97409523D01*
X149915095Y-97409523D01*
X150057952Y-97361904D01*
X150629380Y-96790476D01*
X150629380Y-97409523D01*
X149629380Y-98028571D02*
X149629380Y-98123809D01*
X149677000Y-98219047D01*
X149724619Y-98266666D01*
X149819857Y-98314285D01*
X150010333Y-98361904D01*
X150248428Y-98361904D01*
X150438904Y-98314285D01*
X150534142Y-98266666D01*
X150581761Y-98219047D01*
X150629380Y-98123809D01*
X150629380Y-98028571D01*
X150581761Y-97933333D01*
X150534142Y-97885714D01*
X150438904Y-97838095D01*
X150248428Y-97790476D01*
X150010333Y-97790476D01*
X149819857Y-97838095D01*
X149724619Y-97885714D01*
X149677000Y-97933333D01*
X149629380Y-98028571D01*
X149724619Y-98742857D02*
X149677000Y-98790476D01*
X149629380Y-98885714D01*
X149629380Y-99123809D01*
X149677000Y-99219047D01*
X149724619Y-99266666D01*
X149819857Y-99314285D01*
X149915095Y-99314285D01*
X150057952Y-99266666D01*
X150629380Y-98695238D01*
X150629380Y-99314285D01*
X150629380Y-100266666D02*
X150629380Y-99695238D01*
X150629380Y-99980952D02*
X149629380Y-99980952D01*
X149772238Y-99885714D01*
X149867476Y-99790476D01*
X149915095Y-99695238D01*
X150629380Y-102028571D02*
X150153190Y-101695238D01*
X150629380Y-101457142D02*
X149629380Y-101457142D01*
X149629380Y-101838095D01*
X149677000Y-101933333D01*
X149724619Y-101980952D01*
X149819857Y-102028571D01*
X149962714Y-102028571D01*
X150057952Y-101980952D01*
X150105571Y-101933333D01*
X150153190Y-101838095D01*
X150153190Y-101457142D01*
X150629380Y-102600000D02*
X150581761Y-102504761D01*
X150534142Y-102457142D01*
X150438904Y-102409523D01*
X150153190Y-102409523D01*
X150057952Y-102457142D01*
X150010333Y-102504761D01*
X149962714Y-102600000D01*
X149962714Y-102742857D01*
X150010333Y-102838095D01*
X150057952Y-102885714D01*
X150153190Y-102933333D01*
X150438904Y-102933333D01*
X150534142Y-102885714D01*
X150581761Y-102838095D01*
X150629380Y-102742857D01*
X150629380Y-102600000D01*
X150581761Y-103314285D02*
X150629380Y-103409523D01*
X150629380Y-103600000D01*
X150581761Y-103695238D01*
X150486523Y-103742857D01*
X150438904Y-103742857D01*
X150343666Y-103695238D01*
X150296047Y-103600000D01*
X150296047Y-103457142D01*
X150248428Y-103361904D01*
X150153190Y-103314285D01*
X150105571Y-103314285D01*
X150010333Y-103361904D01*
X149962714Y-103457142D01*
X149962714Y-103600000D01*
X150010333Y-103695238D01*
X150581761Y-104123809D02*
X150629380Y-104219047D01*
X150629380Y-104409523D01*
X150581761Y-104504761D01*
X150486523Y-104552380D01*
X150438904Y-104552380D01*
X150343666Y-104504761D01*
X150296047Y-104409523D01*
X150296047Y-104266666D01*
X150248428Y-104171428D01*
X150153190Y-104123809D01*
X150105571Y-104123809D01*
X150010333Y-104171428D01*
X149962714Y-104266666D01*
X149962714Y-104409523D01*
X150010333Y-104504761D01*
X149629380Y-105600000D02*
X149629380Y-106171428D01*
X150629380Y-105885714D02*
X149629380Y-105885714D01*
X149962714Y-106409523D02*
X150629380Y-106647619D01*
X149962714Y-106885714D02*
X150629380Y-106647619D01*
X150867476Y-106552380D01*
X150915095Y-106504761D01*
X150962714Y-106409523D01*
X150629380Y-107409523D02*
X150581761Y-107314285D01*
X150486523Y-107266666D01*
X149629380Y-107266666D01*
X150581761Y-108171428D02*
X150629380Y-108076190D01*
X150629380Y-107885714D01*
X150581761Y-107790476D01*
X150486523Y-107742857D01*
X150105571Y-107742857D01*
X150010333Y-107790476D01*
X149962714Y-107885714D01*
X149962714Y-108076190D01*
X150010333Y-108171428D01*
X150105571Y-108219047D01*
X150200809Y-108219047D01*
X150296047Y-107742857D01*
X150629380Y-108647619D02*
X149962714Y-108647619D01*
X150153190Y-108647619D02*
X150057952Y-108695238D01*
X150010333Y-108742857D01*
X149962714Y-108838095D01*
X149962714Y-108933333D01*
X102117678Y-97173071D02*
X102117678Y-96923071D01*
X102510535Y-96923071D02*
X101760535Y-96923071D01*
X101760535Y-97280214D01*
X102510535Y-97673071D02*
X102474821Y-97601642D01*
X102439107Y-97565928D01*
X102367678Y-97530214D01*
X102153392Y-97530214D01*
X102081964Y-97565928D01*
X102046250Y-97601642D01*
X102010535Y-97673071D01*
X102010535Y-97780214D01*
X102046250Y-97851642D01*
X102081964Y-97887357D01*
X102153392Y-97923071D01*
X102367678Y-97923071D01*
X102439107Y-97887357D01*
X102474821Y-97851642D01*
X102510535Y-97780214D01*
X102510535Y-97673071D01*
X102510535Y-98244500D02*
X102010535Y-98244500D01*
X102153392Y-98244500D02*
X102081964Y-98280214D01*
X102046250Y-98315928D01*
X102010535Y-98387357D01*
X102010535Y-98458785D01*
X102010535Y-99208785D02*
X102510535Y-99351642D01*
X102153392Y-99494500D01*
X102510535Y-99637357D01*
X102010535Y-99780214D01*
X102510535Y-100065928D02*
X102010535Y-100065928D01*
X101760535Y-100065928D02*
X101796250Y-100030214D01*
X101831964Y-100065928D01*
X101796250Y-100101642D01*
X101760535Y-100065928D01*
X101831964Y-100065928D01*
X102510535Y-100423071D02*
X102010535Y-100423071D01*
X102153392Y-100423071D02*
X102081964Y-100458785D01*
X102046250Y-100494500D01*
X102010535Y-100565928D01*
X102010535Y-100637357D01*
X102474821Y-101173071D02*
X102510535Y-101101642D01*
X102510535Y-100958785D01*
X102474821Y-100887357D01*
X102403392Y-100851642D01*
X102117678Y-100851642D01*
X102046250Y-100887357D01*
X102010535Y-100958785D01*
X102010535Y-101101642D01*
X102046250Y-101173071D01*
X102117678Y-101208785D01*
X102189107Y-101208785D01*
X102260535Y-100851642D01*
X102510535Y-101851642D02*
X101760535Y-101851642D01*
X102474821Y-101851642D02*
X102510535Y-101780214D01*
X102510535Y-101637357D01*
X102474821Y-101565928D01*
X102439107Y-101530214D01*
X102367678Y-101494500D01*
X102153392Y-101494500D01*
X102081964Y-101530214D01*
X102046250Y-101565928D01*
X102010535Y-101637357D01*
X102010535Y-101780214D01*
X102046250Y-101851642D01*
X102474821Y-102744500D02*
X102510535Y-102815928D01*
X102510535Y-102958785D01*
X102474821Y-103030214D01*
X102403392Y-103065928D01*
X102367678Y-103065928D01*
X102296250Y-103030214D01*
X102260535Y-102958785D01*
X102260535Y-102851642D01*
X102224821Y-102780214D01*
X102153392Y-102744500D01*
X102117678Y-102744500D01*
X102046250Y-102780214D01*
X102010535Y-102851642D01*
X102010535Y-102958785D01*
X102046250Y-103030214D01*
X102010535Y-103315928D02*
X102510535Y-103458785D01*
X102153392Y-103601642D01*
X102510535Y-103744500D01*
X102010535Y-103887357D01*
X102510535Y-104173071D02*
X102010535Y-104173071D01*
X101760535Y-104173071D02*
X101796250Y-104137357D01*
X101831964Y-104173071D01*
X101796250Y-104208785D01*
X101760535Y-104173071D01*
X101831964Y-104173071D01*
X102010535Y-104423071D02*
X102010535Y-104708785D01*
X101760535Y-104530214D02*
X102403392Y-104530214D01*
X102474821Y-104565928D01*
X102510535Y-104637357D01*
X102510535Y-104708785D01*
X102474821Y-105280214D02*
X102510535Y-105208785D01*
X102510535Y-105065928D01*
X102474821Y-104994500D01*
X102439107Y-104958785D01*
X102367678Y-104923071D01*
X102153392Y-104923071D01*
X102081964Y-104958785D01*
X102046250Y-104994500D01*
X102010535Y-105065928D01*
X102010535Y-105208785D01*
X102046250Y-105280214D01*
X102510535Y-105601642D02*
X101760535Y-105601642D01*
X102510535Y-105923071D02*
X102117678Y-105923071D01*
X102046250Y-105887357D01*
X102010535Y-105815928D01*
X102010535Y-105708785D01*
X102046250Y-105637357D01*
X102081964Y-105601642D01*
X102474821Y-106565928D02*
X102510535Y-106494500D01*
X102510535Y-106351642D01*
X102474821Y-106280214D01*
X102403392Y-106244500D01*
X102117678Y-106244500D01*
X102046250Y-106280214D01*
X102010535Y-106351642D01*
X102010535Y-106494500D01*
X102046250Y-106565928D01*
X102117678Y-106601642D01*
X102189107Y-106601642D01*
X102260535Y-106244500D01*
X102474821Y-106887357D02*
X102510535Y-106958785D01*
X102510535Y-107101642D01*
X102474821Y-107173071D01*
X102403392Y-107208785D01*
X102367678Y-107208785D01*
X102296250Y-107173071D01*
X102260535Y-107101642D01*
X102260535Y-106994500D01*
X102224821Y-106923071D01*
X102153392Y-106887357D01*
X102117678Y-106887357D01*
X102046250Y-106923071D01*
X102010535Y-106994500D01*
X102010535Y-107101642D01*
X102046250Y-107173071D01*
X102439107Y-107530214D02*
X102474821Y-107565928D01*
X102510535Y-107530214D01*
X102474821Y-107494500D01*
X102439107Y-107530214D01*
X102510535Y-107530214D01*
X102046250Y-107530214D02*
X102081964Y-107565928D01*
X102117678Y-107530214D01*
X102081964Y-107494500D01*
X102046250Y-107530214D01*
X102117678Y-107530214D01*
X103785535Y-96923071D02*
X103035535Y-96923071D01*
X103035535Y-97208785D01*
X103071250Y-97280214D01*
X103106964Y-97315928D01*
X103178392Y-97351642D01*
X103285535Y-97351642D01*
X103356964Y-97315928D01*
X103392678Y-97280214D01*
X103428392Y-97208785D01*
X103428392Y-96923071D01*
X103285535Y-97994500D02*
X103785535Y-97994500D01*
X103285535Y-97673071D02*
X103678392Y-97673071D01*
X103749821Y-97708785D01*
X103785535Y-97780214D01*
X103785535Y-97887357D01*
X103749821Y-97958785D01*
X103714107Y-97994500D01*
X103785535Y-98458785D02*
X103749821Y-98387357D01*
X103678392Y-98351642D01*
X103035535Y-98351642D01*
X103785535Y-98851642D02*
X103749821Y-98780214D01*
X103678392Y-98744500D01*
X103035535Y-98744500D01*
X104560535Y-97244500D02*
X105060535Y-97244500D01*
X104560535Y-96923071D02*
X104953392Y-96923071D01*
X105024821Y-96958785D01*
X105060535Y-97030214D01*
X105060535Y-97137357D01*
X105024821Y-97208785D01*
X104989107Y-97244500D01*
X104560535Y-97601642D02*
X105310535Y-97601642D01*
X104596250Y-97601642D02*
X104560535Y-97673071D01*
X104560535Y-97815928D01*
X104596250Y-97887357D01*
X104631964Y-97923071D01*
X104703392Y-97958785D01*
X104917678Y-97958785D01*
X104989107Y-97923071D01*
X105024821Y-97887357D01*
X105060535Y-97815928D01*
X105060535Y-97673071D01*
X105024821Y-97601642D01*
X105346250Y-99065928D02*
X105310535Y-99030214D01*
X105203392Y-98958785D01*
X105131964Y-98923071D01*
X105024821Y-98887357D01*
X104846250Y-98851642D01*
X104703392Y-98851642D01*
X104524821Y-98887357D01*
X104417678Y-98923071D01*
X104346250Y-98958785D01*
X104239107Y-99030214D01*
X104203392Y-99065928D01*
X105060535Y-99887357D02*
X104489107Y-99887357D01*
X105024821Y-99851642D02*
X104524821Y-99851642D01*
X105024821Y-99815928D02*
X104524821Y-99815928D01*
X104989107Y-99780214D02*
X104560535Y-99780214D01*
X104989107Y-99744500D02*
X104560535Y-99744500D01*
X104953392Y-99708785D02*
X104596250Y-99708785D01*
X104953392Y-99673071D02*
X104596250Y-99673071D01*
X104917678Y-99637357D02*
X104631964Y-99637357D01*
X104881964Y-99601642D02*
X104667678Y-99601642D01*
X104881964Y-99565928D02*
X104667678Y-99565928D01*
X104846250Y-99530214D02*
X104703392Y-99530214D01*
X104846250Y-99494500D02*
X104703392Y-99494500D01*
X104774821Y-99458785D02*
X104774821Y-99423071D01*
X104810535Y-99458785D02*
X104739107Y-99458785D01*
X105060535Y-99923071D02*
X104774821Y-99387357D01*
X104489107Y-99923071D01*
X104774821Y-99351642D02*
X104453392Y-99923071D01*
X105096250Y-99923071D01*
X104774821Y-99351642D01*
X105024821Y-100315928D02*
X105060535Y-100315928D01*
X105131964Y-100280214D01*
X105167678Y-100244500D01*
X104774821Y-101208785D02*
X104774821Y-101780214D01*
X105060535Y-101494500D02*
X104489107Y-101494500D01*
X104310535Y-102065928D02*
X104310535Y-102530214D01*
X104596250Y-102280214D01*
X104596250Y-102387357D01*
X104631964Y-102458785D01*
X104667678Y-102494500D01*
X104739107Y-102530214D01*
X104917678Y-102530214D01*
X104989107Y-102494500D01*
X105024821Y-102458785D01*
X105060535Y-102387357D01*
X105060535Y-102173071D01*
X105024821Y-102101642D01*
X104989107Y-102065928D01*
X104310535Y-102744500D02*
X105060535Y-102994500D01*
X104310535Y-103244500D01*
X104310535Y-103423071D02*
X104310535Y-103887357D01*
X104596250Y-103637357D01*
X104596250Y-103744500D01*
X104631964Y-103815928D01*
X104667678Y-103851642D01*
X104739107Y-103887357D01*
X104917678Y-103887357D01*
X104989107Y-103851642D01*
X105024821Y-103815928D01*
X105060535Y-103744500D01*
X105060535Y-103530214D01*
X105024821Y-103458785D01*
X104989107Y-103423071D01*
X105346250Y-104137357D02*
X105310535Y-104173071D01*
X105203392Y-104244500D01*
X105131964Y-104280214D01*
X105024821Y-104315928D01*
X104846250Y-104351642D01*
X104703392Y-104351642D01*
X104524821Y-104315928D01*
X104417678Y-104280214D01*
X104346250Y-104244500D01*
X104239107Y-104173071D01*
X104203392Y-104137357D01*
X105060535Y-105387357D02*
X105024821Y-105315928D01*
X104989107Y-105280214D01*
X104917678Y-105244500D01*
X104703392Y-105244500D01*
X104631964Y-105280214D01*
X104596250Y-105315928D01*
X104560535Y-105387357D01*
X104560535Y-105494500D01*
X104596250Y-105565928D01*
X104631964Y-105601642D01*
X104703392Y-105637357D01*
X104917678Y-105637357D01*
X104989107Y-105601642D01*
X105024821Y-105565928D01*
X105060535Y-105494500D01*
X105060535Y-105387357D01*
X105060535Y-105958785D02*
X104560535Y-105958785D01*
X104703392Y-105958785D02*
X104631964Y-105994500D01*
X104596250Y-106030214D01*
X104560535Y-106101642D01*
X104560535Y-106173071D01*
X105060535Y-107315928D02*
X104310535Y-107315928D01*
X105024821Y-107315928D02*
X105060535Y-107244500D01*
X105060535Y-107101642D01*
X105024821Y-107030214D01*
X104989107Y-106994500D01*
X104917678Y-106958785D01*
X104703392Y-106958785D01*
X104631964Y-106994500D01*
X104596250Y-107030214D01*
X104560535Y-107101642D01*
X104560535Y-107244500D01*
X104596250Y-107315928D01*
X105060535Y-107780214D02*
X105024821Y-107708785D01*
X104989107Y-107673071D01*
X104917678Y-107637357D01*
X104703392Y-107637357D01*
X104631964Y-107673071D01*
X104596250Y-107708785D01*
X104560535Y-107780214D01*
X104560535Y-107887357D01*
X104596250Y-107958785D01*
X104631964Y-107994500D01*
X104703392Y-108030214D01*
X104917678Y-108030214D01*
X104989107Y-107994500D01*
X105024821Y-107958785D01*
X105060535Y-107887357D01*
X105060535Y-107780214D01*
X104560535Y-108280214D02*
X105060535Y-108423071D01*
X104703392Y-108565928D01*
X105060535Y-108708785D01*
X104560535Y-108851642D01*
X104560535Y-109137357D02*
X105060535Y-109137357D01*
X104631964Y-109137357D02*
X104596250Y-109173071D01*
X104560535Y-109244500D01*
X104560535Y-109351642D01*
X104596250Y-109423071D01*
X104667678Y-109458785D01*
X105060535Y-109458785D01*
X105346250Y-110601642D02*
X105310535Y-110565928D01*
X105203392Y-110494500D01*
X105131964Y-110458785D01*
X105024821Y-110423071D01*
X104846250Y-110387357D01*
X104703392Y-110387357D01*
X104524821Y-110423071D01*
X104417678Y-110458785D01*
X104346250Y-110494500D01*
X104239107Y-110565928D01*
X104203392Y-110601642D01*
X104774821Y-111458785D02*
X105096250Y-110887357D01*
X104453392Y-110887357D01*
X104774821Y-111458785D01*
X105024821Y-111851642D02*
X105060535Y-111851642D01*
X105131964Y-111815928D01*
X105167678Y-111780214D01*
X104346250Y-113137357D02*
X104310535Y-113065928D01*
X104310535Y-112958785D01*
X104346250Y-112851642D01*
X104417678Y-112780214D01*
X104489107Y-112744500D01*
X104631964Y-112708785D01*
X104739107Y-112708785D01*
X104881964Y-112744500D01*
X104953392Y-112780214D01*
X105024821Y-112851642D01*
X105060535Y-112958785D01*
X105060535Y-113030214D01*
X105024821Y-113137357D01*
X104989107Y-113173071D01*
X104739107Y-113173071D01*
X104739107Y-113030214D01*
X105060535Y-113494500D02*
X104310535Y-113494500D01*
X105060535Y-113923071D01*
X104310535Y-113923071D01*
X105060535Y-114280214D02*
X104310535Y-114280214D01*
X104310535Y-114458785D01*
X104346250Y-114565928D01*
X104417678Y-114637357D01*
X104489107Y-114673071D01*
X104631964Y-114708785D01*
X104739107Y-114708785D01*
X104881964Y-114673071D01*
X104953392Y-114637357D01*
X105024821Y-114565928D01*
X105060535Y-114458785D01*
X105060535Y-114280214D01*
X105346250Y-114958785D02*
X105310535Y-114994500D01*
X105203392Y-115065928D01*
X105131964Y-115101642D01*
X105024821Y-115137357D01*
X104846250Y-115173071D01*
X104703392Y-115173071D01*
X104524821Y-115137357D01*
X104417678Y-115101642D01*
X104346250Y-115065928D01*
X104239107Y-114994500D01*
X104203392Y-114958785D01*
X106335535Y-97244500D02*
X105942678Y-97244500D01*
X105871250Y-97208785D01*
X105835535Y-97137357D01*
X105835535Y-96994500D01*
X105871250Y-96923071D01*
X106299821Y-97244500D02*
X106335535Y-97173071D01*
X106335535Y-96994500D01*
X106299821Y-96923071D01*
X106228392Y-96887357D01*
X106156964Y-96887357D01*
X106085535Y-96923071D01*
X106049821Y-96994500D01*
X106049821Y-97173071D01*
X106014107Y-97244500D01*
X105835535Y-97601642D02*
X106335535Y-97601642D01*
X105906964Y-97601642D02*
X105871250Y-97637357D01*
X105835535Y-97708785D01*
X105835535Y-97815928D01*
X105871250Y-97887357D01*
X105942678Y-97923071D01*
X106335535Y-97923071D01*
X106335535Y-98958785D02*
X106299821Y-98887357D01*
X106264107Y-98851642D01*
X106192678Y-98815928D01*
X105978392Y-98815928D01*
X105906964Y-98851642D01*
X105871250Y-98887357D01*
X105835535Y-98958785D01*
X105835535Y-99065928D01*
X105871250Y-99137357D01*
X105906964Y-99173071D01*
X105978392Y-99208785D01*
X106192678Y-99208785D01*
X106264107Y-99173071D01*
X106299821Y-99137357D01*
X106335535Y-99065928D01*
X106335535Y-98958785D01*
X105835535Y-99530214D02*
X106585535Y-99530214D01*
X105871250Y-99530214D02*
X105835535Y-99601642D01*
X105835535Y-99744500D01*
X105871250Y-99815928D01*
X105906964Y-99851642D01*
X105978392Y-99887357D01*
X106192678Y-99887357D01*
X106264107Y-99851642D01*
X106299821Y-99815928D01*
X106335535Y-99744500D01*
X106335535Y-99601642D01*
X106299821Y-99530214D01*
X106299821Y-100494500D02*
X106335535Y-100423071D01*
X106335535Y-100280214D01*
X106299821Y-100208785D01*
X106228392Y-100173071D01*
X105942678Y-100173071D01*
X105871250Y-100208785D01*
X105835535Y-100280214D01*
X105835535Y-100423071D01*
X105871250Y-100494500D01*
X105942678Y-100530214D01*
X106014107Y-100530214D01*
X106085535Y-100173071D01*
X105835535Y-100851642D02*
X106335535Y-100851642D01*
X105906964Y-100851642D02*
X105871250Y-100887357D01*
X105835535Y-100958785D01*
X105835535Y-101065928D01*
X105871250Y-101137357D01*
X105942678Y-101173071D01*
X106335535Y-101173071D01*
X106299821Y-102065928D02*
X106335535Y-102137357D01*
X106335535Y-102280214D01*
X106299821Y-102351642D01*
X106228392Y-102387357D01*
X106192678Y-102387357D01*
X106121250Y-102351642D01*
X106085535Y-102280214D01*
X106085535Y-102173071D01*
X106049821Y-102101642D01*
X105978392Y-102065928D01*
X105942678Y-102065928D01*
X105871250Y-102101642D01*
X105835535Y-102173071D01*
X105835535Y-102280214D01*
X105871250Y-102351642D01*
X105835535Y-102637357D02*
X106335535Y-102780214D01*
X105978392Y-102923071D01*
X106335535Y-103065928D01*
X105835535Y-103208785D01*
X106335535Y-103494500D02*
X105835535Y-103494500D01*
X105585535Y-103494500D02*
X105621250Y-103458785D01*
X105656964Y-103494500D01*
X105621250Y-103530214D01*
X105585535Y-103494500D01*
X105656964Y-103494500D01*
X105835535Y-103744500D02*
X105835535Y-104030214D01*
X105585535Y-103851642D02*
X106228392Y-103851642D01*
X106299821Y-103887357D01*
X106335535Y-103958785D01*
X106335535Y-104030214D01*
X106299821Y-104601642D02*
X106335535Y-104530214D01*
X106335535Y-104387357D01*
X106299821Y-104315928D01*
X106264107Y-104280214D01*
X106192678Y-104244500D01*
X105978392Y-104244500D01*
X105906964Y-104280214D01*
X105871250Y-104315928D01*
X105835535Y-104387357D01*
X105835535Y-104530214D01*
X105871250Y-104601642D01*
X106335535Y-104923071D02*
X105585535Y-104923071D01*
X106335535Y-105244500D02*
X105942678Y-105244500D01*
X105871250Y-105208785D01*
X105835535Y-105137357D01*
X105835535Y-105030214D01*
X105871250Y-104958785D01*
X105906964Y-104923071D01*
X105835535Y-106101642D02*
X106335535Y-106244500D01*
X105978392Y-106387357D01*
X106335535Y-106530214D01*
X105835535Y-106673071D01*
X106335535Y-106958785D02*
X105835535Y-106958785D01*
X105585535Y-106958785D02*
X105621250Y-106923071D01*
X105656964Y-106958785D01*
X105621250Y-106994500D01*
X105585535Y-106958785D01*
X105656964Y-106958785D01*
X105835535Y-107208785D02*
X105835535Y-107494500D01*
X105585535Y-107315928D02*
X106228392Y-107315928D01*
X106299821Y-107351642D01*
X106335535Y-107423071D01*
X106335535Y-107494500D01*
X106335535Y-107744500D02*
X105585535Y-107744500D01*
X106335535Y-108065928D02*
X105942678Y-108065928D01*
X105871250Y-108030214D01*
X105835535Y-107958785D01*
X105835535Y-107851642D01*
X105871250Y-107780214D01*
X105906964Y-107744500D01*
X106335535Y-109315928D02*
X105942678Y-109315928D01*
X105871250Y-109280214D01*
X105835535Y-109208785D01*
X105835535Y-109065928D01*
X105871250Y-108994500D01*
X106299821Y-109315928D02*
X106335535Y-109244500D01*
X106335535Y-109065928D01*
X106299821Y-108994500D01*
X106228392Y-108958785D01*
X106156964Y-108958785D01*
X106085535Y-108994500D01*
X106049821Y-109065928D01*
X106049821Y-109244500D01*
X106014107Y-109315928D01*
X106335535Y-110244500D02*
X105835535Y-110244500D01*
X105978392Y-110244500D02*
X105906964Y-110280214D01*
X105871250Y-110315928D01*
X105835535Y-110387357D01*
X105835535Y-110458785D01*
X106299821Y-110994500D02*
X106335535Y-110923071D01*
X106335535Y-110780214D01*
X106299821Y-110708785D01*
X106228392Y-110673071D01*
X105942678Y-110673071D01*
X105871250Y-110708785D01*
X105835535Y-110780214D01*
X105835535Y-110923071D01*
X105871250Y-110994500D01*
X105942678Y-111030214D01*
X106014107Y-111030214D01*
X106085535Y-110673071D01*
X106299821Y-111315928D02*
X106335535Y-111387357D01*
X106335535Y-111530214D01*
X106299821Y-111601642D01*
X106228392Y-111637357D01*
X106192678Y-111637357D01*
X106121250Y-111601642D01*
X106085535Y-111530214D01*
X106085535Y-111423071D01*
X106049821Y-111351642D01*
X105978392Y-111315928D01*
X105942678Y-111315928D01*
X105871250Y-111351642D01*
X105835535Y-111423071D01*
X105835535Y-111530214D01*
X105871250Y-111601642D01*
X106335535Y-111958785D02*
X105835535Y-111958785D01*
X105585535Y-111958785D02*
X105621250Y-111923071D01*
X105656964Y-111958785D01*
X105621250Y-111994500D01*
X105585535Y-111958785D01*
X105656964Y-111958785D01*
X106299821Y-112280214D02*
X106335535Y-112351642D01*
X106335535Y-112494500D01*
X106299821Y-112565928D01*
X106228392Y-112601642D01*
X106192678Y-112601642D01*
X106121250Y-112565928D01*
X106085535Y-112494500D01*
X106085535Y-112387357D01*
X106049821Y-112315928D01*
X105978392Y-112280214D01*
X105942678Y-112280214D01*
X105871250Y-112315928D01*
X105835535Y-112387357D01*
X105835535Y-112494500D01*
X105871250Y-112565928D01*
X105835535Y-112815928D02*
X105835535Y-113101642D01*
X105585535Y-112923071D02*
X106228392Y-112923071D01*
X106299821Y-112958785D01*
X106335535Y-113030214D01*
X106335535Y-113101642D01*
X106335535Y-113458785D02*
X106299821Y-113387357D01*
X106264107Y-113351642D01*
X106192678Y-113315928D01*
X105978392Y-113315928D01*
X105906964Y-113351642D01*
X105871250Y-113387357D01*
X105835535Y-113458785D01*
X105835535Y-113565928D01*
X105871250Y-113637357D01*
X105906964Y-113673071D01*
X105978392Y-113708785D01*
X106192678Y-113708785D01*
X106264107Y-113673071D01*
X106299821Y-113637357D01*
X106335535Y-113565928D01*
X106335535Y-113458785D01*
X106335535Y-114030214D02*
X105835535Y-114030214D01*
X105978392Y-114030214D02*
X105906964Y-114065928D01*
X105871250Y-114101642D01*
X105835535Y-114173071D01*
X105835535Y-114244500D01*
X106264107Y-114494500D02*
X106299821Y-114530214D01*
X106335535Y-114494500D01*
X106299821Y-114458785D01*
X106264107Y-114494500D01*
X106335535Y-114494500D01*
X107217678Y-97173071D02*
X107253392Y-97280214D01*
X107289107Y-97315928D01*
X107360535Y-97351642D01*
X107467678Y-97351642D01*
X107539107Y-97315928D01*
X107574821Y-97280214D01*
X107610535Y-97208785D01*
X107610535Y-96923071D01*
X106860535Y-96923071D01*
X106860535Y-97173071D01*
X106896250Y-97244500D01*
X106931964Y-97280214D01*
X107003392Y-97315928D01*
X107074821Y-97315928D01*
X107146250Y-97280214D01*
X107181964Y-97244500D01*
X107217678Y-97173071D01*
X107217678Y-96923071D01*
X107610535Y-97673071D02*
X107110535Y-97673071D01*
X107253392Y-97673071D02*
X107181964Y-97708785D01*
X107146250Y-97744500D01*
X107110535Y-97815928D01*
X107110535Y-97887357D01*
X107610535Y-98137357D02*
X107110535Y-98137357D01*
X106860535Y-98137357D02*
X106896250Y-98101642D01*
X106931964Y-98137357D01*
X106896250Y-98173071D01*
X106860535Y-98137357D01*
X106931964Y-98137357D01*
X107610535Y-98815928D02*
X106860535Y-98815928D01*
X107574821Y-98815928D02*
X107610535Y-98744500D01*
X107610535Y-98601642D01*
X107574821Y-98530214D01*
X107539107Y-98494500D01*
X107467678Y-98458785D01*
X107253392Y-98458785D01*
X107181964Y-98494500D01*
X107146250Y-98530214D01*
X107110535Y-98601642D01*
X107110535Y-98744500D01*
X107146250Y-98815928D01*
X107110535Y-99494500D02*
X107717678Y-99494500D01*
X107789107Y-99458785D01*
X107824821Y-99423071D01*
X107860535Y-99351642D01*
X107860535Y-99244500D01*
X107824821Y-99173071D01*
X107574821Y-99494500D02*
X107610535Y-99423071D01*
X107610535Y-99280214D01*
X107574821Y-99208785D01*
X107539107Y-99173071D01*
X107467678Y-99137357D01*
X107253392Y-99137357D01*
X107181964Y-99173071D01*
X107146250Y-99208785D01*
X107110535Y-99280214D01*
X107110535Y-99423071D01*
X107146250Y-99494500D01*
X107574821Y-100137357D02*
X107610535Y-100065928D01*
X107610535Y-99923071D01*
X107574821Y-99851642D01*
X107503392Y-99815928D01*
X107217678Y-99815928D01*
X107146250Y-99851642D01*
X107110535Y-99923071D01*
X107110535Y-100065928D01*
X107146250Y-100137357D01*
X107217678Y-100173071D01*
X107289107Y-100173071D01*
X107360535Y-99815928D01*
X107610535Y-101173071D02*
X107574821Y-101101642D01*
X107539107Y-101065928D01*
X107467678Y-101030214D01*
X107253392Y-101030214D01*
X107181964Y-101065928D01*
X107146250Y-101101642D01*
X107110535Y-101173071D01*
X107110535Y-101280214D01*
X107146250Y-101351642D01*
X107181964Y-101387357D01*
X107253392Y-101423071D01*
X107467678Y-101423071D01*
X107539107Y-101387357D01*
X107574821Y-101351642D01*
X107610535Y-101280214D01*
X107610535Y-101173071D01*
X107110535Y-101637357D02*
X107110535Y-101923071D01*
X106860535Y-101744500D02*
X107503392Y-101744500D01*
X107574821Y-101780214D01*
X107610535Y-101851642D01*
X107610535Y-101923071D01*
X107610535Y-102173071D02*
X106860535Y-102173071D01*
X107610535Y-102494500D02*
X107217678Y-102494500D01*
X107146250Y-102458785D01*
X107110535Y-102387357D01*
X107110535Y-102280214D01*
X107146250Y-102208785D01*
X107181964Y-102173071D01*
X107574821Y-103137357D02*
X107610535Y-103065928D01*
X107610535Y-102923071D01*
X107574821Y-102851642D01*
X107503392Y-102815928D01*
X107217678Y-102815928D01*
X107146250Y-102851642D01*
X107110535Y-102923071D01*
X107110535Y-103065928D01*
X107146250Y-103137357D01*
X107217678Y-103173071D01*
X107289107Y-103173071D01*
X107360535Y-102815928D01*
X107610535Y-103494500D02*
X107110535Y-103494500D01*
X107253392Y-103494500D02*
X107181964Y-103530214D01*
X107146250Y-103565928D01*
X107110535Y-103637357D01*
X107110535Y-103708785D01*
X107574821Y-104494500D02*
X107610535Y-104565928D01*
X107610535Y-104708785D01*
X107574821Y-104780214D01*
X107503392Y-104815928D01*
X107467678Y-104815928D01*
X107396250Y-104780214D01*
X107360535Y-104708785D01*
X107360535Y-104601642D01*
X107324821Y-104530214D01*
X107253392Y-104494500D01*
X107217678Y-104494500D01*
X107146250Y-104530214D01*
X107110535Y-104601642D01*
X107110535Y-104708785D01*
X107146250Y-104780214D01*
X107610535Y-105137357D02*
X107110535Y-105137357D01*
X106860535Y-105137357D02*
X106896250Y-105101642D01*
X106931964Y-105137357D01*
X106896250Y-105173071D01*
X106860535Y-105137357D01*
X106931964Y-105137357D01*
X107610535Y-105815928D02*
X106860535Y-105815928D01*
X107574821Y-105815928D02*
X107610535Y-105744500D01*
X107610535Y-105601642D01*
X107574821Y-105530214D01*
X107539107Y-105494500D01*
X107467678Y-105458785D01*
X107253392Y-105458785D01*
X107181964Y-105494500D01*
X107146250Y-105530214D01*
X107110535Y-105601642D01*
X107110535Y-105744500D01*
X107146250Y-105815928D01*
X107574821Y-106458785D02*
X107610535Y-106387357D01*
X107610535Y-106244500D01*
X107574821Y-106173071D01*
X107503392Y-106137357D01*
X107217678Y-106137357D01*
X107146250Y-106173071D01*
X107110535Y-106244500D01*
X107110535Y-106387357D01*
X107146250Y-106458785D01*
X107217678Y-106494500D01*
X107289107Y-106494500D01*
X107360535Y-106137357D01*
X107574821Y-106851642D02*
X107610535Y-106851642D01*
X107681964Y-106815928D01*
X107717678Y-106780214D01*
X107610535Y-107744500D02*
X107110535Y-107744500D01*
X107253392Y-107744500D02*
X107181964Y-107780214D01*
X107146250Y-107815928D01*
X107110535Y-107887357D01*
X107110535Y-107958785D01*
X107574821Y-108494500D02*
X107610535Y-108423071D01*
X107610535Y-108280214D01*
X107574821Y-108208785D01*
X107503392Y-108173071D01*
X107217678Y-108173071D01*
X107146250Y-108208785D01*
X107110535Y-108280214D01*
X107110535Y-108423071D01*
X107146250Y-108494500D01*
X107217678Y-108530214D01*
X107289107Y-108530214D01*
X107360535Y-108173071D01*
X107574821Y-108815928D02*
X107610535Y-108887357D01*
X107610535Y-109030214D01*
X107574821Y-109101642D01*
X107503392Y-109137357D01*
X107467678Y-109137357D01*
X107396250Y-109101642D01*
X107360535Y-109030214D01*
X107360535Y-108923071D01*
X107324821Y-108851642D01*
X107253392Y-108815928D01*
X107217678Y-108815928D01*
X107146250Y-108851642D01*
X107110535Y-108923071D01*
X107110535Y-109030214D01*
X107146250Y-109101642D01*
X107110535Y-109458785D02*
X107860535Y-109458785D01*
X107146250Y-109458785D02*
X107110535Y-109530214D01*
X107110535Y-109673071D01*
X107146250Y-109744500D01*
X107181964Y-109780214D01*
X107253392Y-109815928D01*
X107467678Y-109815928D01*
X107539107Y-109780214D01*
X107574821Y-109744500D01*
X107610535Y-109673071D01*
X107610535Y-109530214D01*
X107574821Y-109458785D01*
X107574821Y-110423071D02*
X107610535Y-110351642D01*
X107610535Y-110208785D01*
X107574821Y-110137357D01*
X107503392Y-110101642D01*
X107217678Y-110101642D01*
X107146250Y-110137357D01*
X107110535Y-110208785D01*
X107110535Y-110351642D01*
X107146250Y-110423071D01*
X107217678Y-110458785D01*
X107289107Y-110458785D01*
X107360535Y-110101642D01*
X107574821Y-111101642D02*
X107610535Y-111030214D01*
X107610535Y-110887357D01*
X107574821Y-110815928D01*
X107539107Y-110780214D01*
X107467678Y-110744500D01*
X107253392Y-110744500D01*
X107181964Y-110780214D01*
X107146250Y-110815928D01*
X107110535Y-110887357D01*
X107110535Y-111030214D01*
X107146250Y-111101642D01*
X107110535Y-111315928D02*
X107110535Y-111601642D01*
X106860535Y-111423071D02*
X107503392Y-111423071D01*
X107574821Y-111458785D01*
X107610535Y-111530214D01*
X107610535Y-111601642D01*
X107610535Y-111851642D02*
X107110535Y-111851642D01*
X106860535Y-111851642D02*
X106896250Y-111815928D01*
X106931964Y-111851642D01*
X106896250Y-111887357D01*
X106860535Y-111851642D01*
X106931964Y-111851642D01*
X107110535Y-112137357D02*
X107610535Y-112315928D01*
X107110535Y-112494500D01*
X107574821Y-113065928D02*
X107610535Y-112994500D01*
X107610535Y-112851642D01*
X107574821Y-112780214D01*
X107503392Y-112744500D01*
X107217678Y-112744500D01*
X107146250Y-112780214D01*
X107110535Y-112851642D01*
X107110535Y-112994500D01*
X107146250Y-113065928D01*
X107217678Y-113101642D01*
X107289107Y-113101642D01*
X107360535Y-112744500D01*
X107610535Y-113530214D02*
X107574821Y-113458785D01*
X107503392Y-113423071D01*
X106860535Y-113423071D01*
X107110535Y-113744500D02*
X107610535Y-113923071D01*
X107110535Y-114101642D02*
X107610535Y-113923071D01*
X107789107Y-113851642D01*
X107824821Y-113815928D01*
X107860535Y-113744500D01*
X107574821Y-114423071D02*
X107610535Y-114423071D01*
X107681964Y-114387357D01*
X107717678Y-114351642D01*
X108885535Y-97244500D02*
X108135535Y-97244500D01*
X108849821Y-97244500D02*
X108885535Y-97173071D01*
X108885535Y-97030214D01*
X108849821Y-96958785D01*
X108814107Y-96923071D01*
X108742678Y-96887357D01*
X108528392Y-96887357D01*
X108456964Y-96923071D01*
X108421250Y-96958785D01*
X108385535Y-97030214D01*
X108385535Y-97173071D01*
X108421250Y-97244500D01*
X108885535Y-97708785D02*
X108849821Y-97637357D01*
X108814107Y-97601642D01*
X108742678Y-97565928D01*
X108528392Y-97565928D01*
X108456964Y-97601642D01*
X108421250Y-97637357D01*
X108385535Y-97708785D01*
X108385535Y-97815928D01*
X108421250Y-97887357D01*
X108456964Y-97923071D01*
X108528392Y-97958785D01*
X108742678Y-97958785D01*
X108814107Y-97923071D01*
X108849821Y-97887357D01*
X108885535Y-97815928D01*
X108885535Y-97708785D01*
X108385535Y-98208785D02*
X108885535Y-98351642D01*
X108528392Y-98494500D01*
X108885535Y-98637357D01*
X108385535Y-98780214D01*
X108385535Y-99065928D02*
X108885535Y-99065928D01*
X108456964Y-99065928D02*
X108421250Y-99101642D01*
X108385535Y-99173071D01*
X108385535Y-99280214D01*
X108421250Y-99351642D01*
X108492678Y-99387357D01*
X108885535Y-99387357D01*
X109171250Y-100530214D02*
X109135535Y-100494500D01*
X109028392Y-100423071D01*
X108956964Y-100387357D01*
X108849821Y-100351642D01*
X108671250Y-100315928D01*
X108528392Y-100315928D01*
X108349821Y-100351642D01*
X108242678Y-100387357D01*
X108171250Y-100423071D01*
X108064107Y-100494500D01*
X108028392Y-100530214D01*
X108314107Y-100851642D02*
X108885535Y-100851642D01*
X108349821Y-100887357D02*
X108849821Y-100887357D01*
X108349821Y-100923071D02*
X108849821Y-100923071D01*
X108385535Y-100958785D02*
X108814107Y-100958785D01*
X108385535Y-100994500D02*
X108814107Y-100994500D01*
X108421250Y-101030214D02*
X108778392Y-101030214D01*
X108421250Y-101065928D02*
X108778392Y-101065928D01*
X108456964Y-101101642D02*
X108742678Y-101101642D01*
X108492678Y-101137357D02*
X108706964Y-101137357D01*
X108492678Y-101173071D02*
X108706964Y-101173071D01*
X108528392Y-101208785D02*
X108671250Y-101208785D01*
X108528392Y-101244500D02*
X108671250Y-101244500D01*
X108599821Y-101280214D02*
X108599821Y-101315928D01*
X108564107Y-101280214D02*
X108635535Y-101280214D01*
X108314107Y-100815928D02*
X108599821Y-101351642D01*
X108885535Y-100815928D01*
X108599821Y-101387357D02*
X108921250Y-100815928D01*
X108278392Y-100815928D01*
X108599821Y-101387357D01*
X108849821Y-101780214D02*
X108885535Y-101780214D01*
X108956964Y-101744500D01*
X108992678Y-101708785D01*
X108171250Y-103065928D02*
X108135535Y-102994500D01*
X108135535Y-102887357D01*
X108171250Y-102780214D01*
X108242678Y-102708785D01*
X108314107Y-102673071D01*
X108456964Y-102637357D01*
X108564107Y-102637357D01*
X108706964Y-102673071D01*
X108778392Y-102708785D01*
X108849821Y-102780214D01*
X108885535Y-102887357D01*
X108885535Y-102958785D01*
X108849821Y-103065928D01*
X108814107Y-103101642D01*
X108564107Y-103101642D01*
X108564107Y-102958785D01*
X108885535Y-103423071D02*
X108135535Y-103423071D01*
X108885535Y-103851642D01*
X108135535Y-103851642D01*
X108885535Y-104208785D02*
X108135535Y-104208785D01*
X108135535Y-104387357D01*
X108171250Y-104494500D01*
X108242678Y-104565928D01*
X108314107Y-104601642D01*
X108456964Y-104637357D01*
X108564107Y-104637357D01*
X108706964Y-104601642D01*
X108778392Y-104565928D01*
X108849821Y-104494500D01*
X108885535Y-104387357D01*
X108885535Y-104208785D01*
X109171250Y-104887357D02*
X109135535Y-104923071D01*
X109028392Y-104994500D01*
X108956964Y-105030214D01*
X108849821Y-105065928D01*
X108671250Y-105101642D01*
X108528392Y-105101642D01*
X108349821Y-105065928D01*
X108242678Y-105030214D01*
X108171250Y-104994500D01*
X108064107Y-104923071D01*
X108028392Y-104887357D01*
X108885535Y-106137357D02*
X108849821Y-106065928D01*
X108814107Y-106030214D01*
X108742678Y-105994500D01*
X108528392Y-105994500D01*
X108456964Y-106030214D01*
X108421250Y-106065928D01*
X108385535Y-106137357D01*
X108385535Y-106244500D01*
X108421250Y-106315928D01*
X108456964Y-106351642D01*
X108528392Y-106387357D01*
X108742678Y-106387357D01*
X108814107Y-106351642D01*
X108849821Y-106315928D01*
X108885535Y-106244500D01*
X108885535Y-106137357D01*
X108885535Y-106708785D02*
X108385535Y-106708785D01*
X108528392Y-106708785D02*
X108456964Y-106744500D01*
X108421250Y-106780214D01*
X108385535Y-106851642D01*
X108385535Y-106923071D01*
X108385535Y-108065928D02*
X108885535Y-108065928D01*
X108385535Y-107744500D02*
X108778392Y-107744500D01*
X108849821Y-107780214D01*
X108885535Y-107851642D01*
X108885535Y-107958785D01*
X108849821Y-108030214D01*
X108814107Y-108065928D01*
X108385535Y-108423071D02*
X109135535Y-108423071D01*
X108421250Y-108423071D02*
X108385535Y-108494500D01*
X108385535Y-108637357D01*
X108421250Y-108708785D01*
X108456964Y-108744500D01*
X108528392Y-108780214D01*
X108742678Y-108780214D01*
X108814107Y-108744500D01*
X108849821Y-108708785D01*
X108885535Y-108637357D01*
X108885535Y-108494500D01*
X108849821Y-108423071D01*
X109171250Y-109887357D02*
X109135535Y-109851642D01*
X109028392Y-109780214D01*
X108956964Y-109744500D01*
X108849821Y-109708785D01*
X108671250Y-109673071D01*
X108528392Y-109673071D01*
X108349821Y-109708785D01*
X108242678Y-109744500D01*
X108171250Y-109780214D01*
X108064107Y-109851642D01*
X108028392Y-109887357D01*
X108599821Y-110173071D02*
X108278392Y-110744500D01*
X108921250Y-110744500D01*
X108599821Y-110173071D01*
X108849821Y-111137357D02*
X108885535Y-111137357D01*
X108956964Y-111101642D01*
X108992678Y-111065928D01*
X108599821Y-112030214D02*
X108599821Y-112601642D01*
X108885535Y-112315928D02*
X108314107Y-112315928D01*
X108135535Y-112887357D02*
X108135535Y-113351642D01*
X108421250Y-113101642D01*
X108421250Y-113208785D01*
X108456964Y-113280214D01*
X108492678Y-113315928D01*
X108564107Y-113351642D01*
X108742678Y-113351642D01*
X108814107Y-113315928D01*
X108849821Y-113280214D01*
X108885535Y-113208785D01*
X108885535Y-112994500D01*
X108849821Y-112923071D01*
X108814107Y-112887357D01*
X108135535Y-113565928D02*
X108885535Y-113815928D01*
X108135535Y-114065928D01*
X108135535Y-114244500D02*
X108135535Y-114708785D01*
X108421250Y-114458785D01*
X108421250Y-114565928D01*
X108456964Y-114637357D01*
X108492678Y-114673071D01*
X108564107Y-114708785D01*
X108742678Y-114708785D01*
X108814107Y-114673071D01*
X108849821Y-114637357D01*
X108885535Y-114565928D01*
X108885535Y-114351642D01*
X108849821Y-114280214D01*
X108814107Y-114244500D01*
X109171250Y-114958785D02*
X109135535Y-114994500D01*
X109028392Y-115065928D01*
X108956964Y-115101642D01*
X108849821Y-115137357D01*
X108671250Y-115173071D01*
X108528392Y-115173071D01*
X108349821Y-115137357D01*
X108242678Y-115101642D01*
X108171250Y-115065928D01*
X108064107Y-114994500D01*
X108028392Y-114958785D01*
X109660535Y-96815928D02*
X109660535Y-97101642D01*
X109410535Y-96923071D02*
X110053392Y-96923071D01*
X110124821Y-96958785D01*
X110160535Y-97030214D01*
X110160535Y-97101642D01*
X110160535Y-97458785D02*
X110124821Y-97387357D01*
X110089107Y-97351642D01*
X110017678Y-97315928D01*
X109803392Y-97315928D01*
X109731964Y-97351642D01*
X109696250Y-97387357D01*
X109660535Y-97458785D01*
X109660535Y-97565928D01*
X109696250Y-97637357D01*
X109731964Y-97673071D01*
X109803392Y-97708785D01*
X110017678Y-97708785D01*
X110089107Y-97673071D01*
X110124821Y-97637357D01*
X110160535Y-97565928D01*
X110160535Y-97458785D01*
X110160535Y-98923071D02*
X109767678Y-98923071D01*
X109696250Y-98887357D01*
X109660535Y-98815928D01*
X109660535Y-98673071D01*
X109696250Y-98601642D01*
X110124821Y-98923071D02*
X110160535Y-98851642D01*
X110160535Y-98673071D01*
X110124821Y-98601642D01*
X110053392Y-98565928D01*
X109981964Y-98565928D01*
X109910535Y-98601642D01*
X109874821Y-98673071D01*
X109874821Y-98851642D01*
X109839107Y-98923071D01*
X109660535Y-99173071D02*
X109660535Y-99458785D01*
X110160535Y-99280214D02*
X109517678Y-99280214D01*
X109446250Y-99315928D01*
X109410535Y-99387357D01*
X109410535Y-99458785D01*
X109660535Y-99601642D02*
X109660535Y-99887357D01*
X110160535Y-99708785D02*
X109517678Y-99708785D01*
X109446250Y-99744500D01*
X109410535Y-99815928D01*
X109410535Y-99887357D01*
X110124821Y-100423071D02*
X110160535Y-100351642D01*
X110160535Y-100208785D01*
X110124821Y-100137357D01*
X110053392Y-100101642D01*
X109767678Y-100101642D01*
X109696250Y-100137357D01*
X109660535Y-100208785D01*
X109660535Y-100351642D01*
X109696250Y-100423071D01*
X109767678Y-100458785D01*
X109839107Y-100458785D01*
X109910535Y-100101642D01*
X110124821Y-101101642D02*
X110160535Y-101030214D01*
X110160535Y-100887357D01*
X110124821Y-100815928D01*
X110089107Y-100780214D01*
X110017678Y-100744500D01*
X109803392Y-100744500D01*
X109731964Y-100780214D01*
X109696250Y-100815928D01*
X109660535Y-100887357D01*
X109660535Y-101030214D01*
X109696250Y-101101642D01*
X109660535Y-101315928D02*
X109660535Y-101601642D01*
X109410535Y-101423071D02*
X110053392Y-101423071D01*
X110124821Y-101458785D01*
X110160535Y-101530214D01*
X110160535Y-101601642D01*
X110124821Y-102744500D02*
X110160535Y-102673071D01*
X110160535Y-102530214D01*
X110124821Y-102458785D01*
X110089107Y-102423071D01*
X110017678Y-102387357D01*
X109803392Y-102387357D01*
X109731964Y-102423071D01*
X109696250Y-102458785D01*
X109660535Y-102530214D01*
X109660535Y-102673071D01*
X109696250Y-102744500D01*
X110160535Y-103065928D02*
X109410535Y-103065928D01*
X110160535Y-103387357D02*
X109767678Y-103387357D01*
X109696250Y-103351642D01*
X109660535Y-103280214D01*
X109660535Y-103173071D01*
X109696250Y-103101642D01*
X109731964Y-103065928D01*
X110160535Y-104065928D02*
X109767678Y-104065928D01*
X109696250Y-104030214D01*
X109660535Y-103958785D01*
X109660535Y-103815928D01*
X109696250Y-103744500D01*
X110124821Y-104065928D02*
X110160535Y-103994500D01*
X110160535Y-103815928D01*
X110124821Y-103744500D01*
X110053392Y-103708785D01*
X109981964Y-103708785D01*
X109910535Y-103744500D01*
X109874821Y-103815928D01*
X109874821Y-103994500D01*
X109839107Y-104065928D01*
X109660535Y-104423071D02*
X110160535Y-104423071D01*
X109731964Y-104423071D02*
X109696250Y-104458785D01*
X109660535Y-104530214D01*
X109660535Y-104637357D01*
X109696250Y-104708785D01*
X109767678Y-104744500D01*
X110160535Y-104744500D01*
X109660535Y-105423071D02*
X110267678Y-105423071D01*
X110339107Y-105387357D01*
X110374821Y-105351642D01*
X110410535Y-105280214D01*
X110410535Y-105173071D01*
X110374821Y-105101642D01*
X110124821Y-105423071D02*
X110160535Y-105351642D01*
X110160535Y-105208785D01*
X110124821Y-105137357D01*
X110089107Y-105101642D01*
X110017678Y-105065928D01*
X109803392Y-105065928D01*
X109731964Y-105101642D01*
X109696250Y-105137357D01*
X109660535Y-105208785D01*
X109660535Y-105351642D01*
X109696250Y-105423071D01*
X110124821Y-106065928D02*
X110160535Y-105994500D01*
X110160535Y-105851642D01*
X110124821Y-105780214D01*
X110053392Y-105744500D01*
X109767678Y-105744500D01*
X109696250Y-105780214D01*
X109660535Y-105851642D01*
X109660535Y-105994500D01*
X109696250Y-106065928D01*
X109767678Y-106101642D01*
X109839107Y-106101642D01*
X109910535Y-105744500D01*
X110935535Y-96851642D02*
X111435535Y-96994500D01*
X111078392Y-97137357D01*
X111435535Y-97280214D01*
X110935535Y-97423071D01*
X111435535Y-97708785D02*
X110685535Y-97708785D01*
X111435535Y-98030214D02*
X111042678Y-98030214D01*
X110971250Y-97994500D01*
X110935535Y-97923071D01*
X110935535Y-97815928D01*
X110971250Y-97744500D01*
X111006964Y-97708785D01*
X111399821Y-98673071D02*
X111435535Y-98601642D01*
X111435535Y-98458785D01*
X111399821Y-98387357D01*
X111328392Y-98351642D01*
X111042678Y-98351642D01*
X110971250Y-98387357D01*
X110935535Y-98458785D01*
X110935535Y-98601642D01*
X110971250Y-98673071D01*
X111042678Y-98708785D01*
X111114107Y-98708785D01*
X111185535Y-98351642D01*
X110935535Y-99030214D02*
X111435535Y-99030214D01*
X111006964Y-99030214D02*
X110971250Y-99065928D01*
X110935535Y-99137357D01*
X110935535Y-99244500D01*
X110971250Y-99315928D01*
X111042678Y-99351642D01*
X111435535Y-99351642D01*
X111399821Y-100244500D02*
X111435535Y-100315928D01*
X111435535Y-100458785D01*
X111399821Y-100530214D01*
X111328392Y-100565928D01*
X111292678Y-100565928D01*
X111221250Y-100530214D01*
X111185535Y-100458785D01*
X111185535Y-100351642D01*
X111149821Y-100280214D01*
X111078392Y-100244500D01*
X111042678Y-100244500D01*
X110971250Y-100280214D01*
X110935535Y-100351642D01*
X110935535Y-100458785D01*
X110971250Y-100530214D01*
X110935535Y-100815928D02*
X111435535Y-100958785D01*
X111078392Y-101101642D01*
X111435535Y-101244500D01*
X110935535Y-101387357D01*
X111435535Y-101673071D02*
X110935535Y-101673071D01*
X110685535Y-101673071D02*
X110721250Y-101637357D01*
X110756964Y-101673071D01*
X110721250Y-101708785D01*
X110685535Y-101673071D01*
X110756964Y-101673071D01*
X110935535Y-101923071D02*
X110935535Y-102208785D01*
X110685535Y-102030214D02*
X111328392Y-102030214D01*
X111399821Y-102065928D01*
X111435535Y-102137357D01*
X111435535Y-102208785D01*
X111399821Y-102780214D02*
X111435535Y-102708785D01*
X111435535Y-102565928D01*
X111399821Y-102494500D01*
X111364107Y-102458785D01*
X111292678Y-102423071D01*
X111078392Y-102423071D01*
X111006964Y-102458785D01*
X110971250Y-102494500D01*
X110935535Y-102565928D01*
X110935535Y-102708785D01*
X110971250Y-102780214D01*
X111435535Y-103101642D02*
X110685535Y-103101642D01*
X111435535Y-103423071D02*
X111042678Y-103423071D01*
X110971250Y-103387357D01*
X110935535Y-103315928D01*
X110935535Y-103208785D01*
X110971250Y-103137357D01*
X111006964Y-103101642D01*
X111435535Y-104351642D02*
X110935535Y-104351642D01*
X110685535Y-104351642D02*
X110721250Y-104315928D01*
X110756964Y-104351642D01*
X110721250Y-104387357D01*
X110685535Y-104351642D01*
X110756964Y-104351642D01*
X111399821Y-104673071D02*
X111435535Y-104744500D01*
X111435535Y-104887357D01*
X111399821Y-104958785D01*
X111328392Y-104994500D01*
X111292678Y-104994500D01*
X111221250Y-104958785D01*
X111185535Y-104887357D01*
X111185535Y-104780214D01*
X111149821Y-104708785D01*
X111078392Y-104673071D01*
X111042678Y-104673071D01*
X110971250Y-104708785D01*
X110935535Y-104780214D01*
X110935535Y-104887357D01*
X110971250Y-104958785D01*
X111399821Y-106208785D02*
X111435535Y-106137357D01*
X111435535Y-105994500D01*
X111399821Y-105923071D01*
X111364107Y-105887357D01*
X111292678Y-105851642D01*
X111078392Y-105851642D01*
X111006964Y-105887357D01*
X110971250Y-105923071D01*
X110935535Y-105994500D01*
X110935535Y-106137357D01*
X110971250Y-106208785D01*
X111435535Y-106637357D02*
X111399821Y-106565928D01*
X111328392Y-106530214D01*
X110685535Y-106530214D01*
X111435535Y-107030214D02*
X111399821Y-106958785D01*
X111364107Y-106923071D01*
X111292678Y-106887357D01*
X111078392Y-106887357D01*
X111006964Y-106923071D01*
X110971250Y-106958785D01*
X110935535Y-107030214D01*
X110935535Y-107137357D01*
X110971250Y-107208785D01*
X111006964Y-107244500D01*
X111078392Y-107280214D01*
X111292678Y-107280214D01*
X111364107Y-107244500D01*
X111399821Y-107208785D01*
X111435535Y-107137357D01*
X111435535Y-107030214D01*
X111399821Y-107565928D02*
X111435535Y-107637357D01*
X111435535Y-107780214D01*
X111399821Y-107851642D01*
X111328392Y-107887357D01*
X111292678Y-107887357D01*
X111221250Y-107851642D01*
X111185535Y-107780214D01*
X111185535Y-107673071D01*
X111149821Y-107601642D01*
X111078392Y-107565928D01*
X111042678Y-107565928D01*
X110971250Y-107601642D01*
X110935535Y-107673071D01*
X110935535Y-107780214D01*
X110971250Y-107851642D01*
X111399821Y-108494500D02*
X111435535Y-108423071D01*
X111435535Y-108280214D01*
X111399821Y-108208785D01*
X111328392Y-108173071D01*
X111042678Y-108173071D01*
X110971250Y-108208785D01*
X110935535Y-108280214D01*
X110935535Y-108423071D01*
X110971250Y-108494500D01*
X111042678Y-108530214D01*
X111114107Y-108530214D01*
X111185535Y-108173071D01*
X111435535Y-109173071D02*
X110685535Y-109173071D01*
X111399821Y-109173071D02*
X111435535Y-109101642D01*
X111435535Y-108958785D01*
X111399821Y-108887357D01*
X111364107Y-108851642D01*
X111292678Y-108815928D01*
X111078392Y-108815928D01*
X111006964Y-108851642D01*
X110971250Y-108887357D01*
X110935535Y-108958785D01*
X110935535Y-109101642D01*
X110971250Y-109173071D01*
X111364107Y-109530214D02*
X111399821Y-109565928D01*
X111435535Y-109530214D01*
X111399821Y-109494500D01*
X111364107Y-109530214D01*
X111435535Y-109530214D01*
X157341071Y-107386428D02*
X157388690Y-107529285D01*
X157436309Y-107576904D01*
X157531547Y-107624523D01*
X157674404Y-107624523D01*
X157769642Y-107576904D01*
X157817261Y-107529285D01*
X157864880Y-107434047D01*
X157864880Y-107053095D01*
X156864880Y-107053095D01*
X156864880Y-107386428D01*
X156912500Y-107481666D01*
X156960119Y-107529285D01*
X157055357Y-107576904D01*
X157150595Y-107576904D01*
X157245833Y-107529285D01*
X157293452Y-107481666D01*
X157341071Y-107386428D01*
X157341071Y-107053095D01*
X157579166Y-95646904D02*
X157579166Y-96123095D01*
X157864880Y-95551666D02*
X156864880Y-95885000D01*
X157864880Y-96218333D01*
X93388571Y-91408285D02*
X93388571Y-91979714D01*
X94199285Y-90926142D02*
X94199285Y-91354714D01*
X94949285Y-91140428D02*
X94199285Y-91140428D01*
X94949285Y-91604714D02*
X94199285Y-91604714D01*
X94199285Y-91783285D01*
X94235000Y-91890428D01*
X94306428Y-91961857D01*
X94377857Y-91997571D01*
X94520714Y-92033285D01*
X94627857Y-92033285D01*
X94770714Y-91997571D01*
X94842142Y-91961857D01*
X94913571Y-91890428D01*
X94949285Y-91783285D01*
X94949285Y-91604714D01*
X94949285Y-92354714D02*
X94199285Y-92354714D01*
X95474285Y-90711857D02*
X95474285Y-91140428D01*
X96224285Y-90926142D02*
X95474285Y-90926142D01*
X96224285Y-91390428D02*
X95474285Y-91390428D01*
X95474285Y-91569000D01*
X95510000Y-91676142D01*
X95581428Y-91747571D01*
X95652857Y-91783285D01*
X95795714Y-91819000D01*
X95902857Y-91819000D01*
X96045714Y-91783285D01*
X96117142Y-91747571D01*
X96188571Y-91676142D01*
X96224285Y-91569000D01*
X96224285Y-91390428D01*
X95474285Y-92283285D02*
X95474285Y-92426142D01*
X95510000Y-92497571D01*
X95581428Y-92569000D01*
X95724285Y-92604714D01*
X95974285Y-92604714D01*
X96117142Y-92569000D01*
X96188571Y-92497571D01*
X96224285Y-92426142D01*
X96224285Y-92283285D01*
X96188571Y-92211857D01*
X96117142Y-92140428D01*
X95974285Y-92104714D01*
X95724285Y-92104714D01*
X95581428Y-92140428D01*
X95510000Y-92211857D01*
X95474285Y-92283285D01*
X96749285Y-90729714D02*
X96749285Y-91158285D01*
X97499285Y-90944000D02*
X96749285Y-90944000D01*
X97427857Y-91836857D02*
X97463571Y-91801142D01*
X97499285Y-91694000D01*
X97499285Y-91622571D01*
X97463571Y-91515428D01*
X97392142Y-91444000D01*
X97320714Y-91408285D01*
X97177857Y-91372571D01*
X97070714Y-91372571D01*
X96927857Y-91408285D01*
X96856428Y-91444000D01*
X96785000Y-91515428D01*
X96749285Y-91622571D01*
X96749285Y-91694000D01*
X96785000Y-91801142D01*
X96820714Y-91836857D01*
X97499285Y-92158285D02*
X96749285Y-92158285D01*
X97499285Y-92586857D02*
X97070714Y-92265428D01*
X96749285Y-92586857D02*
X97177857Y-92158285D01*
X98024285Y-90694000D02*
X98024285Y-91122571D01*
X98774285Y-90908285D02*
X98024285Y-90908285D01*
X98774285Y-91372571D02*
X98024285Y-91372571D01*
X98560000Y-91622571D01*
X98024285Y-91872571D01*
X98774285Y-91872571D01*
X98738571Y-92194000D02*
X98774285Y-92301142D01*
X98774285Y-92479714D01*
X98738571Y-92551142D01*
X98702857Y-92586857D01*
X98631428Y-92622571D01*
X98560000Y-92622571D01*
X98488571Y-92586857D01*
X98452857Y-92551142D01*
X98417142Y-92479714D01*
X98381428Y-92336857D01*
X98345714Y-92265428D01*
X98310000Y-92229714D01*
X98238571Y-92194000D01*
X98167142Y-92194000D01*
X98095714Y-92229714D01*
X98060000Y-92265428D01*
X98024285Y-92336857D01*
X98024285Y-92515428D01*
X98060000Y-92622571D01*
X92960000Y-88328571D02*
X92924285Y-88257142D01*
X92924285Y-88150000D01*
X92960000Y-88042857D01*
X93031428Y-87971428D01*
X93102857Y-87935714D01*
X93245714Y-87900000D01*
X93352857Y-87900000D01*
X93495714Y-87935714D01*
X93567142Y-87971428D01*
X93638571Y-88042857D01*
X93674285Y-88150000D01*
X93674285Y-88221428D01*
X93638571Y-88328571D01*
X93602857Y-88364285D01*
X93352857Y-88364285D01*
X93352857Y-88221428D01*
X93674285Y-88685714D02*
X92924285Y-88685714D01*
X93674285Y-89114285D01*
X92924285Y-89114285D01*
X93674285Y-89471428D02*
X92924285Y-89471428D01*
X92924285Y-89650000D01*
X92960000Y-89757142D01*
X93031428Y-89828571D01*
X93102857Y-89864285D01*
X93245714Y-89900000D01*
X93352857Y-89900000D01*
X93495714Y-89864285D01*
X93567142Y-89828571D01*
X93638571Y-89757142D01*
X93674285Y-89650000D01*
X93674285Y-89471428D01*
X94235000Y-88328571D02*
X94199285Y-88257142D01*
X94199285Y-88150000D01*
X94235000Y-88042857D01*
X94306428Y-87971428D01*
X94377857Y-87935714D01*
X94520714Y-87900000D01*
X94627857Y-87900000D01*
X94770714Y-87935714D01*
X94842142Y-87971428D01*
X94913571Y-88042857D01*
X94949285Y-88150000D01*
X94949285Y-88221428D01*
X94913571Y-88328571D01*
X94877857Y-88364285D01*
X94627857Y-88364285D01*
X94627857Y-88221428D01*
X94949285Y-88685714D02*
X94199285Y-88685714D01*
X94949285Y-89114285D01*
X94199285Y-89114285D01*
X94949285Y-89471428D02*
X94199285Y-89471428D01*
X94199285Y-89650000D01*
X94235000Y-89757142D01*
X94306428Y-89828571D01*
X94377857Y-89864285D01*
X94520714Y-89900000D01*
X94627857Y-89900000D01*
X94770714Y-89864285D01*
X94842142Y-89828571D01*
X94913571Y-89757142D01*
X94949285Y-89650000D01*
X94949285Y-89471428D01*
X95510000Y-88328571D02*
X95474285Y-88257142D01*
X95474285Y-88150000D01*
X95510000Y-88042857D01*
X95581428Y-87971428D01*
X95652857Y-87935714D01*
X95795714Y-87900000D01*
X95902857Y-87900000D01*
X96045714Y-87935714D01*
X96117142Y-87971428D01*
X96188571Y-88042857D01*
X96224285Y-88150000D01*
X96224285Y-88221428D01*
X96188571Y-88328571D01*
X96152857Y-88364285D01*
X95902857Y-88364285D01*
X95902857Y-88221428D01*
X96224285Y-88685714D02*
X95474285Y-88685714D01*
X96224285Y-89114285D01*
X95474285Y-89114285D01*
X96224285Y-89471428D02*
X95474285Y-89471428D01*
X95474285Y-89650000D01*
X95510000Y-89757142D01*
X95581428Y-89828571D01*
X95652857Y-89864285D01*
X95795714Y-89900000D01*
X95902857Y-89900000D01*
X96045714Y-89864285D01*
X96117142Y-89828571D01*
X96188571Y-89757142D01*
X96224285Y-89650000D01*
X96224285Y-89471428D01*
X96785000Y-88328571D02*
X96749285Y-88257142D01*
X96749285Y-88150000D01*
X96785000Y-88042857D01*
X96856428Y-87971428D01*
X96927857Y-87935714D01*
X97070714Y-87900000D01*
X97177857Y-87900000D01*
X97320714Y-87935714D01*
X97392142Y-87971428D01*
X97463571Y-88042857D01*
X97499285Y-88150000D01*
X97499285Y-88221428D01*
X97463571Y-88328571D01*
X97427857Y-88364285D01*
X97177857Y-88364285D01*
X97177857Y-88221428D01*
X97499285Y-88685714D02*
X96749285Y-88685714D01*
X97499285Y-89114285D01*
X96749285Y-89114285D01*
X97499285Y-89471428D02*
X96749285Y-89471428D01*
X96749285Y-89650000D01*
X96785000Y-89757142D01*
X96856428Y-89828571D01*
X96927857Y-89864285D01*
X97070714Y-89900000D01*
X97177857Y-89900000D01*
X97320714Y-89864285D01*
X97392142Y-89828571D01*
X97463571Y-89757142D01*
X97499285Y-89650000D01*
X97499285Y-89471428D01*
X98488571Y-88614285D02*
X98488571Y-89185714D01*
X113623285Y-95210285D02*
X113623285Y-94781714D01*
X113623285Y-94996000D02*
X112873285Y-94996000D01*
X112980428Y-94924571D01*
X113051857Y-94853142D01*
X113087571Y-94781714D01*
X109642714Y-93384714D02*
X109607000Y-93420428D01*
X109571285Y-93491857D01*
X109571285Y-93670428D01*
X109607000Y-93741857D01*
X109642714Y-93777571D01*
X109714142Y-93813285D01*
X109785571Y-93813285D01*
X109892714Y-93777571D01*
X110321285Y-93349000D01*
X110321285Y-93813285D01*
X106269285Y-94746000D02*
X106269285Y-95210285D01*
X106555000Y-94960285D01*
X106555000Y-95067428D01*
X106590714Y-95138857D01*
X106626428Y-95174571D01*
X106697857Y-95210285D01*
X106876428Y-95210285D01*
X106947857Y-95174571D01*
X106983571Y-95138857D01*
X107019285Y-95067428D01*
X107019285Y-94853142D01*
X106983571Y-94781714D01*
X106947857Y-94746000D01*
X103217285Y-93741857D02*
X103717285Y-93741857D01*
X102931571Y-93563285D02*
X103467285Y-93384714D01*
X103467285Y-93849000D01*
X99665285Y-95174571D02*
X99665285Y-94817428D01*
X100022428Y-94781714D01*
X99986714Y-94817428D01*
X99951000Y-94888857D01*
X99951000Y-95067428D01*
X99986714Y-95138857D01*
X100022428Y-95174571D01*
X100093857Y-95210285D01*
X100272428Y-95210285D01*
X100343857Y-95174571D01*
X100379571Y-95138857D01*
X100415285Y-95067428D01*
X100415285Y-94888857D01*
X100379571Y-94817428D01*
X100343857Y-94781714D01*
X101062285Y-90348571D02*
X101062285Y-89991428D01*
X101419428Y-89955714D01*
X101383714Y-89991428D01*
X101348000Y-90062857D01*
X101348000Y-90241428D01*
X101383714Y-90312857D01*
X101419428Y-90348571D01*
X101490857Y-90384285D01*
X101669428Y-90384285D01*
X101740857Y-90348571D01*
X101776571Y-90312857D01*
X101812285Y-90241428D01*
X101812285Y-90062857D01*
X101776571Y-89991428D01*
X101740857Y-89955714D01*
X103915785Y-90312857D02*
X104415785Y-90312857D01*
X103630071Y-90134285D02*
X104165785Y-89955714D01*
X104165785Y-90420000D01*
X106269285Y-89920000D02*
X106269285Y-90384285D01*
X106555000Y-90134285D01*
X106555000Y-90241428D01*
X106590714Y-90312857D01*
X106626428Y-90348571D01*
X106697857Y-90384285D01*
X106876428Y-90384285D01*
X106947857Y-90348571D01*
X106983571Y-90312857D01*
X107019285Y-90241428D01*
X107019285Y-90027142D01*
X106983571Y-89955714D01*
X106947857Y-89920000D01*
X108944214Y-89955714D02*
X108908500Y-89991428D01*
X108872785Y-90062857D01*
X108872785Y-90241428D01*
X108908500Y-90312857D01*
X108944214Y-90348571D01*
X109015642Y-90384285D01*
X109087071Y-90384285D01*
X109194214Y-90348571D01*
X109622785Y-89920000D01*
X109622785Y-90384285D01*
X112226285Y-90384285D02*
X112226285Y-89955714D01*
X112226285Y-90170000D02*
X111476285Y-90170000D01*
X111583428Y-90098571D01*
X111654857Y-90027142D01*
X111690571Y-89955714D01*
X145083571Y-106027428D02*
X145119285Y-106134571D01*
X145119285Y-106313142D01*
X145083571Y-106384571D01*
X145047857Y-106420285D01*
X144976428Y-106456000D01*
X144905000Y-106456000D01*
X144833571Y-106420285D01*
X144797857Y-106384571D01*
X144762142Y-106313142D01*
X144726428Y-106170285D01*
X144690714Y-106098857D01*
X144655000Y-106063142D01*
X144583571Y-106027428D01*
X144512142Y-106027428D01*
X144440714Y-106063142D01*
X144405000Y-106098857D01*
X144369285Y-106170285D01*
X144369285Y-106348857D01*
X144405000Y-106456000D01*
X144726428Y-106777428D02*
X144726428Y-107027428D01*
X145119285Y-107134571D02*
X145119285Y-106777428D01*
X144369285Y-106777428D01*
X144369285Y-107134571D01*
X145119285Y-107456000D02*
X144369285Y-107456000D01*
X145119285Y-107884571D01*
X144369285Y-107884571D01*
X145083571Y-108206000D02*
X145119285Y-108313142D01*
X145119285Y-108491714D01*
X145083571Y-108563142D01*
X145047857Y-108598857D01*
X144976428Y-108634571D01*
X144905000Y-108634571D01*
X144833571Y-108598857D01*
X144797857Y-108563142D01*
X144762142Y-108491714D01*
X144726428Y-108348857D01*
X144690714Y-108277428D01*
X144655000Y-108241714D01*
X144583571Y-108206000D01*
X144512142Y-108206000D01*
X144440714Y-108241714D01*
X144405000Y-108277428D01*
X144369285Y-108348857D01*
X144369285Y-108527428D01*
X144405000Y-108634571D01*
X144726428Y-108956000D02*
X144726428Y-109206000D01*
X145119285Y-109313142D02*
X145119285Y-108956000D01*
X144369285Y-108956000D01*
X144369285Y-109313142D01*
X144726428Y-110456000D02*
X144762142Y-110563142D01*
X144797857Y-110598857D01*
X144869285Y-110634571D01*
X144976428Y-110634571D01*
X145047857Y-110598857D01*
X145083571Y-110563142D01*
X145119285Y-110491714D01*
X145119285Y-110206000D01*
X144369285Y-110206000D01*
X144369285Y-110456000D01*
X144405000Y-110527428D01*
X144440714Y-110563142D01*
X144512142Y-110598857D01*
X144583571Y-110598857D01*
X144655000Y-110563142D01*
X144690714Y-110527428D01*
X144726428Y-110456000D01*
X144726428Y-110206000D01*
X145083571Y-92619000D02*
X145119285Y-92726142D01*
X145119285Y-92904714D01*
X145083571Y-92976142D01*
X145047857Y-93011857D01*
X144976428Y-93047571D01*
X144905000Y-93047571D01*
X144833571Y-93011857D01*
X144797857Y-92976142D01*
X144762142Y-92904714D01*
X144726428Y-92761857D01*
X144690714Y-92690428D01*
X144655000Y-92654714D01*
X144583571Y-92619000D01*
X144512142Y-92619000D01*
X144440714Y-92654714D01*
X144405000Y-92690428D01*
X144369285Y-92761857D01*
X144369285Y-92940428D01*
X144405000Y-93047571D01*
X144726428Y-93369000D02*
X144726428Y-93619000D01*
X145119285Y-93726142D02*
X145119285Y-93369000D01*
X144369285Y-93369000D01*
X144369285Y-93726142D01*
X145119285Y-94047571D02*
X144369285Y-94047571D01*
X145119285Y-94476142D01*
X144369285Y-94476142D01*
X145083571Y-94797571D02*
X145119285Y-94904714D01*
X145119285Y-95083285D01*
X145083571Y-95154714D01*
X145047857Y-95190428D01*
X144976428Y-95226142D01*
X144905000Y-95226142D01*
X144833571Y-95190428D01*
X144797857Y-95154714D01*
X144762142Y-95083285D01*
X144726428Y-94940428D01*
X144690714Y-94869000D01*
X144655000Y-94833285D01*
X144583571Y-94797571D01*
X144512142Y-94797571D01*
X144440714Y-94833285D01*
X144405000Y-94869000D01*
X144369285Y-94940428D01*
X144369285Y-95119000D01*
X144405000Y-95226142D01*
X144726428Y-95547571D02*
X144726428Y-95797571D01*
X145119285Y-95904714D02*
X145119285Y-95547571D01*
X144369285Y-95547571D01*
X144369285Y-95904714D01*
X144905000Y-96761857D02*
X144905000Y-97119000D01*
X145119285Y-96690428D02*
X144369285Y-96940428D01*
X145119285Y-97190428D01*
X94494000Y-98615571D02*
X94458285Y-98544142D01*
X94458285Y-98437000D01*
X94494000Y-98329857D01*
X94565428Y-98258428D01*
X94636857Y-98222714D01*
X94779714Y-98187000D01*
X94886857Y-98187000D01*
X95029714Y-98222714D01*
X95101142Y-98258428D01*
X95172571Y-98329857D01*
X95208285Y-98437000D01*
X95208285Y-98508428D01*
X95172571Y-98615571D01*
X95136857Y-98651285D01*
X94886857Y-98651285D01*
X94886857Y-98508428D01*
X95208285Y-98972714D02*
X94458285Y-98972714D01*
X95208285Y-99401285D01*
X94458285Y-99401285D01*
X95208285Y-99758428D02*
X94458285Y-99758428D01*
X94458285Y-99937000D01*
X94494000Y-100044142D01*
X94565428Y-100115571D01*
X94636857Y-100151285D01*
X94779714Y-100187000D01*
X94886857Y-100187000D01*
X95029714Y-100151285D01*
X95101142Y-100115571D01*
X95172571Y-100044142D01*
X95208285Y-99937000D01*
X95208285Y-99758428D01*
X95049571Y-102691571D02*
X95049571Y-103263000D01*
X95335285Y-102977285D02*
X94763857Y-102977285D01*
X95335285Y-104013000D02*
X95335285Y-103584428D01*
X95335285Y-103798714D02*
X94585285Y-103798714D01*
X94692428Y-103727285D01*
X94763857Y-103655857D01*
X94799571Y-103584428D01*
X94656714Y-104298714D02*
X94621000Y-104334428D01*
X94585285Y-104405857D01*
X94585285Y-104584428D01*
X94621000Y-104655857D01*
X94656714Y-104691571D01*
X94728142Y-104727285D01*
X94799571Y-104727285D01*
X94906714Y-104691571D01*
X95335285Y-104263000D01*
X95335285Y-104727285D01*
X94585285Y-104941571D02*
X95335285Y-105191571D01*
X94585285Y-105441571D01*
D11*
%TO.C,R12*%
X99487758Y-93076500D02*
X99013242Y-93076500D01*
X99250500Y-94749000D02*
X99750500Y-94249000D01*
X98750500Y-94249000D02*
X99750500Y-94249000D01*
X98750500Y-94249000D02*
X99250500Y-94749000D01*
%TO.C,R3*%
X114346758Y-94121500D02*
X113872242Y-94121500D01*
X114109500Y-92449000D02*
X113609500Y-92949000D01*
X114609500Y-92949000D02*
X113609500Y-92949000D01*
X114609500Y-92949000D02*
X114109500Y-92449000D01*
D12*
G36*
X113609500Y-92949000D02*
G01*
X114609500Y-92949000D01*
X114109500Y-92449000D01*
X113609500Y-92949000D01*
G37*
X113609500Y-92949000D02*
X114609500Y-92949000D01*
X114109500Y-92449000D01*
X113609500Y-92949000D01*
D11*
%TO.C,R5*%
X108919242Y-92724500D02*
X109393758Y-92724500D01*
X109156500Y-91052000D02*
X108656500Y-91552000D01*
X109656500Y-91552000D02*
X108656500Y-91552000D01*
X109656500Y-91552000D02*
X109156500Y-91052000D01*
D12*
G36*
X109156500Y-91052000D02*
G01*
X108656500Y-91552000D01*
X109656500Y-91552000D01*
X109156500Y-91052000D01*
G37*
X109156500Y-91052000D02*
X108656500Y-91552000D01*
X109656500Y-91552000D01*
X109156500Y-91052000D01*
D11*
%TO.C,R7*%
X107742758Y-94121500D02*
X107268242Y-94121500D01*
X107505500Y-92449000D02*
X107005500Y-92949000D01*
X108005500Y-92949000D02*
X107005500Y-92949000D01*
X108005500Y-92949000D02*
X107505500Y-92449000D01*
D12*
G36*
X107005500Y-92949000D02*
G01*
X108005500Y-92949000D01*
X107505500Y-92449000D01*
X107005500Y-92949000D01*
G37*
X107005500Y-92949000D02*
X108005500Y-92949000D01*
X107505500Y-92449000D01*
X107005500Y-92949000D01*
D11*
%TO.C,R9*%
X102315242Y-92724500D02*
X102789758Y-92724500D01*
X102552500Y-91052000D02*
X102052500Y-91552000D01*
X103052500Y-91552000D02*
X102052500Y-91552000D01*
X103052500Y-91552000D02*
X102552500Y-91052000D01*
D12*
G36*
X102552500Y-91052000D02*
G01*
X102052500Y-91552000D01*
X103052500Y-91552000D01*
X102552500Y-91052000D01*
G37*
X102552500Y-91052000D02*
X102052500Y-91552000D01*
X103052500Y-91552000D01*
X102552500Y-91052000D01*
D11*
%TO.C,JP1*%
X113687000Y-87582500D02*
X113187000Y-87082500D01*
X113937000Y-89582500D02*
X113937000Y-87582500D01*
X110087000Y-89582500D02*
X110587000Y-90082500D01*
X110587000Y-90082500D02*
X111087000Y-89582500D01*
X112387000Y-89582500D02*
X110087000Y-89582500D01*
X113937000Y-89582500D02*
X112687000Y-89582500D01*
X111087000Y-87582500D02*
X110087000Y-87582500D01*
X111387000Y-87582500D02*
X113687000Y-87582500D01*
X113187000Y-87082500D02*
X112687000Y-87582500D01*
D12*
G36*
X111087000Y-89582500D02*
G01*
X110087000Y-89582500D01*
X110587000Y-90082500D01*
X111087000Y-89582500D01*
G37*
X111087000Y-89582500D02*
X110087000Y-89582500D01*
X110587000Y-90082500D01*
X111087000Y-89582500D01*
D11*
%TO.C,JP2*%
X109783500Y-87582500D02*
X107483500Y-87582500D01*
X110083500Y-87582500D02*
X111083500Y-87582500D01*
X108483500Y-87582500D02*
X107983500Y-87082500D01*
X110083500Y-89582500D02*
X110583500Y-90082500D01*
X110583500Y-90082500D02*
X111083500Y-89582500D01*
X107983500Y-87082500D02*
X107483500Y-87582500D01*
X111083500Y-89582500D02*
X108783500Y-89582500D01*
X108483500Y-89582500D02*
X107483500Y-89582500D01*
D12*
G36*
X110583500Y-90082500D02*
G01*
X111083500Y-89582500D01*
X110083500Y-89582500D01*
X110583500Y-90082500D01*
G37*
X110583500Y-90082500D02*
X111083500Y-89582500D01*
X110083500Y-89582500D01*
X110583500Y-90082500D01*
D11*
%TO.C,JP3*%
X104880000Y-89582500D02*
X105380000Y-90082500D01*
X108480000Y-87582500D02*
X107980000Y-87082500D01*
X107980000Y-87082500D02*
X107480000Y-87582500D01*
X106180000Y-87582500D02*
X108480000Y-87582500D01*
X104880000Y-87582500D02*
X105880000Y-87582500D01*
X107480000Y-89582500D02*
X108480000Y-89582500D01*
X107180000Y-89582500D02*
X104880000Y-89582500D01*
X105380000Y-90082500D02*
X105880000Y-89582500D01*
D12*
G36*
X105880000Y-89582500D02*
G01*
X104880000Y-89582500D01*
X105380000Y-90082500D01*
X105880000Y-89582500D01*
G37*
X105880000Y-89582500D02*
X104880000Y-89582500D01*
X105380000Y-90082500D01*
X105880000Y-89582500D01*
D11*
%TO.C,JP4*%
X103276500Y-89582500D02*
X102276500Y-89582500D01*
X105876500Y-89582500D02*
X103576500Y-89582500D01*
X104576500Y-87582500D02*
X102276500Y-87582500D01*
X104876500Y-87582500D02*
X105876500Y-87582500D01*
X102776500Y-87082500D02*
X102276500Y-87582500D01*
X105376500Y-90082500D02*
X105876500Y-89582500D01*
X103276500Y-87582500D02*
X102776500Y-87082500D01*
X104876500Y-89582500D02*
X105376500Y-90082500D01*
D12*
G36*
X105376500Y-90082500D02*
G01*
X105876500Y-89582500D01*
X104876500Y-89582500D01*
X105376500Y-90082500D01*
G37*
X105376500Y-90082500D02*
X105876500Y-89582500D01*
X104876500Y-89582500D01*
X105376500Y-90082500D01*
D11*
%TO.C,R11*%
X101138758Y-94121500D02*
X100664242Y-94121500D01*
X100901500Y-92449000D02*
X100401500Y-92949000D01*
X101401500Y-92949000D02*
X100401500Y-92949000D01*
X101401500Y-92949000D02*
X100901500Y-92449000D01*
D12*
G36*
X100401500Y-92949000D02*
G01*
X101401500Y-92949000D01*
X100901500Y-92449000D01*
X100401500Y-92949000D01*
G37*
X100401500Y-92949000D02*
X101401500Y-92949000D01*
X100901500Y-92449000D01*
X100401500Y-92949000D01*
D11*
%TO.C,JP5*%
X99423000Y-87582500D02*
X99423000Y-89582500D01*
X99423000Y-87582500D02*
X100673000Y-87582500D01*
X102273000Y-89582500D02*
X103273000Y-89582500D01*
X101973000Y-89582500D02*
X99673000Y-89582500D01*
X99673000Y-89582500D02*
X100173000Y-90082500D01*
X100173000Y-90082500D02*
X100673000Y-89582500D01*
X103273000Y-87582500D02*
X102773000Y-87082500D01*
X100973000Y-87582500D02*
X103273000Y-87582500D01*
X102773000Y-87082500D02*
X102273000Y-87582500D01*
D12*
G36*
X100673000Y-89582500D02*
G01*
X99673000Y-89582500D01*
X100173000Y-90082500D01*
X100673000Y-89582500D01*
G37*
X100673000Y-89582500D02*
X99673000Y-89582500D01*
X100173000Y-90082500D01*
X100673000Y-89582500D01*
D11*
%TO.C,R10*%
X103966242Y-91679500D02*
X104440758Y-91679500D01*
X104203500Y-93352000D02*
X104703500Y-92852000D01*
X103703500Y-92852000D02*
X104703500Y-92852000D01*
X103703500Y-92852000D02*
X104203500Y-93352000D01*
%TO.C,R8*%
X106091758Y-93076500D02*
X105617242Y-93076500D01*
X105854500Y-94749000D02*
X106354500Y-94249000D01*
X105354500Y-94249000D02*
X106354500Y-94249000D01*
X105354500Y-94249000D02*
X105854500Y-94749000D01*
%TO.C,R4*%
X112695758Y-93076500D02*
X112221242Y-93076500D01*
X112458500Y-94749000D02*
X112958500Y-94249000D01*
X111958500Y-94249000D02*
X112958500Y-94249000D01*
X111958500Y-94249000D02*
X112458500Y-94749000D01*
%TO.C,R6*%
X110570242Y-91679500D02*
X111044758Y-91679500D01*
X110807500Y-93352000D02*
X111307500Y-92852000D01*
X110307500Y-92852000D02*
X111307500Y-92852000D01*
X110307500Y-92852000D02*
X110807500Y-93352000D01*
%TO.C,R2*%
X141131936Y-107389250D02*
X142586064Y-107389250D01*
X141131936Y-109209250D02*
X142586064Y-109209250D01*
%TO.C,R1*%
X141131936Y-93990750D02*
X142586064Y-93990750D01*
X141131936Y-95810750D02*
X142586064Y-95810750D01*
%TD*%
M02*
