%TF.GenerationSoftware,KiCad,Pcbnew,5.1.9-2.fc34*%
%TF.CreationDate,2021-04-29T15:20:28-07:00*%
%TF.ProjectId,motorbrainz,6d6f746f-7262-4726-9169-6e7a2e6b6963,1.0*%
%TF.SameCoordinates,Original*%
%TF.FileFunction,Legend,Top*%
%TF.FilePolarity,Positive*%
%FSLAX46Y46*%
G04 Gerber Fmt 4.6, Leading zero omitted, Abs format (unit mm)*
G04 Created by KiCad (PCBNEW 5.1.9-2.fc34) date 2021-04-29 15:20:28*
%MOMM*%
%LPD*%
G01*
G04 APERTURE LIST*
%ADD10C,0.150000*%
%ADD11C,0.120000*%
%ADD12C,0.200000*%
%ADD13C,0.100000*%
%ADD14C,0.254000*%
%ADD15C,0.127000*%
%ADD16C,0.152400*%
%ADD17C,0.015000*%
G04 APERTURE END LIST*
D10*
X110093142Y-111222285D02*
X109736000Y-111222285D01*
X109700285Y-111579428D01*
X109736000Y-111543714D01*
X109807428Y-111508000D01*
X109986000Y-111508000D01*
X110057428Y-111543714D01*
X110093142Y-111579428D01*
X110128857Y-111650857D01*
X110128857Y-111829428D01*
X110093142Y-111900857D01*
X110057428Y-111936571D01*
X109986000Y-111972285D01*
X109807428Y-111972285D01*
X109736000Y-111936571D01*
X109700285Y-111900857D01*
X110343142Y-111222285D02*
X110593142Y-111972285D01*
X110843142Y-111222285D01*
X107121785Y-109178285D02*
X106764642Y-109178285D01*
X106764642Y-108428285D01*
X107371785Y-109178285D02*
X107371785Y-108428285D01*
X107550357Y-108428285D01*
X107657500Y-108464000D01*
X107728928Y-108535428D01*
X107764642Y-108606857D01*
X107800357Y-108749714D01*
X107800357Y-108856857D01*
X107764642Y-108999714D01*
X107728928Y-109071142D01*
X107657500Y-109142571D01*
X107550357Y-109178285D01*
X107371785Y-109178285D01*
X108264642Y-108428285D02*
X108407500Y-108428285D01*
X108478928Y-108464000D01*
X108550357Y-108535428D01*
X108586071Y-108678285D01*
X108586071Y-108928285D01*
X108550357Y-109071142D01*
X108478928Y-109142571D01*
X108407500Y-109178285D01*
X108264642Y-109178285D01*
X108193214Y-109142571D01*
X108121785Y-109071142D01*
X108086071Y-108928285D01*
X108086071Y-108678285D01*
X108121785Y-108535428D01*
X108193214Y-108464000D01*
X108264642Y-108428285D01*
X106711071Y-113889285D02*
X106711071Y-114496428D01*
X106746785Y-114567857D01*
X106782500Y-114603571D01*
X106853928Y-114639285D01*
X106996785Y-114639285D01*
X107068214Y-114603571D01*
X107103928Y-114567857D01*
X107139642Y-114496428D01*
X107139642Y-113889285D01*
X107461071Y-114603571D02*
X107568214Y-114639285D01*
X107746785Y-114639285D01*
X107818214Y-114603571D01*
X107853928Y-114567857D01*
X107889642Y-114496428D01*
X107889642Y-114425000D01*
X107853928Y-114353571D01*
X107818214Y-114317857D01*
X107746785Y-114282142D01*
X107603928Y-114246428D01*
X107532500Y-114210714D01*
X107496785Y-114175000D01*
X107461071Y-114103571D01*
X107461071Y-114032142D01*
X107496785Y-113960714D01*
X107532500Y-113925000D01*
X107603928Y-113889285D01*
X107782500Y-113889285D01*
X107889642Y-113925000D01*
X108461071Y-114246428D02*
X108568214Y-114282142D01*
X108603928Y-114317857D01*
X108639642Y-114389285D01*
X108639642Y-114496428D01*
X108603928Y-114567857D01*
X108568214Y-114603571D01*
X108496785Y-114639285D01*
X108211071Y-114639285D01*
X108211071Y-113889285D01*
X108461071Y-113889285D01*
X108532500Y-113925000D01*
X108568214Y-113960714D01*
X108603928Y-114032142D01*
X108603928Y-114103571D01*
X108568214Y-114175000D01*
X108532500Y-114210714D01*
X108461071Y-114246428D01*
X108211071Y-114246428D01*
X101615952Y-107513380D02*
X101044523Y-107513380D01*
X101330238Y-107513380D02*
X101330238Y-106513380D01*
X101235000Y-106656238D01*
X101139761Y-106751476D01*
X101044523Y-106799095D01*
X101996904Y-106608619D02*
X102044523Y-106561000D01*
X102139761Y-106513380D01*
X102377857Y-106513380D01*
X102473095Y-106561000D01*
X102520714Y-106608619D01*
X102568333Y-106703857D01*
X102568333Y-106799095D01*
X102520714Y-106941952D01*
X101949285Y-107513380D01*
X102568333Y-107513380D01*
X102854047Y-106513380D02*
X103187380Y-107513380D01*
X103520714Y-106513380D01*
X157551428Y-115498571D02*
X157694285Y-115546190D01*
X157741904Y-115593809D01*
X157789523Y-115689047D01*
X157789523Y-115831904D01*
X157741904Y-115927142D01*
X157694285Y-115974761D01*
X157599047Y-116022380D01*
X157218095Y-116022380D01*
X157218095Y-115022380D01*
X157551428Y-115022380D01*
X157646666Y-115070000D01*
X157694285Y-115117619D01*
X157741904Y-115212857D01*
X157741904Y-115308095D01*
X157694285Y-115403333D01*
X157646666Y-115450952D01*
X157551428Y-115498571D01*
X157218095Y-115498571D01*
X157241904Y-87796666D02*
X157718095Y-87796666D01*
X157146666Y-88082380D02*
X157480000Y-87082380D01*
X157813333Y-88082380D01*
X134397952Y-101925380D02*
X133921761Y-101925380D01*
X133921761Y-100925380D01*
X134683666Y-101020619D02*
X134731285Y-100973000D01*
X134826523Y-100925380D01*
X135064619Y-100925380D01*
X135159857Y-100973000D01*
X135207476Y-101020619D01*
X135255095Y-101115857D01*
X135255095Y-101211095D01*
X135207476Y-101353952D01*
X134636047Y-101925380D01*
X135255095Y-101925380D01*
X135731285Y-101925380D02*
X135921761Y-101925380D01*
X136017000Y-101877761D01*
X136064619Y-101830142D01*
X136159857Y-101687285D01*
X136207476Y-101496809D01*
X136207476Y-101115857D01*
X136159857Y-101020619D01*
X136112238Y-100973000D01*
X136017000Y-100925380D01*
X135826523Y-100925380D01*
X135731285Y-100973000D01*
X135683666Y-101020619D01*
X135636047Y-101115857D01*
X135636047Y-101353952D01*
X135683666Y-101449190D01*
X135731285Y-101496809D01*
X135826523Y-101544428D01*
X136017000Y-101544428D01*
X136112238Y-101496809D01*
X136159857Y-101449190D01*
X136207476Y-101353952D01*
X136778904Y-101353952D02*
X136683666Y-101306333D01*
X136636047Y-101258714D01*
X136588428Y-101163476D01*
X136588428Y-101115857D01*
X136636047Y-101020619D01*
X136683666Y-100973000D01*
X136778904Y-100925380D01*
X136969380Y-100925380D01*
X137064619Y-100973000D01*
X137112238Y-101020619D01*
X137159857Y-101115857D01*
X137159857Y-101163476D01*
X137112238Y-101258714D01*
X137064619Y-101306333D01*
X136969380Y-101353952D01*
X136778904Y-101353952D01*
X136683666Y-101401571D01*
X136636047Y-101449190D01*
X136588428Y-101544428D01*
X136588428Y-101734904D01*
X136636047Y-101830142D01*
X136683666Y-101877761D01*
X136778904Y-101925380D01*
X136969380Y-101925380D01*
X137064619Y-101877761D01*
X137112238Y-101830142D01*
X137159857Y-101734904D01*
X137159857Y-101544428D01*
X137112238Y-101449190D01*
X137064619Y-101401571D01*
X136969380Y-101353952D01*
X137588428Y-101925380D02*
X137588428Y-100925380D01*
X137969380Y-100925380D01*
X138064619Y-100973000D01*
X138112238Y-101020619D01*
X138159857Y-101115857D01*
X138159857Y-101258714D01*
X138112238Y-101353952D01*
X138064619Y-101401571D01*
X137969380Y-101449190D01*
X137588428Y-101449190D01*
X112919547Y-87209380D02*
X113490976Y-87209380D01*
X113205261Y-88209380D02*
X113205261Y-87209380D01*
X113824309Y-88209380D02*
X113824309Y-87542714D01*
X113824309Y-87209380D02*
X113776690Y-87257000D01*
X113824309Y-87304619D01*
X113871928Y-87257000D01*
X113824309Y-87209380D01*
X113824309Y-87304619D01*
X114300500Y-87542714D02*
X114300500Y-88209380D01*
X114300500Y-87637952D02*
X114348119Y-87590333D01*
X114443357Y-87542714D01*
X114586214Y-87542714D01*
X114681452Y-87590333D01*
X114729071Y-87685571D01*
X114729071Y-88209380D01*
X115110023Y-87542714D02*
X115348119Y-88209380D01*
X115586214Y-87542714D02*
X115348119Y-88209380D01*
X115252880Y-88447476D01*
X115205261Y-88495095D01*
X115110023Y-88542714D01*
X115967166Y-88209380D02*
X115967166Y-87209380D01*
X116348119Y-87209380D01*
X116443357Y-87257000D01*
X116490976Y-87304619D01*
X116538595Y-87399857D01*
X116538595Y-87542714D01*
X116490976Y-87637952D01*
X116443357Y-87685571D01*
X116348119Y-87733190D01*
X115967166Y-87733190D01*
X116967166Y-88209380D02*
X116967166Y-87209380D01*
X118014785Y-88114142D02*
X117967166Y-88161761D01*
X117824309Y-88209380D01*
X117729071Y-88209380D01*
X117586214Y-88161761D01*
X117490976Y-88066523D01*
X117443357Y-87971285D01*
X117395738Y-87780809D01*
X117395738Y-87637952D01*
X117443357Y-87447476D01*
X117490976Y-87352238D01*
X117586214Y-87257000D01*
X117729071Y-87209380D01*
X117824309Y-87209380D01*
X117967166Y-87257000D01*
X118014785Y-87304619D01*
X118633833Y-87209380D02*
X118824309Y-87209380D01*
X118919547Y-87257000D01*
X119014785Y-87352238D01*
X119062404Y-87542714D01*
X119062404Y-87876047D01*
X119014785Y-88066523D01*
X118919547Y-88161761D01*
X118824309Y-88209380D01*
X118633833Y-88209380D01*
X118538595Y-88161761D01*
X118443357Y-88066523D01*
X118395738Y-87876047D01*
X118395738Y-87542714D01*
X118443357Y-87352238D01*
X118538595Y-87257000D01*
X118633833Y-87209380D01*
X120252880Y-88209380D02*
X120252880Y-87209380D01*
X120824309Y-88209380D01*
X120824309Y-87209380D01*
X121729071Y-88209380D02*
X121729071Y-87685571D01*
X121681452Y-87590333D01*
X121586214Y-87542714D01*
X121395738Y-87542714D01*
X121300500Y-87590333D01*
X121729071Y-88161761D02*
X121633833Y-88209380D01*
X121395738Y-88209380D01*
X121300500Y-88161761D01*
X121252880Y-88066523D01*
X121252880Y-87971285D01*
X121300500Y-87876047D01*
X121395738Y-87828428D01*
X121633833Y-87828428D01*
X121729071Y-87780809D01*
X122205261Y-87542714D02*
X122205261Y-88209380D01*
X122205261Y-87637952D02*
X122252880Y-87590333D01*
X122348119Y-87542714D01*
X122490976Y-87542714D01*
X122586214Y-87590333D01*
X122633833Y-87685571D01*
X122633833Y-88209380D01*
X123252880Y-88209380D02*
X123157642Y-88161761D01*
X123110023Y-88114142D01*
X123062404Y-88018904D01*
X123062404Y-87733190D01*
X123110023Y-87637952D01*
X123157642Y-87590333D01*
X123252880Y-87542714D01*
X123395738Y-87542714D01*
X123490976Y-87590333D01*
X123538595Y-87637952D01*
X123586214Y-87733190D01*
X123586214Y-88018904D01*
X123538595Y-88114142D01*
X123490976Y-88161761D01*
X123395738Y-88209380D01*
X123252880Y-88209380D01*
X104132380Y-95988142D02*
X104084761Y-96035761D01*
X103941904Y-96083380D01*
X103846666Y-96083380D01*
X103703809Y-96035761D01*
X103608571Y-95940523D01*
X103560952Y-95845285D01*
X103513333Y-95654809D01*
X103513333Y-95511952D01*
X103560952Y-95321476D01*
X103608571Y-95226238D01*
X103703809Y-95131000D01*
X103846666Y-95083380D01*
X103941904Y-95083380D01*
X104084761Y-95131000D01*
X104132380Y-95178619D01*
X104751428Y-95083380D02*
X104941904Y-95083380D01*
X105037142Y-95131000D01*
X105132380Y-95226238D01*
X105180000Y-95416714D01*
X105180000Y-95750047D01*
X105132380Y-95940523D01*
X105037142Y-96035761D01*
X104941904Y-96083380D01*
X104751428Y-96083380D01*
X104656190Y-96035761D01*
X104560952Y-95940523D01*
X104513333Y-95750047D01*
X104513333Y-95416714D01*
X104560952Y-95226238D01*
X104656190Y-95131000D01*
X104751428Y-95083380D01*
X105608571Y-96083380D02*
X105608571Y-95083380D01*
X106180000Y-96083380D01*
X106180000Y-95083380D01*
X106513333Y-95083380D02*
X107084761Y-95083380D01*
X106799047Y-96083380D02*
X106799047Y-95083380D01*
X107989523Y-96083380D02*
X107656190Y-95607190D01*
X107418095Y-96083380D02*
X107418095Y-95083380D01*
X107799047Y-95083380D01*
X107894285Y-95131000D01*
X107941904Y-95178619D01*
X107989523Y-95273857D01*
X107989523Y-95416714D01*
X107941904Y-95511952D01*
X107894285Y-95559571D01*
X107799047Y-95607190D01*
X107418095Y-95607190D01*
X108608571Y-95083380D02*
X108799047Y-95083380D01*
X108894285Y-95131000D01*
X108989523Y-95226238D01*
X109037142Y-95416714D01*
X109037142Y-95750047D01*
X108989523Y-95940523D01*
X108894285Y-96035761D01*
X108799047Y-96083380D01*
X108608571Y-96083380D01*
X108513333Y-96035761D01*
X108418095Y-95940523D01*
X108370476Y-95750047D01*
X108370476Y-95416714D01*
X108418095Y-95226238D01*
X108513333Y-95131000D01*
X108608571Y-95083380D01*
X109941904Y-96083380D02*
X109465714Y-96083380D01*
X109465714Y-95083380D01*
X94718333Y-95083380D02*
X94718333Y-95797666D01*
X94670714Y-95940523D01*
X94575476Y-96035761D01*
X94432619Y-96083380D01*
X94337380Y-96083380D01*
X95051666Y-95083380D02*
X95623095Y-95083380D01*
X95337380Y-96083380D02*
X95337380Y-95083380D01*
X95908809Y-95797666D02*
X96385000Y-95797666D01*
X95813571Y-96083380D02*
X96146904Y-95083380D01*
X96480238Y-96083380D01*
X97337380Y-95131000D02*
X97242142Y-95083380D01*
X97099285Y-95083380D01*
X96956428Y-95131000D01*
X96861190Y-95226238D01*
X96813571Y-95321476D01*
X96765952Y-95511952D01*
X96765952Y-95654809D01*
X96813571Y-95845285D01*
X96861190Y-95940523D01*
X96956428Y-96035761D01*
X97099285Y-96083380D01*
X97194523Y-96083380D01*
X97337380Y-96035761D01*
X97385000Y-95988142D01*
X97385000Y-95654809D01*
X97194523Y-95654809D01*
D11*
%TO.C,J2*%
X97266500Y-108495000D02*
X97266500Y-108945000D01*
X95416500Y-108495000D02*
X97266500Y-108495000D01*
X92866500Y-116295000D02*
X93116500Y-116295000D01*
X92866500Y-108495000D02*
X93116500Y-108495000D01*
X95416500Y-116295000D02*
X97266500Y-116295000D01*
X97266500Y-116295000D02*
X97266500Y-115845000D01*
X97816500Y-110695000D02*
X97816500Y-111145000D01*
X97816500Y-110695000D02*
X97366500Y-110695000D01*
D12*
%TO.C,J1*%
X99510000Y-94810000D02*
X99510000Y-87054000D01*
X99510000Y-87054000D02*
X92260000Y-87054000D01*
X92260000Y-87054000D02*
X92260000Y-94810000D01*
X92260000Y-94810000D02*
X99510000Y-94810000D01*
%TO.C,J7*%
X110305000Y-94810000D02*
X110305000Y-87054000D01*
X110305000Y-87054000D02*
X103055000Y-87054000D01*
X103055000Y-87054000D02*
X103055000Y-94810000D01*
X103055000Y-94810000D02*
X110305000Y-94810000D01*
%TO.C,J6*%
X106095000Y-109579500D02*
X107600000Y-109579500D01*
X106095000Y-109579500D02*
X106095000Y-110849500D01*
X106095000Y-113559500D02*
X107600000Y-113559500D01*
X106095000Y-113559500D02*
X106095000Y-112289500D01*
X111175000Y-109989500D02*
G75*
G03*
X111175000Y-109989500I-100000J0D01*
G01*
D11*
%TO.C,C2*%
X104597252Y-97515000D02*
X103174748Y-97515000D01*
X104597252Y-99335000D02*
X103174748Y-99335000D01*
%TO.C,C5*%
X131971748Y-86925000D02*
X129140252Y-86925000D01*
X131971748Y-92145000D02*
X129140252Y-92145000D01*
%TO.C,U1*%
X124640000Y-113598900D02*
X111640000Y-113598900D01*
X124640000Y-86598900D02*
X124640000Y-113598900D01*
X111640000Y-86598900D02*
X124640000Y-86598900D01*
X111640000Y-113598900D02*
X111640000Y-86598900D01*
D13*
%TO.C,U2*%
X143144000Y-94400000D02*
G75*
G03*
X143144000Y-94400000I-254000J0D01*
G01*
D14*
X143890000Y-100100000D02*
X143890000Y-96100000D01*
X143890000Y-107100000D02*
X143890000Y-103100000D01*
X127890000Y-96100000D02*
X143890000Y-96100000D01*
X127890000Y-100100000D02*
X127890000Y-96100000D01*
X127890000Y-107100000D02*
X127890000Y-103100000D01*
X143890000Y-107100000D02*
X127890000Y-107100000D01*
D11*
%TO.C,C4*%
X135749420Y-86866000D02*
X136030580Y-86866000D01*
X135749420Y-87886000D02*
X136030580Y-87886000D01*
%TO.C,U11*%
X101945000Y-99841000D02*
X107955000Y-99841000D01*
X104195000Y-106661000D02*
X107955000Y-106661000D01*
X107955000Y-99841000D02*
X107955000Y-101101000D01*
X107955000Y-106661000D02*
X107955000Y-105401000D01*
D12*
%TO.C,J3*%
X96620000Y-95900000D02*
G75*
G03*
X96620000Y-95900000I-100000J0D01*
G01*
D15*
X100620000Y-106600000D02*
X100620000Y-96600000D01*
X92420000Y-106600000D02*
X100620000Y-106600000D01*
X92420000Y-96600000D02*
X92420000Y-106600000D01*
X100620000Y-96600000D02*
X92420000Y-96600000D01*
D11*
%TO.C,C3*%
X130950580Y-111000000D02*
X130669420Y-111000000D01*
X130950580Y-109980000D02*
X130669420Y-109980000D01*
%TO.C,C1*%
X102248580Y-108075000D02*
X101967420Y-108075000D01*
X102248580Y-109095000D02*
X101967420Y-109095000D01*
D16*
%TO.C,U10*%
X146136360Y-102374700D02*
X145745200Y-102374700D01*
X148503640Y-107937300D02*
X148894800Y-107937300D01*
X145745200Y-107937300D02*
X146136360Y-107937300D01*
X145745200Y-102374700D02*
X145745200Y-107937300D01*
X148894800Y-102374700D02*
X148503640Y-102374700D01*
X148894800Y-107937300D02*
X148894800Y-102374700D01*
X146685000Y-108572300D02*
X147955000Y-108572300D01*
X147320000Y-109334300D02*
X147447000Y-108572300D01*
X147320000Y-109334300D02*
X147574000Y-108572300D01*
X147320000Y-109334300D02*
X147701000Y-108572300D01*
X147320000Y-109334300D02*
X147828000Y-108572300D01*
X147320000Y-109334300D02*
X147955000Y-108572300D01*
X147320000Y-109334300D02*
X147193000Y-108572300D01*
X147320000Y-109334300D02*
X147066000Y-108572300D01*
X147320000Y-109334300D02*
X146939000Y-108572300D01*
X147320000Y-109334300D02*
X146812000Y-108572300D01*
X147320000Y-109334300D02*
X146685000Y-108572300D01*
X146685000Y-109334300D02*
X147955000Y-109334300D01*
X147320000Y-108318300D02*
X147320000Y-109588300D01*
%TO.C,U9*%
X152313640Y-107937300D02*
X152704800Y-107937300D01*
X149946360Y-102374700D02*
X149555200Y-102374700D01*
X152704800Y-102374700D02*
X152313640Y-102374700D01*
X152704800Y-107937300D02*
X152704800Y-102374700D01*
X149555200Y-107937300D02*
X149946360Y-107937300D01*
X149555200Y-102374700D02*
X149555200Y-107937300D01*
X151765000Y-101739700D02*
X150495000Y-101739700D01*
X151130000Y-100977700D02*
X151003000Y-101739700D01*
X151130000Y-100977700D02*
X150876000Y-101739700D01*
X151130000Y-100977700D02*
X150749000Y-101739700D01*
X151130000Y-100977700D02*
X150622000Y-101739700D01*
X151130000Y-100977700D02*
X150495000Y-101739700D01*
X151130000Y-100977700D02*
X151257000Y-101739700D01*
X151130000Y-100977700D02*
X151384000Y-101739700D01*
X151130000Y-100977700D02*
X151511000Y-101739700D01*
X151130000Y-100977700D02*
X151638000Y-101739700D01*
X151130000Y-100977700D02*
X151765000Y-101739700D01*
X151765000Y-100977700D02*
X150495000Y-100977700D01*
X151130000Y-101993700D02*
X151130000Y-100723700D01*
%TO.C,U8*%
X148503640Y-115049300D02*
X148894800Y-115049300D01*
X146136360Y-109486700D02*
X145745200Y-109486700D01*
X148894800Y-109486700D02*
X148503640Y-109486700D01*
X148894800Y-115049300D02*
X148894800Y-109486700D01*
X145745200Y-115049300D02*
X146136360Y-115049300D01*
X145745200Y-109486700D02*
X145745200Y-115049300D01*
X147955000Y-108851700D02*
X146685000Y-108851700D01*
X147320000Y-108089700D02*
X147193000Y-108851700D01*
X147320000Y-108089700D02*
X147066000Y-108851700D01*
X147320000Y-108089700D02*
X146939000Y-108851700D01*
X147320000Y-108089700D02*
X146812000Y-108851700D01*
X147320000Y-108089700D02*
X146685000Y-108851700D01*
X147320000Y-108089700D02*
X147447000Y-108851700D01*
X147320000Y-108089700D02*
X147574000Y-108851700D01*
X147320000Y-108089700D02*
X147701000Y-108851700D01*
X147320000Y-108089700D02*
X147828000Y-108851700D01*
X147320000Y-108089700D02*
X147955000Y-108851700D01*
X147955000Y-108089700D02*
X146685000Y-108089700D01*
X147320000Y-109105700D02*
X147320000Y-107835700D01*
%TO.C,U7*%
X149946360Y-109486700D02*
X149555200Y-109486700D01*
X152313640Y-115049300D02*
X152704800Y-115049300D01*
X149555200Y-115049300D02*
X149946360Y-115049300D01*
X149555200Y-109486700D02*
X149555200Y-115049300D01*
X152704800Y-109486700D02*
X152313640Y-109486700D01*
X152704800Y-115049300D02*
X152704800Y-109486700D01*
X150495000Y-115684300D02*
X151765000Y-115684300D01*
X151130000Y-116446300D02*
X151257000Y-115684300D01*
X151130000Y-116446300D02*
X151384000Y-115684300D01*
X151130000Y-116446300D02*
X151511000Y-115684300D01*
X151130000Y-116446300D02*
X151638000Y-115684300D01*
X151130000Y-116446300D02*
X151765000Y-115684300D01*
X151130000Y-116446300D02*
X151003000Y-115684300D01*
X151130000Y-116446300D02*
X150876000Y-115684300D01*
X151130000Y-116446300D02*
X150749000Y-115684300D01*
X151130000Y-116446300D02*
X150622000Y-115684300D01*
X151130000Y-116446300D02*
X150495000Y-115684300D01*
X150495000Y-116446300D02*
X151765000Y-116446300D01*
X151130000Y-115430300D02*
X151130000Y-116700300D01*
%TO.C,U6*%
X146136360Y-88150700D02*
X145745200Y-88150700D01*
X148503640Y-93713300D02*
X148894800Y-93713300D01*
X145745200Y-93713300D02*
X146136360Y-93713300D01*
X145745200Y-88150700D02*
X145745200Y-93713300D01*
X148894800Y-88150700D02*
X148503640Y-88150700D01*
X148894800Y-93713300D02*
X148894800Y-88150700D01*
X146685000Y-94348300D02*
X147955000Y-94348300D01*
X147320000Y-95110300D02*
X147447000Y-94348300D01*
X147320000Y-95110300D02*
X147574000Y-94348300D01*
X147320000Y-95110300D02*
X147701000Y-94348300D01*
X147320000Y-95110300D02*
X147828000Y-94348300D01*
X147320000Y-95110300D02*
X147955000Y-94348300D01*
X147320000Y-95110300D02*
X147193000Y-94348300D01*
X147320000Y-95110300D02*
X147066000Y-94348300D01*
X147320000Y-95110300D02*
X146939000Y-94348300D01*
X147320000Y-95110300D02*
X146812000Y-94348300D01*
X147320000Y-95110300D02*
X146685000Y-94348300D01*
X146685000Y-95110300D02*
X147955000Y-95110300D01*
X147320000Y-94094300D02*
X147320000Y-95364300D01*
%TO.C,U5*%
X152313640Y-93713300D02*
X152704800Y-93713300D01*
X149946360Y-88150700D02*
X149555200Y-88150700D01*
X152704800Y-88150700D02*
X152313640Y-88150700D01*
X152704800Y-93713300D02*
X152704800Y-88150700D01*
X149555200Y-93713300D02*
X149946360Y-93713300D01*
X149555200Y-88150700D02*
X149555200Y-93713300D01*
X151765000Y-87515700D02*
X150495000Y-87515700D01*
X151130000Y-86753700D02*
X151003000Y-87515700D01*
X151130000Y-86753700D02*
X150876000Y-87515700D01*
X151130000Y-86753700D02*
X150749000Y-87515700D01*
X151130000Y-86753700D02*
X150622000Y-87515700D01*
X151130000Y-86753700D02*
X150495000Y-87515700D01*
X151130000Y-86753700D02*
X151257000Y-87515700D01*
X151130000Y-86753700D02*
X151384000Y-87515700D01*
X151130000Y-86753700D02*
X151511000Y-87515700D01*
X151130000Y-86753700D02*
X151638000Y-87515700D01*
X151130000Y-86753700D02*
X151765000Y-87515700D01*
X151765000Y-86753700D02*
X150495000Y-86753700D01*
X151130000Y-87769700D02*
X151130000Y-86499700D01*
%TO.C,U4*%
X148503640Y-100825300D02*
X148894800Y-100825300D01*
X146136360Y-95262700D02*
X145745200Y-95262700D01*
X148894800Y-95262700D02*
X148503640Y-95262700D01*
X148894800Y-100825300D02*
X148894800Y-95262700D01*
X145745200Y-100825300D02*
X146136360Y-100825300D01*
X145745200Y-95262700D02*
X145745200Y-100825300D01*
X147955000Y-94627700D02*
X146685000Y-94627700D01*
X147320000Y-93865700D02*
X147193000Y-94627700D01*
X147320000Y-93865700D02*
X147066000Y-94627700D01*
X147320000Y-93865700D02*
X146939000Y-94627700D01*
X147320000Y-93865700D02*
X146812000Y-94627700D01*
X147320000Y-93865700D02*
X146685000Y-94627700D01*
X147320000Y-93865700D02*
X147447000Y-94627700D01*
X147320000Y-93865700D02*
X147574000Y-94627700D01*
X147320000Y-93865700D02*
X147701000Y-94627700D01*
X147320000Y-93865700D02*
X147828000Y-94627700D01*
X147320000Y-93865700D02*
X147955000Y-94627700D01*
X147955000Y-93865700D02*
X146685000Y-93865700D01*
X147320000Y-94881700D02*
X147320000Y-93611700D01*
%TO.C,U3*%
X149946360Y-95262700D02*
X149555200Y-95262700D01*
X152313640Y-100825300D02*
X152704800Y-100825300D01*
X149555200Y-100825300D02*
X149946360Y-100825300D01*
X149555200Y-95262700D02*
X149555200Y-100825300D01*
X152704800Y-95262700D02*
X152313640Y-95262700D01*
X152704800Y-100825300D02*
X152704800Y-95262700D01*
X150495000Y-101460300D02*
X151765000Y-101460300D01*
X151130000Y-102222300D02*
X151257000Y-101460300D01*
X151130000Y-102222300D02*
X151384000Y-101460300D01*
X151130000Y-102222300D02*
X151511000Y-101460300D01*
X151130000Y-102222300D02*
X151638000Y-101460300D01*
X151130000Y-102222300D02*
X151765000Y-101460300D01*
X151130000Y-102222300D02*
X151003000Y-101460300D01*
X151130000Y-102222300D02*
X150876000Y-101460300D01*
X151130000Y-102222300D02*
X150749000Y-101460300D01*
X151130000Y-102222300D02*
X150622000Y-101460300D01*
X151130000Y-102222300D02*
X150495000Y-101460300D01*
X150495000Y-102222300D02*
X151765000Y-102222300D01*
X151130000Y-101206300D02*
X151130000Y-102476300D01*
D12*
%TO.C,J5*%
X157580000Y-113015000D02*
G75*
G03*
X157580000Y-113015000I-100000J0D01*
G01*
D15*
X153380000Y-102315000D02*
X153380000Y-112315000D01*
X161580000Y-102315000D02*
X153380000Y-102315000D01*
X161580000Y-112315000D02*
X161580000Y-102315000D01*
X153380000Y-112315000D02*
X161580000Y-112315000D01*
%TO.C,J4*%
X153380000Y-100885000D02*
X161580000Y-100885000D01*
X161580000Y-100885000D02*
X161580000Y-90885000D01*
X161580000Y-90885000D02*
X153380000Y-90885000D01*
X153380000Y-90885000D02*
X153380000Y-100885000D01*
D12*
X157580000Y-101585000D02*
G75*
G03*
X157580000Y-101585000I-100000J0D01*
G01*
%TO.C,U2*%
D17*
X152238634Y-97914701D02*
X153048648Y-97914701D01*
X153143944Y-97867053D01*
X153191592Y-97819405D01*
X153239240Y-97724109D01*
X153239240Y-97533518D01*
X153191592Y-97438222D01*
X153143944Y-97390574D01*
X153048648Y-97342926D01*
X152238634Y-97342926D01*
X152333929Y-96914095D02*
X152286282Y-96866447D01*
X152238634Y-96771151D01*
X152238634Y-96532912D01*
X152286282Y-96437616D01*
X152333929Y-96389968D01*
X152429225Y-96342320D01*
X152524521Y-96342320D01*
X152667465Y-96389968D01*
X153239240Y-96961743D01*
X153239240Y-96342320D01*
%TD*%
M02*
