%TF.GenerationSoftware,KiCad,Pcbnew,5.1.9-1.fc32*%
%TF.CreationDate,2021-03-18T16:00:35-07:00*%
%TF.ProjectId,motorbrainz,6d6f746f-7262-4726-9169-6e7a2e6b6963,1.0*%
%TF.SameCoordinates,Original*%
%TF.FileFunction,Soldermask,Top*%
%TF.FilePolarity,Negative*%
%FSLAX46Y46*%
G04 Gerber Fmt 4.6, Leading zero omitted, Abs format (unit mm)*
G04 Created by KiCad (PCBNEW 5.1.9-1.fc32) date 2021-03-18 16:00:35*
%MOMM*%
%LPD*%
G01*
G04 APERTURE LIST*
%ADD10C,0.010000*%
%ADD11R,3.730000X0.740000*%
%ADD12R,1.000000X1.200000*%
%ADD13R,1.200000X1.000000*%
%ADD14C,0.100000*%
%ADD15R,3.050000X2.900000*%
%ADD16R,9.600000X6.000000*%
%ADD17R,0.700000X2.000000*%
%ADD18R,2.000000X3.800000*%
%ADD19R,2.000000X1.500000*%
%ADD20R,1.650000X1.650000*%
%ADD21C,1.650000*%
%ADD22R,1.701800X2.209800*%
G04 APERTURE END LIST*
D10*
%TO.C,J7*%
G36*
X104561000Y-94410000D02*
G01*
X103719000Y-94410000D01*
X103719000Y-91518000D01*
X104561000Y-91518000D01*
X104561000Y-94410000D01*
G37*
X104561000Y-94410000D02*
X103719000Y-94410000D01*
X103719000Y-91518000D01*
X104561000Y-91518000D01*
X104561000Y-94410000D01*
G36*
X104561000Y-90346000D02*
G01*
X103719000Y-90346000D01*
X103719000Y-87454000D01*
X104561000Y-87454000D01*
X104561000Y-90346000D01*
G37*
X104561000Y-90346000D02*
X103719000Y-90346000D01*
X103719000Y-87454000D01*
X104561000Y-87454000D01*
X104561000Y-90346000D01*
G36*
X105831000Y-94410000D02*
G01*
X104989000Y-94410000D01*
X104989000Y-91518000D01*
X105831000Y-91518000D01*
X105831000Y-94410000D01*
G37*
X105831000Y-94410000D02*
X104989000Y-94410000D01*
X104989000Y-91518000D01*
X105831000Y-91518000D01*
X105831000Y-94410000D01*
G36*
X105831000Y-90346000D02*
G01*
X104989000Y-90346000D01*
X104989000Y-87454000D01*
X105831000Y-87454000D01*
X105831000Y-90346000D01*
G37*
X105831000Y-90346000D02*
X104989000Y-90346000D01*
X104989000Y-87454000D01*
X105831000Y-87454000D01*
X105831000Y-90346000D01*
G36*
X107101000Y-94410000D02*
G01*
X106259000Y-94410000D01*
X106259000Y-91518000D01*
X107101000Y-91518000D01*
X107101000Y-94410000D01*
G37*
X107101000Y-94410000D02*
X106259000Y-94410000D01*
X106259000Y-91518000D01*
X107101000Y-91518000D01*
X107101000Y-94410000D01*
G36*
X107101000Y-90346000D02*
G01*
X106259000Y-90346000D01*
X106259000Y-87454000D01*
X107101000Y-87454000D01*
X107101000Y-90346000D01*
G37*
X107101000Y-90346000D02*
X106259000Y-90346000D01*
X106259000Y-87454000D01*
X107101000Y-87454000D01*
X107101000Y-90346000D01*
G36*
X108371000Y-94410000D02*
G01*
X107529000Y-94410000D01*
X107529000Y-91518000D01*
X108371000Y-91518000D01*
X108371000Y-94410000D01*
G37*
X108371000Y-94410000D02*
X107529000Y-94410000D01*
X107529000Y-91518000D01*
X108371000Y-91518000D01*
X108371000Y-94410000D01*
G36*
X108371000Y-90346000D02*
G01*
X107529000Y-90346000D01*
X107529000Y-87454000D01*
X108371000Y-87454000D01*
X108371000Y-90346000D01*
G37*
X108371000Y-90346000D02*
X107529000Y-90346000D01*
X107529000Y-87454000D01*
X108371000Y-87454000D01*
X108371000Y-90346000D01*
G36*
X109641000Y-94410000D02*
G01*
X108799000Y-94410000D01*
X108799000Y-91518000D01*
X109641000Y-91518000D01*
X109641000Y-94410000D01*
G37*
X109641000Y-94410000D02*
X108799000Y-94410000D01*
X108799000Y-91518000D01*
X109641000Y-91518000D01*
X109641000Y-94410000D01*
G36*
X109641000Y-90346000D02*
G01*
X108799000Y-90346000D01*
X108799000Y-87454000D01*
X109641000Y-87454000D01*
X109641000Y-90346000D01*
G37*
X109641000Y-90346000D02*
X108799000Y-90346000D01*
X108799000Y-87454000D01*
X109641000Y-87454000D01*
X109641000Y-90346000D01*
%TO.C,J2*%
G36*
X96941000Y-115238000D02*
G01*
X96099000Y-115238000D01*
X96099000Y-112346000D01*
X96941000Y-112346000D01*
X96941000Y-115238000D01*
G37*
X96941000Y-115238000D02*
X96099000Y-115238000D01*
X96099000Y-112346000D01*
X96941000Y-112346000D01*
X96941000Y-115238000D01*
G36*
X96941000Y-111174000D02*
G01*
X96099000Y-111174000D01*
X96099000Y-108282000D01*
X96941000Y-108282000D01*
X96941000Y-111174000D01*
G37*
X96941000Y-111174000D02*
X96099000Y-111174000D01*
X96099000Y-108282000D01*
X96941000Y-108282000D01*
X96941000Y-111174000D01*
G36*
X98211000Y-115238000D02*
G01*
X97369000Y-115238000D01*
X97369000Y-112346000D01*
X98211000Y-112346000D01*
X98211000Y-115238000D01*
G37*
X98211000Y-115238000D02*
X97369000Y-115238000D01*
X97369000Y-112346000D01*
X98211000Y-112346000D01*
X98211000Y-115238000D01*
G36*
X98211000Y-111174000D02*
G01*
X97369000Y-111174000D01*
X97369000Y-108282000D01*
X98211000Y-108282000D01*
X98211000Y-111174000D01*
G37*
X98211000Y-111174000D02*
X97369000Y-111174000D01*
X97369000Y-108282000D01*
X98211000Y-108282000D01*
X98211000Y-111174000D01*
G36*
X99481000Y-115238000D02*
G01*
X98639000Y-115238000D01*
X98639000Y-112346000D01*
X99481000Y-112346000D01*
X99481000Y-115238000D01*
G37*
X99481000Y-115238000D02*
X98639000Y-115238000D01*
X98639000Y-112346000D01*
X99481000Y-112346000D01*
X99481000Y-115238000D01*
G36*
X99481000Y-111174000D02*
G01*
X98639000Y-111174000D01*
X98639000Y-108282000D01*
X99481000Y-108282000D01*
X99481000Y-111174000D01*
G37*
X99481000Y-111174000D02*
X98639000Y-111174000D01*
X98639000Y-108282000D01*
X99481000Y-108282000D01*
X99481000Y-111174000D01*
%TO.C,J1*%
G36*
X93766000Y-90346000D02*
G01*
X92924000Y-90346000D01*
X92924000Y-87454000D01*
X93766000Y-87454000D01*
X93766000Y-90346000D01*
G37*
X93766000Y-90346000D02*
X92924000Y-90346000D01*
X92924000Y-87454000D01*
X93766000Y-87454000D01*
X93766000Y-90346000D01*
G36*
X95036000Y-94410000D02*
G01*
X94194000Y-94410000D01*
X94194000Y-91518000D01*
X95036000Y-91518000D01*
X95036000Y-94410000D01*
G37*
X95036000Y-94410000D02*
X94194000Y-94410000D01*
X94194000Y-91518000D01*
X95036000Y-91518000D01*
X95036000Y-94410000D01*
G36*
X95036000Y-90346000D02*
G01*
X94194000Y-90346000D01*
X94194000Y-87454000D01*
X95036000Y-87454000D01*
X95036000Y-90346000D01*
G37*
X95036000Y-90346000D02*
X94194000Y-90346000D01*
X94194000Y-87454000D01*
X95036000Y-87454000D01*
X95036000Y-90346000D01*
G36*
X96306000Y-94410000D02*
G01*
X95464000Y-94410000D01*
X95464000Y-91518000D01*
X96306000Y-91518000D01*
X96306000Y-94410000D01*
G37*
X96306000Y-94410000D02*
X95464000Y-94410000D01*
X95464000Y-91518000D01*
X96306000Y-91518000D01*
X96306000Y-94410000D01*
G36*
X96306000Y-90346000D02*
G01*
X95464000Y-90346000D01*
X95464000Y-87454000D01*
X96306000Y-87454000D01*
X96306000Y-90346000D01*
G37*
X96306000Y-90346000D02*
X95464000Y-90346000D01*
X95464000Y-87454000D01*
X96306000Y-87454000D01*
X96306000Y-90346000D01*
G36*
X97576000Y-94410000D02*
G01*
X96734000Y-94410000D01*
X96734000Y-91518000D01*
X97576000Y-91518000D01*
X97576000Y-94410000D01*
G37*
X97576000Y-94410000D02*
X96734000Y-94410000D01*
X96734000Y-91518000D01*
X97576000Y-91518000D01*
X97576000Y-94410000D01*
G36*
X97576000Y-90346000D02*
G01*
X96734000Y-90346000D01*
X96734000Y-87454000D01*
X97576000Y-87454000D01*
X97576000Y-90346000D01*
G37*
X97576000Y-90346000D02*
X96734000Y-90346000D01*
X96734000Y-87454000D01*
X97576000Y-87454000D01*
X97576000Y-90346000D01*
G36*
X98846000Y-94410000D02*
G01*
X98004000Y-94410000D01*
X98004000Y-91518000D01*
X98846000Y-91518000D01*
X98846000Y-94410000D01*
G37*
X98846000Y-94410000D02*
X98004000Y-94410000D01*
X98004000Y-91518000D01*
X98846000Y-91518000D01*
X98846000Y-94410000D01*
%TD*%
D11*
%TO.C,J6*%
X108445000Y-112839500D03*
X106185000Y-111569500D03*
X108445000Y-110299500D03*
%TD*%
%TO.C,C2*%
G36*
G01*
X102986000Y-97774999D02*
X102986000Y-99075001D01*
G75*
G02*
X102736001Y-99325000I-249999J0D01*
G01*
X102085999Y-99325000D01*
G75*
G02*
X101836000Y-99075001I0J249999D01*
G01*
X101836000Y-97774999D01*
G75*
G02*
X102085999Y-97525000I249999J0D01*
G01*
X102736001Y-97525000D01*
G75*
G02*
X102986000Y-97774999I0J-249999D01*
G01*
G37*
G36*
G01*
X105936000Y-97774999D02*
X105936000Y-99075001D01*
G75*
G02*
X105686001Y-99325000I-249999J0D01*
G01*
X105035999Y-99325000D01*
G75*
G02*
X104786000Y-99075001I0J249999D01*
G01*
X104786000Y-97774999D01*
G75*
G02*
X105035999Y-97525000I249999J0D01*
G01*
X105686001Y-97525000D01*
G75*
G02*
X105936000Y-97774999I0J-249999D01*
G01*
G37*
%TD*%
%TO.C,C5*%
G36*
G01*
X128906000Y-86450000D02*
X128906000Y-91350000D01*
G75*
G02*
X128656000Y-91600000I-250000J0D01*
G01*
X127356000Y-91600000D01*
G75*
G02*
X127106000Y-91350000I0J250000D01*
G01*
X127106000Y-86450000D01*
G75*
G02*
X127356000Y-86200000I250000J0D01*
G01*
X128656000Y-86200000D01*
G75*
G02*
X128906000Y-86450000I0J-250000D01*
G01*
G37*
G36*
G01*
X134006000Y-86450000D02*
X134006000Y-91350000D01*
G75*
G02*
X133756000Y-91600000I-250000J0D01*
G01*
X132456000Y-91600000D01*
G75*
G02*
X132206000Y-91350000I0J250000D01*
G01*
X132206000Y-86450000D01*
G75*
G02*
X132456000Y-86200000I250000J0D01*
G01*
X133756000Y-86200000D01*
G75*
G02*
X134006000Y-86450000I0J-250000D01*
G01*
G37*
%TD*%
D12*
%TO.C,U1*%
X122555000Y-113248900D03*
X121285000Y-113248900D03*
X120015000Y-113248900D03*
X118745000Y-113248900D03*
X117475000Y-113248900D03*
X116205000Y-113248900D03*
X114935000Y-113248900D03*
X113665000Y-113248900D03*
D13*
X111950000Y-92075000D03*
X111950000Y-93345000D03*
X111950000Y-94615000D03*
X111950000Y-95885000D03*
X111950000Y-97155000D03*
X111950000Y-98425000D03*
X111950000Y-99695000D03*
X111950000Y-100965000D03*
X111950000Y-102235000D03*
X111950000Y-103505000D03*
X111950000Y-104775000D03*
X111950000Y-106045000D03*
X111950000Y-107315000D03*
X111950000Y-108585000D03*
X124290000Y-92063700D03*
X124290000Y-93333700D03*
X124290000Y-94603700D03*
X124290000Y-95873700D03*
X124290000Y-97143700D03*
X124290000Y-98413700D03*
X124290000Y-99683700D03*
X124290000Y-100953700D03*
X124290000Y-102223700D03*
X124290000Y-103493700D03*
X124290000Y-104763700D03*
X124290000Y-106033700D03*
X124290000Y-107303700D03*
X124290000Y-108573700D03*
D14*
G36*
X115189951Y-95698890D02*
G01*
X115189954Y-95698881D01*
X115189958Y-95698872D01*
X117309972Y-93578858D01*
X117309981Y-93578854D01*
X117309990Y-93578851D01*
X117310000Y-93578850D01*
X117980000Y-93578850D01*
X117980010Y-93578851D01*
X117980019Y-93578854D01*
X117980028Y-93578858D01*
X117980035Y-93578865D01*
X119770035Y-95378865D01*
X119770042Y-95378872D01*
X119770046Y-95378881D01*
X119770049Y-95378890D01*
X119770050Y-95378900D01*
X119770049Y-95378910D01*
X119770046Y-95378919D01*
X119770041Y-95378928D01*
X119770035Y-95378935D01*
X117310035Y-97828935D01*
X117310028Y-97828942D01*
X117310019Y-97828946D01*
X117310010Y-97828949D01*
X117310000Y-97828950D01*
X117309990Y-97828949D01*
X117309981Y-97828946D01*
X117309972Y-97828942D01*
X117309965Y-97828935D01*
X115189965Y-95698935D01*
X115189958Y-95698928D01*
X115189954Y-95698919D01*
X115189951Y-95698910D01*
X115189950Y-95698900D01*
X115189951Y-95698890D01*
G37*
%TD*%
D15*
%TO.C,U2*%
X129590000Y-101600000D03*
X142190000Y-101600000D03*
D16*
X135890000Y-101600000D03*
D17*
X141605000Y-108300000D03*
X140335000Y-108300000D03*
X139065000Y-108300000D03*
X137795000Y-108300000D03*
X136525000Y-108300000D03*
X135255000Y-108300000D03*
X133985000Y-108300000D03*
X132715000Y-108300000D03*
X131445000Y-108300000D03*
X130175000Y-108300000D03*
X130175000Y-94900000D03*
X131445000Y-94900000D03*
X132715000Y-94900000D03*
X133985000Y-94900000D03*
X135255000Y-94900000D03*
X136525000Y-94900000D03*
X137795000Y-94900000D03*
X139065000Y-94900000D03*
X140335000Y-94900000D03*
X141605000Y-94900000D03*
%TD*%
%TO.C,C4*%
G36*
G01*
X132390000Y-92460000D02*
X132390000Y-92960000D01*
G75*
G02*
X132165000Y-93185000I-225000J0D01*
G01*
X131715000Y-93185000D01*
G75*
G02*
X131490000Y-92960000I0J225000D01*
G01*
X131490000Y-92460000D01*
G75*
G02*
X131715000Y-92235000I225000J0D01*
G01*
X132165000Y-92235000D01*
G75*
G02*
X132390000Y-92460000I0J-225000D01*
G01*
G37*
G36*
G01*
X133940000Y-92460000D02*
X133940000Y-92960000D01*
G75*
G02*
X133715000Y-93185000I-225000J0D01*
G01*
X133265000Y-93185000D01*
G75*
G02*
X133040000Y-92960000I0J225000D01*
G01*
X133040000Y-92460000D01*
G75*
G02*
X133265000Y-92235000I225000J0D01*
G01*
X133715000Y-92235000D01*
G75*
G02*
X133940000Y-92460000I0J-225000D01*
G01*
G37*
%TD*%
D18*
%TO.C,U11*%
X109195000Y-103251000D03*
D19*
X102895000Y-103251000D03*
X102895000Y-105551000D03*
X102895000Y-100951000D03*
%TD*%
D20*
%TO.C,J3*%
X96520000Y-99100000D03*
D21*
X96520000Y-104100000D03*
%TD*%
%TO.C,C3*%
G36*
G01*
X130485000Y-110240000D02*
X130485000Y-110740000D01*
G75*
G02*
X130260000Y-110965000I-225000J0D01*
G01*
X129810000Y-110965000D01*
G75*
G02*
X129585000Y-110740000I0J225000D01*
G01*
X129585000Y-110240000D01*
G75*
G02*
X129810000Y-110015000I225000J0D01*
G01*
X130260000Y-110015000D01*
G75*
G02*
X130485000Y-110240000I0J-225000D01*
G01*
G37*
G36*
G01*
X132035000Y-110240000D02*
X132035000Y-110740000D01*
G75*
G02*
X131810000Y-110965000I-225000J0D01*
G01*
X131360000Y-110965000D01*
G75*
G02*
X131135000Y-110740000I0J225000D01*
G01*
X131135000Y-110240000D01*
G75*
G02*
X131360000Y-110015000I225000J0D01*
G01*
X131810000Y-110015000D01*
G75*
G02*
X132035000Y-110240000I0J-225000D01*
G01*
G37*
%TD*%
%TO.C,C1*%
G36*
G01*
X102645000Y-109265000D02*
X103145000Y-109265000D01*
G75*
G02*
X103370000Y-109490000I0J-225000D01*
G01*
X103370000Y-109940000D01*
G75*
G02*
X103145000Y-110165000I-225000J0D01*
G01*
X102645000Y-110165000D01*
G75*
G02*
X102420000Y-109940000I0J225000D01*
G01*
X102420000Y-109490000D01*
G75*
G02*
X102645000Y-109265000I225000J0D01*
G01*
G37*
G36*
G01*
X102645000Y-110815000D02*
X103145000Y-110815000D01*
G75*
G02*
X103370000Y-111040000I0J-225000D01*
G01*
X103370000Y-111490000D01*
G75*
G02*
X103145000Y-111715000I-225000J0D01*
G01*
X102645000Y-111715000D01*
G75*
G02*
X102420000Y-111490000I0J225000D01*
G01*
X102420000Y-111040000D01*
G75*
G02*
X102645000Y-110815000I225000J0D01*
G01*
G37*
%TD*%
D22*
%TO.C,U10*%
X147320000Y-103454200D03*
X147320000Y-106857800D03*
%TD*%
%TO.C,U9*%
X151130000Y-106857800D03*
X151130000Y-103454200D03*
%TD*%
%TO.C,U8*%
X147320000Y-113969800D03*
X147320000Y-110566200D03*
%TD*%
%TO.C,U7*%
X151130000Y-110566200D03*
X151130000Y-113969800D03*
%TD*%
%TO.C,U6*%
X147320000Y-89230200D03*
X147320000Y-92633800D03*
%TD*%
%TO.C,U5*%
X151130000Y-92633800D03*
X151130000Y-89230200D03*
%TD*%
%TO.C,U4*%
X147320000Y-99745800D03*
X147320000Y-96342200D03*
%TD*%
%TO.C,U3*%
X151130000Y-96342200D03*
X151130000Y-99745800D03*
%TD*%
D21*
%TO.C,J5*%
X157480000Y-104815000D03*
D20*
X157480000Y-109815000D03*
%TD*%
%TO.C,J4*%
X157480000Y-98385000D03*
D21*
X157480000Y-93385000D03*
%TD*%
M02*
