M48
; DRILL file {KiCad 5.1.9-1.fc32} date Thu Mar 18 16:00:51 2021
; FORMAT={-:-/ absolute / inch / decimal}
; #@! TF.CreationDate,2021-03-18T16:00:51-07:00
; #@! TF.GenerationSoftware,Kicad,Pcbnew,5.1.9-1.fc32
; #@! TF.FileFunction,Plated,1,4,PTH
FMAT,2
INCH
T1C0.0118
T2C0.0236
T3C0.0433
%
G90
G05
T1
X4.5691Y-3.753
X4.5691Y-3.7845
X4.6006Y-3.7215
X4.6006Y-3.753
X4.6006Y-3.7845
X4.6006Y-3.816
X4.632Y-3.7215
X4.632Y-3.753
X4.632Y-3.7845
X4.632Y-3.816
X4.6635Y-3.7215
X4.6635Y-3.753
X4.6635Y-3.7845
X4.695Y-3.753
X5.0665Y-3.9685
X5.0665Y-4.0
X5.0665Y-4.0315
X5.098Y-3.9685
X5.098Y-4.0
X5.098Y-4.0315
X5.1295Y-3.9685
X5.1295Y-4.0
X5.1295Y-4.0315
X5.161Y-3.9685
X5.161Y-4.0
X5.161Y-4.0
X5.161Y-4.0315
X5.1925Y-3.9055
X5.1925Y-3.937
X5.1925Y-3.9685
X5.1925Y-4.0
X5.1925Y-4.0315
X5.1925Y-4.063
X5.1925Y-4.0945
X5.224Y-3.9055
X5.224Y-3.937
X5.224Y-3.9685
X5.224Y-4.0
X5.224Y-4.0315
X5.224Y-4.063
X5.224Y-4.0945
X5.2555Y-3.9055
X5.2555Y-3.937
X5.2555Y-3.9685
X5.2555Y-4.0
X5.2555Y-4.0315
X5.2555Y-4.063
X5.2555Y-4.0945
X5.287Y-3.9055
X5.287Y-3.937
X5.287Y-3.9685
X5.287Y-4.0
X5.287Y-4.0315
X5.287Y-4.063
X5.287Y-4.0945
X5.3185Y-3.9055
X5.3185Y-3.937
X5.3185Y-3.9685
X5.3185Y-4.0
X5.3185Y-4.0315
X5.3185Y-4.063
X5.3185Y-4.0945
X5.35Y-3.9055
X5.35Y-3.937
X5.35Y-3.9685
X5.35Y-4.0
X5.35Y-4.0315
X5.35Y-4.063
X5.35Y-4.0945
X5.3815Y-3.9055
X5.3815Y-3.937
X5.3815Y-3.9685
X5.3815Y-4.0
X5.3815Y-4.0315
X5.3815Y-4.063
X5.3815Y-4.0945
X5.413Y-3.9055
X5.413Y-3.937
X5.413Y-3.9685
X5.413Y-4.0
X5.413Y-4.0315
X5.413Y-4.063
X5.413Y-4.0945
X5.4445Y-3.9055
X5.4445Y-3.937
X5.4445Y-3.9685
X5.4445Y-4.0
X5.4445Y-4.0315
X5.4445Y-4.063
X5.4445Y-4.0945
X5.476Y-3.9055
X5.476Y-3.937
X5.476Y-3.9685
X5.476Y-4.0
X5.476Y-4.0315
X5.476Y-4.063
X5.476Y-4.0945
X5.5075Y-3.9055
X5.5075Y-3.937
X5.5075Y-3.9685
X5.5075Y-4.0
X5.5075Y-4.0315
X5.5075Y-4.063
X5.5075Y-4.0945
X5.539Y-3.9685
X5.539Y-4.0
X5.539Y-4.0315
X5.5705Y-3.9685
X5.5705Y-4.0
X5.5705Y-4.0315
X5.602Y-3.9685
X5.602Y-4.0
X5.602Y-4.0315
X5.6335Y-3.9685
X5.6335Y-4.0
X5.6335Y-4.0315
T2
X3.7Y-4.18
X3.7Y-4.28
X3.725Y-3.745
X3.8Y-3.745
X3.8Y-4.23
X3.85Y-4.58
X3.875Y-3.745
X3.9Y-4.18
X3.94Y-3.58
X3.95Y-4.32
X4.0463Y-3.41
X4.065Y-3.58
X4.125Y-3.41
X4.125Y-3.745
X4.2Y-3.41
X4.225Y-3.745
X4.275Y-3.41
X4.335Y-3.58
X4.3537Y-3.41
X4.4562Y-3.41
X4.465Y-3.55
X4.465Y-3.625
X4.465Y-3.75
X4.465Y-3.825
X4.465Y-3.9
X4.465Y-3.975
X4.465Y-4.05
X4.465Y-4.125
X4.465Y-4.275
X4.725Y-4.4
X4.8Y-4.4
X4.835Y-3.65
X4.835Y-3.725
X4.835Y-3.825
X4.835Y-3.9
X4.835Y-3.975
X4.835Y-4.05
X4.835Y-4.125
X5.075Y-3.7362
X5.075Y-4.2638
X5.275Y-4.3375
X5.325Y-3.6625
X5.325Y-3.81
X5.525Y-3.6625
X5.525Y-3.81
X5.525Y-4.19
X5.525Y-4.3375
X5.6426Y-3.81
X5.6426Y-4.19
X5.725Y-3.9
X5.725Y-3.95
X5.725Y-4.05
X5.725Y-4.1
X5.775Y-3.425
X5.775Y-4.575
X5.825Y-3.425
X5.825Y-4.575
X6.025Y-3.485
X6.025Y-3.535
X6.025Y-3.9
X6.025Y-3.95
X6.025Y-4.05
X6.025Y-4.1
X6.025Y-4.465
X6.025Y-4.515
T3
X3.8Y-3.9016
X3.8Y-4.0984
X6.2Y-3.6766
X6.2Y-3.8734
X6.2Y-4.1266
X6.2Y-4.3234
T0
M30
