%TF.GenerationSoftware,KiCad,Pcbnew,5.1.9-1.fc32*%
%TF.CreationDate,2021-03-18T16:00:35-07:00*%
%TF.ProjectId,motorbrainz,6d6f746f-7262-4726-9169-6e7a2e6b6963,1.0*%
%TF.SameCoordinates,Original*%
%TF.FileFunction,Legend,Bot*%
%TF.FilePolarity,Positive*%
%FSLAX46Y46*%
G04 Gerber Fmt 4.6, Leading zero omitted, Abs format (unit mm)*
G04 Created by KiCad (PCBNEW 5.1.9-1.fc32) date 2021-03-18 16:00:35*
%MOMM*%
%LPD*%
G01*
G04 APERTURE LIST*
%ADD10C,0.150000*%
%ADD11C,0.125000*%
%ADD12C,0.120000*%
%ADD13C,0.100000*%
G04 APERTURE END LIST*
D10*
X148979380Y-95790476D02*
X148312714Y-95790476D01*
X148407952Y-95790476D02*
X148360333Y-95838095D01*
X148312714Y-95933333D01*
X148312714Y-96076190D01*
X148360333Y-96171428D01*
X148455571Y-96219047D01*
X148979380Y-96219047D01*
X148455571Y-96219047D02*
X148360333Y-96266666D01*
X148312714Y-96361904D01*
X148312714Y-96504761D01*
X148360333Y-96600000D01*
X148455571Y-96647619D01*
X148979380Y-96647619D01*
X148979380Y-97266666D02*
X148931761Y-97171428D01*
X148884142Y-97123809D01*
X148788904Y-97076190D01*
X148503190Y-97076190D01*
X148407952Y-97123809D01*
X148360333Y-97171428D01*
X148312714Y-97266666D01*
X148312714Y-97409523D01*
X148360333Y-97504761D01*
X148407952Y-97552380D01*
X148503190Y-97600000D01*
X148788904Y-97600000D01*
X148884142Y-97552380D01*
X148931761Y-97504761D01*
X148979380Y-97409523D01*
X148979380Y-97266666D01*
X148312714Y-97885714D02*
X148312714Y-98266666D01*
X147979380Y-98028571D02*
X148836523Y-98028571D01*
X148931761Y-98076190D01*
X148979380Y-98171428D01*
X148979380Y-98266666D01*
X148979380Y-98742857D02*
X148931761Y-98647619D01*
X148884142Y-98600000D01*
X148788904Y-98552380D01*
X148503190Y-98552380D01*
X148407952Y-98600000D01*
X148360333Y-98647619D01*
X148312714Y-98742857D01*
X148312714Y-98885714D01*
X148360333Y-98980952D01*
X148407952Y-99028571D01*
X148503190Y-99076190D01*
X148788904Y-99076190D01*
X148884142Y-99028571D01*
X148931761Y-98980952D01*
X148979380Y-98885714D01*
X148979380Y-98742857D01*
X148979380Y-99504761D02*
X148312714Y-99504761D01*
X148503190Y-99504761D02*
X148407952Y-99552380D01*
X148360333Y-99600000D01*
X148312714Y-99695238D01*
X148312714Y-99790476D01*
X148979380Y-100123809D02*
X147979380Y-100123809D01*
X148360333Y-100123809D02*
X148312714Y-100219047D01*
X148312714Y-100409523D01*
X148360333Y-100504761D01*
X148407952Y-100552380D01*
X148503190Y-100600000D01*
X148788904Y-100600000D01*
X148884142Y-100552380D01*
X148931761Y-100504761D01*
X148979380Y-100409523D01*
X148979380Y-100219047D01*
X148931761Y-100123809D01*
X148979380Y-101028571D02*
X148312714Y-101028571D01*
X148503190Y-101028571D02*
X148407952Y-101076190D01*
X148360333Y-101123809D01*
X148312714Y-101219047D01*
X148312714Y-101314285D01*
X148979380Y-102076190D02*
X148455571Y-102076190D01*
X148360333Y-102028571D01*
X148312714Y-101933333D01*
X148312714Y-101742857D01*
X148360333Y-101647619D01*
X148931761Y-102076190D02*
X148979380Y-101980952D01*
X148979380Y-101742857D01*
X148931761Y-101647619D01*
X148836523Y-101600000D01*
X148741285Y-101600000D01*
X148646047Y-101647619D01*
X148598428Y-101742857D01*
X148598428Y-101980952D01*
X148550809Y-102076190D01*
X148979380Y-102552380D02*
X148312714Y-102552380D01*
X147979380Y-102552380D02*
X148027000Y-102504761D01*
X148074619Y-102552380D01*
X148027000Y-102600000D01*
X147979380Y-102552380D01*
X148074619Y-102552380D01*
X148312714Y-103028571D02*
X148979380Y-103028571D01*
X148407952Y-103028571D02*
X148360333Y-103076190D01*
X148312714Y-103171428D01*
X148312714Y-103314285D01*
X148360333Y-103409523D01*
X148455571Y-103457142D01*
X148979380Y-103457142D01*
X148312714Y-103838095D02*
X148312714Y-104361904D01*
X148979380Y-103838095D01*
X148979380Y-104361904D01*
X148979380Y-106028571D02*
X148979380Y-105457142D01*
X148979380Y-105742857D02*
X147979380Y-105742857D01*
X148122238Y-105647619D01*
X148217476Y-105552380D01*
X148265095Y-105457142D01*
X148884142Y-106457142D02*
X148931761Y-106504761D01*
X148979380Y-106457142D01*
X148931761Y-106409523D01*
X148884142Y-106457142D01*
X148979380Y-106457142D01*
X147979380Y-107123809D02*
X147979380Y-107219047D01*
X148027000Y-107314285D01*
X148074619Y-107361904D01*
X148169857Y-107409523D01*
X148360333Y-107457142D01*
X148598428Y-107457142D01*
X148788904Y-107409523D01*
X148884142Y-107361904D01*
X148931761Y-107314285D01*
X148979380Y-107219047D01*
X148979380Y-107123809D01*
X148931761Y-107028571D01*
X148884142Y-106980952D01*
X148788904Y-106933333D01*
X148598428Y-106885714D01*
X148360333Y-106885714D01*
X148169857Y-106933333D01*
X148074619Y-106980952D01*
X148027000Y-107028571D01*
X147979380Y-107123809D01*
X149867476Y-95219047D02*
X149819857Y-95123809D01*
X149819857Y-94933333D01*
X149867476Y-94838095D01*
X149962714Y-94742857D01*
X150057952Y-94695238D01*
X150248428Y-94695238D01*
X150343666Y-94742857D01*
X150438904Y-94838095D01*
X150486523Y-94933333D01*
X150486523Y-95123809D01*
X150438904Y-95219047D01*
X149486523Y-95028571D02*
X149534142Y-94790476D01*
X149677000Y-94552380D01*
X149915095Y-94409523D01*
X150153190Y-94361904D01*
X150391285Y-94409523D01*
X150629380Y-94552380D01*
X150772238Y-94790476D01*
X150819857Y-95028571D01*
X150772238Y-95266666D01*
X150629380Y-95504761D01*
X150391285Y-95647619D01*
X150153190Y-95695238D01*
X149915095Y-95647619D01*
X149677000Y-95504761D01*
X149534142Y-95266666D01*
X149486523Y-95028571D01*
X149724619Y-96838095D02*
X149677000Y-96885714D01*
X149629380Y-96980952D01*
X149629380Y-97219047D01*
X149677000Y-97314285D01*
X149724619Y-97361904D01*
X149819857Y-97409523D01*
X149915095Y-97409523D01*
X150057952Y-97361904D01*
X150629380Y-96790476D01*
X150629380Y-97409523D01*
X149629380Y-98028571D02*
X149629380Y-98123809D01*
X149677000Y-98219047D01*
X149724619Y-98266666D01*
X149819857Y-98314285D01*
X150010333Y-98361904D01*
X150248428Y-98361904D01*
X150438904Y-98314285D01*
X150534142Y-98266666D01*
X150581761Y-98219047D01*
X150629380Y-98123809D01*
X150629380Y-98028571D01*
X150581761Y-97933333D01*
X150534142Y-97885714D01*
X150438904Y-97838095D01*
X150248428Y-97790476D01*
X150010333Y-97790476D01*
X149819857Y-97838095D01*
X149724619Y-97885714D01*
X149677000Y-97933333D01*
X149629380Y-98028571D01*
X149724619Y-98742857D02*
X149677000Y-98790476D01*
X149629380Y-98885714D01*
X149629380Y-99123809D01*
X149677000Y-99219047D01*
X149724619Y-99266666D01*
X149819857Y-99314285D01*
X149915095Y-99314285D01*
X150057952Y-99266666D01*
X150629380Y-98695238D01*
X150629380Y-99314285D01*
X150629380Y-100266666D02*
X150629380Y-99695238D01*
X150629380Y-99980952D02*
X149629380Y-99980952D01*
X149772238Y-99885714D01*
X149867476Y-99790476D01*
X149915095Y-99695238D01*
X150629380Y-102028571D02*
X150153190Y-101695238D01*
X150629380Y-101457142D02*
X149629380Y-101457142D01*
X149629380Y-101838095D01*
X149677000Y-101933333D01*
X149724619Y-101980952D01*
X149819857Y-102028571D01*
X149962714Y-102028571D01*
X150057952Y-101980952D01*
X150105571Y-101933333D01*
X150153190Y-101838095D01*
X150153190Y-101457142D01*
X150629380Y-102600000D02*
X150581761Y-102504761D01*
X150534142Y-102457142D01*
X150438904Y-102409523D01*
X150153190Y-102409523D01*
X150057952Y-102457142D01*
X150010333Y-102504761D01*
X149962714Y-102600000D01*
X149962714Y-102742857D01*
X150010333Y-102838095D01*
X150057952Y-102885714D01*
X150153190Y-102933333D01*
X150438904Y-102933333D01*
X150534142Y-102885714D01*
X150581761Y-102838095D01*
X150629380Y-102742857D01*
X150629380Y-102600000D01*
X150581761Y-103314285D02*
X150629380Y-103409523D01*
X150629380Y-103600000D01*
X150581761Y-103695238D01*
X150486523Y-103742857D01*
X150438904Y-103742857D01*
X150343666Y-103695238D01*
X150296047Y-103600000D01*
X150296047Y-103457142D01*
X150248428Y-103361904D01*
X150153190Y-103314285D01*
X150105571Y-103314285D01*
X150010333Y-103361904D01*
X149962714Y-103457142D01*
X149962714Y-103600000D01*
X150010333Y-103695238D01*
X150581761Y-104123809D02*
X150629380Y-104219047D01*
X150629380Y-104409523D01*
X150581761Y-104504761D01*
X150486523Y-104552380D01*
X150438904Y-104552380D01*
X150343666Y-104504761D01*
X150296047Y-104409523D01*
X150296047Y-104266666D01*
X150248428Y-104171428D01*
X150153190Y-104123809D01*
X150105571Y-104123809D01*
X150010333Y-104171428D01*
X149962714Y-104266666D01*
X149962714Y-104409523D01*
X150010333Y-104504761D01*
X149629380Y-105600000D02*
X149629380Y-106171428D01*
X150629380Y-105885714D02*
X149629380Y-105885714D01*
X149962714Y-106409523D02*
X150629380Y-106647619D01*
X149962714Y-106885714D02*
X150629380Y-106647619D01*
X150867476Y-106552380D01*
X150915095Y-106504761D01*
X150962714Y-106409523D01*
X150629380Y-107409523D02*
X150581761Y-107314285D01*
X150486523Y-107266666D01*
X149629380Y-107266666D01*
X150581761Y-108171428D02*
X150629380Y-108076190D01*
X150629380Y-107885714D01*
X150581761Y-107790476D01*
X150486523Y-107742857D01*
X150105571Y-107742857D01*
X150010333Y-107790476D01*
X149962714Y-107885714D01*
X149962714Y-108076190D01*
X150010333Y-108171428D01*
X150105571Y-108219047D01*
X150200809Y-108219047D01*
X150296047Y-107742857D01*
X150629380Y-108647619D02*
X149962714Y-108647619D01*
X150153190Y-108647619D02*
X150057952Y-108695238D01*
X150010333Y-108742857D01*
X149962714Y-108838095D01*
X149962714Y-108933333D01*
D11*
X104848035Y-97013964D02*
X104848035Y-96847297D01*
X105109940Y-96847297D02*
X104609940Y-96847297D01*
X104609940Y-97085392D01*
X105109940Y-97347297D02*
X105086130Y-97299678D01*
X105062321Y-97275869D01*
X105014702Y-97252059D01*
X104871845Y-97252059D01*
X104824226Y-97275869D01*
X104800416Y-97299678D01*
X104776607Y-97347297D01*
X104776607Y-97418726D01*
X104800416Y-97466345D01*
X104824226Y-97490154D01*
X104871845Y-97513964D01*
X105014702Y-97513964D01*
X105062321Y-97490154D01*
X105086130Y-97466345D01*
X105109940Y-97418726D01*
X105109940Y-97347297D01*
X105109940Y-97728250D02*
X104776607Y-97728250D01*
X104871845Y-97728250D02*
X104824226Y-97752059D01*
X104800416Y-97775869D01*
X104776607Y-97823488D01*
X104776607Y-97871107D01*
X104776607Y-98371107D02*
X105109940Y-98466345D01*
X104871845Y-98561583D01*
X105109940Y-98656821D01*
X104776607Y-98752059D01*
X105109940Y-98942535D02*
X104776607Y-98942535D01*
X104609940Y-98942535D02*
X104633750Y-98918726D01*
X104657559Y-98942535D01*
X104633750Y-98966345D01*
X104609940Y-98942535D01*
X104657559Y-98942535D01*
X105109940Y-99180630D02*
X104776607Y-99180630D01*
X104871845Y-99180630D02*
X104824226Y-99204440D01*
X104800416Y-99228250D01*
X104776607Y-99275869D01*
X104776607Y-99323488D01*
X105086130Y-99680630D02*
X105109940Y-99633011D01*
X105109940Y-99537773D01*
X105086130Y-99490154D01*
X105038511Y-99466345D01*
X104848035Y-99466345D01*
X104800416Y-99490154D01*
X104776607Y-99537773D01*
X104776607Y-99633011D01*
X104800416Y-99680630D01*
X104848035Y-99704440D01*
X104895654Y-99704440D01*
X104943273Y-99466345D01*
X105109940Y-100133011D02*
X104609940Y-100133011D01*
X105086130Y-100133011D02*
X105109940Y-100085392D01*
X105109940Y-99990154D01*
X105086130Y-99942535D01*
X105062321Y-99918726D01*
X105014702Y-99894916D01*
X104871845Y-99894916D01*
X104824226Y-99918726D01*
X104800416Y-99942535D01*
X104776607Y-99990154D01*
X104776607Y-100085392D01*
X104800416Y-100133011D01*
X105086130Y-100728250D02*
X105109940Y-100775869D01*
X105109940Y-100871107D01*
X105086130Y-100918726D01*
X105038511Y-100942535D01*
X105014702Y-100942535D01*
X104967083Y-100918726D01*
X104943273Y-100871107D01*
X104943273Y-100799678D01*
X104919464Y-100752059D01*
X104871845Y-100728250D01*
X104848035Y-100728250D01*
X104800416Y-100752059D01*
X104776607Y-100799678D01*
X104776607Y-100871107D01*
X104800416Y-100918726D01*
X104776607Y-101109202D02*
X105109940Y-101204440D01*
X104871845Y-101299678D01*
X105109940Y-101394916D01*
X104776607Y-101490154D01*
X105109940Y-101680630D02*
X104776607Y-101680630D01*
X104609940Y-101680630D02*
X104633750Y-101656821D01*
X104657559Y-101680630D01*
X104633750Y-101704440D01*
X104609940Y-101680630D01*
X104657559Y-101680630D01*
X104776607Y-101847297D02*
X104776607Y-102037773D01*
X104609940Y-101918726D02*
X105038511Y-101918726D01*
X105086130Y-101942535D01*
X105109940Y-101990154D01*
X105109940Y-102037773D01*
X105086130Y-102418726D02*
X105109940Y-102371107D01*
X105109940Y-102275869D01*
X105086130Y-102228250D01*
X105062321Y-102204440D01*
X105014702Y-102180630D01*
X104871845Y-102180630D01*
X104824226Y-102204440D01*
X104800416Y-102228250D01*
X104776607Y-102275869D01*
X104776607Y-102371107D01*
X104800416Y-102418726D01*
X105109940Y-102633011D02*
X104609940Y-102633011D01*
X105109940Y-102847297D02*
X104848035Y-102847297D01*
X104800416Y-102823488D01*
X104776607Y-102775869D01*
X104776607Y-102704440D01*
X104800416Y-102656821D01*
X104824226Y-102633011D01*
X105086130Y-103275869D02*
X105109940Y-103228250D01*
X105109940Y-103133011D01*
X105086130Y-103085392D01*
X105038511Y-103061583D01*
X104848035Y-103061583D01*
X104800416Y-103085392D01*
X104776607Y-103133011D01*
X104776607Y-103228250D01*
X104800416Y-103275869D01*
X104848035Y-103299678D01*
X104895654Y-103299678D01*
X104943273Y-103061583D01*
X105086130Y-103490154D02*
X105109940Y-103537773D01*
X105109940Y-103633011D01*
X105086130Y-103680630D01*
X105038511Y-103704440D01*
X105014702Y-103704440D01*
X104967083Y-103680630D01*
X104943273Y-103633011D01*
X104943273Y-103561583D01*
X104919464Y-103513964D01*
X104871845Y-103490154D01*
X104848035Y-103490154D01*
X104800416Y-103513964D01*
X104776607Y-103561583D01*
X104776607Y-103633011D01*
X104800416Y-103680630D01*
X105062321Y-103918726D02*
X105086130Y-103942535D01*
X105109940Y-103918726D01*
X105086130Y-103894916D01*
X105062321Y-103918726D01*
X105109940Y-103918726D01*
X104800416Y-103918726D02*
X104824226Y-103942535D01*
X104848035Y-103918726D01*
X104824226Y-103894916D01*
X104800416Y-103918726D01*
X104848035Y-103918726D01*
X105984940Y-96847297D02*
X105484940Y-96847297D01*
X105484940Y-97037773D01*
X105508750Y-97085392D01*
X105532559Y-97109202D01*
X105580178Y-97133011D01*
X105651607Y-97133011D01*
X105699226Y-97109202D01*
X105723035Y-97085392D01*
X105746845Y-97037773D01*
X105746845Y-96847297D01*
X105651607Y-97561583D02*
X105984940Y-97561583D01*
X105651607Y-97347297D02*
X105913511Y-97347297D01*
X105961130Y-97371107D01*
X105984940Y-97418726D01*
X105984940Y-97490154D01*
X105961130Y-97537773D01*
X105937321Y-97561583D01*
X105984940Y-97871107D02*
X105961130Y-97823488D01*
X105913511Y-97799678D01*
X105484940Y-97799678D01*
X105984940Y-98133011D02*
X105961130Y-98085392D01*
X105913511Y-98061583D01*
X105484940Y-98061583D01*
X105651607Y-98918726D02*
X105984940Y-98918726D01*
X105651607Y-98704440D02*
X105913511Y-98704440D01*
X105961130Y-98728250D01*
X105984940Y-98775869D01*
X105984940Y-98847297D01*
X105961130Y-98894916D01*
X105937321Y-98918726D01*
X105651607Y-99156821D02*
X106151607Y-99156821D01*
X105675416Y-99156821D02*
X105651607Y-99204440D01*
X105651607Y-99299678D01*
X105675416Y-99347297D01*
X105699226Y-99371107D01*
X105746845Y-99394916D01*
X105889702Y-99394916D01*
X105937321Y-99371107D01*
X105961130Y-99347297D01*
X105984940Y-99299678D01*
X105984940Y-99204440D01*
X105961130Y-99156821D01*
X106175416Y-100133011D02*
X106151607Y-100109202D01*
X106080178Y-100061583D01*
X106032559Y-100037773D01*
X105961130Y-100013964D01*
X105842083Y-99990154D01*
X105746845Y-99990154D01*
X105627797Y-100013964D01*
X105556369Y-100037773D01*
X105508750Y-100061583D01*
X105437321Y-100109202D01*
X105413511Y-100133011D01*
X105984940Y-100680630D02*
X105603988Y-100680630D01*
X105961130Y-100656821D02*
X105627797Y-100656821D01*
X105961130Y-100633011D02*
X105627797Y-100633011D01*
X105937321Y-100609202D02*
X105651607Y-100609202D01*
X105937321Y-100585392D02*
X105651607Y-100585392D01*
X105913511Y-100561583D02*
X105675416Y-100561583D01*
X105913511Y-100537773D02*
X105675416Y-100537773D01*
X105889702Y-100513964D02*
X105699226Y-100513964D01*
X105865892Y-100490154D02*
X105723035Y-100490154D01*
X105865892Y-100466345D02*
X105723035Y-100466345D01*
X105842083Y-100442535D02*
X105746845Y-100442535D01*
X105842083Y-100418726D02*
X105746845Y-100418726D01*
X105794464Y-100394916D02*
X105794464Y-100371107D01*
X105818273Y-100394916D02*
X105770654Y-100394916D01*
X105984940Y-100704440D02*
X105794464Y-100347297D01*
X105603988Y-100704440D01*
X105794464Y-100323488D02*
X105580178Y-100704440D01*
X106008750Y-100704440D01*
X105794464Y-100323488D01*
X105961130Y-100966345D02*
X105984940Y-100966345D01*
X106032559Y-100942535D01*
X106056369Y-100918726D01*
X105794464Y-101561583D02*
X105794464Y-101942535D01*
X105984940Y-101752059D02*
X105603988Y-101752059D01*
X105484940Y-102133011D02*
X105484940Y-102442535D01*
X105675416Y-102275869D01*
X105675416Y-102347297D01*
X105699226Y-102394916D01*
X105723035Y-102418726D01*
X105770654Y-102442535D01*
X105889702Y-102442535D01*
X105937321Y-102418726D01*
X105961130Y-102394916D01*
X105984940Y-102347297D01*
X105984940Y-102204440D01*
X105961130Y-102156821D01*
X105937321Y-102133011D01*
X105484940Y-102585392D02*
X105984940Y-102752059D01*
X105484940Y-102918726D01*
X105484940Y-103037773D02*
X105484940Y-103347297D01*
X105675416Y-103180630D01*
X105675416Y-103252059D01*
X105699226Y-103299678D01*
X105723035Y-103323488D01*
X105770654Y-103347297D01*
X105889702Y-103347297D01*
X105937321Y-103323488D01*
X105961130Y-103299678D01*
X105984940Y-103252059D01*
X105984940Y-103109202D01*
X105961130Y-103061583D01*
X105937321Y-103037773D01*
X106175416Y-103513964D02*
X106151607Y-103537773D01*
X106080178Y-103585392D01*
X106032559Y-103609202D01*
X105961130Y-103633011D01*
X105842083Y-103656821D01*
X105746845Y-103656821D01*
X105627797Y-103633011D01*
X105556369Y-103609202D01*
X105508750Y-103585392D01*
X105437321Y-103537773D01*
X105413511Y-103513964D01*
X105984940Y-104347297D02*
X105961130Y-104299678D01*
X105937321Y-104275869D01*
X105889702Y-104252059D01*
X105746845Y-104252059D01*
X105699226Y-104275869D01*
X105675416Y-104299678D01*
X105651607Y-104347297D01*
X105651607Y-104418726D01*
X105675416Y-104466345D01*
X105699226Y-104490154D01*
X105746845Y-104513964D01*
X105889702Y-104513964D01*
X105937321Y-104490154D01*
X105961130Y-104466345D01*
X105984940Y-104418726D01*
X105984940Y-104347297D01*
X105984940Y-104728250D02*
X105651607Y-104728250D01*
X105746845Y-104728250D02*
X105699226Y-104752059D01*
X105675416Y-104775869D01*
X105651607Y-104823488D01*
X105651607Y-104871107D01*
X105984940Y-105633011D02*
X105484940Y-105633011D01*
X105961130Y-105633011D02*
X105984940Y-105585392D01*
X105984940Y-105490154D01*
X105961130Y-105442535D01*
X105937321Y-105418726D01*
X105889702Y-105394916D01*
X105746845Y-105394916D01*
X105699226Y-105418726D01*
X105675416Y-105442535D01*
X105651607Y-105490154D01*
X105651607Y-105585392D01*
X105675416Y-105633011D01*
X105984940Y-105942535D02*
X105961130Y-105894916D01*
X105937321Y-105871107D01*
X105889702Y-105847297D01*
X105746845Y-105847297D01*
X105699226Y-105871107D01*
X105675416Y-105894916D01*
X105651607Y-105942535D01*
X105651607Y-106013964D01*
X105675416Y-106061583D01*
X105699226Y-106085392D01*
X105746845Y-106109202D01*
X105889702Y-106109202D01*
X105937321Y-106085392D01*
X105961130Y-106061583D01*
X105984940Y-106013964D01*
X105984940Y-105942535D01*
X105651607Y-106275869D02*
X105984940Y-106371107D01*
X105746845Y-106466345D01*
X105984940Y-106561583D01*
X105651607Y-106656821D01*
X105651607Y-106847297D02*
X105984940Y-106847297D01*
X105699226Y-106847297D02*
X105675416Y-106871107D01*
X105651607Y-106918726D01*
X105651607Y-106990154D01*
X105675416Y-107037773D01*
X105723035Y-107061583D01*
X105984940Y-107061583D01*
X106175416Y-107823488D02*
X106151607Y-107799678D01*
X106080178Y-107752059D01*
X106032559Y-107728250D01*
X105961130Y-107704440D01*
X105842083Y-107680630D01*
X105746845Y-107680630D01*
X105627797Y-107704440D01*
X105556369Y-107728250D01*
X105508750Y-107752059D01*
X105437321Y-107799678D01*
X105413511Y-107823488D01*
X105794464Y-108394916D02*
X106008750Y-108013964D01*
X105580178Y-108013964D01*
X105794464Y-108394916D01*
X105961130Y-108656821D02*
X105984940Y-108656821D01*
X106032559Y-108633011D01*
X106056369Y-108609202D01*
X105508750Y-109513964D02*
X105484940Y-109466345D01*
X105484940Y-109394916D01*
X105508750Y-109323488D01*
X105556369Y-109275869D01*
X105603988Y-109252059D01*
X105699226Y-109228250D01*
X105770654Y-109228250D01*
X105865892Y-109252059D01*
X105913511Y-109275869D01*
X105961130Y-109323488D01*
X105984940Y-109394916D01*
X105984940Y-109442535D01*
X105961130Y-109513964D01*
X105937321Y-109537773D01*
X105770654Y-109537773D01*
X105770654Y-109442535D01*
X105984940Y-109752059D02*
X105484940Y-109752059D01*
X105984940Y-110037773D01*
X105484940Y-110037773D01*
X105984940Y-110275869D02*
X105484940Y-110275869D01*
X105484940Y-110394916D01*
X105508750Y-110466345D01*
X105556369Y-110513964D01*
X105603988Y-110537773D01*
X105699226Y-110561583D01*
X105770654Y-110561583D01*
X105865892Y-110537773D01*
X105913511Y-110513964D01*
X105961130Y-110466345D01*
X105984940Y-110394916D01*
X105984940Y-110275869D01*
X106175416Y-110728250D02*
X106151607Y-110752059D01*
X106080178Y-110799678D01*
X106032559Y-110823488D01*
X105961130Y-110847297D01*
X105842083Y-110871107D01*
X105746845Y-110871107D01*
X105627797Y-110847297D01*
X105556369Y-110823488D01*
X105508750Y-110799678D01*
X105437321Y-110752059D01*
X105413511Y-110728250D01*
X106859940Y-97061583D02*
X106598035Y-97061583D01*
X106550416Y-97037773D01*
X106526607Y-96990154D01*
X106526607Y-96894916D01*
X106550416Y-96847297D01*
X106836130Y-97061583D02*
X106859940Y-97013964D01*
X106859940Y-96894916D01*
X106836130Y-96847297D01*
X106788511Y-96823488D01*
X106740892Y-96823488D01*
X106693273Y-96847297D01*
X106669464Y-96894916D01*
X106669464Y-97013964D01*
X106645654Y-97061583D01*
X106526607Y-97299678D02*
X106859940Y-97299678D01*
X106574226Y-97299678D02*
X106550416Y-97323488D01*
X106526607Y-97371107D01*
X106526607Y-97442535D01*
X106550416Y-97490154D01*
X106598035Y-97513964D01*
X106859940Y-97513964D01*
X106859940Y-98204440D02*
X106836130Y-98156821D01*
X106812321Y-98133011D01*
X106764702Y-98109202D01*
X106621845Y-98109202D01*
X106574226Y-98133011D01*
X106550416Y-98156821D01*
X106526607Y-98204440D01*
X106526607Y-98275869D01*
X106550416Y-98323488D01*
X106574226Y-98347297D01*
X106621845Y-98371107D01*
X106764702Y-98371107D01*
X106812321Y-98347297D01*
X106836130Y-98323488D01*
X106859940Y-98275869D01*
X106859940Y-98204440D01*
X106526607Y-98585392D02*
X107026607Y-98585392D01*
X106550416Y-98585392D02*
X106526607Y-98633011D01*
X106526607Y-98728250D01*
X106550416Y-98775869D01*
X106574226Y-98799678D01*
X106621845Y-98823488D01*
X106764702Y-98823488D01*
X106812321Y-98799678D01*
X106836130Y-98775869D01*
X106859940Y-98728250D01*
X106859940Y-98633011D01*
X106836130Y-98585392D01*
X106836130Y-99228250D02*
X106859940Y-99180630D01*
X106859940Y-99085392D01*
X106836130Y-99037773D01*
X106788511Y-99013964D01*
X106598035Y-99013964D01*
X106550416Y-99037773D01*
X106526607Y-99085392D01*
X106526607Y-99180630D01*
X106550416Y-99228250D01*
X106598035Y-99252059D01*
X106645654Y-99252059D01*
X106693273Y-99013964D01*
X106526607Y-99466345D02*
X106859940Y-99466345D01*
X106574226Y-99466345D02*
X106550416Y-99490154D01*
X106526607Y-99537773D01*
X106526607Y-99609202D01*
X106550416Y-99656821D01*
X106598035Y-99680630D01*
X106859940Y-99680630D01*
X106836130Y-100275869D02*
X106859940Y-100323488D01*
X106859940Y-100418726D01*
X106836130Y-100466345D01*
X106788511Y-100490154D01*
X106764702Y-100490154D01*
X106717083Y-100466345D01*
X106693273Y-100418726D01*
X106693273Y-100347297D01*
X106669464Y-100299678D01*
X106621845Y-100275869D01*
X106598035Y-100275869D01*
X106550416Y-100299678D01*
X106526607Y-100347297D01*
X106526607Y-100418726D01*
X106550416Y-100466345D01*
X106526607Y-100656821D02*
X106859940Y-100752059D01*
X106621845Y-100847297D01*
X106859940Y-100942535D01*
X106526607Y-101037773D01*
X106859940Y-101228250D02*
X106526607Y-101228250D01*
X106359940Y-101228250D02*
X106383750Y-101204440D01*
X106407559Y-101228250D01*
X106383750Y-101252059D01*
X106359940Y-101228250D01*
X106407559Y-101228250D01*
X106526607Y-101394916D02*
X106526607Y-101585392D01*
X106359940Y-101466345D02*
X106788511Y-101466345D01*
X106836130Y-101490154D01*
X106859940Y-101537773D01*
X106859940Y-101585392D01*
X106836130Y-101966345D02*
X106859940Y-101918726D01*
X106859940Y-101823488D01*
X106836130Y-101775869D01*
X106812321Y-101752059D01*
X106764702Y-101728250D01*
X106621845Y-101728250D01*
X106574226Y-101752059D01*
X106550416Y-101775869D01*
X106526607Y-101823488D01*
X106526607Y-101918726D01*
X106550416Y-101966345D01*
X106859940Y-102180630D02*
X106359940Y-102180630D01*
X106859940Y-102394916D02*
X106598035Y-102394916D01*
X106550416Y-102371107D01*
X106526607Y-102323488D01*
X106526607Y-102252059D01*
X106550416Y-102204440D01*
X106574226Y-102180630D01*
X106526607Y-102966345D02*
X106859940Y-103061583D01*
X106621845Y-103156821D01*
X106859940Y-103252059D01*
X106526607Y-103347297D01*
X106859940Y-103537773D02*
X106526607Y-103537773D01*
X106359940Y-103537773D02*
X106383750Y-103513964D01*
X106407559Y-103537773D01*
X106383750Y-103561583D01*
X106359940Y-103537773D01*
X106407559Y-103537773D01*
X106526607Y-103704440D02*
X106526607Y-103894916D01*
X106359940Y-103775869D02*
X106788511Y-103775869D01*
X106836130Y-103799678D01*
X106859940Y-103847297D01*
X106859940Y-103894916D01*
X106859940Y-104061583D02*
X106359940Y-104061583D01*
X106859940Y-104275869D02*
X106598035Y-104275869D01*
X106550416Y-104252059D01*
X106526607Y-104204440D01*
X106526607Y-104133011D01*
X106550416Y-104085392D01*
X106574226Y-104061583D01*
X106859940Y-105109202D02*
X106598035Y-105109202D01*
X106550416Y-105085392D01*
X106526607Y-105037773D01*
X106526607Y-104942535D01*
X106550416Y-104894916D01*
X106836130Y-105109202D02*
X106859940Y-105061583D01*
X106859940Y-104942535D01*
X106836130Y-104894916D01*
X106788511Y-104871107D01*
X106740892Y-104871107D01*
X106693273Y-104894916D01*
X106669464Y-104942535D01*
X106669464Y-105061583D01*
X106645654Y-105109202D01*
X106859940Y-105728250D02*
X106526607Y-105728250D01*
X106621845Y-105728250D02*
X106574226Y-105752059D01*
X106550416Y-105775869D01*
X106526607Y-105823488D01*
X106526607Y-105871107D01*
X106836130Y-106228250D02*
X106859940Y-106180630D01*
X106859940Y-106085392D01*
X106836130Y-106037773D01*
X106788511Y-106013964D01*
X106598035Y-106013964D01*
X106550416Y-106037773D01*
X106526607Y-106085392D01*
X106526607Y-106180630D01*
X106550416Y-106228250D01*
X106598035Y-106252059D01*
X106645654Y-106252059D01*
X106693273Y-106013964D01*
X106836130Y-106442535D02*
X106859940Y-106490154D01*
X106859940Y-106585392D01*
X106836130Y-106633011D01*
X106788511Y-106656821D01*
X106764702Y-106656821D01*
X106717083Y-106633011D01*
X106693273Y-106585392D01*
X106693273Y-106513964D01*
X106669464Y-106466345D01*
X106621845Y-106442535D01*
X106598035Y-106442535D01*
X106550416Y-106466345D01*
X106526607Y-106513964D01*
X106526607Y-106585392D01*
X106550416Y-106633011D01*
X106859940Y-106871107D02*
X106526607Y-106871107D01*
X106359940Y-106871107D02*
X106383750Y-106847297D01*
X106407559Y-106871107D01*
X106383750Y-106894916D01*
X106359940Y-106871107D01*
X106407559Y-106871107D01*
X106836130Y-107085392D02*
X106859940Y-107133011D01*
X106859940Y-107228250D01*
X106836130Y-107275869D01*
X106788511Y-107299678D01*
X106764702Y-107299678D01*
X106717083Y-107275869D01*
X106693273Y-107228250D01*
X106693273Y-107156821D01*
X106669464Y-107109202D01*
X106621845Y-107085392D01*
X106598035Y-107085392D01*
X106550416Y-107109202D01*
X106526607Y-107156821D01*
X106526607Y-107228250D01*
X106550416Y-107275869D01*
X106526607Y-107442535D02*
X106526607Y-107633011D01*
X106359940Y-107513964D02*
X106788511Y-107513964D01*
X106836130Y-107537773D01*
X106859940Y-107585392D01*
X106859940Y-107633011D01*
X106859940Y-107871107D02*
X106836130Y-107823488D01*
X106812321Y-107799678D01*
X106764702Y-107775869D01*
X106621845Y-107775869D01*
X106574226Y-107799678D01*
X106550416Y-107823488D01*
X106526607Y-107871107D01*
X106526607Y-107942535D01*
X106550416Y-107990154D01*
X106574226Y-108013964D01*
X106621845Y-108037773D01*
X106764702Y-108037773D01*
X106812321Y-108013964D01*
X106836130Y-107990154D01*
X106859940Y-107942535D01*
X106859940Y-107871107D01*
X106859940Y-108252059D02*
X106526607Y-108252059D01*
X106621845Y-108252059D02*
X106574226Y-108275869D01*
X106550416Y-108299678D01*
X106526607Y-108347297D01*
X106526607Y-108394916D01*
X106812321Y-108561583D02*
X106836130Y-108585392D01*
X106859940Y-108561583D01*
X106836130Y-108537773D01*
X106812321Y-108561583D01*
X106859940Y-108561583D01*
X107473035Y-97013964D02*
X107496845Y-97085392D01*
X107520654Y-97109202D01*
X107568273Y-97133011D01*
X107639702Y-97133011D01*
X107687321Y-97109202D01*
X107711130Y-97085392D01*
X107734940Y-97037773D01*
X107734940Y-96847297D01*
X107234940Y-96847297D01*
X107234940Y-97013964D01*
X107258750Y-97061583D01*
X107282559Y-97085392D01*
X107330178Y-97109202D01*
X107377797Y-97109202D01*
X107425416Y-97085392D01*
X107449226Y-97061583D01*
X107473035Y-97013964D01*
X107473035Y-96847297D01*
X107734940Y-97347297D02*
X107401607Y-97347297D01*
X107496845Y-97347297D02*
X107449226Y-97371107D01*
X107425416Y-97394916D01*
X107401607Y-97442535D01*
X107401607Y-97490154D01*
X107734940Y-97656821D02*
X107401607Y-97656821D01*
X107234940Y-97656821D02*
X107258750Y-97633011D01*
X107282559Y-97656821D01*
X107258750Y-97680630D01*
X107234940Y-97656821D01*
X107282559Y-97656821D01*
X107734940Y-98109202D02*
X107234940Y-98109202D01*
X107711130Y-98109202D02*
X107734940Y-98061583D01*
X107734940Y-97966345D01*
X107711130Y-97918726D01*
X107687321Y-97894916D01*
X107639702Y-97871107D01*
X107496845Y-97871107D01*
X107449226Y-97894916D01*
X107425416Y-97918726D01*
X107401607Y-97966345D01*
X107401607Y-98061583D01*
X107425416Y-98109202D01*
X107401607Y-98561583D02*
X107806369Y-98561583D01*
X107853988Y-98537773D01*
X107877797Y-98513964D01*
X107901607Y-98466345D01*
X107901607Y-98394916D01*
X107877797Y-98347297D01*
X107711130Y-98561583D02*
X107734940Y-98513964D01*
X107734940Y-98418726D01*
X107711130Y-98371107D01*
X107687321Y-98347297D01*
X107639702Y-98323488D01*
X107496845Y-98323488D01*
X107449226Y-98347297D01*
X107425416Y-98371107D01*
X107401607Y-98418726D01*
X107401607Y-98513964D01*
X107425416Y-98561583D01*
X107711130Y-98990154D02*
X107734940Y-98942535D01*
X107734940Y-98847297D01*
X107711130Y-98799678D01*
X107663511Y-98775869D01*
X107473035Y-98775869D01*
X107425416Y-98799678D01*
X107401607Y-98847297D01*
X107401607Y-98942535D01*
X107425416Y-98990154D01*
X107473035Y-99013964D01*
X107520654Y-99013964D01*
X107568273Y-98775869D01*
X107734940Y-99680630D02*
X107711130Y-99633011D01*
X107687321Y-99609202D01*
X107639702Y-99585392D01*
X107496845Y-99585392D01*
X107449226Y-99609202D01*
X107425416Y-99633011D01*
X107401607Y-99680630D01*
X107401607Y-99752059D01*
X107425416Y-99799678D01*
X107449226Y-99823488D01*
X107496845Y-99847297D01*
X107639702Y-99847297D01*
X107687321Y-99823488D01*
X107711130Y-99799678D01*
X107734940Y-99752059D01*
X107734940Y-99680630D01*
X107401607Y-99990154D02*
X107401607Y-100180630D01*
X107234940Y-100061583D02*
X107663511Y-100061583D01*
X107711130Y-100085392D01*
X107734940Y-100133011D01*
X107734940Y-100180630D01*
X107734940Y-100347297D02*
X107234940Y-100347297D01*
X107734940Y-100561583D02*
X107473035Y-100561583D01*
X107425416Y-100537773D01*
X107401607Y-100490154D01*
X107401607Y-100418726D01*
X107425416Y-100371107D01*
X107449226Y-100347297D01*
X107711130Y-100990154D02*
X107734940Y-100942535D01*
X107734940Y-100847297D01*
X107711130Y-100799678D01*
X107663511Y-100775869D01*
X107473035Y-100775869D01*
X107425416Y-100799678D01*
X107401607Y-100847297D01*
X107401607Y-100942535D01*
X107425416Y-100990154D01*
X107473035Y-101013964D01*
X107520654Y-101013964D01*
X107568273Y-100775869D01*
X107734940Y-101228250D02*
X107401607Y-101228250D01*
X107496845Y-101228250D02*
X107449226Y-101252059D01*
X107425416Y-101275869D01*
X107401607Y-101323488D01*
X107401607Y-101371107D01*
X107711130Y-101894916D02*
X107734940Y-101942535D01*
X107734940Y-102037773D01*
X107711130Y-102085392D01*
X107663511Y-102109202D01*
X107639702Y-102109202D01*
X107592083Y-102085392D01*
X107568273Y-102037773D01*
X107568273Y-101966345D01*
X107544464Y-101918726D01*
X107496845Y-101894916D01*
X107473035Y-101894916D01*
X107425416Y-101918726D01*
X107401607Y-101966345D01*
X107401607Y-102037773D01*
X107425416Y-102085392D01*
X107734940Y-102323488D02*
X107401607Y-102323488D01*
X107234940Y-102323488D02*
X107258750Y-102299678D01*
X107282559Y-102323488D01*
X107258750Y-102347297D01*
X107234940Y-102323488D01*
X107282559Y-102323488D01*
X107734940Y-102775869D02*
X107234940Y-102775869D01*
X107711130Y-102775869D02*
X107734940Y-102728250D01*
X107734940Y-102633011D01*
X107711130Y-102585392D01*
X107687321Y-102561583D01*
X107639702Y-102537773D01*
X107496845Y-102537773D01*
X107449226Y-102561583D01*
X107425416Y-102585392D01*
X107401607Y-102633011D01*
X107401607Y-102728250D01*
X107425416Y-102775869D01*
X107711130Y-103204440D02*
X107734940Y-103156821D01*
X107734940Y-103061583D01*
X107711130Y-103013964D01*
X107663511Y-102990154D01*
X107473035Y-102990154D01*
X107425416Y-103013964D01*
X107401607Y-103061583D01*
X107401607Y-103156821D01*
X107425416Y-103204440D01*
X107473035Y-103228250D01*
X107520654Y-103228250D01*
X107568273Y-102990154D01*
X107734940Y-104037773D02*
X107234940Y-104037773D01*
X107711130Y-104037773D02*
X107734940Y-103990154D01*
X107734940Y-103894916D01*
X107711130Y-103847297D01*
X107687321Y-103823488D01*
X107639702Y-103799678D01*
X107496845Y-103799678D01*
X107449226Y-103823488D01*
X107425416Y-103847297D01*
X107401607Y-103894916D01*
X107401607Y-103990154D01*
X107425416Y-104037773D01*
X107734940Y-104347297D02*
X107711130Y-104299678D01*
X107687321Y-104275869D01*
X107639702Y-104252059D01*
X107496845Y-104252059D01*
X107449226Y-104275869D01*
X107425416Y-104299678D01*
X107401607Y-104347297D01*
X107401607Y-104418726D01*
X107425416Y-104466345D01*
X107449226Y-104490154D01*
X107496845Y-104513964D01*
X107639702Y-104513964D01*
X107687321Y-104490154D01*
X107711130Y-104466345D01*
X107734940Y-104418726D01*
X107734940Y-104347297D01*
X107401607Y-104680630D02*
X107734940Y-104775869D01*
X107496845Y-104871107D01*
X107734940Y-104966345D01*
X107401607Y-105061583D01*
X107401607Y-105252059D02*
X107734940Y-105252059D01*
X107449226Y-105252059D02*
X107425416Y-105275869D01*
X107401607Y-105323488D01*
X107401607Y-105394916D01*
X107425416Y-105442535D01*
X107473035Y-105466345D01*
X107734940Y-105466345D01*
X107925416Y-106228250D02*
X107901607Y-106204440D01*
X107830178Y-106156821D01*
X107782559Y-106133011D01*
X107711130Y-106109202D01*
X107592083Y-106085392D01*
X107496845Y-106085392D01*
X107377797Y-106109202D01*
X107306369Y-106133011D01*
X107258750Y-106156821D01*
X107187321Y-106204440D01*
X107163511Y-106228250D01*
X107353988Y-106442535D02*
X107734940Y-106442535D01*
X107377797Y-106466345D02*
X107711130Y-106466345D01*
X107377797Y-106490154D02*
X107711130Y-106490154D01*
X107401607Y-106513964D02*
X107687321Y-106513964D01*
X107401607Y-106537773D02*
X107687321Y-106537773D01*
X107425416Y-106561583D02*
X107663511Y-106561583D01*
X107425416Y-106585392D02*
X107663511Y-106585392D01*
X107449226Y-106609202D02*
X107639702Y-106609202D01*
X107473035Y-106633011D02*
X107615892Y-106633011D01*
X107473035Y-106656821D02*
X107615892Y-106656821D01*
X107496845Y-106680630D02*
X107592083Y-106680630D01*
X107496845Y-106704440D02*
X107592083Y-106704440D01*
X107544464Y-106728250D02*
X107544464Y-106752059D01*
X107520654Y-106728250D02*
X107568273Y-106728250D01*
X107353988Y-106418726D02*
X107544464Y-106775869D01*
X107734940Y-106418726D01*
X107544464Y-106799678D02*
X107758750Y-106418726D01*
X107330178Y-106418726D01*
X107544464Y-106799678D01*
X107711130Y-107061583D02*
X107734940Y-107061583D01*
X107782559Y-107037773D01*
X107806369Y-107013964D01*
X107258750Y-107918726D02*
X107234940Y-107871107D01*
X107234940Y-107799678D01*
X107258750Y-107728250D01*
X107306369Y-107680630D01*
X107353988Y-107656821D01*
X107449226Y-107633011D01*
X107520654Y-107633011D01*
X107615892Y-107656821D01*
X107663511Y-107680630D01*
X107711130Y-107728250D01*
X107734940Y-107799678D01*
X107734940Y-107847297D01*
X107711130Y-107918726D01*
X107687321Y-107942535D01*
X107520654Y-107942535D01*
X107520654Y-107847297D01*
X107734940Y-108156821D02*
X107234940Y-108156821D01*
X107734940Y-108442535D01*
X107234940Y-108442535D01*
X107734940Y-108680630D02*
X107234940Y-108680630D01*
X107234940Y-108799678D01*
X107258750Y-108871107D01*
X107306369Y-108918726D01*
X107353988Y-108942535D01*
X107449226Y-108966345D01*
X107520654Y-108966345D01*
X107615892Y-108942535D01*
X107663511Y-108918726D01*
X107711130Y-108871107D01*
X107734940Y-108799678D01*
X107734940Y-108680630D01*
X107925416Y-109133011D02*
X107901607Y-109156821D01*
X107830178Y-109204440D01*
X107782559Y-109228250D01*
X107711130Y-109252059D01*
X107592083Y-109275869D01*
X107496845Y-109275869D01*
X107377797Y-109252059D01*
X107306369Y-109228250D01*
X107258750Y-109204440D01*
X107187321Y-109156821D01*
X107163511Y-109133011D01*
X107734940Y-109966345D02*
X107711130Y-109918726D01*
X107687321Y-109894916D01*
X107639702Y-109871107D01*
X107496845Y-109871107D01*
X107449226Y-109894916D01*
X107425416Y-109918726D01*
X107401607Y-109966345D01*
X107401607Y-110037773D01*
X107425416Y-110085392D01*
X107449226Y-110109202D01*
X107496845Y-110133011D01*
X107639702Y-110133011D01*
X107687321Y-110109202D01*
X107711130Y-110085392D01*
X107734940Y-110037773D01*
X107734940Y-109966345D01*
X107734940Y-110347297D02*
X107401607Y-110347297D01*
X107496845Y-110347297D02*
X107449226Y-110371107D01*
X107425416Y-110394916D01*
X107401607Y-110442535D01*
X107401607Y-110490154D01*
X107401607Y-111252059D02*
X107734940Y-111252059D01*
X107401607Y-111037773D02*
X107663511Y-111037773D01*
X107711130Y-111061583D01*
X107734940Y-111109202D01*
X107734940Y-111180630D01*
X107711130Y-111228250D01*
X107687321Y-111252059D01*
X107401607Y-111490154D02*
X107901607Y-111490154D01*
X107425416Y-111490154D02*
X107401607Y-111537773D01*
X107401607Y-111633011D01*
X107425416Y-111680630D01*
X107449226Y-111704440D01*
X107496845Y-111728250D01*
X107639702Y-111728250D01*
X107687321Y-111704440D01*
X107711130Y-111680630D01*
X107734940Y-111633011D01*
X107734940Y-111537773D01*
X107711130Y-111490154D01*
X107925416Y-112466345D02*
X107901607Y-112442535D01*
X107830178Y-112394916D01*
X107782559Y-112371107D01*
X107711130Y-112347297D01*
X107592083Y-112323488D01*
X107496845Y-112323488D01*
X107377797Y-112347297D01*
X107306369Y-112371107D01*
X107258750Y-112394916D01*
X107187321Y-112442535D01*
X107163511Y-112466345D01*
X107544464Y-112656821D02*
X107330178Y-113037773D01*
X107758750Y-113037773D01*
X107544464Y-112656821D01*
X107711130Y-113299678D02*
X107734940Y-113299678D01*
X107782559Y-113275869D01*
X107806369Y-113252059D01*
X107544464Y-113894916D02*
X107544464Y-114275869D01*
X107734940Y-114085392D02*
X107353988Y-114085392D01*
X107234940Y-114466345D02*
X107234940Y-114775869D01*
X107425416Y-114609202D01*
X107425416Y-114680630D01*
X107449226Y-114728250D01*
X107473035Y-114752059D01*
X107520654Y-114775869D01*
X107639702Y-114775869D01*
X107687321Y-114752059D01*
X107711130Y-114728250D01*
X107734940Y-114680630D01*
X107734940Y-114537773D01*
X107711130Y-114490154D01*
X107687321Y-114466345D01*
X107234940Y-114918726D02*
X107734940Y-115085392D01*
X107234940Y-115252059D01*
X107234940Y-115371107D02*
X107234940Y-115680630D01*
X107425416Y-115513964D01*
X107425416Y-115585392D01*
X107449226Y-115633011D01*
X107473035Y-115656821D01*
X107520654Y-115680630D01*
X107639702Y-115680630D01*
X107687321Y-115656821D01*
X107711130Y-115633011D01*
X107734940Y-115585392D01*
X107734940Y-115442535D01*
X107711130Y-115394916D01*
X107687321Y-115371107D01*
X107925416Y-115847297D02*
X107901607Y-115871107D01*
X107830178Y-115918726D01*
X107782559Y-115942535D01*
X107711130Y-115966345D01*
X107592083Y-115990154D01*
X107496845Y-115990154D01*
X107377797Y-115966345D01*
X107306369Y-115942535D01*
X107258750Y-115918726D01*
X107187321Y-115871107D01*
X107163511Y-115847297D01*
X108276607Y-96775869D02*
X108276607Y-96966345D01*
X108109940Y-96847297D02*
X108538511Y-96847297D01*
X108586130Y-96871107D01*
X108609940Y-96918726D01*
X108609940Y-96966345D01*
X108609940Y-97204440D02*
X108586130Y-97156821D01*
X108562321Y-97133011D01*
X108514702Y-97109202D01*
X108371845Y-97109202D01*
X108324226Y-97133011D01*
X108300416Y-97156821D01*
X108276607Y-97204440D01*
X108276607Y-97275869D01*
X108300416Y-97323488D01*
X108324226Y-97347297D01*
X108371845Y-97371107D01*
X108514702Y-97371107D01*
X108562321Y-97347297D01*
X108586130Y-97323488D01*
X108609940Y-97275869D01*
X108609940Y-97204440D01*
X108609940Y-98180630D02*
X108348035Y-98180630D01*
X108300416Y-98156821D01*
X108276607Y-98109202D01*
X108276607Y-98013964D01*
X108300416Y-97966345D01*
X108586130Y-98180630D02*
X108609940Y-98133011D01*
X108609940Y-98013964D01*
X108586130Y-97966345D01*
X108538511Y-97942535D01*
X108490892Y-97942535D01*
X108443273Y-97966345D01*
X108419464Y-98013964D01*
X108419464Y-98133011D01*
X108395654Y-98180630D01*
X108276607Y-98347297D02*
X108276607Y-98537773D01*
X108609940Y-98418726D02*
X108181369Y-98418726D01*
X108133750Y-98442535D01*
X108109940Y-98490154D01*
X108109940Y-98537773D01*
X108276607Y-98633011D02*
X108276607Y-98823488D01*
X108609940Y-98704440D02*
X108181369Y-98704440D01*
X108133750Y-98728250D01*
X108109940Y-98775869D01*
X108109940Y-98823488D01*
X108586130Y-99180630D02*
X108609940Y-99133011D01*
X108609940Y-99037773D01*
X108586130Y-98990154D01*
X108538511Y-98966345D01*
X108348035Y-98966345D01*
X108300416Y-98990154D01*
X108276607Y-99037773D01*
X108276607Y-99133011D01*
X108300416Y-99180630D01*
X108348035Y-99204440D01*
X108395654Y-99204440D01*
X108443273Y-98966345D01*
X108586130Y-99633011D02*
X108609940Y-99585392D01*
X108609940Y-99490154D01*
X108586130Y-99442535D01*
X108562321Y-99418726D01*
X108514702Y-99394916D01*
X108371845Y-99394916D01*
X108324226Y-99418726D01*
X108300416Y-99442535D01*
X108276607Y-99490154D01*
X108276607Y-99585392D01*
X108300416Y-99633011D01*
X108276607Y-99775869D02*
X108276607Y-99966345D01*
X108109940Y-99847297D02*
X108538511Y-99847297D01*
X108586130Y-99871107D01*
X108609940Y-99918726D01*
X108609940Y-99966345D01*
X108586130Y-100728250D02*
X108609940Y-100680630D01*
X108609940Y-100585392D01*
X108586130Y-100537773D01*
X108562321Y-100513964D01*
X108514702Y-100490154D01*
X108371845Y-100490154D01*
X108324226Y-100513964D01*
X108300416Y-100537773D01*
X108276607Y-100585392D01*
X108276607Y-100680630D01*
X108300416Y-100728250D01*
X108609940Y-100942535D02*
X108109940Y-100942535D01*
X108609940Y-101156821D02*
X108348035Y-101156821D01*
X108300416Y-101133011D01*
X108276607Y-101085392D01*
X108276607Y-101013964D01*
X108300416Y-100966345D01*
X108324226Y-100942535D01*
X108609940Y-101609202D02*
X108348035Y-101609202D01*
X108300416Y-101585392D01*
X108276607Y-101537773D01*
X108276607Y-101442535D01*
X108300416Y-101394916D01*
X108586130Y-101609202D02*
X108609940Y-101561583D01*
X108609940Y-101442535D01*
X108586130Y-101394916D01*
X108538511Y-101371107D01*
X108490892Y-101371107D01*
X108443273Y-101394916D01*
X108419464Y-101442535D01*
X108419464Y-101561583D01*
X108395654Y-101609202D01*
X108276607Y-101847297D02*
X108609940Y-101847297D01*
X108324226Y-101847297D02*
X108300416Y-101871107D01*
X108276607Y-101918726D01*
X108276607Y-101990154D01*
X108300416Y-102037773D01*
X108348035Y-102061583D01*
X108609940Y-102061583D01*
X108276607Y-102513964D02*
X108681369Y-102513964D01*
X108728988Y-102490154D01*
X108752797Y-102466345D01*
X108776607Y-102418726D01*
X108776607Y-102347297D01*
X108752797Y-102299678D01*
X108586130Y-102513964D02*
X108609940Y-102466345D01*
X108609940Y-102371107D01*
X108586130Y-102323488D01*
X108562321Y-102299678D01*
X108514702Y-102275869D01*
X108371845Y-102275869D01*
X108324226Y-102299678D01*
X108300416Y-102323488D01*
X108276607Y-102371107D01*
X108276607Y-102466345D01*
X108300416Y-102513964D01*
X108586130Y-102942535D02*
X108609940Y-102894916D01*
X108609940Y-102799678D01*
X108586130Y-102752059D01*
X108538511Y-102728250D01*
X108348035Y-102728250D01*
X108300416Y-102752059D01*
X108276607Y-102799678D01*
X108276607Y-102894916D01*
X108300416Y-102942535D01*
X108348035Y-102966345D01*
X108395654Y-102966345D01*
X108443273Y-102728250D01*
X108276607Y-103513964D02*
X108609940Y-103609202D01*
X108371845Y-103704440D01*
X108609940Y-103799678D01*
X108276607Y-103894916D01*
X108609940Y-104085392D02*
X108109940Y-104085392D01*
X108609940Y-104299678D02*
X108348035Y-104299678D01*
X108300416Y-104275869D01*
X108276607Y-104228250D01*
X108276607Y-104156821D01*
X108300416Y-104109202D01*
X108324226Y-104085392D01*
X108586130Y-104728250D02*
X108609940Y-104680630D01*
X108609940Y-104585392D01*
X108586130Y-104537773D01*
X108538511Y-104513964D01*
X108348035Y-104513964D01*
X108300416Y-104537773D01*
X108276607Y-104585392D01*
X108276607Y-104680630D01*
X108300416Y-104728250D01*
X108348035Y-104752059D01*
X108395654Y-104752059D01*
X108443273Y-104513964D01*
X108276607Y-104966345D02*
X108609940Y-104966345D01*
X108324226Y-104966345D02*
X108300416Y-104990154D01*
X108276607Y-105037773D01*
X108276607Y-105109202D01*
X108300416Y-105156821D01*
X108348035Y-105180630D01*
X108609940Y-105180630D01*
X108586130Y-105775869D02*
X108609940Y-105823488D01*
X108609940Y-105918726D01*
X108586130Y-105966345D01*
X108538511Y-105990154D01*
X108514702Y-105990154D01*
X108467083Y-105966345D01*
X108443273Y-105918726D01*
X108443273Y-105847297D01*
X108419464Y-105799678D01*
X108371845Y-105775869D01*
X108348035Y-105775869D01*
X108300416Y-105799678D01*
X108276607Y-105847297D01*
X108276607Y-105918726D01*
X108300416Y-105966345D01*
X108276607Y-106156821D02*
X108609940Y-106252059D01*
X108371845Y-106347297D01*
X108609940Y-106442535D01*
X108276607Y-106537773D01*
X108609940Y-106728250D02*
X108276607Y-106728250D01*
X108109940Y-106728250D02*
X108133750Y-106704440D01*
X108157559Y-106728250D01*
X108133750Y-106752059D01*
X108109940Y-106728250D01*
X108157559Y-106728250D01*
X108276607Y-106894916D02*
X108276607Y-107085392D01*
X108109940Y-106966345D02*
X108538511Y-106966345D01*
X108586130Y-106990154D01*
X108609940Y-107037773D01*
X108609940Y-107085392D01*
X108586130Y-107466345D02*
X108609940Y-107418726D01*
X108609940Y-107323488D01*
X108586130Y-107275869D01*
X108562321Y-107252059D01*
X108514702Y-107228250D01*
X108371845Y-107228250D01*
X108324226Y-107252059D01*
X108300416Y-107275869D01*
X108276607Y-107323488D01*
X108276607Y-107418726D01*
X108300416Y-107466345D01*
X108609940Y-107680630D02*
X108109940Y-107680630D01*
X108609940Y-107894916D02*
X108348035Y-107894916D01*
X108300416Y-107871107D01*
X108276607Y-107823488D01*
X108276607Y-107752059D01*
X108300416Y-107704440D01*
X108324226Y-107680630D01*
X108609940Y-108513964D02*
X108276607Y-108513964D01*
X108109940Y-108513964D02*
X108133750Y-108490154D01*
X108157559Y-108513964D01*
X108133750Y-108537773D01*
X108109940Y-108513964D01*
X108157559Y-108513964D01*
X108586130Y-108728250D02*
X108609940Y-108775869D01*
X108609940Y-108871107D01*
X108586130Y-108918726D01*
X108538511Y-108942535D01*
X108514702Y-108942535D01*
X108467083Y-108918726D01*
X108443273Y-108871107D01*
X108443273Y-108799678D01*
X108419464Y-108752059D01*
X108371845Y-108728250D01*
X108348035Y-108728250D01*
X108300416Y-108752059D01*
X108276607Y-108799678D01*
X108276607Y-108871107D01*
X108300416Y-108918726D01*
X108586130Y-109752059D02*
X108609940Y-109704440D01*
X108609940Y-109609202D01*
X108586130Y-109561583D01*
X108562321Y-109537773D01*
X108514702Y-109513964D01*
X108371845Y-109513964D01*
X108324226Y-109537773D01*
X108300416Y-109561583D01*
X108276607Y-109609202D01*
X108276607Y-109704440D01*
X108300416Y-109752059D01*
X108609940Y-110037773D02*
X108586130Y-109990154D01*
X108538511Y-109966345D01*
X108109940Y-109966345D01*
X108609940Y-110299678D02*
X108586130Y-110252059D01*
X108562321Y-110228250D01*
X108514702Y-110204440D01*
X108371845Y-110204440D01*
X108324226Y-110228250D01*
X108300416Y-110252059D01*
X108276607Y-110299678D01*
X108276607Y-110371107D01*
X108300416Y-110418726D01*
X108324226Y-110442535D01*
X108371845Y-110466345D01*
X108514702Y-110466345D01*
X108562321Y-110442535D01*
X108586130Y-110418726D01*
X108609940Y-110371107D01*
X108609940Y-110299678D01*
X108586130Y-110656821D02*
X108609940Y-110704440D01*
X108609940Y-110799678D01*
X108586130Y-110847297D01*
X108538511Y-110871107D01*
X108514702Y-110871107D01*
X108467083Y-110847297D01*
X108443273Y-110799678D01*
X108443273Y-110728250D01*
X108419464Y-110680630D01*
X108371845Y-110656821D01*
X108348035Y-110656821D01*
X108300416Y-110680630D01*
X108276607Y-110728250D01*
X108276607Y-110799678D01*
X108300416Y-110847297D01*
X108586130Y-111275869D02*
X108609940Y-111228250D01*
X108609940Y-111133011D01*
X108586130Y-111085392D01*
X108538511Y-111061583D01*
X108348035Y-111061583D01*
X108300416Y-111085392D01*
X108276607Y-111133011D01*
X108276607Y-111228250D01*
X108300416Y-111275869D01*
X108348035Y-111299678D01*
X108395654Y-111299678D01*
X108443273Y-111061583D01*
X108609940Y-111728250D02*
X108109940Y-111728250D01*
X108586130Y-111728250D02*
X108609940Y-111680630D01*
X108609940Y-111585392D01*
X108586130Y-111537773D01*
X108562321Y-111513964D01*
X108514702Y-111490154D01*
X108371845Y-111490154D01*
X108324226Y-111513964D01*
X108300416Y-111537773D01*
X108276607Y-111585392D01*
X108276607Y-111680630D01*
X108300416Y-111728250D01*
X108562321Y-111966345D02*
X108586130Y-111990154D01*
X108609940Y-111966345D01*
X108586130Y-111942535D01*
X108562321Y-111966345D01*
X108609940Y-111966345D01*
D10*
X157341071Y-107386428D02*
X157388690Y-107529285D01*
X157436309Y-107576904D01*
X157531547Y-107624523D01*
X157674404Y-107624523D01*
X157769642Y-107576904D01*
X157817261Y-107529285D01*
X157864880Y-107434047D01*
X157864880Y-107053095D01*
X156864880Y-107053095D01*
X156864880Y-107386428D01*
X156912500Y-107481666D01*
X156960119Y-107529285D01*
X157055357Y-107576904D01*
X157150595Y-107576904D01*
X157245833Y-107529285D01*
X157293452Y-107481666D01*
X157341071Y-107386428D01*
X157341071Y-107053095D01*
X157579166Y-95646904D02*
X157579166Y-96123095D01*
X157864880Y-95551666D02*
X156864880Y-95885000D01*
X157864880Y-96218333D01*
X93388571Y-91408285D02*
X93388571Y-91979714D01*
X94199285Y-90926142D02*
X94199285Y-91354714D01*
X94949285Y-91140428D02*
X94199285Y-91140428D01*
X94949285Y-91604714D02*
X94199285Y-91604714D01*
X94199285Y-91783285D01*
X94235000Y-91890428D01*
X94306428Y-91961857D01*
X94377857Y-91997571D01*
X94520714Y-92033285D01*
X94627857Y-92033285D01*
X94770714Y-91997571D01*
X94842142Y-91961857D01*
X94913571Y-91890428D01*
X94949285Y-91783285D01*
X94949285Y-91604714D01*
X94949285Y-92354714D02*
X94199285Y-92354714D01*
X95474285Y-90711857D02*
X95474285Y-91140428D01*
X96224285Y-90926142D02*
X95474285Y-90926142D01*
X96224285Y-91390428D02*
X95474285Y-91390428D01*
X95474285Y-91569000D01*
X95510000Y-91676142D01*
X95581428Y-91747571D01*
X95652857Y-91783285D01*
X95795714Y-91819000D01*
X95902857Y-91819000D01*
X96045714Y-91783285D01*
X96117142Y-91747571D01*
X96188571Y-91676142D01*
X96224285Y-91569000D01*
X96224285Y-91390428D01*
X95474285Y-92283285D02*
X95474285Y-92426142D01*
X95510000Y-92497571D01*
X95581428Y-92569000D01*
X95724285Y-92604714D01*
X95974285Y-92604714D01*
X96117142Y-92569000D01*
X96188571Y-92497571D01*
X96224285Y-92426142D01*
X96224285Y-92283285D01*
X96188571Y-92211857D01*
X96117142Y-92140428D01*
X95974285Y-92104714D01*
X95724285Y-92104714D01*
X95581428Y-92140428D01*
X95510000Y-92211857D01*
X95474285Y-92283285D01*
X96749285Y-90729714D02*
X96749285Y-91158285D01*
X97499285Y-90944000D02*
X96749285Y-90944000D01*
X97427857Y-91836857D02*
X97463571Y-91801142D01*
X97499285Y-91694000D01*
X97499285Y-91622571D01*
X97463571Y-91515428D01*
X97392142Y-91444000D01*
X97320714Y-91408285D01*
X97177857Y-91372571D01*
X97070714Y-91372571D01*
X96927857Y-91408285D01*
X96856428Y-91444000D01*
X96785000Y-91515428D01*
X96749285Y-91622571D01*
X96749285Y-91694000D01*
X96785000Y-91801142D01*
X96820714Y-91836857D01*
X97499285Y-92158285D02*
X96749285Y-92158285D01*
X97499285Y-92586857D02*
X97070714Y-92265428D01*
X96749285Y-92586857D02*
X97177857Y-92158285D01*
X98024285Y-90694000D02*
X98024285Y-91122571D01*
X98774285Y-90908285D02*
X98024285Y-90908285D01*
X98774285Y-91372571D02*
X98024285Y-91372571D01*
X98560000Y-91622571D01*
X98024285Y-91872571D01*
X98774285Y-91872571D01*
X98738571Y-92194000D02*
X98774285Y-92301142D01*
X98774285Y-92479714D01*
X98738571Y-92551142D01*
X98702857Y-92586857D01*
X98631428Y-92622571D01*
X98560000Y-92622571D01*
X98488571Y-92586857D01*
X98452857Y-92551142D01*
X98417142Y-92479714D01*
X98381428Y-92336857D01*
X98345714Y-92265428D01*
X98310000Y-92229714D01*
X98238571Y-92194000D01*
X98167142Y-92194000D01*
X98095714Y-92229714D01*
X98060000Y-92265428D01*
X98024285Y-92336857D01*
X98024285Y-92515428D01*
X98060000Y-92622571D01*
X92960000Y-88328571D02*
X92924285Y-88257142D01*
X92924285Y-88150000D01*
X92960000Y-88042857D01*
X93031428Y-87971428D01*
X93102857Y-87935714D01*
X93245714Y-87900000D01*
X93352857Y-87900000D01*
X93495714Y-87935714D01*
X93567142Y-87971428D01*
X93638571Y-88042857D01*
X93674285Y-88150000D01*
X93674285Y-88221428D01*
X93638571Y-88328571D01*
X93602857Y-88364285D01*
X93352857Y-88364285D01*
X93352857Y-88221428D01*
X93674285Y-88685714D02*
X92924285Y-88685714D01*
X93674285Y-89114285D01*
X92924285Y-89114285D01*
X93674285Y-89471428D02*
X92924285Y-89471428D01*
X92924285Y-89650000D01*
X92960000Y-89757142D01*
X93031428Y-89828571D01*
X93102857Y-89864285D01*
X93245714Y-89900000D01*
X93352857Y-89900000D01*
X93495714Y-89864285D01*
X93567142Y-89828571D01*
X93638571Y-89757142D01*
X93674285Y-89650000D01*
X93674285Y-89471428D01*
X94235000Y-88328571D02*
X94199285Y-88257142D01*
X94199285Y-88150000D01*
X94235000Y-88042857D01*
X94306428Y-87971428D01*
X94377857Y-87935714D01*
X94520714Y-87900000D01*
X94627857Y-87900000D01*
X94770714Y-87935714D01*
X94842142Y-87971428D01*
X94913571Y-88042857D01*
X94949285Y-88150000D01*
X94949285Y-88221428D01*
X94913571Y-88328571D01*
X94877857Y-88364285D01*
X94627857Y-88364285D01*
X94627857Y-88221428D01*
X94949285Y-88685714D02*
X94199285Y-88685714D01*
X94949285Y-89114285D01*
X94199285Y-89114285D01*
X94949285Y-89471428D02*
X94199285Y-89471428D01*
X94199285Y-89650000D01*
X94235000Y-89757142D01*
X94306428Y-89828571D01*
X94377857Y-89864285D01*
X94520714Y-89900000D01*
X94627857Y-89900000D01*
X94770714Y-89864285D01*
X94842142Y-89828571D01*
X94913571Y-89757142D01*
X94949285Y-89650000D01*
X94949285Y-89471428D01*
X95510000Y-88328571D02*
X95474285Y-88257142D01*
X95474285Y-88150000D01*
X95510000Y-88042857D01*
X95581428Y-87971428D01*
X95652857Y-87935714D01*
X95795714Y-87900000D01*
X95902857Y-87900000D01*
X96045714Y-87935714D01*
X96117142Y-87971428D01*
X96188571Y-88042857D01*
X96224285Y-88150000D01*
X96224285Y-88221428D01*
X96188571Y-88328571D01*
X96152857Y-88364285D01*
X95902857Y-88364285D01*
X95902857Y-88221428D01*
X96224285Y-88685714D02*
X95474285Y-88685714D01*
X96224285Y-89114285D01*
X95474285Y-89114285D01*
X96224285Y-89471428D02*
X95474285Y-89471428D01*
X95474285Y-89650000D01*
X95510000Y-89757142D01*
X95581428Y-89828571D01*
X95652857Y-89864285D01*
X95795714Y-89900000D01*
X95902857Y-89900000D01*
X96045714Y-89864285D01*
X96117142Y-89828571D01*
X96188571Y-89757142D01*
X96224285Y-89650000D01*
X96224285Y-89471428D01*
X96785000Y-88328571D02*
X96749285Y-88257142D01*
X96749285Y-88150000D01*
X96785000Y-88042857D01*
X96856428Y-87971428D01*
X96927857Y-87935714D01*
X97070714Y-87900000D01*
X97177857Y-87900000D01*
X97320714Y-87935714D01*
X97392142Y-87971428D01*
X97463571Y-88042857D01*
X97499285Y-88150000D01*
X97499285Y-88221428D01*
X97463571Y-88328571D01*
X97427857Y-88364285D01*
X97177857Y-88364285D01*
X97177857Y-88221428D01*
X97499285Y-88685714D02*
X96749285Y-88685714D01*
X97499285Y-89114285D01*
X96749285Y-89114285D01*
X97499285Y-89471428D02*
X96749285Y-89471428D01*
X96749285Y-89650000D01*
X96785000Y-89757142D01*
X96856428Y-89828571D01*
X96927857Y-89864285D01*
X97070714Y-89900000D01*
X97177857Y-89900000D01*
X97320714Y-89864285D01*
X97392142Y-89828571D01*
X97463571Y-89757142D01*
X97499285Y-89650000D01*
X97499285Y-89471428D01*
X98488571Y-88614285D02*
X98488571Y-89185714D01*
X113623285Y-95210285D02*
X113623285Y-94781714D01*
X113623285Y-94996000D02*
X112873285Y-94996000D01*
X112980428Y-94924571D01*
X113051857Y-94853142D01*
X113087571Y-94781714D01*
X109642714Y-93384714D02*
X109607000Y-93420428D01*
X109571285Y-93491857D01*
X109571285Y-93670428D01*
X109607000Y-93741857D01*
X109642714Y-93777571D01*
X109714142Y-93813285D01*
X109785571Y-93813285D01*
X109892714Y-93777571D01*
X110321285Y-93349000D01*
X110321285Y-93813285D01*
X106269285Y-94746000D02*
X106269285Y-95210285D01*
X106555000Y-94960285D01*
X106555000Y-95067428D01*
X106590714Y-95138857D01*
X106626428Y-95174571D01*
X106697857Y-95210285D01*
X106876428Y-95210285D01*
X106947857Y-95174571D01*
X106983571Y-95138857D01*
X107019285Y-95067428D01*
X107019285Y-94853142D01*
X106983571Y-94781714D01*
X106947857Y-94746000D01*
X103217285Y-93741857D02*
X103717285Y-93741857D01*
X102931571Y-93563285D02*
X103467285Y-93384714D01*
X103467285Y-93849000D01*
X99665285Y-95174571D02*
X99665285Y-94817428D01*
X100022428Y-94781714D01*
X99986714Y-94817428D01*
X99951000Y-94888857D01*
X99951000Y-95067428D01*
X99986714Y-95138857D01*
X100022428Y-95174571D01*
X100093857Y-95210285D01*
X100272428Y-95210285D01*
X100343857Y-95174571D01*
X100379571Y-95138857D01*
X100415285Y-95067428D01*
X100415285Y-94888857D01*
X100379571Y-94817428D01*
X100343857Y-94781714D01*
X101062285Y-90348571D02*
X101062285Y-89991428D01*
X101419428Y-89955714D01*
X101383714Y-89991428D01*
X101348000Y-90062857D01*
X101348000Y-90241428D01*
X101383714Y-90312857D01*
X101419428Y-90348571D01*
X101490857Y-90384285D01*
X101669428Y-90384285D01*
X101740857Y-90348571D01*
X101776571Y-90312857D01*
X101812285Y-90241428D01*
X101812285Y-90062857D01*
X101776571Y-89991428D01*
X101740857Y-89955714D01*
X103915785Y-90312857D02*
X104415785Y-90312857D01*
X103630071Y-90134285D02*
X104165785Y-89955714D01*
X104165785Y-90420000D01*
X106269285Y-89920000D02*
X106269285Y-90384285D01*
X106555000Y-90134285D01*
X106555000Y-90241428D01*
X106590714Y-90312857D01*
X106626428Y-90348571D01*
X106697857Y-90384285D01*
X106876428Y-90384285D01*
X106947857Y-90348571D01*
X106983571Y-90312857D01*
X107019285Y-90241428D01*
X107019285Y-90027142D01*
X106983571Y-89955714D01*
X106947857Y-89920000D01*
X108944214Y-89955714D02*
X108908500Y-89991428D01*
X108872785Y-90062857D01*
X108872785Y-90241428D01*
X108908500Y-90312857D01*
X108944214Y-90348571D01*
X109015642Y-90384285D01*
X109087071Y-90384285D01*
X109194214Y-90348571D01*
X109622785Y-89920000D01*
X109622785Y-90384285D01*
X112226285Y-90384285D02*
X112226285Y-89955714D01*
X112226285Y-90170000D02*
X111476285Y-90170000D01*
X111583428Y-90098571D01*
X111654857Y-90027142D01*
X111690571Y-89955714D01*
X145083571Y-106027428D02*
X145119285Y-106134571D01*
X145119285Y-106313142D01*
X145083571Y-106384571D01*
X145047857Y-106420285D01*
X144976428Y-106456000D01*
X144905000Y-106456000D01*
X144833571Y-106420285D01*
X144797857Y-106384571D01*
X144762142Y-106313142D01*
X144726428Y-106170285D01*
X144690714Y-106098857D01*
X144655000Y-106063142D01*
X144583571Y-106027428D01*
X144512142Y-106027428D01*
X144440714Y-106063142D01*
X144405000Y-106098857D01*
X144369285Y-106170285D01*
X144369285Y-106348857D01*
X144405000Y-106456000D01*
X144726428Y-106777428D02*
X144726428Y-107027428D01*
X145119285Y-107134571D02*
X145119285Y-106777428D01*
X144369285Y-106777428D01*
X144369285Y-107134571D01*
X145119285Y-107456000D02*
X144369285Y-107456000D01*
X145119285Y-107884571D01*
X144369285Y-107884571D01*
X145083571Y-108206000D02*
X145119285Y-108313142D01*
X145119285Y-108491714D01*
X145083571Y-108563142D01*
X145047857Y-108598857D01*
X144976428Y-108634571D01*
X144905000Y-108634571D01*
X144833571Y-108598857D01*
X144797857Y-108563142D01*
X144762142Y-108491714D01*
X144726428Y-108348857D01*
X144690714Y-108277428D01*
X144655000Y-108241714D01*
X144583571Y-108206000D01*
X144512142Y-108206000D01*
X144440714Y-108241714D01*
X144405000Y-108277428D01*
X144369285Y-108348857D01*
X144369285Y-108527428D01*
X144405000Y-108634571D01*
X144726428Y-108956000D02*
X144726428Y-109206000D01*
X145119285Y-109313142D02*
X145119285Y-108956000D01*
X144369285Y-108956000D01*
X144369285Y-109313142D01*
X144726428Y-110456000D02*
X144762142Y-110563142D01*
X144797857Y-110598857D01*
X144869285Y-110634571D01*
X144976428Y-110634571D01*
X145047857Y-110598857D01*
X145083571Y-110563142D01*
X145119285Y-110491714D01*
X145119285Y-110206000D01*
X144369285Y-110206000D01*
X144369285Y-110456000D01*
X144405000Y-110527428D01*
X144440714Y-110563142D01*
X144512142Y-110598857D01*
X144583571Y-110598857D01*
X144655000Y-110563142D01*
X144690714Y-110527428D01*
X144726428Y-110456000D01*
X144726428Y-110206000D01*
X145083571Y-92619000D02*
X145119285Y-92726142D01*
X145119285Y-92904714D01*
X145083571Y-92976142D01*
X145047857Y-93011857D01*
X144976428Y-93047571D01*
X144905000Y-93047571D01*
X144833571Y-93011857D01*
X144797857Y-92976142D01*
X144762142Y-92904714D01*
X144726428Y-92761857D01*
X144690714Y-92690428D01*
X144655000Y-92654714D01*
X144583571Y-92619000D01*
X144512142Y-92619000D01*
X144440714Y-92654714D01*
X144405000Y-92690428D01*
X144369285Y-92761857D01*
X144369285Y-92940428D01*
X144405000Y-93047571D01*
X144726428Y-93369000D02*
X144726428Y-93619000D01*
X145119285Y-93726142D02*
X145119285Y-93369000D01*
X144369285Y-93369000D01*
X144369285Y-93726142D01*
X145119285Y-94047571D02*
X144369285Y-94047571D01*
X145119285Y-94476142D01*
X144369285Y-94476142D01*
X145083571Y-94797571D02*
X145119285Y-94904714D01*
X145119285Y-95083285D01*
X145083571Y-95154714D01*
X145047857Y-95190428D01*
X144976428Y-95226142D01*
X144905000Y-95226142D01*
X144833571Y-95190428D01*
X144797857Y-95154714D01*
X144762142Y-95083285D01*
X144726428Y-94940428D01*
X144690714Y-94869000D01*
X144655000Y-94833285D01*
X144583571Y-94797571D01*
X144512142Y-94797571D01*
X144440714Y-94833285D01*
X144405000Y-94869000D01*
X144369285Y-94940428D01*
X144369285Y-95119000D01*
X144405000Y-95226142D01*
X144726428Y-95547571D02*
X144726428Y-95797571D01*
X145119285Y-95904714D02*
X145119285Y-95547571D01*
X144369285Y-95547571D01*
X144369285Y-95904714D01*
X144905000Y-96761857D02*
X144905000Y-97119000D01*
X145119285Y-96690428D02*
X144369285Y-96940428D01*
X145119285Y-97190428D01*
X95293571Y-110204285D02*
X95293571Y-110775714D01*
X96854285Y-109990000D02*
X96497142Y-109740000D01*
X96854285Y-109561428D02*
X96104285Y-109561428D01*
X96104285Y-109847142D01*
X96140000Y-109918571D01*
X96175714Y-109954285D01*
X96247142Y-109990000D01*
X96354285Y-109990000D01*
X96425714Y-109954285D01*
X96461428Y-109918571D01*
X96497142Y-109847142D01*
X96497142Y-109561428D01*
X96104285Y-110240000D02*
X96854285Y-110740000D01*
X96104285Y-110740000D02*
X96854285Y-110240000D01*
X96854285Y-111025714D02*
X96104285Y-111025714D01*
X96104285Y-111204285D01*
X96140000Y-111311428D01*
X96211428Y-111382857D01*
X96282857Y-111418571D01*
X96425714Y-111454285D01*
X96532857Y-111454285D01*
X96675714Y-111418571D01*
X96747142Y-111382857D01*
X96818571Y-111311428D01*
X96854285Y-111204285D01*
X96854285Y-111025714D01*
X97379285Y-109543571D02*
X97379285Y-109972142D01*
X98129285Y-109757857D02*
X97379285Y-109757857D01*
X97379285Y-110150714D02*
X98129285Y-110650714D01*
X97379285Y-110650714D02*
X98129285Y-110150714D01*
X98129285Y-110936428D02*
X97379285Y-110936428D01*
X97379285Y-111115000D01*
X97415000Y-111222142D01*
X97486428Y-111293571D01*
X97557857Y-111329285D01*
X97700714Y-111365000D01*
X97807857Y-111365000D01*
X97950714Y-111329285D01*
X98022142Y-111293571D01*
X98093571Y-111222142D01*
X98129285Y-111115000D01*
X98129285Y-110936428D01*
X99404285Y-109400714D02*
X99047142Y-109150714D01*
X99404285Y-108972142D02*
X98654285Y-108972142D01*
X98654285Y-109257857D01*
X98690000Y-109329285D01*
X98725714Y-109365000D01*
X98797142Y-109400714D01*
X98904285Y-109400714D01*
X98975714Y-109365000D01*
X99011428Y-109329285D01*
X99047142Y-109257857D01*
X99047142Y-108972142D01*
X99011428Y-109722142D02*
X99011428Y-109972142D01*
X99404285Y-110079285D02*
X99404285Y-109722142D01*
X98654285Y-109722142D01*
X98654285Y-110079285D01*
X99368571Y-110365000D02*
X99404285Y-110472142D01*
X99404285Y-110650714D01*
X99368571Y-110722142D01*
X99332857Y-110757857D01*
X99261428Y-110793571D01*
X99190000Y-110793571D01*
X99118571Y-110757857D01*
X99082857Y-110722142D01*
X99047142Y-110650714D01*
X99011428Y-110507857D01*
X98975714Y-110436428D01*
X98940000Y-110400714D01*
X98868571Y-110365000D01*
X98797142Y-110365000D01*
X98725714Y-110400714D01*
X98690000Y-110436428D01*
X98654285Y-110507857D01*
X98654285Y-110686428D01*
X98690000Y-110793571D01*
X99011428Y-111115000D02*
X99011428Y-111365000D01*
X99404285Y-111472142D02*
X99404285Y-111115000D01*
X98654285Y-111115000D01*
X98654285Y-111472142D01*
X98654285Y-111686428D02*
X98654285Y-112115000D01*
X99404285Y-111900714D02*
X98654285Y-111900714D01*
X100393571Y-110204285D02*
X100393571Y-110775714D01*
X95293571Y-113506285D02*
X95293571Y-114077714D01*
X96854285Y-113042000D02*
X96104285Y-113042000D01*
X96104285Y-113542000D02*
X96104285Y-113684857D01*
X96140000Y-113756285D01*
X96211428Y-113827714D01*
X96354285Y-113863428D01*
X96604285Y-113863428D01*
X96747142Y-113827714D01*
X96818571Y-113756285D01*
X96854285Y-113684857D01*
X96854285Y-113542000D01*
X96818571Y-113470571D01*
X96747142Y-113399142D01*
X96604285Y-113363428D01*
X96354285Y-113363428D01*
X96211428Y-113399142D01*
X96140000Y-113470571D01*
X96104285Y-113542000D01*
X96104285Y-114327714D02*
X96104285Y-114399142D01*
X96140000Y-114470571D01*
X96175714Y-114506285D01*
X96247142Y-114542000D01*
X96390000Y-114577714D01*
X96568571Y-114577714D01*
X96711428Y-114542000D01*
X96782857Y-114506285D01*
X96818571Y-114470571D01*
X96854285Y-114399142D01*
X96854285Y-114327714D01*
X96818571Y-114256285D01*
X96782857Y-114220571D01*
X96711428Y-114184857D01*
X96568571Y-114149142D01*
X96390000Y-114149142D01*
X96247142Y-114184857D01*
X96175714Y-114220571D01*
X96140000Y-114256285D01*
X96104285Y-114327714D01*
X97415000Y-113220571D02*
X97379285Y-113149142D01*
X97379285Y-113042000D01*
X97415000Y-112934857D01*
X97486428Y-112863428D01*
X97557857Y-112827714D01*
X97700714Y-112792000D01*
X97807857Y-112792000D01*
X97950714Y-112827714D01*
X98022142Y-112863428D01*
X98093571Y-112934857D01*
X98129285Y-113042000D01*
X98129285Y-113113428D01*
X98093571Y-113220571D01*
X98057857Y-113256285D01*
X97807857Y-113256285D01*
X97807857Y-113113428D01*
X98129285Y-113577714D02*
X97379285Y-113577714D01*
X98129285Y-114006285D01*
X97379285Y-114006285D01*
X98129285Y-114363428D02*
X97379285Y-114363428D01*
X97379285Y-114542000D01*
X97415000Y-114649142D01*
X97486428Y-114720571D01*
X97557857Y-114756285D01*
X97700714Y-114792000D01*
X97807857Y-114792000D01*
X97950714Y-114756285D01*
X98022142Y-114720571D01*
X98093571Y-114649142D01*
X98129285Y-114542000D01*
X98129285Y-114363428D01*
X99118571Y-112827714D02*
X99118571Y-113399142D01*
X99404285Y-113113428D02*
X98832857Y-113113428D01*
X98654285Y-114113428D02*
X98654285Y-113756285D01*
X99011428Y-113720571D01*
X98975714Y-113756285D01*
X98940000Y-113827714D01*
X98940000Y-114006285D01*
X98975714Y-114077714D01*
X99011428Y-114113428D01*
X99082857Y-114149142D01*
X99261428Y-114149142D01*
X99332857Y-114113428D01*
X99368571Y-114077714D01*
X99404285Y-114006285D01*
X99404285Y-113827714D01*
X99368571Y-113756285D01*
X99332857Y-113720571D01*
X98654285Y-114363428D02*
X99404285Y-114613428D01*
X98654285Y-114863428D01*
X100393571Y-113506285D02*
X100393571Y-114077714D01*
X94494000Y-98615571D02*
X94458285Y-98544142D01*
X94458285Y-98437000D01*
X94494000Y-98329857D01*
X94565428Y-98258428D01*
X94636857Y-98222714D01*
X94779714Y-98187000D01*
X94886857Y-98187000D01*
X95029714Y-98222714D01*
X95101142Y-98258428D01*
X95172571Y-98329857D01*
X95208285Y-98437000D01*
X95208285Y-98508428D01*
X95172571Y-98615571D01*
X95136857Y-98651285D01*
X94886857Y-98651285D01*
X94886857Y-98508428D01*
X95208285Y-98972714D02*
X94458285Y-98972714D01*
X95208285Y-99401285D01*
X94458285Y-99401285D01*
X95208285Y-99758428D02*
X94458285Y-99758428D01*
X94458285Y-99937000D01*
X94494000Y-100044142D01*
X94565428Y-100115571D01*
X94636857Y-100151285D01*
X94779714Y-100187000D01*
X94886857Y-100187000D01*
X95029714Y-100151285D01*
X95101142Y-100115571D01*
X95172571Y-100044142D01*
X95208285Y-99937000D01*
X95208285Y-99758428D01*
X95049571Y-102691571D02*
X95049571Y-103263000D01*
X95335285Y-102977285D02*
X94763857Y-102977285D01*
X95335285Y-104013000D02*
X95335285Y-103584428D01*
X95335285Y-103798714D02*
X94585285Y-103798714D01*
X94692428Y-103727285D01*
X94763857Y-103655857D01*
X94799571Y-103584428D01*
X94656714Y-104298714D02*
X94621000Y-104334428D01*
X94585285Y-104405857D01*
X94585285Y-104584428D01*
X94621000Y-104655857D01*
X94656714Y-104691571D01*
X94728142Y-104727285D01*
X94799571Y-104727285D01*
X94906714Y-104691571D01*
X95335285Y-104263000D01*
X95335285Y-104727285D01*
X94585285Y-104941571D02*
X95335285Y-105191571D01*
X94585285Y-105441571D01*
D12*
%TO.C,R12*%
X99487758Y-93076500D02*
X99013242Y-93076500D01*
X99250500Y-94749000D02*
X99750500Y-94249000D01*
X98750500Y-94249000D02*
X99750500Y-94249000D01*
X98750500Y-94249000D02*
X99250500Y-94749000D01*
%TO.C,R3*%
X114346758Y-94121500D02*
X113872242Y-94121500D01*
X114109500Y-92449000D02*
X113609500Y-92949000D01*
X114609500Y-92949000D02*
X113609500Y-92949000D01*
X114609500Y-92949000D02*
X114109500Y-92449000D01*
D13*
G36*
X113609500Y-92949000D02*
G01*
X114609500Y-92949000D01*
X114109500Y-92449000D01*
X113609500Y-92949000D01*
G37*
X113609500Y-92949000D02*
X114609500Y-92949000D01*
X114109500Y-92449000D01*
X113609500Y-92949000D01*
D12*
%TO.C,R5*%
X108919242Y-92724500D02*
X109393758Y-92724500D01*
X109156500Y-91052000D02*
X108656500Y-91552000D01*
X109656500Y-91552000D02*
X108656500Y-91552000D01*
X109656500Y-91552000D02*
X109156500Y-91052000D01*
D13*
G36*
X109156500Y-91052000D02*
G01*
X108656500Y-91552000D01*
X109656500Y-91552000D01*
X109156500Y-91052000D01*
G37*
X109156500Y-91052000D02*
X108656500Y-91552000D01*
X109656500Y-91552000D01*
X109156500Y-91052000D01*
D12*
%TO.C,R7*%
X107742758Y-94121500D02*
X107268242Y-94121500D01*
X107505500Y-92449000D02*
X107005500Y-92949000D01*
X108005500Y-92949000D02*
X107005500Y-92949000D01*
X108005500Y-92949000D02*
X107505500Y-92449000D01*
D13*
G36*
X107005500Y-92949000D02*
G01*
X108005500Y-92949000D01*
X107505500Y-92449000D01*
X107005500Y-92949000D01*
G37*
X107005500Y-92949000D02*
X108005500Y-92949000D01*
X107505500Y-92449000D01*
X107005500Y-92949000D01*
D12*
%TO.C,R9*%
X102315242Y-92724500D02*
X102789758Y-92724500D01*
X102552500Y-91052000D02*
X102052500Y-91552000D01*
X103052500Y-91552000D02*
X102052500Y-91552000D01*
X103052500Y-91552000D02*
X102552500Y-91052000D01*
D13*
G36*
X102552500Y-91052000D02*
G01*
X102052500Y-91552000D01*
X103052500Y-91552000D01*
X102552500Y-91052000D01*
G37*
X102552500Y-91052000D02*
X102052500Y-91552000D01*
X103052500Y-91552000D01*
X102552500Y-91052000D01*
D12*
%TO.C,JP1*%
X113687000Y-87582500D02*
X113187000Y-87082500D01*
X113937000Y-89582500D02*
X113937000Y-87582500D01*
X110087000Y-89582500D02*
X110587000Y-90082500D01*
X110587000Y-90082500D02*
X111087000Y-89582500D01*
X112387000Y-89582500D02*
X110087000Y-89582500D01*
X113937000Y-89582500D02*
X112687000Y-89582500D01*
X111087000Y-87582500D02*
X110087000Y-87582500D01*
X111387000Y-87582500D02*
X113687000Y-87582500D01*
X113187000Y-87082500D02*
X112687000Y-87582500D01*
D13*
G36*
X111087000Y-89582500D02*
G01*
X110087000Y-89582500D01*
X110587000Y-90082500D01*
X111087000Y-89582500D01*
G37*
X111087000Y-89582500D02*
X110087000Y-89582500D01*
X110587000Y-90082500D01*
X111087000Y-89582500D01*
D12*
%TO.C,JP2*%
X109783500Y-87582500D02*
X107483500Y-87582500D01*
X110083500Y-87582500D02*
X111083500Y-87582500D01*
X108483500Y-87582500D02*
X107983500Y-87082500D01*
X110083500Y-89582500D02*
X110583500Y-90082500D01*
X110583500Y-90082500D02*
X111083500Y-89582500D01*
X107983500Y-87082500D02*
X107483500Y-87582500D01*
X111083500Y-89582500D02*
X108783500Y-89582500D01*
X108483500Y-89582500D02*
X107483500Y-89582500D01*
D13*
G36*
X110583500Y-90082500D02*
G01*
X111083500Y-89582500D01*
X110083500Y-89582500D01*
X110583500Y-90082500D01*
G37*
X110583500Y-90082500D02*
X111083500Y-89582500D01*
X110083500Y-89582500D01*
X110583500Y-90082500D01*
D12*
%TO.C,JP3*%
X104880000Y-89582500D02*
X105380000Y-90082500D01*
X108480000Y-87582500D02*
X107980000Y-87082500D01*
X107980000Y-87082500D02*
X107480000Y-87582500D01*
X106180000Y-87582500D02*
X108480000Y-87582500D01*
X104880000Y-87582500D02*
X105880000Y-87582500D01*
X107480000Y-89582500D02*
X108480000Y-89582500D01*
X107180000Y-89582500D02*
X104880000Y-89582500D01*
X105380000Y-90082500D02*
X105880000Y-89582500D01*
D13*
G36*
X105880000Y-89582500D02*
G01*
X104880000Y-89582500D01*
X105380000Y-90082500D01*
X105880000Y-89582500D01*
G37*
X105880000Y-89582500D02*
X104880000Y-89582500D01*
X105380000Y-90082500D01*
X105880000Y-89582500D01*
D12*
%TO.C,JP4*%
X103276500Y-89582500D02*
X102276500Y-89582500D01*
X105876500Y-89582500D02*
X103576500Y-89582500D01*
X104576500Y-87582500D02*
X102276500Y-87582500D01*
X104876500Y-87582500D02*
X105876500Y-87582500D01*
X102776500Y-87082500D02*
X102276500Y-87582500D01*
X105376500Y-90082500D02*
X105876500Y-89582500D01*
X103276500Y-87582500D02*
X102776500Y-87082500D01*
X104876500Y-89582500D02*
X105376500Y-90082500D01*
D13*
G36*
X105376500Y-90082500D02*
G01*
X105876500Y-89582500D01*
X104876500Y-89582500D01*
X105376500Y-90082500D01*
G37*
X105376500Y-90082500D02*
X105876500Y-89582500D01*
X104876500Y-89582500D01*
X105376500Y-90082500D01*
D12*
%TO.C,R11*%
X101138758Y-94121500D02*
X100664242Y-94121500D01*
X100901500Y-92449000D02*
X100401500Y-92949000D01*
X101401500Y-92949000D02*
X100401500Y-92949000D01*
X101401500Y-92949000D02*
X100901500Y-92449000D01*
D13*
G36*
X100401500Y-92949000D02*
G01*
X101401500Y-92949000D01*
X100901500Y-92449000D01*
X100401500Y-92949000D01*
G37*
X100401500Y-92949000D02*
X101401500Y-92949000D01*
X100901500Y-92449000D01*
X100401500Y-92949000D01*
D12*
%TO.C,JP5*%
X99423000Y-87582500D02*
X99423000Y-89582500D01*
X99423000Y-87582500D02*
X100673000Y-87582500D01*
X102273000Y-89582500D02*
X103273000Y-89582500D01*
X101973000Y-89582500D02*
X99673000Y-89582500D01*
X99673000Y-89582500D02*
X100173000Y-90082500D01*
X100173000Y-90082500D02*
X100673000Y-89582500D01*
X103273000Y-87582500D02*
X102773000Y-87082500D01*
X100973000Y-87582500D02*
X103273000Y-87582500D01*
X102773000Y-87082500D02*
X102273000Y-87582500D01*
D13*
G36*
X100673000Y-89582500D02*
G01*
X99673000Y-89582500D01*
X100173000Y-90082500D01*
X100673000Y-89582500D01*
G37*
X100673000Y-89582500D02*
X99673000Y-89582500D01*
X100173000Y-90082500D01*
X100673000Y-89582500D01*
D12*
%TO.C,R10*%
X103966242Y-91679500D02*
X104440758Y-91679500D01*
X104203500Y-93352000D02*
X104703500Y-92852000D01*
X103703500Y-92852000D02*
X104703500Y-92852000D01*
X103703500Y-92852000D02*
X104203500Y-93352000D01*
%TO.C,R8*%
X106091758Y-93076500D02*
X105617242Y-93076500D01*
X105854500Y-94749000D02*
X106354500Y-94249000D01*
X105354500Y-94249000D02*
X106354500Y-94249000D01*
X105354500Y-94249000D02*
X105854500Y-94749000D01*
%TO.C,R4*%
X112695758Y-93076500D02*
X112221242Y-93076500D01*
X112458500Y-94749000D02*
X112958500Y-94249000D01*
X111958500Y-94249000D02*
X112958500Y-94249000D01*
X111958500Y-94249000D02*
X112458500Y-94749000D01*
%TO.C,R6*%
X110570242Y-91679500D02*
X111044758Y-91679500D01*
X110807500Y-93352000D02*
X111307500Y-92852000D01*
X110307500Y-92852000D02*
X111307500Y-92852000D01*
X110307500Y-92852000D02*
X110807500Y-93352000D01*
%TO.C,R2*%
X141131936Y-107389250D02*
X142586064Y-107389250D01*
X141131936Y-109209250D02*
X142586064Y-109209250D01*
%TO.C,R1*%
X141131936Y-93990750D02*
X142586064Y-93990750D01*
X141131936Y-95810750D02*
X142586064Y-95810750D01*
%TD*%
M02*
