%TF.GenerationSoftware,KiCad,Pcbnew,5.1.9-2.fc34*%
%TF.CreationDate,2021-04-30T18:49:43-07:00*%
%TF.ProjectId,motorbrainz,6d6f746f-7262-4726-9169-6e7a2e6b6963,1.0*%
%TF.SameCoordinates,Original*%
%TF.FileFunction,Paste,Bot*%
%TF.FilePolarity,Positive*%
%FSLAX46Y46*%
G04 Gerber Fmt 4.6, Leading zero omitted, Abs format (unit mm)*
G04 Created by KiCad (PCBNEW 5.1.9-2.fc34) date 2021-04-30 18:49:43*
%MOMM*%
%LPD*%
G01*
G04 APERTURE LIST*
G04 APERTURE END LIST*
%TO.C,R12*%
G36*
G01*
X98825500Y-93324000D02*
X98825500Y-93874000D01*
G75*
G02*
X98625500Y-94074000I-200000J0D01*
G01*
X98225500Y-94074000D01*
G75*
G02*
X98025500Y-93874000I0J200000D01*
G01*
X98025500Y-93324000D01*
G75*
G02*
X98225500Y-93124000I200000J0D01*
G01*
X98625500Y-93124000D01*
G75*
G02*
X98825500Y-93324000I0J-200000D01*
G01*
G37*
G36*
G01*
X100475500Y-93324000D02*
X100475500Y-93874000D01*
G75*
G02*
X100275500Y-94074000I-200000J0D01*
G01*
X99875500Y-94074000D01*
G75*
G02*
X99675500Y-93874000I0J200000D01*
G01*
X99675500Y-93324000D01*
G75*
G02*
X99875500Y-93124000I200000J0D01*
G01*
X100275500Y-93124000D01*
G75*
G02*
X100475500Y-93324000I0J-200000D01*
G01*
G37*
%TD*%
%TO.C,R3*%
G36*
G01*
X113684500Y-93324000D02*
X113684500Y-93874000D01*
G75*
G02*
X113484500Y-94074000I-200000J0D01*
G01*
X113084500Y-94074000D01*
G75*
G02*
X112884500Y-93874000I0J200000D01*
G01*
X112884500Y-93324000D01*
G75*
G02*
X113084500Y-93124000I200000J0D01*
G01*
X113484500Y-93124000D01*
G75*
G02*
X113684500Y-93324000I0J-200000D01*
G01*
G37*
G36*
G01*
X115334500Y-93324000D02*
X115334500Y-93874000D01*
G75*
G02*
X115134500Y-94074000I-200000J0D01*
G01*
X114734500Y-94074000D01*
G75*
G02*
X114534500Y-93874000I0J200000D01*
G01*
X114534500Y-93324000D01*
G75*
G02*
X114734500Y-93124000I200000J0D01*
G01*
X115134500Y-93124000D01*
G75*
G02*
X115334500Y-93324000I0J-200000D01*
G01*
G37*
%TD*%
%TO.C,R5*%
G36*
G01*
X109581500Y-92477000D02*
X109581500Y-91927000D01*
G75*
G02*
X109781500Y-91727000I200000J0D01*
G01*
X110181500Y-91727000D01*
G75*
G02*
X110381500Y-91927000I0J-200000D01*
G01*
X110381500Y-92477000D01*
G75*
G02*
X110181500Y-92677000I-200000J0D01*
G01*
X109781500Y-92677000D01*
G75*
G02*
X109581500Y-92477000I0J200000D01*
G01*
G37*
G36*
G01*
X107931500Y-92477000D02*
X107931500Y-91927000D01*
G75*
G02*
X108131500Y-91727000I200000J0D01*
G01*
X108531500Y-91727000D01*
G75*
G02*
X108731500Y-91927000I0J-200000D01*
G01*
X108731500Y-92477000D01*
G75*
G02*
X108531500Y-92677000I-200000J0D01*
G01*
X108131500Y-92677000D01*
G75*
G02*
X107931500Y-92477000I0J200000D01*
G01*
G37*
%TD*%
%TO.C,R7*%
G36*
G01*
X107080500Y-93324000D02*
X107080500Y-93874000D01*
G75*
G02*
X106880500Y-94074000I-200000J0D01*
G01*
X106480500Y-94074000D01*
G75*
G02*
X106280500Y-93874000I0J200000D01*
G01*
X106280500Y-93324000D01*
G75*
G02*
X106480500Y-93124000I200000J0D01*
G01*
X106880500Y-93124000D01*
G75*
G02*
X107080500Y-93324000I0J-200000D01*
G01*
G37*
G36*
G01*
X108730500Y-93324000D02*
X108730500Y-93874000D01*
G75*
G02*
X108530500Y-94074000I-200000J0D01*
G01*
X108130500Y-94074000D01*
G75*
G02*
X107930500Y-93874000I0J200000D01*
G01*
X107930500Y-93324000D01*
G75*
G02*
X108130500Y-93124000I200000J0D01*
G01*
X108530500Y-93124000D01*
G75*
G02*
X108730500Y-93324000I0J-200000D01*
G01*
G37*
%TD*%
%TO.C,R9*%
G36*
G01*
X102977500Y-92477000D02*
X102977500Y-91927000D01*
G75*
G02*
X103177500Y-91727000I200000J0D01*
G01*
X103577500Y-91727000D01*
G75*
G02*
X103777500Y-91927000I0J-200000D01*
G01*
X103777500Y-92477000D01*
G75*
G02*
X103577500Y-92677000I-200000J0D01*
G01*
X103177500Y-92677000D01*
G75*
G02*
X102977500Y-92477000I0J200000D01*
G01*
G37*
G36*
G01*
X101327500Y-92477000D02*
X101327500Y-91927000D01*
G75*
G02*
X101527500Y-91727000I200000J0D01*
G01*
X101927500Y-91727000D01*
G75*
G02*
X102127500Y-91927000I0J-200000D01*
G01*
X102127500Y-92477000D01*
G75*
G02*
X101927500Y-92677000I-200000J0D01*
G01*
X101527500Y-92677000D01*
G75*
G02*
X101327500Y-92477000I0J200000D01*
G01*
G37*
%TD*%
%TO.C,R11*%
G36*
G01*
X100476500Y-93324000D02*
X100476500Y-93874000D01*
G75*
G02*
X100276500Y-94074000I-200000J0D01*
G01*
X99876500Y-94074000D01*
G75*
G02*
X99676500Y-93874000I0J200000D01*
G01*
X99676500Y-93324000D01*
G75*
G02*
X99876500Y-93124000I200000J0D01*
G01*
X100276500Y-93124000D01*
G75*
G02*
X100476500Y-93324000I0J-200000D01*
G01*
G37*
G36*
G01*
X102126500Y-93324000D02*
X102126500Y-93874000D01*
G75*
G02*
X101926500Y-94074000I-200000J0D01*
G01*
X101526500Y-94074000D01*
G75*
G02*
X101326500Y-93874000I0J200000D01*
G01*
X101326500Y-93324000D01*
G75*
G02*
X101526500Y-93124000I200000J0D01*
G01*
X101926500Y-93124000D01*
G75*
G02*
X102126500Y-93324000I0J-200000D01*
G01*
G37*
%TD*%
%TO.C,R10*%
G36*
G01*
X104628500Y-92477000D02*
X104628500Y-91927000D01*
G75*
G02*
X104828500Y-91727000I200000J0D01*
G01*
X105228500Y-91727000D01*
G75*
G02*
X105428500Y-91927000I0J-200000D01*
G01*
X105428500Y-92477000D01*
G75*
G02*
X105228500Y-92677000I-200000J0D01*
G01*
X104828500Y-92677000D01*
G75*
G02*
X104628500Y-92477000I0J200000D01*
G01*
G37*
G36*
G01*
X102978500Y-92477000D02*
X102978500Y-91927000D01*
G75*
G02*
X103178500Y-91727000I200000J0D01*
G01*
X103578500Y-91727000D01*
G75*
G02*
X103778500Y-91927000I0J-200000D01*
G01*
X103778500Y-92477000D01*
G75*
G02*
X103578500Y-92677000I-200000J0D01*
G01*
X103178500Y-92677000D01*
G75*
G02*
X102978500Y-92477000I0J200000D01*
G01*
G37*
%TD*%
%TO.C,R8*%
G36*
G01*
X105429500Y-93324000D02*
X105429500Y-93874000D01*
G75*
G02*
X105229500Y-94074000I-200000J0D01*
G01*
X104829500Y-94074000D01*
G75*
G02*
X104629500Y-93874000I0J200000D01*
G01*
X104629500Y-93324000D01*
G75*
G02*
X104829500Y-93124000I200000J0D01*
G01*
X105229500Y-93124000D01*
G75*
G02*
X105429500Y-93324000I0J-200000D01*
G01*
G37*
G36*
G01*
X107079500Y-93324000D02*
X107079500Y-93874000D01*
G75*
G02*
X106879500Y-94074000I-200000J0D01*
G01*
X106479500Y-94074000D01*
G75*
G02*
X106279500Y-93874000I0J200000D01*
G01*
X106279500Y-93324000D01*
G75*
G02*
X106479500Y-93124000I200000J0D01*
G01*
X106879500Y-93124000D01*
G75*
G02*
X107079500Y-93324000I0J-200000D01*
G01*
G37*
%TD*%
%TO.C,R4*%
G36*
G01*
X112033500Y-93324000D02*
X112033500Y-93874000D01*
G75*
G02*
X111833500Y-94074000I-200000J0D01*
G01*
X111433500Y-94074000D01*
G75*
G02*
X111233500Y-93874000I0J200000D01*
G01*
X111233500Y-93324000D01*
G75*
G02*
X111433500Y-93124000I200000J0D01*
G01*
X111833500Y-93124000D01*
G75*
G02*
X112033500Y-93324000I0J-200000D01*
G01*
G37*
G36*
G01*
X113683500Y-93324000D02*
X113683500Y-93874000D01*
G75*
G02*
X113483500Y-94074000I-200000J0D01*
G01*
X113083500Y-94074000D01*
G75*
G02*
X112883500Y-93874000I0J200000D01*
G01*
X112883500Y-93324000D01*
G75*
G02*
X113083500Y-93124000I200000J0D01*
G01*
X113483500Y-93124000D01*
G75*
G02*
X113683500Y-93324000I0J-200000D01*
G01*
G37*
%TD*%
%TO.C,R6*%
G36*
G01*
X111232500Y-92477000D02*
X111232500Y-91927000D01*
G75*
G02*
X111432500Y-91727000I200000J0D01*
G01*
X111832500Y-91727000D01*
G75*
G02*
X112032500Y-91927000I0J-200000D01*
G01*
X112032500Y-92477000D01*
G75*
G02*
X111832500Y-92677000I-200000J0D01*
G01*
X111432500Y-92677000D01*
G75*
G02*
X111232500Y-92477000I0J200000D01*
G01*
G37*
G36*
G01*
X109582500Y-92477000D02*
X109582500Y-91927000D01*
G75*
G02*
X109782500Y-91727000I200000J0D01*
G01*
X110182500Y-91727000D01*
G75*
G02*
X110382500Y-91927000I0J-200000D01*
G01*
X110382500Y-92477000D01*
G75*
G02*
X110182500Y-92677000I-200000J0D01*
G01*
X109782500Y-92677000D01*
G75*
G02*
X109582500Y-92477000I0J200000D01*
G01*
G37*
%TD*%
%TO.C,R2*%
G36*
G01*
X142759000Y-108924252D02*
X142759000Y-107674248D01*
G75*
G02*
X143008998Y-107424250I249998J0D01*
G01*
X143634002Y-107424250D01*
G75*
G02*
X143884000Y-107674248I0J-249998D01*
G01*
X143884000Y-108924252D01*
G75*
G02*
X143634002Y-109174250I-249998J0D01*
G01*
X143008998Y-109174250D01*
G75*
G02*
X142759000Y-108924252I0J249998D01*
G01*
G37*
G36*
G01*
X139834000Y-108924252D02*
X139834000Y-107674248D01*
G75*
G02*
X140083998Y-107424250I249998J0D01*
G01*
X140709002Y-107424250D01*
G75*
G02*
X140959000Y-107674248I0J-249998D01*
G01*
X140959000Y-108924252D01*
G75*
G02*
X140709002Y-109174250I-249998J0D01*
G01*
X140083998Y-109174250D01*
G75*
G02*
X139834000Y-108924252I0J249998D01*
G01*
G37*
%TD*%
%TO.C,R1*%
G36*
G01*
X142759000Y-95525752D02*
X142759000Y-94275748D01*
G75*
G02*
X143008998Y-94025750I249998J0D01*
G01*
X143634002Y-94025750D01*
G75*
G02*
X143884000Y-94275748I0J-249998D01*
G01*
X143884000Y-95525752D01*
G75*
G02*
X143634002Y-95775750I-249998J0D01*
G01*
X143008998Y-95775750D01*
G75*
G02*
X142759000Y-95525752I0J249998D01*
G01*
G37*
G36*
G01*
X139834000Y-95525752D02*
X139834000Y-94275748D01*
G75*
G02*
X140083998Y-94025750I249998J0D01*
G01*
X140709002Y-94025750D01*
G75*
G02*
X140959000Y-94275748I0J-249998D01*
G01*
X140959000Y-95525752D01*
G75*
G02*
X140709002Y-95775750I-249998J0D01*
G01*
X140083998Y-95775750D01*
G75*
G02*
X139834000Y-95525752I0J249998D01*
G01*
G37*
%TD*%
M02*
