%TF.GenerationSoftware,KiCad,Pcbnew,5.1.9-1.fc32*%
%TF.CreationDate,2021-03-18T16:00:35-07:00*%
%TF.ProjectId,motorbrainz,6d6f746f-7262-4726-9169-6e7a2e6b6963,1.0*%
%TF.SameCoordinates,Original*%
%TF.FileFunction,Copper,L4,Bot*%
%TF.FilePolarity,Positive*%
%FSLAX46Y46*%
G04 Gerber Fmt 4.6, Leading zero omitted, Abs format (unit mm)*
G04 Created by KiCad (PCBNEW 5.1.9-1.fc32) date 2021-03-18 16:00:35*
%MOMM*%
%LPD*%
G01*
G04 APERTURE LIST*
%TA.AperFunction,SMDPad,CuDef*%
%ADD10R,1.000000X1.500000*%
%TD*%
%TA.AperFunction,ComponentPad*%
%ADD11R,1.650000X1.650000*%
%TD*%
%TA.AperFunction,ComponentPad*%
%ADD12C,1.650000*%
%TD*%
%TA.AperFunction,ViaPad*%
%ADD13C,1.200000*%
%TD*%
%TA.AperFunction,ViaPad*%
%ADD14C,0.800000*%
%TD*%
%TA.AperFunction,Conductor*%
%ADD15C,0.800000*%
%TD*%
%TA.AperFunction,Conductor*%
%ADD16C,0.700000*%
%TD*%
%TA.AperFunction,Conductor*%
%ADD17C,0.300000*%
%TD*%
%TA.AperFunction,Conductor*%
%ADD18C,0.100000*%
%TD*%
G04 APERTURE END LIST*
%TO.P,R12,2*%
%TO.N,GND*%
%TA.AperFunction,SMDPad,CuDef*%
G36*
G01*
X98825500Y-93324000D02*
X98825500Y-93874000D01*
G75*
G02*
X98625500Y-94074000I-200000J0D01*
G01*
X98225500Y-94074000D01*
G75*
G02*
X98025500Y-93874000I0J200000D01*
G01*
X98025500Y-93324000D01*
G75*
G02*
X98225500Y-93124000I200000J0D01*
G01*
X98625500Y-93124000D01*
G75*
G02*
X98825500Y-93324000I0J-200000D01*
G01*
G37*
%TD.AperFunction*%
%TO.P,R12,1*%
%TO.N,/SW5R*%
%TA.AperFunction,SMDPad,CuDef*%
G36*
G01*
X100475500Y-93324000D02*
X100475500Y-93874000D01*
G75*
G02*
X100275500Y-94074000I-200000J0D01*
G01*
X99875500Y-94074000D01*
G75*
G02*
X99675500Y-93874000I0J200000D01*
G01*
X99675500Y-93324000D01*
G75*
G02*
X99875500Y-93124000I200000J0D01*
G01*
X100275500Y-93124000D01*
G75*
G02*
X100475500Y-93324000I0J-200000D01*
G01*
G37*
%TD.AperFunction*%
%TD*%
%TO.P,R3,2*%
%TO.N,/SW1R*%
%TA.AperFunction,SMDPad,CuDef*%
G36*
G01*
X113684500Y-93324000D02*
X113684500Y-93874000D01*
G75*
G02*
X113484500Y-94074000I-200000J0D01*
G01*
X113084500Y-94074000D01*
G75*
G02*
X112884500Y-93874000I0J200000D01*
G01*
X112884500Y-93324000D01*
G75*
G02*
X113084500Y-93124000I200000J0D01*
G01*
X113484500Y-93124000D01*
G75*
G02*
X113684500Y-93324000I0J-200000D01*
G01*
G37*
%TD.AperFunction*%
%TO.P,R3,1*%
%TO.N,+3V3*%
%TA.AperFunction,SMDPad,CuDef*%
G36*
G01*
X115334500Y-93324000D02*
X115334500Y-93874000D01*
G75*
G02*
X115134500Y-94074000I-200000J0D01*
G01*
X114734500Y-94074000D01*
G75*
G02*
X114534500Y-93874000I0J200000D01*
G01*
X114534500Y-93324000D01*
G75*
G02*
X114734500Y-93124000I200000J0D01*
G01*
X115134500Y-93124000D01*
G75*
G02*
X115334500Y-93324000I0J-200000D01*
G01*
G37*
%TD.AperFunction*%
%TD*%
%TO.P,R5,2*%
%TO.N,/SW2R*%
%TA.AperFunction,SMDPad,CuDef*%
G36*
G01*
X109581500Y-92477000D02*
X109581500Y-91927000D01*
G75*
G02*
X109781500Y-91727000I200000J0D01*
G01*
X110181500Y-91727000D01*
G75*
G02*
X110381500Y-91927000I0J-200000D01*
G01*
X110381500Y-92477000D01*
G75*
G02*
X110181500Y-92677000I-200000J0D01*
G01*
X109781500Y-92677000D01*
G75*
G02*
X109581500Y-92477000I0J200000D01*
G01*
G37*
%TD.AperFunction*%
%TO.P,R5,1*%
%TO.N,+3V3*%
%TA.AperFunction,SMDPad,CuDef*%
G36*
G01*
X107931500Y-92477000D02*
X107931500Y-91927000D01*
G75*
G02*
X108131500Y-91727000I200000J0D01*
G01*
X108531500Y-91727000D01*
G75*
G02*
X108731500Y-91927000I0J-200000D01*
G01*
X108731500Y-92477000D01*
G75*
G02*
X108531500Y-92677000I-200000J0D01*
G01*
X108131500Y-92677000D01*
G75*
G02*
X107931500Y-92477000I0J200000D01*
G01*
G37*
%TD.AperFunction*%
%TD*%
%TO.P,R7,2*%
%TO.N,/SW3R*%
%TA.AperFunction,SMDPad,CuDef*%
G36*
G01*
X107080500Y-93324000D02*
X107080500Y-93874000D01*
G75*
G02*
X106880500Y-94074000I-200000J0D01*
G01*
X106480500Y-94074000D01*
G75*
G02*
X106280500Y-93874000I0J200000D01*
G01*
X106280500Y-93324000D01*
G75*
G02*
X106480500Y-93124000I200000J0D01*
G01*
X106880500Y-93124000D01*
G75*
G02*
X107080500Y-93324000I0J-200000D01*
G01*
G37*
%TD.AperFunction*%
%TO.P,R7,1*%
%TO.N,+3V3*%
%TA.AperFunction,SMDPad,CuDef*%
G36*
G01*
X108730500Y-93324000D02*
X108730500Y-93874000D01*
G75*
G02*
X108530500Y-94074000I-200000J0D01*
G01*
X108130500Y-94074000D01*
G75*
G02*
X107930500Y-93874000I0J200000D01*
G01*
X107930500Y-93324000D01*
G75*
G02*
X108130500Y-93124000I200000J0D01*
G01*
X108530500Y-93124000D01*
G75*
G02*
X108730500Y-93324000I0J-200000D01*
G01*
G37*
%TD.AperFunction*%
%TD*%
%TO.P,R9,2*%
%TO.N,/SW4R*%
%TA.AperFunction,SMDPad,CuDef*%
G36*
G01*
X102977500Y-92477000D02*
X102977500Y-91927000D01*
G75*
G02*
X103177500Y-91727000I200000J0D01*
G01*
X103577500Y-91727000D01*
G75*
G02*
X103777500Y-91927000I0J-200000D01*
G01*
X103777500Y-92477000D01*
G75*
G02*
X103577500Y-92677000I-200000J0D01*
G01*
X103177500Y-92677000D01*
G75*
G02*
X102977500Y-92477000I0J200000D01*
G01*
G37*
%TD.AperFunction*%
%TO.P,R9,1*%
%TO.N,+3V3*%
%TA.AperFunction,SMDPad,CuDef*%
G36*
G01*
X101327500Y-92477000D02*
X101327500Y-91927000D01*
G75*
G02*
X101527500Y-91727000I200000J0D01*
G01*
X101927500Y-91727000D01*
G75*
G02*
X102127500Y-91927000I0J-200000D01*
G01*
X102127500Y-92477000D01*
G75*
G02*
X101927500Y-92677000I-200000J0D01*
G01*
X101527500Y-92677000D01*
G75*
G02*
X101327500Y-92477000I0J200000D01*
G01*
G37*
%TD.AperFunction*%
%TD*%
D10*
%TO.P,JP1,1*%
%TO.N,GND*%
X110587000Y-88582500D03*
%TO.P,JP1,2*%
%TO.N,/SW1B*%
X111887000Y-88582500D03*
%TO.P,JP1,3*%
%TO.N,+3V3*%
X113187000Y-88582500D03*
%TD*%
%TO.P,JP2,1*%
%TO.N,GND*%
X110583500Y-88582500D03*
%TO.P,JP2,2*%
%TO.N,/SW2B*%
X109283500Y-88582500D03*
%TO.P,JP2,3*%
%TO.N,+3V3*%
X107983500Y-88582500D03*
%TD*%
%TO.P,JP3,1*%
%TO.N,GND*%
X105380000Y-88582500D03*
%TO.P,JP3,2*%
%TO.N,/SW3B*%
X106680000Y-88582500D03*
%TO.P,JP3,3*%
%TO.N,+3V3*%
X107980000Y-88582500D03*
%TD*%
%TO.P,JP4,1*%
%TO.N,GND*%
X105376500Y-88582500D03*
%TO.P,JP4,2*%
%TO.N,/SW4B*%
X104076500Y-88582500D03*
%TO.P,JP4,3*%
%TO.N,+3V3*%
X102776500Y-88582500D03*
%TD*%
%TO.P,R11,2*%
%TO.N,/SW5R*%
%TA.AperFunction,SMDPad,CuDef*%
G36*
G01*
X100476500Y-93324000D02*
X100476500Y-93874000D01*
G75*
G02*
X100276500Y-94074000I-200000J0D01*
G01*
X99876500Y-94074000D01*
G75*
G02*
X99676500Y-93874000I0J200000D01*
G01*
X99676500Y-93324000D01*
G75*
G02*
X99876500Y-93124000I200000J0D01*
G01*
X100276500Y-93124000D01*
G75*
G02*
X100476500Y-93324000I0J-200000D01*
G01*
G37*
%TD.AperFunction*%
%TO.P,R11,1*%
%TO.N,+3V3*%
%TA.AperFunction,SMDPad,CuDef*%
G36*
G01*
X102126500Y-93324000D02*
X102126500Y-93874000D01*
G75*
G02*
X101926500Y-94074000I-200000J0D01*
G01*
X101526500Y-94074000D01*
G75*
G02*
X101326500Y-93874000I0J200000D01*
G01*
X101326500Y-93324000D01*
G75*
G02*
X101526500Y-93124000I200000J0D01*
G01*
X101926500Y-93124000D01*
G75*
G02*
X102126500Y-93324000I0J-200000D01*
G01*
G37*
%TD.AperFunction*%
%TD*%
%TO.P,JP5,1*%
%TO.N,GND*%
X100173000Y-88582500D03*
%TO.P,JP5,2*%
%TO.N,/SW5B*%
X101473000Y-88582500D03*
%TO.P,JP5,3*%
%TO.N,+3V3*%
X102773000Y-88582500D03*
%TD*%
%TO.P,R10,2*%
%TO.N,GND*%
%TA.AperFunction,SMDPad,CuDef*%
G36*
G01*
X104628500Y-92477000D02*
X104628500Y-91927000D01*
G75*
G02*
X104828500Y-91727000I200000J0D01*
G01*
X105228500Y-91727000D01*
G75*
G02*
X105428500Y-91927000I0J-200000D01*
G01*
X105428500Y-92477000D01*
G75*
G02*
X105228500Y-92677000I-200000J0D01*
G01*
X104828500Y-92677000D01*
G75*
G02*
X104628500Y-92477000I0J200000D01*
G01*
G37*
%TD.AperFunction*%
%TO.P,R10,1*%
%TO.N,/SW4R*%
%TA.AperFunction,SMDPad,CuDef*%
G36*
G01*
X102978500Y-92477000D02*
X102978500Y-91927000D01*
G75*
G02*
X103178500Y-91727000I200000J0D01*
G01*
X103578500Y-91727000D01*
G75*
G02*
X103778500Y-91927000I0J-200000D01*
G01*
X103778500Y-92477000D01*
G75*
G02*
X103578500Y-92677000I-200000J0D01*
G01*
X103178500Y-92677000D01*
G75*
G02*
X102978500Y-92477000I0J200000D01*
G01*
G37*
%TD.AperFunction*%
%TD*%
%TO.P,R8,2*%
%TO.N,GND*%
%TA.AperFunction,SMDPad,CuDef*%
G36*
G01*
X105429500Y-93324000D02*
X105429500Y-93874000D01*
G75*
G02*
X105229500Y-94074000I-200000J0D01*
G01*
X104829500Y-94074000D01*
G75*
G02*
X104629500Y-93874000I0J200000D01*
G01*
X104629500Y-93324000D01*
G75*
G02*
X104829500Y-93124000I200000J0D01*
G01*
X105229500Y-93124000D01*
G75*
G02*
X105429500Y-93324000I0J-200000D01*
G01*
G37*
%TD.AperFunction*%
%TO.P,R8,1*%
%TO.N,/SW3R*%
%TA.AperFunction,SMDPad,CuDef*%
G36*
G01*
X107079500Y-93324000D02*
X107079500Y-93874000D01*
G75*
G02*
X106879500Y-94074000I-200000J0D01*
G01*
X106479500Y-94074000D01*
G75*
G02*
X106279500Y-93874000I0J200000D01*
G01*
X106279500Y-93324000D01*
G75*
G02*
X106479500Y-93124000I200000J0D01*
G01*
X106879500Y-93124000D01*
G75*
G02*
X107079500Y-93324000I0J-200000D01*
G01*
G37*
%TD.AperFunction*%
%TD*%
%TO.P,R4,2*%
%TO.N,GND*%
%TA.AperFunction,SMDPad,CuDef*%
G36*
G01*
X112033500Y-93324000D02*
X112033500Y-93874000D01*
G75*
G02*
X111833500Y-94074000I-200000J0D01*
G01*
X111433500Y-94074000D01*
G75*
G02*
X111233500Y-93874000I0J200000D01*
G01*
X111233500Y-93324000D01*
G75*
G02*
X111433500Y-93124000I200000J0D01*
G01*
X111833500Y-93124000D01*
G75*
G02*
X112033500Y-93324000I0J-200000D01*
G01*
G37*
%TD.AperFunction*%
%TO.P,R4,1*%
%TO.N,/SW1R*%
%TA.AperFunction,SMDPad,CuDef*%
G36*
G01*
X113683500Y-93324000D02*
X113683500Y-93874000D01*
G75*
G02*
X113483500Y-94074000I-200000J0D01*
G01*
X113083500Y-94074000D01*
G75*
G02*
X112883500Y-93874000I0J200000D01*
G01*
X112883500Y-93324000D01*
G75*
G02*
X113083500Y-93124000I200000J0D01*
G01*
X113483500Y-93124000D01*
G75*
G02*
X113683500Y-93324000I0J-200000D01*
G01*
G37*
%TD.AperFunction*%
%TD*%
%TO.P,R6,2*%
%TO.N,GND*%
%TA.AperFunction,SMDPad,CuDef*%
G36*
G01*
X111232500Y-92477000D02*
X111232500Y-91927000D01*
G75*
G02*
X111432500Y-91727000I200000J0D01*
G01*
X111832500Y-91727000D01*
G75*
G02*
X112032500Y-91927000I0J-200000D01*
G01*
X112032500Y-92477000D01*
G75*
G02*
X111832500Y-92677000I-200000J0D01*
G01*
X111432500Y-92677000D01*
G75*
G02*
X111232500Y-92477000I0J200000D01*
G01*
G37*
%TD.AperFunction*%
%TO.P,R6,1*%
%TO.N,/SW2R*%
%TA.AperFunction,SMDPad,CuDef*%
G36*
G01*
X109582500Y-92477000D02*
X109582500Y-91927000D01*
G75*
G02*
X109782500Y-91727000I200000J0D01*
G01*
X110182500Y-91727000D01*
G75*
G02*
X110382500Y-91927000I0J-200000D01*
G01*
X110382500Y-92477000D01*
G75*
G02*
X110182500Y-92677000I-200000J0D01*
G01*
X109782500Y-92677000D01*
G75*
G02*
X109582500Y-92477000I0J200000D01*
G01*
G37*
%TD.AperFunction*%
%TD*%
%TO.P,R2,2*%
%TO.N,GND*%
%TA.AperFunction,SMDPad,CuDef*%
G36*
G01*
X142759000Y-108924251D02*
X142759000Y-107674249D01*
G75*
G02*
X143008999Y-107424250I249999J0D01*
G01*
X143634001Y-107424250D01*
G75*
G02*
X143884000Y-107674249I0J-249999D01*
G01*
X143884000Y-108924251D01*
G75*
G02*
X143634001Y-109174250I-249999J0D01*
G01*
X143008999Y-109174250D01*
G75*
G02*
X142759000Y-108924251I0J249999D01*
G01*
G37*
%TD.AperFunction*%
%TO.P,R2,1*%
%TO.N,/SENB*%
%TA.AperFunction,SMDPad,CuDef*%
G36*
G01*
X139834000Y-108924251D02*
X139834000Y-107674249D01*
G75*
G02*
X140083999Y-107424250I249999J0D01*
G01*
X140709001Y-107424250D01*
G75*
G02*
X140959000Y-107674249I0J-249999D01*
G01*
X140959000Y-108924251D01*
G75*
G02*
X140709001Y-109174250I-249999J0D01*
G01*
X140083999Y-109174250D01*
G75*
G02*
X139834000Y-108924251I0J249999D01*
G01*
G37*
%TD.AperFunction*%
%TD*%
%TO.P,R1,2*%
%TO.N,GND*%
%TA.AperFunction,SMDPad,CuDef*%
G36*
G01*
X142759000Y-95525751D02*
X142759000Y-94275749D01*
G75*
G02*
X143008999Y-94025750I249999J0D01*
G01*
X143634001Y-94025750D01*
G75*
G02*
X143884000Y-94275749I0J-249999D01*
G01*
X143884000Y-95525751D01*
G75*
G02*
X143634001Y-95775750I-249999J0D01*
G01*
X143008999Y-95775750D01*
G75*
G02*
X142759000Y-95525751I0J249999D01*
G01*
G37*
%TD.AperFunction*%
%TO.P,R1,1*%
%TO.N,/SENA*%
%TA.AperFunction,SMDPad,CuDef*%
G36*
G01*
X139834000Y-95525751D02*
X139834000Y-94275749D01*
G75*
G02*
X140083999Y-94025750I249999J0D01*
G01*
X140709001Y-94025750D01*
G75*
G02*
X140959000Y-94275749I0J-249999D01*
G01*
X140959000Y-95525751D01*
G75*
G02*
X140709001Y-95775750I-249999J0D01*
G01*
X140083999Y-95775750D01*
G75*
G02*
X139834000Y-95525751I0J249999D01*
G01*
G37*
%TD.AperFunction*%
%TD*%
D11*
%TO.P,J3,1*%
%TO.N,GND*%
X96520000Y-99100000D03*
D12*
%TO.P,J3,2*%
%TO.N,+12V*%
X96520000Y-104100000D03*
%TD*%
%TO.P,J5,2*%
%TO.N,/OUTB2*%
X157480000Y-104815000D03*
D11*
%TO.P,J5,1*%
%TO.N,/OUTB1*%
X157480000Y-109815000D03*
%TD*%
%TO.P,J4,1*%
%TO.N,/OUTA1*%
X157480000Y-98385000D03*
D12*
%TO.P,J4,2*%
%TO.N,/OUTA2*%
X157480000Y-93385000D03*
%TD*%
D13*
%TO.N,/TCK*%
X113411000Y-102870000D03*
X96520000Y-95123000D03*
%TO.N,/TMS*%
X113411000Y-100965000D03*
X98425000Y-95123000D03*
%TO.N,/TDI*%
X113411000Y-104775000D03*
X94615000Y-95123000D03*
%TO.N,GND*%
X104775000Y-95123000D03*
D14*
X116854000Y-94527000D03*
X116054000Y-95327000D03*
D13*
X121920000Y-111760000D03*
X113411000Y-108585000D03*
X143321500Y-106426000D03*
X143321500Y-96774000D03*
D14*
X118454000Y-94527000D03*
X118454000Y-95327000D03*
X119254000Y-95327000D03*
X118454000Y-96127000D03*
X117654000Y-96927000D03*
X116854000Y-96127000D03*
X116854000Y-95327000D03*
X116054000Y-96127000D03*
X116854000Y-96927000D03*
X117654000Y-94527000D03*
X117654000Y-95327000D03*
X117654000Y-96127000D03*
X131890000Y-104000000D03*
X132690000Y-104000000D03*
X133490000Y-104000000D03*
X134290000Y-104000000D03*
X135090000Y-104000000D03*
X135890000Y-104000000D03*
X136690000Y-104000000D03*
X137490000Y-104000000D03*
X138290000Y-104000000D03*
X139090000Y-104000000D03*
X139890000Y-104000000D03*
X139890000Y-103200000D03*
X139090000Y-103200000D03*
X138290000Y-103200000D03*
X137490000Y-103200000D03*
X136690000Y-103200000D03*
X135890000Y-103200000D03*
X135090000Y-103200000D03*
X134290000Y-103200000D03*
X133490000Y-103200000D03*
X132690000Y-103200000D03*
X131890000Y-103200000D03*
X128690000Y-102400000D03*
X129490000Y-102400000D03*
X130290000Y-102400000D03*
X131090000Y-102400000D03*
X131890000Y-102400000D03*
X132690000Y-102400000D03*
X133490000Y-102400000D03*
X134290000Y-102400000D03*
X135090000Y-102400000D03*
X135890000Y-102400000D03*
X136690000Y-102400000D03*
X137490000Y-102400000D03*
X138290000Y-102400000D03*
X139090000Y-102400000D03*
X139890000Y-102400000D03*
X140690000Y-102400000D03*
X141490000Y-102400000D03*
X142290000Y-102400000D03*
X143090000Y-102400000D03*
X135090000Y-101600000D03*
X134290000Y-101600000D03*
X133490000Y-101600000D03*
X132690000Y-101600000D03*
X131890000Y-101600000D03*
X131090000Y-101600000D03*
X131090000Y-101600000D03*
X130290000Y-101600000D03*
X129490000Y-101600000D03*
X128690000Y-101600000D03*
X131890000Y-99200000D03*
X132690000Y-99200000D03*
X133490000Y-99200000D03*
X134290000Y-99200000D03*
X135090000Y-99200000D03*
X135890000Y-99200000D03*
X136690000Y-99200000D03*
X137490000Y-99200000D03*
X138290000Y-99200000D03*
X139090000Y-99200000D03*
X139890000Y-99200000D03*
X139890000Y-100000000D03*
X139090000Y-100000000D03*
X138290000Y-100000000D03*
X137490000Y-100000000D03*
X136690000Y-100000000D03*
X135890000Y-100000000D03*
X135090000Y-100000000D03*
X134290000Y-100000000D03*
X133490000Y-100000000D03*
X132690000Y-100000000D03*
X131890000Y-100000000D03*
X128690000Y-100800000D03*
X129490000Y-100800000D03*
X130290000Y-100800000D03*
X131090000Y-100800000D03*
X131890000Y-100800000D03*
X132690000Y-100800000D03*
X133490000Y-100800000D03*
X134290000Y-100800000D03*
X135090000Y-100800000D03*
X135890000Y-100800000D03*
X136690000Y-100800000D03*
X137490000Y-100800000D03*
X138290000Y-100800000D03*
X139090000Y-100800000D03*
X139890000Y-100800000D03*
X140690000Y-100800000D03*
X141490000Y-100800000D03*
X142290000Y-100800000D03*
X143090000Y-100800000D03*
X143090000Y-101600000D03*
X142290000Y-101600000D03*
X141490000Y-101600000D03*
X140690000Y-101600000D03*
X139890000Y-101600000D03*
X139090000Y-101600000D03*
X138290000Y-101600000D03*
X137490000Y-101600000D03*
X136690000Y-101600000D03*
X135890000Y-101600000D03*
D13*
X146685000Y-86995000D03*
X147955000Y-86995000D03*
X145415000Y-99060000D03*
X145415000Y-100330000D03*
X145415000Y-102870000D03*
X145415000Y-104140000D03*
X146685000Y-116205000D03*
X147955000Y-116205000D03*
X93980000Y-106172000D03*
X128905000Y-94900000D03*
X128905000Y-108300000D03*
X133985000Y-110172500D03*
X113411000Y-99060000D03*
X113411000Y-95250000D03*
X122809000Y-102870000D03*
X97790000Y-116332000D03*
%TO.N,+12V*%
X153035000Y-100330000D03*
X153035000Y-102870000D03*
X153035000Y-99060000D03*
X153035000Y-104140000D03*
X153035000Y-89789000D03*
X153035000Y-88519000D03*
X153035000Y-113411000D03*
X153035000Y-114681000D03*
X135255000Y-93027500D03*
X135255000Y-96774000D03*
%TO.N,/SENA*%
X122809000Y-92710000D03*
X140335000Y-96774000D03*
X140335000Y-93027500D03*
%TO.N,/SENB*%
X140335000Y-110172500D03*
X140335000Y-106426000D03*
X113411000Y-92075000D03*
%TO.N,/RESET*%
X120015000Y-111760000D03*
X100330000Y-109728000D03*
%TO.N,/TXD*%
X122809000Y-97155000D03*
X99060000Y-106172000D03*
%TO.N,/RXD*%
X122809000Y-99060000D03*
X96520000Y-107442000D03*
%TO.N,/IO0*%
X122809000Y-100965000D03*
X93980000Y-108712000D03*
%TO.N,+3V3*%
X113187000Y-86614000D03*
X113411000Y-97155000D03*
%TO.N,/SW5R*%
X100076000Y-90932000D03*
%TO.N,/SW5B*%
X102776500Y-86614000D03*
%TO.N,/SW4R*%
X103251000Y-90932000D03*
%TO.N,/SW4B*%
X104775000Y-86614000D03*
%TO.N,/SW3R*%
X107315000Y-95123000D03*
%TO.N,/SW3B*%
X106680000Y-86614000D03*
%TO.N,/SW2R*%
X110109000Y-90932000D03*
X122809000Y-94615000D03*
%TO.N,/SW2B*%
X108585000Y-86614000D03*
%TO.N,/SW1R*%
X113411000Y-90170000D03*
X122809000Y-104775000D03*
%TO.N,/SW1B*%
X110583500Y-86614000D03*
%TD*%
D15*
%TO.N,GND*%
X105028500Y-92203000D02*
X105029500Y-92202000D01*
X105028500Y-93599000D02*
X105028500Y-92203000D01*
X111633500Y-92203000D02*
X111632500Y-92202000D01*
X111633500Y-93599000D02*
X111633500Y-92203000D01*
X110587000Y-89612502D02*
X110587000Y-88582500D01*
X111632500Y-90658002D02*
X110587000Y-89612502D01*
X111632500Y-92202000D02*
X111632500Y-90658002D01*
X105380000Y-91850500D02*
X105028500Y-92202000D01*
X105380000Y-88582500D02*
X105380000Y-91850500D01*
%TO.N,+3V3*%
X101726500Y-92203000D02*
X101727500Y-92202000D01*
X101726500Y-93599000D02*
X101726500Y-92203000D01*
X108330500Y-92203000D02*
X108331500Y-92202000D01*
X108330500Y-93599000D02*
X108330500Y-92203000D01*
X102773000Y-89612502D02*
X102773000Y-88582500D01*
X101727500Y-90658002D02*
X102773000Y-89612502D01*
X101727500Y-92202000D02*
X101727500Y-90658002D01*
X107983500Y-91854000D02*
X108331500Y-92202000D01*
X107983500Y-88582500D02*
X107983500Y-91854000D01*
X113187000Y-88582500D02*
X113187000Y-86614000D01*
X101726500Y-93850502D02*
X101726500Y-93599000D01*
X105030998Y-97155000D02*
X101726500Y-93850502D01*
X108712000Y-97155000D02*
X105030998Y-97155000D01*
X113411000Y-97155000D02*
X108712000Y-97155000D01*
X108712000Y-93980500D02*
X108712000Y-97155000D01*
X108330500Y-93599000D02*
X108712000Y-93980500D01*
D16*
X114561001Y-87988001D02*
X113187000Y-86614000D01*
X114561001Y-91589835D02*
X114561001Y-87988001D01*
X114934500Y-91963334D02*
X114561001Y-91589835D01*
X114934500Y-93599000D02*
X114934500Y-91963334D01*
D17*
%TO.N,/SW5R*%
X100075500Y-90932500D02*
X100076000Y-90932000D01*
X100075500Y-93599000D02*
X100075500Y-90932500D01*
D15*
%TO.N,/SW5B*%
X101891500Y-86614000D02*
X102776500Y-86614000D01*
X101473000Y-87032500D02*
X101891500Y-86614000D01*
X101473000Y-88582500D02*
X101473000Y-87032500D01*
D17*
%TO.N,/SW4R*%
X103377500Y-90931500D02*
X103251000Y-90805000D01*
X103378500Y-91059500D02*
X103251000Y-90932000D01*
X103377500Y-91058500D02*
X103251000Y-90932000D01*
X103377500Y-92202000D02*
X103377500Y-91058500D01*
D15*
%TO.N,/SW4B*%
X104076500Y-87312500D02*
X104775000Y-86614000D01*
X104076500Y-88582500D02*
X104076500Y-87312500D01*
D17*
%TO.N,/SW3R*%
X106679500Y-94487500D02*
X107315000Y-95123000D01*
X106679500Y-93599000D02*
X106679500Y-94487500D01*
D15*
%TO.N,/SW3B*%
X106680000Y-88582500D02*
X106680000Y-86614000D01*
D17*
%TO.N,/SW2R*%
X109981500Y-91059500D02*
X110109000Y-90932000D01*
X109981500Y-92202000D02*
X109981500Y-91059500D01*
D15*
%TO.N,/SW2B*%
X109283500Y-87312500D02*
X108585000Y-86614000D01*
X109283500Y-88582500D02*
X109283500Y-87312500D01*
D17*
%TO.N,/SW1R*%
X112460999Y-92776499D02*
X113283500Y-93599000D01*
X112460999Y-91120001D02*
X112460999Y-92776499D01*
X113411000Y-90170000D02*
X112460999Y-91120001D01*
D15*
%TO.N,/SW1B*%
X111887000Y-87032500D02*
X111468500Y-86614000D01*
X111468500Y-86614000D02*
X110583500Y-86614000D01*
X111887000Y-88582500D02*
X111887000Y-87032500D01*
%TD*%
D17*
%TO.N,GND*%
X100901481Y-86401939D02*
X100869053Y-86428552D01*
X100762833Y-86557981D01*
X100739127Y-86602332D01*
X100683903Y-86705646D01*
X100635300Y-86865871D01*
X100618889Y-87032500D01*
X100623001Y-87074251D01*
X100623001Y-87394999D01*
X100523000Y-87495000D01*
X100523000Y-87810395D01*
X100520823Y-87832500D01*
X100520823Y-89332500D01*
X100523000Y-89354605D01*
X100523000Y-89670000D01*
X100635500Y-89782500D01*
X100673000Y-89784677D01*
X100761215Y-89775989D01*
X100823000Y-89757246D01*
X100884785Y-89775989D01*
X100973000Y-89784677D01*
X101398745Y-89784677D01*
X101155981Y-90027441D01*
X101123553Y-90054054D01*
X101096940Y-90086482D01*
X101096939Y-90086483D01*
X101087073Y-90098504D01*
X101017333Y-90183483D01*
X101001191Y-90213682D01*
X100938403Y-90331148D01*
X100938074Y-90332234D01*
X100891589Y-90262664D01*
X100745336Y-90116411D01*
X100573362Y-90001502D01*
X100382274Y-89922350D01*
X100179416Y-89882000D01*
X99972584Y-89882000D01*
X99769726Y-89922350D01*
X99578638Y-90001502D01*
X99406664Y-90116411D01*
X99260411Y-90262664D01*
X99145502Y-90434638D01*
X99066350Y-90625726D01*
X99026000Y-90828584D01*
X99026000Y-91035416D01*
X99066350Y-91238274D01*
X99145502Y-91429362D01*
X99260411Y-91601336D01*
X99406664Y-91747589D01*
X99475501Y-91793584D01*
X99475500Y-92812649D01*
X99414341Y-92862841D01*
X99333235Y-92961670D01*
X99272967Y-93074423D01*
X99272837Y-93074853D01*
X99268989Y-93035785D01*
X99243257Y-92950959D01*
X99201471Y-92872784D01*
X99145237Y-92804263D01*
X99076716Y-92748029D01*
X98998541Y-92706243D01*
X98913715Y-92680511D01*
X98825500Y-92671823D01*
X98788000Y-92674000D01*
X98675500Y-92786500D01*
X98675500Y-93274000D01*
X98795500Y-93274000D01*
X98795500Y-93924000D01*
X98675500Y-93924000D01*
X98675500Y-93969000D01*
X98175500Y-93969000D01*
X98175500Y-93924000D01*
X97688000Y-93924000D01*
X97575500Y-94036500D01*
X97573323Y-94074000D01*
X97582011Y-94162215D01*
X97607743Y-94247041D01*
X97649529Y-94325216D01*
X97689344Y-94373731D01*
X97609411Y-94453664D01*
X97494502Y-94625638D01*
X97472500Y-94678755D01*
X97450498Y-94625638D01*
X97335589Y-94453664D01*
X97189336Y-94307411D01*
X97017362Y-94192502D01*
X96826274Y-94113350D01*
X96623416Y-94073000D01*
X96416584Y-94073000D01*
X96213726Y-94113350D01*
X96022638Y-94192502D01*
X95850664Y-94307411D01*
X95704411Y-94453664D01*
X95589502Y-94625638D01*
X95567500Y-94678755D01*
X95545498Y-94625638D01*
X95430589Y-94453664D01*
X95284336Y-94307411D01*
X95112362Y-94192502D01*
X94921274Y-94113350D01*
X94718416Y-94073000D01*
X94511584Y-94073000D01*
X94308726Y-94113350D01*
X94117638Y-94192502D01*
X93945664Y-94307411D01*
X93799411Y-94453664D01*
X93684502Y-94625638D01*
X93605350Y-94816726D01*
X93565000Y-95019584D01*
X93565000Y-95226416D01*
X93605350Y-95429274D01*
X93684502Y-95620362D01*
X93799411Y-95792336D01*
X93945664Y-95938589D01*
X94117638Y-96053498D01*
X94308726Y-96132650D01*
X94511584Y-96173000D01*
X94718416Y-96173000D01*
X94921274Y-96132650D01*
X95112362Y-96053498D01*
X95284336Y-95938589D01*
X95430589Y-95792336D01*
X95545498Y-95620362D01*
X95567500Y-95567245D01*
X95589502Y-95620362D01*
X95704411Y-95792336D01*
X95850664Y-95938589D01*
X96022638Y-96053498D01*
X96213726Y-96132650D01*
X96416584Y-96173000D01*
X96623416Y-96173000D01*
X96826274Y-96132650D01*
X97017362Y-96053498D01*
X97189336Y-95938589D01*
X97335589Y-95792336D01*
X97450498Y-95620362D01*
X97472500Y-95567245D01*
X97494502Y-95620362D01*
X97609411Y-95792336D01*
X97755664Y-95938589D01*
X97927638Y-96053498D01*
X98118726Y-96132650D01*
X98321584Y-96173000D01*
X98528416Y-96173000D01*
X98731274Y-96132650D01*
X98922362Y-96053498D01*
X99094336Y-95938589D01*
X99240589Y-95792336D01*
X99355498Y-95620362D01*
X99434650Y-95429274D01*
X99475000Y-95226416D01*
X99475000Y-95019584D01*
X99434650Y-94816726D01*
X99355498Y-94625638D01*
X99240589Y-94453664D01*
X99161205Y-94374280D01*
X99201471Y-94325216D01*
X99243257Y-94247041D01*
X99268989Y-94162215D01*
X99272837Y-94123147D01*
X99272967Y-94123577D01*
X99333235Y-94236330D01*
X99414341Y-94335159D01*
X99513170Y-94416265D01*
X99625923Y-94476533D01*
X99748267Y-94513646D01*
X99875500Y-94526177D01*
X100276500Y-94526177D01*
X100403733Y-94513646D01*
X100526077Y-94476533D01*
X100638830Y-94416265D01*
X100737659Y-94335159D01*
X100818765Y-94236330D01*
X100879033Y-94123577D01*
X100900062Y-94054256D01*
X100917987Y-94113350D01*
X100937403Y-94177356D01*
X101016332Y-94325020D01*
X101122552Y-94454450D01*
X101154986Y-94481068D01*
X104400437Y-97726520D01*
X104427050Y-97758948D01*
X104556479Y-97865168D01*
X104704143Y-97944097D01*
X104864369Y-97992700D01*
X104989249Y-98005000D01*
X104989257Y-98005000D01*
X105030998Y-98009111D01*
X105072739Y-98005000D01*
X108670252Y-98005000D01*
X108712000Y-98009112D01*
X108753749Y-98005000D01*
X112793164Y-98005000D01*
X112913638Y-98085498D01*
X113104726Y-98164650D01*
X113307584Y-98205000D01*
X113514416Y-98205000D01*
X113717274Y-98164650D01*
X113908362Y-98085498D01*
X114080336Y-97970589D01*
X114226589Y-97824336D01*
X114341498Y-97652362D01*
X114420650Y-97461274D01*
X114461000Y-97258416D01*
X114461000Y-97051584D01*
X121759000Y-97051584D01*
X121759000Y-97258416D01*
X121799350Y-97461274D01*
X121878502Y-97652362D01*
X121993411Y-97824336D01*
X122139664Y-97970589D01*
X122311638Y-98085498D01*
X122364755Y-98107500D01*
X122311638Y-98129502D01*
X122139664Y-98244411D01*
X121993411Y-98390664D01*
X121878502Y-98562638D01*
X121799350Y-98753726D01*
X121759000Y-98956584D01*
X121759000Y-99163416D01*
X121799350Y-99366274D01*
X121878502Y-99557362D01*
X121993411Y-99729336D01*
X122139664Y-99875589D01*
X122311638Y-99990498D01*
X122364755Y-100012500D01*
X122311638Y-100034502D01*
X122139664Y-100149411D01*
X121993411Y-100295664D01*
X121878502Y-100467638D01*
X121799350Y-100658726D01*
X121759000Y-100861584D01*
X121759000Y-101068416D01*
X121799350Y-101271274D01*
X121878502Y-101462362D01*
X121993411Y-101634336D01*
X122139664Y-101780589D01*
X122311638Y-101895498D01*
X122502726Y-101974650D01*
X122705584Y-102015000D01*
X122912416Y-102015000D01*
X123115274Y-101974650D01*
X123306362Y-101895498D01*
X123478336Y-101780589D01*
X123624589Y-101634336D01*
X123739498Y-101462362D01*
X123818650Y-101271274D01*
X123859000Y-101068416D01*
X123859000Y-100861584D01*
X123818650Y-100658726D01*
X123739498Y-100467638D01*
X123624589Y-100295664D01*
X123478336Y-100149411D01*
X123306362Y-100034502D01*
X123253245Y-100012500D01*
X123306362Y-99990498D01*
X123478336Y-99875589D01*
X123624589Y-99729336D01*
X123739498Y-99557362D01*
X123818650Y-99366274D01*
X123859000Y-99163416D01*
X123859000Y-98956584D01*
X151985000Y-98956584D01*
X151985000Y-99163416D01*
X152025350Y-99366274D01*
X152104502Y-99557362D01*
X152196468Y-99695000D01*
X152104502Y-99832638D01*
X152025350Y-100023726D01*
X151985000Y-100226584D01*
X151985000Y-100433416D01*
X152025350Y-100636274D01*
X152104502Y-100827362D01*
X152219411Y-100999336D01*
X152365664Y-101145589D01*
X152537638Y-101260498D01*
X152728726Y-101339650D01*
X152931584Y-101380000D01*
X153138416Y-101380000D01*
X153341274Y-101339650D01*
X153532362Y-101260498D01*
X153704336Y-101145589D01*
X153850589Y-100999336D01*
X153965498Y-100827362D01*
X154044650Y-100636274D01*
X154085000Y-100433416D01*
X154085000Y-100226584D01*
X154044650Y-100023726D01*
X153965498Y-99832638D01*
X153873532Y-99695000D01*
X153965498Y-99557362D01*
X154044650Y-99366274D01*
X154085000Y-99163416D01*
X154085000Y-98956584D01*
X154044650Y-98753726D01*
X153965498Y-98562638D01*
X153850589Y-98390664D01*
X153704336Y-98244411D01*
X153532362Y-98129502D01*
X153341274Y-98050350D01*
X153138416Y-98010000D01*
X152931584Y-98010000D01*
X152728726Y-98050350D01*
X152537638Y-98129502D01*
X152365664Y-98244411D01*
X152219411Y-98390664D01*
X152104502Y-98562638D01*
X152025350Y-98753726D01*
X151985000Y-98956584D01*
X123859000Y-98956584D01*
X123818650Y-98753726D01*
X123739498Y-98562638D01*
X123624589Y-98390664D01*
X123478336Y-98244411D01*
X123306362Y-98129502D01*
X123253245Y-98107500D01*
X123306362Y-98085498D01*
X123478336Y-97970589D01*
X123624589Y-97824336D01*
X123739498Y-97652362D01*
X123818650Y-97461274D01*
X123859000Y-97258416D01*
X123859000Y-97051584D01*
X123818650Y-96848726D01*
X123744861Y-96670584D01*
X134205000Y-96670584D01*
X134205000Y-96877416D01*
X134245350Y-97080274D01*
X134324502Y-97271362D01*
X134439411Y-97443336D01*
X134585664Y-97589589D01*
X134757638Y-97704498D01*
X134948726Y-97783650D01*
X135151584Y-97824000D01*
X135358416Y-97824000D01*
X135561274Y-97783650D01*
X135752362Y-97704498D01*
X135924336Y-97589589D01*
X136070589Y-97443336D01*
X136185498Y-97271362D01*
X136264650Y-97080274D01*
X136305000Y-96877416D01*
X136305000Y-96670584D01*
X136264650Y-96467726D01*
X136185498Y-96276638D01*
X136070589Y-96104664D01*
X135924336Y-95958411D01*
X135752362Y-95843502D01*
X135561274Y-95764350D01*
X135358416Y-95724000D01*
X135151584Y-95724000D01*
X134948726Y-95764350D01*
X134757638Y-95843502D01*
X134585664Y-95958411D01*
X134439411Y-96104664D01*
X134324502Y-96276638D01*
X134245350Y-96467726D01*
X134205000Y-96670584D01*
X123744861Y-96670584D01*
X123739498Y-96657638D01*
X123624589Y-96485664D01*
X123478336Y-96339411D01*
X123306362Y-96224502D01*
X123115274Y-96145350D01*
X122912416Y-96105000D01*
X122705584Y-96105000D01*
X122502726Y-96145350D01*
X122311638Y-96224502D01*
X122139664Y-96339411D01*
X121993411Y-96485664D01*
X121878502Y-96657638D01*
X121799350Y-96848726D01*
X121759000Y-97051584D01*
X114461000Y-97051584D01*
X114420650Y-96848726D01*
X114341498Y-96657638D01*
X114226589Y-96485664D01*
X114080336Y-96339411D01*
X113908362Y-96224502D01*
X113717274Y-96145350D01*
X113514416Y-96105000D01*
X113307584Y-96105000D01*
X113104726Y-96145350D01*
X112913638Y-96224502D01*
X112793164Y-96305000D01*
X109562000Y-96305000D01*
X109562000Y-94074000D01*
X110781323Y-94074000D01*
X110790011Y-94162215D01*
X110815743Y-94247041D01*
X110857529Y-94325216D01*
X110913763Y-94393737D01*
X110982284Y-94449971D01*
X111060459Y-94491757D01*
X111145285Y-94517489D01*
X111233500Y-94526177D01*
X111271000Y-94524000D01*
X111383500Y-94411500D01*
X111383500Y-93924000D01*
X110896000Y-93924000D01*
X110783500Y-94036500D01*
X110781323Y-94074000D01*
X109562000Y-94074000D01*
X109562000Y-94022237D01*
X109566111Y-93980499D01*
X109562000Y-93938761D01*
X109562000Y-93938751D01*
X109549700Y-93813871D01*
X109501097Y-93653645D01*
X109422168Y-93505981D01*
X109315948Y-93376552D01*
X109283520Y-93349939D01*
X109180500Y-93246919D01*
X109180500Y-92729445D01*
X109239235Y-92839330D01*
X109320341Y-92938159D01*
X109419170Y-93019265D01*
X109531923Y-93079533D01*
X109654267Y-93116646D01*
X109781500Y-93129177D01*
X110182500Y-93129177D01*
X110309733Y-93116646D01*
X110432077Y-93079533D01*
X110544830Y-93019265D01*
X110643659Y-92938159D01*
X110724765Y-92839330D01*
X110785033Y-92726577D01*
X110785163Y-92726147D01*
X110789011Y-92765215D01*
X110814743Y-92850041D01*
X110842214Y-92901435D01*
X110815743Y-92950959D01*
X110790011Y-93035785D01*
X110781323Y-93124000D01*
X110783500Y-93161500D01*
X110896000Y-93274000D01*
X111383500Y-93274000D01*
X111383500Y-92786500D01*
X111382500Y-92785500D01*
X111382500Y-92527000D01*
X111262500Y-92527000D01*
X111262500Y-91877000D01*
X111382500Y-91877000D01*
X111382500Y-91389500D01*
X111270000Y-91277000D01*
X111232500Y-91274823D01*
X111144285Y-91283511D01*
X111093535Y-91298906D01*
X111118650Y-91238274D01*
X111159000Y-91035416D01*
X111159000Y-90828584D01*
X111118650Y-90625726D01*
X111039498Y-90434638D01*
X110924589Y-90262664D01*
X110778336Y-90116411D01*
X110606362Y-90001502D01*
X110415274Y-89922350D01*
X110212416Y-89882000D01*
X110005584Y-89882000D01*
X109802726Y-89922350D01*
X109611638Y-90001502D01*
X109439664Y-90116411D01*
X109293411Y-90262664D01*
X109178502Y-90434638D01*
X109099350Y-90625726D01*
X109059000Y-90828584D01*
X109059000Y-91035416D01*
X109099350Y-91238274D01*
X109178502Y-91429362D01*
X109255593Y-91544737D01*
X109239235Y-91564670D01*
X109178967Y-91677423D01*
X109156500Y-91751486D01*
X109134033Y-91677423D01*
X109073765Y-91564670D01*
X108992659Y-91465841D01*
X108893830Y-91384735D01*
X108833500Y-91352488D01*
X108833500Y-89784677D01*
X109783500Y-89784677D01*
X109871715Y-89775989D01*
X109933500Y-89757246D01*
X109995285Y-89775989D01*
X110083500Y-89784677D01*
X110085702Y-89784549D01*
X110087000Y-89784677D01*
X110124500Y-89782500D01*
X110237000Y-89670000D01*
X110237000Y-88932500D01*
X110235677Y-88932500D01*
X110235677Y-88232500D01*
X110237000Y-88232500D01*
X110237000Y-88212500D01*
X110933500Y-88212500D01*
X110933500Y-88232500D01*
X110934823Y-88232500D01*
X110934823Y-88932500D01*
X110933500Y-88932500D01*
X110933500Y-89670000D01*
X111046000Y-89782500D01*
X111083500Y-89784677D01*
X111084798Y-89784549D01*
X111087000Y-89784677D01*
X111175215Y-89775989D01*
X111237000Y-89757246D01*
X111298785Y-89775989D01*
X111387000Y-89784677D01*
X112387000Y-89784677D01*
X112436096Y-89779842D01*
X112401350Y-89863726D01*
X112361000Y-90066584D01*
X112361000Y-90273416D01*
X112377268Y-90355204D01*
X112057585Y-90674888D01*
X112034682Y-90693684D01*
X111959703Y-90785047D01*
X111903989Y-90889281D01*
X111888034Y-90941878D01*
X111869681Y-91002381D01*
X111858096Y-91120001D01*
X111860999Y-91149475D01*
X111861000Y-92747016D01*
X111858096Y-92776499D01*
X111869681Y-92894119D01*
X111882500Y-92936377D01*
X111882500Y-93014500D01*
X111883500Y-93015500D01*
X111883500Y-93274000D01*
X112003500Y-93274000D01*
X112003500Y-93924000D01*
X111883500Y-93924000D01*
X111883500Y-94411500D01*
X111996000Y-94524000D01*
X112033500Y-94526177D01*
X112121715Y-94517489D01*
X112206541Y-94491757D01*
X112284716Y-94449971D01*
X112353237Y-94393737D01*
X112409471Y-94325216D01*
X112451257Y-94247041D01*
X112476989Y-94162215D01*
X112480837Y-94123147D01*
X112480967Y-94123577D01*
X112541235Y-94236330D01*
X112622341Y-94335159D01*
X112721170Y-94416265D01*
X112833923Y-94476533D01*
X112956267Y-94513646D01*
X113083500Y-94526177D01*
X113484500Y-94526177D01*
X113611733Y-94513646D01*
X113734077Y-94476533D01*
X113846830Y-94416265D01*
X113945659Y-94335159D01*
X114026765Y-94236330D01*
X114087033Y-94123577D01*
X114109500Y-94049514D01*
X114131967Y-94123577D01*
X114192235Y-94236330D01*
X114273341Y-94335159D01*
X114372170Y-94416265D01*
X114484923Y-94476533D01*
X114607267Y-94513646D01*
X114734500Y-94526177D01*
X115134500Y-94526177D01*
X115261733Y-94513646D01*
X115384077Y-94476533D01*
X115496830Y-94416265D01*
X115595659Y-94335159D01*
X115676765Y-94236330D01*
X115737033Y-94123577D01*
X115774146Y-94001233D01*
X115786677Y-93874000D01*
X115786677Y-93324000D01*
X115774146Y-93196767D01*
X115737033Y-93074423D01*
X115734500Y-93069684D01*
X115734500Y-92002616D01*
X115738369Y-91963333D01*
X115734500Y-91924050D01*
X115734500Y-91924041D01*
X115726617Y-91844000D01*
X122215110Y-91844000D01*
X122139664Y-91894411D01*
X121993411Y-92040664D01*
X121878502Y-92212638D01*
X121799350Y-92403726D01*
X121759000Y-92606584D01*
X121759000Y-92813416D01*
X121799350Y-93016274D01*
X121878502Y-93207362D01*
X121993411Y-93379336D01*
X122139664Y-93525589D01*
X122311638Y-93640498D01*
X122364755Y-93662500D01*
X122311638Y-93684502D01*
X122139664Y-93799411D01*
X121993411Y-93945664D01*
X121878502Y-94117638D01*
X121799350Y-94308726D01*
X121759000Y-94511584D01*
X121759000Y-94718416D01*
X121799350Y-94921274D01*
X121878502Y-95112362D01*
X121993411Y-95284336D01*
X122139664Y-95430589D01*
X122311638Y-95545498D01*
X122502726Y-95624650D01*
X122705584Y-95665000D01*
X122912416Y-95665000D01*
X123115274Y-95624650D01*
X123306362Y-95545498D01*
X123478336Y-95430589D01*
X123624589Y-95284336D01*
X123739498Y-95112362D01*
X123818650Y-94921274D01*
X123859000Y-94718416D01*
X123859000Y-94511584D01*
X123818650Y-94308726D01*
X123739498Y-94117638D01*
X123624589Y-93945664D01*
X123478336Y-93799411D01*
X123306362Y-93684502D01*
X123253245Y-93662500D01*
X123306362Y-93640498D01*
X123478336Y-93525589D01*
X123624589Y-93379336D01*
X123739498Y-93207362D01*
X123818650Y-93016274D01*
X123836987Y-92924084D01*
X134205000Y-92924084D01*
X134205000Y-93130916D01*
X134245350Y-93333774D01*
X134324502Y-93524862D01*
X134439411Y-93696836D01*
X134585664Y-93843089D01*
X134757638Y-93957998D01*
X134948726Y-94037150D01*
X135151584Y-94077500D01*
X135358416Y-94077500D01*
X135561274Y-94037150D01*
X135752362Y-93957998D01*
X135924336Y-93843089D01*
X136070589Y-93696836D01*
X136185498Y-93524862D01*
X136264650Y-93333774D01*
X136305000Y-93130916D01*
X136305000Y-92924084D01*
X136264650Y-92721226D01*
X136185498Y-92530138D01*
X136070589Y-92358164D01*
X135924336Y-92211911D01*
X135752362Y-92097002D01*
X135699245Y-92075000D01*
X138615000Y-92075000D01*
X138615000Y-97790000D01*
X138623647Y-97877791D01*
X138649254Y-97962208D01*
X138690839Y-98040007D01*
X138746802Y-98108198D01*
X138814993Y-98164161D01*
X138892792Y-98205746D01*
X138977209Y-98231353D01*
X139065000Y-98240000D01*
X141605000Y-98240000D01*
X141692791Y-98231353D01*
X141777208Y-98205746D01*
X141855007Y-98164161D01*
X141923198Y-98108198D01*
X141979161Y-98040007D01*
X142020746Y-97962208D01*
X142046353Y-97877791D01*
X142055000Y-97790000D01*
X142055000Y-97560000D01*
X156202823Y-97560000D01*
X156202823Y-99210000D01*
X156211511Y-99298215D01*
X156237243Y-99383041D01*
X156279029Y-99461216D01*
X156335263Y-99529737D01*
X156403784Y-99585971D01*
X156481959Y-99627757D01*
X156566785Y-99653489D01*
X156655000Y-99662177D01*
X158305000Y-99662177D01*
X158393215Y-99653489D01*
X158478041Y-99627757D01*
X158556216Y-99585971D01*
X158624737Y-99529737D01*
X158680971Y-99461216D01*
X158722757Y-99383041D01*
X158748489Y-99298215D01*
X158757177Y-99210000D01*
X158757177Y-97560000D01*
X158748489Y-97471785D01*
X158722757Y-97386959D01*
X158680971Y-97308784D01*
X158624737Y-97240263D01*
X158556216Y-97184029D01*
X158478041Y-97142243D01*
X158393215Y-97116511D01*
X158305000Y-97107823D01*
X156655000Y-97107823D01*
X156566785Y-97116511D01*
X156481959Y-97142243D01*
X156403784Y-97184029D01*
X156335263Y-97240263D01*
X156279029Y-97308784D01*
X156237243Y-97386959D01*
X156211511Y-97471785D01*
X156202823Y-97560000D01*
X142055000Y-97560000D01*
X142055000Y-95775750D01*
X142306823Y-95775750D01*
X142315511Y-95863965D01*
X142341243Y-95948791D01*
X142383029Y-96026966D01*
X142439263Y-96095487D01*
X142507784Y-96151721D01*
X142585959Y-96193507D01*
X142670785Y-96219239D01*
X142759000Y-96227927D01*
X142859000Y-96225750D01*
X142971500Y-96113250D01*
X142971500Y-95250750D01*
X143671500Y-95250750D01*
X143671500Y-96113250D01*
X143784000Y-96225750D01*
X143884000Y-96227927D01*
X143972215Y-96219239D01*
X144057041Y-96193507D01*
X144135216Y-96151721D01*
X144203737Y-96095487D01*
X144259971Y-96026966D01*
X144301757Y-95948791D01*
X144327489Y-95863965D01*
X144336177Y-95775750D01*
X144334000Y-95363250D01*
X144221500Y-95250750D01*
X143671500Y-95250750D01*
X142971500Y-95250750D01*
X142421500Y-95250750D01*
X142309000Y-95363250D01*
X142306823Y-95775750D01*
X142055000Y-95775750D01*
X142055000Y-94025750D01*
X142306823Y-94025750D01*
X142309000Y-94438250D01*
X142421500Y-94550750D01*
X142971500Y-94550750D01*
X142971500Y-93688250D01*
X143671500Y-93688250D01*
X143671500Y-94550750D01*
X144221500Y-94550750D01*
X144334000Y-94438250D01*
X144336177Y-94025750D01*
X144327489Y-93937535D01*
X144301757Y-93852709D01*
X144259971Y-93774534D01*
X144203737Y-93706013D01*
X144135216Y-93649779D01*
X144057041Y-93607993D01*
X143972215Y-93582261D01*
X143884000Y-93573573D01*
X143784000Y-93575750D01*
X143671500Y-93688250D01*
X142971500Y-93688250D01*
X142859000Y-93575750D01*
X142759000Y-93573573D01*
X142670785Y-93582261D01*
X142585959Y-93607993D01*
X142507784Y-93649779D01*
X142439263Y-93706013D01*
X142383029Y-93774534D01*
X142341243Y-93852709D01*
X142315511Y-93937535D01*
X142306823Y-94025750D01*
X142055000Y-94025750D01*
X142055000Y-93259423D01*
X156205000Y-93259423D01*
X156205000Y-93510577D01*
X156253998Y-93756904D01*
X156350110Y-93988939D01*
X156489643Y-94197765D01*
X156667235Y-94375357D01*
X156876061Y-94514890D01*
X157108096Y-94611002D01*
X157354423Y-94660000D01*
X157605577Y-94660000D01*
X157851904Y-94611002D01*
X158083939Y-94514890D01*
X158292765Y-94375357D01*
X158470357Y-94197765D01*
X158609890Y-93988939D01*
X158706002Y-93756904D01*
X158755000Y-93510577D01*
X158755000Y-93259423D01*
X158706002Y-93013096D01*
X158609890Y-92781061D01*
X158470357Y-92572235D01*
X158292765Y-92394643D01*
X158083939Y-92255110D01*
X157851904Y-92158998D01*
X157605577Y-92110000D01*
X157354423Y-92110000D01*
X157108096Y-92158998D01*
X156876061Y-92255110D01*
X156667235Y-92394643D01*
X156489643Y-92572235D01*
X156350110Y-92781061D01*
X156253998Y-93013096D01*
X156205000Y-93259423D01*
X142055000Y-93259423D01*
X142055000Y-92075000D01*
X142046353Y-91987209D01*
X142020746Y-91902792D01*
X141979161Y-91824993D01*
X141923198Y-91756802D01*
X141855007Y-91700839D01*
X141777208Y-91659254D01*
X141692791Y-91633647D01*
X141605000Y-91625000D01*
X139065000Y-91625000D01*
X138977209Y-91633647D01*
X138892792Y-91659254D01*
X138814993Y-91700839D01*
X138746802Y-91756802D01*
X138690839Y-91824993D01*
X138649254Y-91902792D01*
X138623647Y-91987209D01*
X138615000Y-92075000D01*
X135699245Y-92075000D01*
X135561274Y-92017850D01*
X135358416Y-91977500D01*
X135151584Y-91977500D01*
X134948726Y-92017850D01*
X134757638Y-92097002D01*
X134585664Y-92211911D01*
X134439411Y-92358164D01*
X134324502Y-92530138D01*
X134245350Y-92721226D01*
X134205000Y-92924084D01*
X123836987Y-92924084D01*
X123859000Y-92813416D01*
X123859000Y-92606584D01*
X123818650Y-92403726D01*
X123739498Y-92212638D01*
X123624589Y-92040664D01*
X123478336Y-91894411D01*
X123402890Y-91844000D01*
X125730000Y-91844000D01*
X125759264Y-91841118D01*
X125787403Y-91832582D01*
X125813336Y-91818720D01*
X125836066Y-91800066D01*
X125854720Y-91777336D01*
X125868582Y-91751403D01*
X125877118Y-91723264D01*
X125880000Y-91694000D01*
X125880000Y-88415584D01*
X151985000Y-88415584D01*
X151985000Y-88622416D01*
X152025350Y-88825274D01*
X152104502Y-89016362D01*
X152196468Y-89154000D01*
X152104502Y-89291638D01*
X152025350Y-89482726D01*
X151985000Y-89685584D01*
X151985000Y-89892416D01*
X152025350Y-90095274D01*
X152104502Y-90286362D01*
X152219411Y-90458336D01*
X152365664Y-90604589D01*
X152537638Y-90719498D01*
X152728726Y-90798650D01*
X152931584Y-90839000D01*
X153138416Y-90839000D01*
X153341274Y-90798650D01*
X153532362Y-90719498D01*
X153704336Y-90604589D01*
X153850589Y-90458336D01*
X153965498Y-90286362D01*
X154044650Y-90095274D01*
X154085000Y-89892416D01*
X154085000Y-89685584D01*
X154044650Y-89482726D01*
X153965498Y-89291638D01*
X153873532Y-89154000D01*
X153965498Y-89016362D01*
X154044650Y-88825274D01*
X154085000Y-88622416D01*
X154085000Y-88415584D01*
X154044650Y-88212726D01*
X153965498Y-88021638D01*
X153850589Y-87849664D01*
X153704336Y-87703411D01*
X153532362Y-87588502D01*
X153341274Y-87509350D01*
X153138416Y-87469000D01*
X152931584Y-87469000D01*
X152728726Y-87509350D01*
X152537638Y-87588502D01*
X152365664Y-87703411D01*
X152219411Y-87849664D01*
X152104502Y-88021638D01*
X152025350Y-88212726D01*
X151985000Y-88415584D01*
X125880000Y-88415584D01*
X125880000Y-86200000D01*
X161450000Y-86200000D01*
X161450001Y-117000000D01*
X92550000Y-117000000D01*
X92550000Y-113307584D01*
X151985000Y-113307584D01*
X151985000Y-113514416D01*
X152025350Y-113717274D01*
X152104502Y-113908362D01*
X152196468Y-114046000D01*
X152104502Y-114183638D01*
X152025350Y-114374726D01*
X151985000Y-114577584D01*
X151985000Y-114784416D01*
X152025350Y-114987274D01*
X152104502Y-115178362D01*
X152219411Y-115350336D01*
X152365664Y-115496589D01*
X152537638Y-115611498D01*
X152728726Y-115690650D01*
X152931584Y-115731000D01*
X153138416Y-115731000D01*
X153341274Y-115690650D01*
X153532362Y-115611498D01*
X153704336Y-115496589D01*
X153850589Y-115350336D01*
X153965498Y-115178362D01*
X154044650Y-114987274D01*
X154085000Y-114784416D01*
X154085000Y-114577584D01*
X154044650Y-114374726D01*
X153965498Y-114183638D01*
X153873532Y-114046000D01*
X153965498Y-113908362D01*
X154044650Y-113717274D01*
X154085000Y-113514416D01*
X154085000Y-113307584D01*
X154044650Y-113104726D01*
X153965498Y-112913638D01*
X153850589Y-112741664D01*
X153704336Y-112595411D01*
X153532362Y-112480502D01*
X153341274Y-112401350D01*
X153138416Y-112361000D01*
X152931584Y-112361000D01*
X152728726Y-112401350D01*
X152537638Y-112480502D01*
X152365664Y-112595411D01*
X152219411Y-112741664D01*
X152104502Y-112913638D01*
X152025350Y-113104726D01*
X151985000Y-113307584D01*
X92550000Y-113307584D01*
X92550000Y-111656584D01*
X118965000Y-111656584D01*
X118965000Y-111863416D01*
X119005350Y-112066274D01*
X119084502Y-112257362D01*
X119199411Y-112429336D01*
X119345664Y-112575589D01*
X119517638Y-112690498D01*
X119708726Y-112769650D01*
X119911584Y-112810000D01*
X120118416Y-112810000D01*
X120321274Y-112769650D01*
X120512362Y-112690498D01*
X120684336Y-112575589D01*
X120830589Y-112429336D01*
X120945498Y-112257362D01*
X121024650Y-112066274D01*
X121065000Y-111863416D01*
X121065000Y-111656584D01*
X121024650Y-111453726D01*
X120945498Y-111262638D01*
X120830589Y-111090664D01*
X120684336Y-110944411D01*
X120512362Y-110829502D01*
X120321274Y-110750350D01*
X120118416Y-110710000D01*
X119911584Y-110710000D01*
X119708726Y-110750350D01*
X119517638Y-110829502D01*
X119345664Y-110944411D01*
X119199411Y-111090664D01*
X119084502Y-111262638D01*
X119005350Y-111453726D01*
X118965000Y-111656584D01*
X92550000Y-111656584D01*
X92550000Y-108608584D01*
X92930000Y-108608584D01*
X92930000Y-108815416D01*
X92970350Y-109018274D01*
X93049502Y-109209362D01*
X93164411Y-109381336D01*
X93310664Y-109527589D01*
X93482638Y-109642498D01*
X93673726Y-109721650D01*
X93876584Y-109762000D01*
X94083416Y-109762000D01*
X94286274Y-109721650D01*
X94477362Y-109642498D01*
X94504172Y-109624584D01*
X99280000Y-109624584D01*
X99280000Y-109831416D01*
X99320350Y-110034274D01*
X99399502Y-110225362D01*
X99514411Y-110397336D01*
X99660664Y-110543589D01*
X99832638Y-110658498D01*
X100023726Y-110737650D01*
X100226584Y-110778000D01*
X100433416Y-110778000D01*
X100636274Y-110737650D01*
X100827362Y-110658498D01*
X100999336Y-110543589D01*
X101145589Y-110397336D01*
X101260498Y-110225362D01*
X101339650Y-110034274D01*
X101380000Y-109831416D01*
X101380000Y-109624584D01*
X101339650Y-109421726D01*
X101260498Y-109230638D01*
X101145589Y-109058664D01*
X100999336Y-108912411D01*
X100827362Y-108797502D01*
X100636274Y-108718350D01*
X100433416Y-108678000D01*
X100226584Y-108678000D01*
X100023726Y-108718350D01*
X99832638Y-108797502D01*
X99660664Y-108912411D01*
X99514411Y-109058664D01*
X99399502Y-109230638D01*
X99320350Y-109421726D01*
X99280000Y-109624584D01*
X94504172Y-109624584D01*
X94649336Y-109527589D01*
X94795589Y-109381336D01*
X94910498Y-109209362D01*
X94989650Y-109018274D01*
X95030000Y-108815416D01*
X95030000Y-108608584D01*
X94989650Y-108405726D01*
X94910498Y-108214638D01*
X94795589Y-108042664D01*
X94649336Y-107896411D01*
X94477362Y-107781502D01*
X94286274Y-107702350D01*
X94083416Y-107662000D01*
X93876584Y-107662000D01*
X93673726Y-107702350D01*
X93482638Y-107781502D01*
X93310664Y-107896411D01*
X93164411Y-108042664D01*
X93049502Y-108214638D01*
X92970350Y-108405726D01*
X92930000Y-108608584D01*
X92550000Y-108608584D01*
X92550000Y-107338584D01*
X95470000Y-107338584D01*
X95470000Y-107545416D01*
X95510350Y-107748274D01*
X95589502Y-107939362D01*
X95704411Y-108111336D01*
X95850664Y-108257589D01*
X96022638Y-108372498D01*
X96213726Y-108451650D01*
X96416584Y-108492000D01*
X96623416Y-108492000D01*
X96826274Y-108451650D01*
X97017362Y-108372498D01*
X97189336Y-108257589D01*
X97335589Y-108111336D01*
X97450498Y-107939362D01*
X97529650Y-107748274D01*
X97570000Y-107545416D01*
X97570000Y-107338584D01*
X97529650Y-107135726D01*
X97450498Y-106944638D01*
X97335589Y-106772664D01*
X97189336Y-106626411D01*
X97017362Y-106511502D01*
X96826274Y-106432350D01*
X96623416Y-106392000D01*
X96416584Y-106392000D01*
X96213726Y-106432350D01*
X96022638Y-106511502D01*
X95850664Y-106626411D01*
X95704411Y-106772664D01*
X95589502Y-106944638D01*
X95510350Y-107135726D01*
X95470000Y-107338584D01*
X92550000Y-107338584D01*
X92550000Y-106068584D01*
X98010000Y-106068584D01*
X98010000Y-106275416D01*
X98050350Y-106478274D01*
X98129502Y-106669362D01*
X98244411Y-106841336D01*
X98390664Y-106987589D01*
X98562638Y-107102498D01*
X98753726Y-107181650D01*
X98956584Y-107222000D01*
X99163416Y-107222000D01*
X99366274Y-107181650D01*
X99557362Y-107102498D01*
X99729336Y-106987589D01*
X99875589Y-106841336D01*
X99990498Y-106669362D01*
X100069650Y-106478274D01*
X100110000Y-106275416D01*
X100110000Y-106068584D01*
X100069650Y-105865726D01*
X99990498Y-105674638D01*
X99875589Y-105502664D01*
X99729336Y-105356411D01*
X99557362Y-105241502D01*
X99366274Y-105162350D01*
X99163416Y-105122000D01*
X98956584Y-105122000D01*
X98753726Y-105162350D01*
X98562638Y-105241502D01*
X98390664Y-105356411D01*
X98244411Y-105502664D01*
X98129502Y-105674638D01*
X98050350Y-105865726D01*
X98010000Y-106068584D01*
X92550000Y-106068584D01*
X92550000Y-103974423D01*
X95245000Y-103974423D01*
X95245000Y-104225577D01*
X95293998Y-104471904D01*
X95390110Y-104703939D01*
X95529643Y-104912765D01*
X95707235Y-105090357D01*
X95916061Y-105229890D01*
X96148096Y-105326002D01*
X96394423Y-105375000D01*
X96645577Y-105375000D01*
X96891904Y-105326002D01*
X97123939Y-105229890D01*
X97332765Y-105090357D01*
X97510357Y-104912765D01*
X97649890Y-104703939D01*
X97746002Y-104471904D01*
X97795000Y-104225577D01*
X97795000Y-103974423D01*
X97746002Y-103728096D01*
X97649890Y-103496061D01*
X97510357Y-103287235D01*
X97332765Y-103109643D01*
X97123939Y-102970110D01*
X96891904Y-102873998D01*
X96645577Y-102825000D01*
X96394423Y-102825000D01*
X96148096Y-102873998D01*
X95916061Y-102970110D01*
X95707235Y-103109643D01*
X95529643Y-103287235D01*
X95390110Y-103496061D01*
X95293998Y-103728096D01*
X95245000Y-103974423D01*
X92550000Y-103974423D01*
X92550000Y-100861584D01*
X112361000Y-100861584D01*
X112361000Y-101068416D01*
X112401350Y-101271274D01*
X112480502Y-101462362D01*
X112595411Y-101634336D01*
X112741664Y-101780589D01*
X112913638Y-101895498D01*
X112966755Y-101917500D01*
X112913638Y-101939502D01*
X112741664Y-102054411D01*
X112595411Y-102200664D01*
X112480502Y-102372638D01*
X112401350Y-102563726D01*
X112361000Y-102766584D01*
X112361000Y-102973416D01*
X112401350Y-103176274D01*
X112480502Y-103367362D01*
X112595411Y-103539336D01*
X112741664Y-103685589D01*
X112913638Y-103800498D01*
X112966755Y-103822500D01*
X112913638Y-103844502D01*
X112741664Y-103959411D01*
X112595411Y-104105664D01*
X112480502Y-104277638D01*
X112401350Y-104468726D01*
X112361000Y-104671584D01*
X112361000Y-104878416D01*
X112401350Y-105081274D01*
X112480502Y-105272362D01*
X112595411Y-105444336D01*
X112741664Y-105590589D01*
X112913638Y-105705498D01*
X113104726Y-105784650D01*
X113307584Y-105825000D01*
X113514416Y-105825000D01*
X113717274Y-105784650D01*
X113908362Y-105705498D01*
X114080336Y-105590589D01*
X114226589Y-105444336D01*
X114341498Y-105272362D01*
X114420650Y-105081274D01*
X114461000Y-104878416D01*
X114461000Y-104671584D01*
X121759000Y-104671584D01*
X121759000Y-104878416D01*
X121799350Y-105081274D01*
X121878502Y-105272362D01*
X121993411Y-105444336D01*
X122139664Y-105590589D01*
X122311638Y-105705498D01*
X122502726Y-105784650D01*
X122705584Y-105825000D01*
X122912416Y-105825000D01*
X123115274Y-105784650D01*
X123306362Y-105705498D01*
X123478336Y-105590589D01*
X123624589Y-105444336D01*
X123647531Y-105410000D01*
X138615000Y-105410000D01*
X138615000Y-111125000D01*
X138623647Y-111212791D01*
X138649254Y-111297208D01*
X138690839Y-111375007D01*
X138746802Y-111443198D01*
X138814993Y-111499161D01*
X138892792Y-111540746D01*
X138977209Y-111566353D01*
X139065000Y-111575000D01*
X141605000Y-111575000D01*
X141692791Y-111566353D01*
X141777208Y-111540746D01*
X141855007Y-111499161D01*
X141923198Y-111443198D01*
X141979161Y-111375007D01*
X142020746Y-111297208D01*
X142046353Y-111212791D01*
X142055000Y-111125000D01*
X142055000Y-109174250D01*
X142306823Y-109174250D01*
X142315511Y-109262465D01*
X142341243Y-109347291D01*
X142383029Y-109425466D01*
X142439263Y-109493987D01*
X142507784Y-109550221D01*
X142585959Y-109592007D01*
X142670785Y-109617739D01*
X142759000Y-109626427D01*
X142859000Y-109624250D01*
X142971500Y-109511750D01*
X142971500Y-108649250D01*
X143671500Y-108649250D01*
X143671500Y-109511750D01*
X143784000Y-109624250D01*
X143884000Y-109626427D01*
X143972215Y-109617739D01*
X144057041Y-109592007D01*
X144135216Y-109550221D01*
X144203737Y-109493987D01*
X144259971Y-109425466D01*
X144301757Y-109347291D01*
X144327489Y-109262465D01*
X144336177Y-109174250D01*
X144335205Y-108990000D01*
X156202823Y-108990000D01*
X156202823Y-110640000D01*
X156211511Y-110728215D01*
X156237243Y-110813041D01*
X156279029Y-110891216D01*
X156335263Y-110959737D01*
X156403784Y-111015971D01*
X156481959Y-111057757D01*
X156566785Y-111083489D01*
X156655000Y-111092177D01*
X158305000Y-111092177D01*
X158393215Y-111083489D01*
X158478041Y-111057757D01*
X158556216Y-111015971D01*
X158624737Y-110959737D01*
X158680971Y-110891216D01*
X158722757Y-110813041D01*
X158748489Y-110728215D01*
X158757177Y-110640000D01*
X158757177Y-108990000D01*
X158748489Y-108901785D01*
X158722757Y-108816959D01*
X158680971Y-108738784D01*
X158624737Y-108670263D01*
X158556216Y-108614029D01*
X158478041Y-108572243D01*
X158393215Y-108546511D01*
X158305000Y-108537823D01*
X156655000Y-108537823D01*
X156566785Y-108546511D01*
X156481959Y-108572243D01*
X156403784Y-108614029D01*
X156335263Y-108670263D01*
X156279029Y-108738784D01*
X156237243Y-108816959D01*
X156211511Y-108901785D01*
X156202823Y-108990000D01*
X144335205Y-108990000D01*
X144334000Y-108761750D01*
X144221500Y-108649250D01*
X143671500Y-108649250D01*
X142971500Y-108649250D01*
X142421500Y-108649250D01*
X142309000Y-108761750D01*
X142306823Y-109174250D01*
X142055000Y-109174250D01*
X142055000Y-107424250D01*
X142306823Y-107424250D01*
X142309000Y-107836750D01*
X142421500Y-107949250D01*
X142971500Y-107949250D01*
X142971500Y-107086750D01*
X143671500Y-107086750D01*
X143671500Y-107949250D01*
X144221500Y-107949250D01*
X144334000Y-107836750D01*
X144336177Y-107424250D01*
X144327489Y-107336035D01*
X144301757Y-107251209D01*
X144259971Y-107173034D01*
X144203737Y-107104513D01*
X144135216Y-107048279D01*
X144057041Y-107006493D01*
X143972215Y-106980761D01*
X143884000Y-106972073D01*
X143784000Y-106974250D01*
X143671500Y-107086750D01*
X142971500Y-107086750D01*
X142859000Y-106974250D01*
X142759000Y-106972073D01*
X142670785Y-106980761D01*
X142585959Y-107006493D01*
X142507784Y-107048279D01*
X142439263Y-107104513D01*
X142383029Y-107173034D01*
X142341243Y-107251209D01*
X142315511Y-107336035D01*
X142306823Y-107424250D01*
X142055000Y-107424250D01*
X142055000Y-105410000D01*
X142046353Y-105322209D01*
X142020746Y-105237792D01*
X141979161Y-105159993D01*
X141923198Y-105091802D01*
X141855007Y-105035839D01*
X141777208Y-104994254D01*
X141692791Y-104968647D01*
X141605000Y-104960000D01*
X139065000Y-104960000D01*
X138977209Y-104968647D01*
X138892792Y-104994254D01*
X138814993Y-105035839D01*
X138746802Y-105091802D01*
X138690839Y-105159993D01*
X138649254Y-105237792D01*
X138623647Y-105322209D01*
X138615000Y-105410000D01*
X123647531Y-105410000D01*
X123739498Y-105272362D01*
X123818650Y-105081274D01*
X123859000Y-104878416D01*
X123859000Y-104671584D01*
X123818650Y-104468726D01*
X123739498Y-104277638D01*
X123624589Y-104105664D01*
X123478336Y-103959411D01*
X123306362Y-103844502D01*
X123115274Y-103765350D01*
X122912416Y-103725000D01*
X122705584Y-103725000D01*
X122502726Y-103765350D01*
X122311638Y-103844502D01*
X122139664Y-103959411D01*
X121993411Y-104105664D01*
X121878502Y-104277638D01*
X121799350Y-104468726D01*
X121759000Y-104671584D01*
X114461000Y-104671584D01*
X114420650Y-104468726D01*
X114341498Y-104277638D01*
X114226589Y-104105664D01*
X114080336Y-103959411D01*
X113908362Y-103844502D01*
X113855245Y-103822500D01*
X113908362Y-103800498D01*
X114080336Y-103685589D01*
X114226589Y-103539336D01*
X114341498Y-103367362D01*
X114420650Y-103176274D01*
X114461000Y-102973416D01*
X114461000Y-102766584D01*
X151985000Y-102766584D01*
X151985000Y-102973416D01*
X152025350Y-103176274D01*
X152104502Y-103367362D01*
X152196468Y-103505000D01*
X152104502Y-103642638D01*
X152025350Y-103833726D01*
X151985000Y-104036584D01*
X151985000Y-104243416D01*
X152025350Y-104446274D01*
X152104502Y-104637362D01*
X152219411Y-104809336D01*
X152365664Y-104955589D01*
X152537638Y-105070498D01*
X152728726Y-105149650D01*
X152931584Y-105190000D01*
X153138416Y-105190000D01*
X153341274Y-105149650D01*
X153532362Y-105070498D01*
X153704336Y-104955589D01*
X153850589Y-104809336D01*
X153930712Y-104689423D01*
X156205000Y-104689423D01*
X156205000Y-104940577D01*
X156253998Y-105186904D01*
X156350110Y-105418939D01*
X156489643Y-105627765D01*
X156667235Y-105805357D01*
X156876061Y-105944890D01*
X157108096Y-106041002D01*
X157354423Y-106090000D01*
X157605577Y-106090000D01*
X157851904Y-106041002D01*
X158083939Y-105944890D01*
X158292765Y-105805357D01*
X158470357Y-105627765D01*
X158609890Y-105418939D01*
X158706002Y-105186904D01*
X158755000Y-104940577D01*
X158755000Y-104689423D01*
X158706002Y-104443096D01*
X158609890Y-104211061D01*
X158470357Y-104002235D01*
X158292765Y-103824643D01*
X158083939Y-103685110D01*
X157851904Y-103588998D01*
X157605577Y-103540000D01*
X157354423Y-103540000D01*
X157108096Y-103588998D01*
X156876061Y-103685110D01*
X156667235Y-103824643D01*
X156489643Y-104002235D01*
X156350110Y-104211061D01*
X156253998Y-104443096D01*
X156205000Y-104689423D01*
X153930712Y-104689423D01*
X153965498Y-104637362D01*
X154044650Y-104446274D01*
X154085000Y-104243416D01*
X154085000Y-104036584D01*
X154044650Y-103833726D01*
X153965498Y-103642638D01*
X153873532Y-103505000D01*
X153965498Y-103367362D01*
X154044650Y-103176274D01*
X154085000Y-102973416D01*
X154085000Y-102766584D01*
X154044650Y-102563726D01*
X153965498Y-102372638D01*
X153850589Y-102200664D01*
X153704336Y-102054411D01*
X153532362Y-101939502D01*
X153341274Y-101860350D01*
X153138416Y-101820000D01*
X152931584Y-101820000D01*
X152728726Y-101860350D01*
X152537638Y-101939502D01*
X152365664Y-102054411D01*
X152219411Y-102200664D01*
X152104502Y-102372638D01*
X152025350Y-102563726D01*
X151985000Y-102766584D01*
X114461000Y-102766584D01*
X114420650Y-102563726D01*
X114341498Y-102372638D01*
X114226589Y-102200664D01*
X114080336Y-102054411D01*
X113908362Y-101939502D01*
X113855245Y-101917500D01*
X113908362Y-101895498D01*
X114080336Y-101780589D01*
X114226589Y-101634336D01*
X114341498Y-101462362D01*
X114420650Y-101271274D01*
X114461000Y-101068416D01*
X114461000Y-100861584D01*
X114420650Y-100658726D01*
X114341498Y-100467638D01*
X114226589Y-100295664D01*
X114080336Y-100149411D01*
X113908362Y-100034502D01*
X113717274Y-99955350D01*
X113514416Y-99915000D01*
X113307584Y-99915000D01*
X113104726Y-99955350D01*
X112913638Y-100034502D01*
X112741664Y-100149411D01*
X112595411Y-100295664D01*
X112480502Y-100467638D01*
X112401350Y-100658726D01*
X112361000Y-100861584D01*
X92550000Y-100861584D01*
X92550000Y-99925000D01*
X95242823Y-99925000D01*
X95251511Y-100013215D01*
X95277243Y-100098041D01*
X95319029Y-100176216D01*
X95375263Y-100244737D01*
X95443784Y-100300971D01*
X95521959Y-100342757D01*
X95606785Y-100368489D01*
X95695000Y-100377177D01*
X96057500Y-100375000D01*
X96170000Y-100262500D01*
X96170000Y-99450000D01*
X96870000Y-99450000D01*
X96870000Y-100262500D01*
X96982500Y-100375000D01*
X97345000Y-100377177D01*
X97433215Y-100368489D01*
X97518041Y-100342757D01*
X97596216Y-100300971D01*
X97664737Y-100244737D01*
X97720971Y-100176216D01*
X97762757Y-100098041D01*
X97788489Y-100013215D01*
X97797177Y-99925000D01*
X97795000Y-99562500D01*
X97682500Y-99450000D01*
X96870000Y-99450000D01*
X96170000Y-99450000D01*
X95357500Y-99450000D01*
X95245000Y-99562500D01*
X95242823Y-99925000D01*
X92550000Y-99925000D01*
X92550000Y-98275000D01*
X95242823Y-98275000D01*
X95245000Y-98637500D01*
X95357500Y-98750000D01*
X96170000Y-98750000D01*
X96170000Y-97937500D01*
X96870000Y-97937500D01*
X96870000Y-98750000D01*
X97682500Y-98750000D01*
X97795000Y-98637500D01*
X97797177Y-98275000D01*
X97788489Y-98186785D01*
X97762757Y-98101959D01*
X97720971Y-98023784D01*
X97664737Y-97955263D01*
X97596216Y-97899029D01*
X97518041Y-97857243D01*
X97433215Y-97831511D01*
X97345000Y-97822823D01*
X96982500Y-97825000D01*
X96870000Y-97937500D01*
X96170000Y-97937500D01*
X96057500Y-97825000D01*
X95695000Y-97822823D01*
X95606785Y-97831511D01*
X95521959Y-97857243D01*
X95443784Y-97899029D01*
X95375263Y-97955263D01*
X95319029Y-98023784D01*
X95277243Y-98101959D01*
X95251511Y-98186785D01*
X95242823Y-98275000D01*
X92550000Y-98275000D01*
X92550000Y-93124000D01*
X97573323Y-93124000D01*
X97575500Y-93161500D01*
X97688000Y-93274000D01*
X98175500Y-93274000D01*
X98175500Y-92786500D01*
X98063000Y-92674000D01*
X98025500Y-92671823D01*
X97937285Y-92680511D01*
X97852459Y-92706243D01*
X97774284Y-92748029D01*
X97705763Y-92804263D01*
X97649529Y-92872784D01*
X97607743Y-92950959D01*
X97582011Y-93035785D01*
X97573323Y-93124000D01*
X92550000Y-93124000D01*
X92550000Y-89332500D01*
X99220823Y-89332500D01*
X99229511Y-89420715D01*
X99255243Y-89505541D01*
X99297029Y-89583716D01*
X99353263Y-89652237D01*
X99421784Y-89708471D01*
X99499959Y-89750257D01*
X99584785Y-89775989D01*
X99673000Y-89784677D01*
X99710500Y-89782500D01*
X99823000Y-89670000D01*
X99823000Y-88932500D01*
X99335500Y-88932500D01*
X99223000Y-89045000D01*
X99220823Y-89332500D01*
X92550000Y-89332500D01*
X92550000Y-87832500D01*
X99220823Y-87832500D01*
X99223000Y-88120000D01*
X99335500Y-88232500D01*
X99823000Y-88232500D01*
X99823000Y-87495000D01*
X99710500Y-87382500D01*
X99673000Y-87380323D01*
X99584785Y-87389011D01*
X99499959Y-87414743D01*
X99421784Y-87456529D01*
X99353263Y-87512763D01*
X99297029Y-87581284D01*
X99255243Y-87659459D01*
X99229511Y-87744285D01*
X99220823Y-87832500D01*
X92550000Y-87832500D01*
X92550000Y-86200000D01*
X101103419Y-86200000D01*
X100901481Y-86401939D01*
%TA.AperFunction,Conductor*%
D18*
G36*
X100901481Y-86401939D02*
G01*
X100869053Y-86428552D01*
X100762833Y-86557981D01*
X100739127Y-86602332D01*
X100683903Y-86705646D01*
X100635300Y-86865871D01*
X100618889Y-87032500D01*
X100623001Y-87074251D01*
X100623001Y-87394999D01*
X100523000Y-87495000D01*
X100523000Y-87810395D01*
X100520823Y-87832500D01*
X100520823Y-89332500D01*
X100523000Y-89354605D01*
X100523000Y-89670000D01*
X100635500Y-89782500D01*
X100673000Y-89784677D01*
X100761215Y-89775989D01*
X100823000Y-89757246D01*
X100884785Y-89775989D01*
X100973000Y-89784677D01*
X101398745Y-89784677D01*
X101155981Y-90027441D01*
X101123553Y-90054054D01*
X101096940Y-90086482D01*
X101096939Y-90086483D01*
X101087073Y-90098504D01*
X101017333Y-90183483D01*
X101001191Y-90213682D01*
X100938403Y-90331148D01*
X100938074Y-90332234D01*
X100891589Y-90262664D01*
X100745336Y-90116411D01*
X100573362Y-90001502D01*
X100382274Y-89922350D01*
X100179416Y-89882000D01*
X99972584Y-89882000D01*
X99769726Y-89922350D01*
X99578638Y-90001502D01*
X99406664Y-90116411D01*
X99260411Y-90262664D01*
X99145502Y-90434638D01*
X99066350Y-90625726D01*
X99026000Y-90828584D01*
X99026000Y-91035416D01*
X99066350Y-91238274D01*
X99145502Y-91429362D01*
X99260411Y-91601336D01*
X99406664Y-91747589D01*
X99475501Y-91793584D01*
X99475500Y-92812649D01*
X99414341Y-92862841D01*
X99333235Y-92961670D01*
X99272967Y-93074423D01*
X99272837Y-93074853D01*
X99268989Y-93035785D01*
X99243257Y-92950959D01*
X99201471Y-92872784D01*
X99145237Y-92804263D01*
X99076716Y-92748029D01*
X98998541Y-92706243D01*
X98913715Y-92680511D01*
X98825500Y-92671823D01*
X98788000Y-92674000D01*
X98675500Y-92786500D01*
X98675500Y-93274000D01*
X98795500Y-93274000D01*
X98795500Y-93924000D01*
X98675500Y-93924000D01*
X98675500Y-93969000D01*
X98175500Y-93969000D01*
X98175500Y-93924000D01*
X97688000Y-93924000D01*
X97575500Y-94036500D01*
X97573323Y-94074000D01*
X97582011Y-94162215D01*
X97607743Y-94247041D01*
X97649529Y-94325216D01*
X97689344Y-94373731D01*
X97609411Y-94453664D01*
X97494502Y-94625638D01*
X97472500Y-94678755D01*
X97450498Y-94625638D01*
X97335589Y-94453664D01*
X97189336Y-94307411D01*
X97017362Y-94192502D01*
X96826274Y-94113350D01*
X96623416Y-94073000D01*
X96416584Y-94073000D01*
X96213726Y-94113350D01*
X96022638Y-94192502D01*
X95850664Y-94307411D01*
X95704411Y-94453664D01*
X95589502Y-94625638D01*
X95567500Y-94678755D01*
X95545498Y-94625638D01*
X95430589Y-94453664D01*
X95284336Y-94307411D01*
X95112362Y-94192502D01*
X94921274Y-94113350D01*
X94718416Y-94073000D01*
X94511584Y-94073000D01*
X94308726Y-94113350D01*
X94117638Y-94192502D01*
X93945664Y-94307411D01*
X93799411Y-94453664D01*
X93684502Y-94625638D01*
X93605350Y-94816726D01*
X93565000Y-95019584D01*
X93565000Y-95226416D01*
X93605350Y-95429274D01*
X93684502Y-95620362D01*
X93799411Y-95792336D01*
X93945664Y-95938589D01*
X94117638Y-96053498D01*
X94308726Y-96132650D01*
X94511584Y-96173000D01*
X94718416Y-96173000D01*
X94921274Y-96132650D01*
X95112362Y-96053498D01*
X95284336Y-95938589D01*
X95430589Y-95792336D01*
X95545498Y-95620362D01*
X95567500Y-95567245D01*
X95589502Y-95620362D01*
X95704411Y-95792336D01*
X95850664Y-95938589D01*
X96022638Y-96053498D01*
X96213726Y-96132650D01*
X96416584Y-96173000D01*
X96623416Y-96173000D01*
X96826274Y-96132650D01*
X97017362Y-96053498D01*
X97189336Y-95938589D01*
X97335589Y-95792336D01*
X97450498Y-95620362D01*
X97472500Y-95567245D01*
X97494502Y-95620362D01*
X97609411Y-95792336D01*
X97755664Y-95938589D01*
X97927638Y-96053498D01*
X98118726Y-96132650D01*
X98321584Y-96173000D01*
X98528416Y-96173000D01*
X98731274Y-96132650D01*
X98922362Y-96053498D01*
X99094336Y-95938589D01*
X99240589Y-95792336D01*
X99355498Y-95620362D01*
X99434650Y-95429274D01*
X99475000Y-95226416D01*
X99475000Y-95019584D01*
X99434650Y-94816726D01*
X99355498Y-94625638D01*
X99240589Y-94453664D01*
X99161205Y-94374280D01*
X99201471Y-94325216D01*
X99243257Y-94247041D01*
X99268989Y-94162215D01*
X99272837Y-94123147D01*
X99272967Y-94123577D01*
X99333235Y-94236330D01*
X99414341Y-94335159D01*
X99513170Y-94416265D01*
X99625923Y-94476533D01*
X99748267Y-94513646D01*
X99875500Y-94526177D01*
X100276500Y-94526177D01*
X100403733Y-94513646D01*
X100526077Y-94476533D01*
X100638830Y-94416265D01*
X100737659Y-94335159D01*
X100818765Y-94236330D01*
X100879033Y-94123577D01*
X100900062Y-94054256D01*
X100917987Y-94113350D01*
X100937403Y-94177356D01*
X101016332Y-94325020D01*
X101122552Y-94454450D01*
X101154986Y-94481068D01*
X104400437Y-97726520D01*
X104427050Y-97758948D01*
X104556479Y-97865168D01*
X104704143Y-97944097D01*
X104864369Y-97992700D01*
X104989249Y-98005000D01*
X104989257Y-98005000D01*
X105030998Y-98009111D01*
X105072739Y-98005000D01*
X108670252Y-98005000D01*
X108712000Y-98009112D01*
X108753749Y-98005000D01*
X112793164Y-98005000D01*
X112913638Y-98085498D01*
X113104726Y-98164650D01*
X113307584Y-98205000D01*
X113514416Y-98205000D01*
X113717274Y-98164650D01*
X113908362Y-98085498D01*
X114080336Y-97970589D01*
X114226589Y-97824336D01*
X114341498Y-97652362D01*
X114420650Y-97461274D01*
X114461000Y-97258416D01*
X114461000Y-97051584D01*
X121759000Y-97051584D01*
X121759000Y-97258416D01*
X121799350Y-97461274D01*
X121878502Y-97652362D01*
X121993411Y-97824336D01*
X122139664Y-97970589D01*
X122311638Y-98085498D01*
X122364755Y-98107500D01*
X122311638Y-98129502D01*
X122139664Y-98244411D01*
X121993411Y-98390664D01*
X121878502Y-98562638D01*
X121799350Y-98753726D01*
X121759000Y-98956584D01*
X121759000Y-99163416D01*
X121799350Y-99366274D01*
X121878502Y-99557362D01*
X121993411Y-99729336D01*
X122139664Y-99875589D01*
X122311638Y-99990498D01*
X122364755Y-100012500D01*
X122311638Y-100034502D01*
X122139664Y-100149411D01*
X121993411Y-100295664D01*
X121878502Y-100467638D01*
X121799350Y-100658726D01*
X121759000Y-100861584D01*
X121759000Y-101068416D01*
X121799350Y-101271274D01*
X121878502Y-101462362D01*
X121993411Y-101634336D01*
X122139664Y-101780589D01*
X122311638Y-101895498D01*
X122502726Y-101974650D01*
X122705584Y-102015000D01*
X122912416Y-102015000D01*
X123115274Y-101974650D01*
X123306362Y-101895498D01*
X123478336Y-101780589D01*
X123624589Y-101634336D01*
X123739498Y-101462362D01*
X123818650Y-101271274D01*
X123859000Y-101068416D01*
X123859000Y-100861584D01*
X123818650Y-100658726D01*
X123739498Y-100467638D01*
X123624589Y-100295664D01*
X123478336Y-100149411D01*
X123306362Y-100034502D01*
X123253245Y-100012500D01*
X123306362Y-99990498D01*
X123478336Y-99875589D01*
X123624589Y-99729336D01*
X123739498Y-99557362D01*
X123818650Y-99366274D01*
X123859000Y-99163416D01*
X123859000Y-98956584D01*
X151985000Y-98956584D01*
X151985000Y-99163416D01*
X152025350Y-99366274D01*
X152104502Y-99557362D01*
X152196468Y-99695000D01*
X152104502Y-99832638D01*
X152025350Y-100023726D01*
X151985000Y-100226584D01*
X151985000Y-100433416D01*
X152025350Y-100636274D01*
X152104502Y-100827362D01*
X152219411Y-100999336D01*
X152365664Y-101145589D01*
X152537638Y-101260498D01*
X152728726Y-101339650D01*
X152931584Y-101380000D01*
X153138416Y-101380000D01*
X153341274Y-101339650D01*
X153532362Y-101260498D01*
X153704336Y-101145589D01*
X153850589Y-100999336D01*
X153965498Y-100827362D01*
X154044650Y-100636274D01*
X154085000Y-100433416D01*
X154085000Y-100226584D01*
X154044650Y-100023726D01*
X153965498Y-99832638D01*
X153873532Y-99695000D01*
X153965498Y-99557362D01*
X154044650Y-99366274D01*
X154085000Y-99163416D01*
X154085000Y-98956584D01*
X154044650Y-98753726D01*
X153965498Y-98562638D01*
X153850589Y-98390664D01*
X153704336Y-98244411D01*
X153532362Y-98129502D01*
X153341274Y-98050350D01*
X153138416Y-98010000D01*
X152931584Y-98010000D01*
X152728726Y-98050350D01*
X152537638Y-98129502D01*
X152365664Y-98244411D01*
X152219411Y-98390664D01*
X152104502Y-98562638D01*
X152025350Y-98753726D01*
X151985000Y-98956584D01*
X123859000Y-98956584D01*
X123818650Y-98753726D01*
X123739498Y-98562638D01*
X123624589Y-98390664D01*
X123478336Y-98244411D01*
X123306362Y-98129502D01*
X123253245Y-98107500D01*
X123306362Y-98085498D01*
X123478336Y-97970589D01*
X123624589Y-97824336D01*
X123739498Y-97652362D01*
X123818650Y-97461274D01*
X123859000Y-97258416D01*
X123859000Y-97051584D01*
X123818650Y-96848726D01*
X123744861Y-96670584D01*
X134205000Y-96670584D01*
X134205000Y-96877416D01*
X134245350Y-97080274D01*
X134324502Y-97271362D01*
X134439411Y-97443336D01*
X134585664Y-97589589D01*
X134757638Y-97704498D01*
X134948726Y-97783650D01*
X135151584Y-97824000D01*
X135358416Y-97824000D01*
X135561274Y-97783650D01*
X135752362Y-97704498D01*
X135924336Y-97589589D01*
X136070589Y-97443336D01*
X136185498Y-97271362D01*
X136264650Y-97080274D01*
X136305000Y-96877416D01*
X136305000Y-96670584D01*
X136264650Y-96467726D01*
X136185498Y-96276638D01*
X136070589Y-96104664D01*
X135924336Y-95958411D01*
X135752362Y-95843502D01*
X135561274Y-95764350D01*
X135358416Y-95724000D01*
X135151584Y-95724000D01*
X134948726Y-95764350D01*
X134757638Y-95843502D01*
X134585664Y-95958411D01*
X134439411Y-96104664D01*
X134324502Y-96276638D01*
X134245350Y-96467726D01*
X134205000Y-96670584D01*
X123744861Y-96670584D01*
X123739498Y-96657638D01*
X123624589Y-96485664D01*
X123478336Y-96339411D01*
X123306362Y-96224502D01*
X123115274Y-96145350D01*
X122912416Y-96105000D01*
X122705584Y-96105000D01*
X122502726Y-96145350D01*
X122311638Y-96224502D01*
X122139664Y-96339411D01*
X121993411Y-96485664D01*
X121878502Y-96657638D01*
X121799350Y-96848726D01*
X121759000Y-97051584D01*
X114461000Y-97051584D01*
X114420650Y-96848726D01*
X114341498Y-96657638D01*
X114226589Y-96485664D01*
X114080336Y-96339411D01*
X113908362Y-96224502D01*
X113717274Y-96145350D01*
X113514416Y-96105000D01*
X113307584Y-96105000D01*
X113104726Y-96145350D01*
X112913638Y-96224502D01*
X112793164Y-96305000D01*
X109562000Y-96305000D01*
X109562000Y-94074000D01*
X110781323Y-94074000D01*
X110790011Y-94162215D01*
X110815743Y-94247041D01*
X110857529Y-94325216D01*
X110913763Y-94393737D01*
X110982284Y-94449971D01*
X111060459Y-94491757D01*
X111145285Y-94517489D01*
X111233500Y-94526177D01*
X111271000Y-94524000D01*
X111383500Y-94411500D01*
X111383500Y-93924000D01*
X110896000Y-93924000D01*
X110783500Y-94036500D01*
X110781323Y-94074000D01*
X109562000Y-94074000D01*
X109562000Y-94022237D01*
X109566111Y-93980499D01*
X109562000Y-93938761D01*
X109562000Y-93938751D01*
X109549700Y-93813871D01*
X109501097Y-93653645D01*
X109422168Y-93505981D01*
X109315948Y-93376552D01*
X109283520Y-93349939D01*
X109180500Y-93246919D01*
X109180500Y-92729445D01*
X109239235Y-92839330D01*
X109320341Y-92938159D01*
X109419170Y-93019265D01*
X109531923Y-93079533D01*
X109654267Y-93116646D01*
X109781500Y-93129177D01*
X110182500Y-93129177D01*
X110309733Y-93116646D01*
X110432077Y-93079533D01*
X110544830Y-93019265D01*
X110643659Y-92938159D01*
X110724765Y-92839330D01*
X110785033Y-92726577D01*
X110785163Y-92726147D01*
X110789011Y-92765215D01*
X110814743Y-92850041D01*
X110842214Y-92901435D01*
X110815743Y-92950959D01*
X110790011Y-93035785D01*
X110781323Y-93124000D01*
X110783500Y-93161500D01*
X110896000Y-93274000D01*
X111383500Y-93274000D01*
X111383500Y-92786500D01*
X111382500Y-92785500D01*
X111382500Y-92527000D01*
X111262500Y-92527000D01*
X111262500Y-91877000D01*
X111382500Y-91877000D01*
X111382500Y-91389500D01*
X111270000Y-91277000D01*
X111232500Y-91274823D01*
X111144285Y-91283511D01*
X111093535Y-91298906D01*
X111118650Y-91238274D01*
X111159000Y-91035416D01*
X111159000Y-90828584D01*
X111118650Y-90625726D01*
X111039498Y-90434638D01*
X110924589Y-90262664D01*
X110778336Y-90116411D01*
X110606362Y-90001502D01*
X110415274Y-89922350D01*
X110212416Y-89882000D01*
X110005584Y-89882000D01*
X109802726Y-89922350D01*
X109611638Y-90001502D01*
X109439664Y-90116411D01*
X109293411Y-90262664D01*
X109178502Y-90434638D01*
X109099350Y-90625726D01*
X109059000Y-90828584D01*
X109059000Y-91035416D01*
X109099350Y-91238274D01*
X109178502Y-91429362D01*
X109255593Y-91544737D01*
X109239235Y-91564670D01*
X109178967Y-91677423D01*
X109156500Y-91751486D01*
X109134033Y-91677423D01*
X109073765Y-91564670D01*
X108992659Y-91465841D01*
X108893830Y-91384735D01*
X108833500Y-91352488D01*
X108833500Y-89784677D01*
X109783500Y-89784677D01*
X109871715Y-89775989D01*
X109933500Y-89757246D01*
X109995285Y-89775989D01*
X110083500Y-89784677D01*
X110085702Y-89784549D01*
X110087000Y-89784677D01*
X110124500Y-89782500D01*
X110237000Y-89670000D01*
X110237000Y-88932500D01*
X110235677Y-88932500D01*
X110235677Y-88232500D01*
X110237000Y-88232500D01*
X110237000Y-88212500D01*
X110933500Y-88212500D01*
X110933500Y-88232500D01*
X110934823Y-88232500D01*
X110934823Y-88932500D01*
X110933500Y-88932500D01*
X110933500Y-89670000D01*
X111046000Y-89782500D01*
X111083500Y-89784677D01*
X111084798Y-89784549D01*
X111087000Y-89784677D01*
X111175215Y-89775989D01*
X111237000Y-89757246D01*
X111298785Y-89775989D01*
X111387000Y-89784677D01*
X112387000Y-89784677D01*
X112436096Y-89779842D01*
X112401350Y-89863726D01*
X112361000Y-90066584D01*
X112361000Y-90273416D01*
X112377268Y-90355204D01*
X112057585Y-90674888D01*
X112034682Y-90693684D01*
X111959703Y-90785047D01*
X111903989Y-90889281D01*
X111888034Y-90941878D01*
X111869681Y-91002381D01*
X111858096Y-91120001D01*
X111860999Y-91149475D01*
X111861000Y-92747016D01*
X111858096Y-92776499D01*
X111869681Y-92894119D01*
X111882500Y-92936377D01*
X111882500Y-93014500D01*
X111883500Y-93015500D01*
X111883500Y-93274000D01*
X112003500Y-93274000D01*
X112003500Y-93924000D01*
X111883500Y-93924000D01*
X111883500Y-94411500D01*
X111996000Y-94524000D01*
X112033500Y-94526177D01*
X112121715Y-94517489D01*
X112206541Y-94491757D01*
X112284716Y-94449971D01*
X112353237Y-94393737D01*
X112409471Y-94325216D01*
X112451257Y-94247041D01*
X112476989Y-94162215D01*
X112480837Y-94123147D01*
X112480967Y-94123577D01*
X112541235Y-94236330D01*
X112622341Y-94335159D01*
X112721170Y-94416265D01*
X112833923Y-94476533D01*
X112956267Y-94513646D01*
X113083500Y-94526177D01*
X113484500Y-94526177D01*
X113611733Y-94513646D01*
X113734077Y-94476533D01*
X113846830Y-94416265D01*
X113945659Y-94335159D01*
X114026765Y-94236330D01*
X114087033Y-94123577D01*
X114109500Y-94049514D01*
X114131967Y-94123577D01*
X114192235Y-94236330D01*
X114273341Y-94335159D01*
X114372170Y-94416265D01*
X114484923Y-94476533D01*
X114607267Y-94513646D01*
X114734500Y-94526177D01*
X115134500Y-94526177D01*
X115261733Y-94513646D01*
X115384077Y-94476533D01*
X115496830Y-94416265D01*
X115595659Y-94335159D01*
X115676765Y-94236330D01*
X115737033Y-94123577D01*
X115774146Y-94001233D01*
X115786677Y-93874000D01*
X115786677Y-93324000D01*
X115774146Y-93196767D01*
X115737033Y-93074423D01*
X115734500Y-93069684D01*
X115734500Y-92002616D01*
X115738369Y-91963333D01*
X115734500Y-91924050D01*
X115734500Y-91924041D01*
X115726617Y-91844000D01*
X122215110Y-91844000D01*
X122139664Y-91894411D01*
X121993411Y-92040664D01*
X121878502Y-92212638D01*
X121799350Y-92403726D01*
X121759000Y-92606584D01*
X121759000Y-92813416D01*
X121799350Y-93016274D01*
X121878502Y-93207362D01*
X121993411Y-93379336D01*
X122139664Y-93525589D01*
X122311638Y-93640498D01*
X122364755Y-93662500D01*
X122311638Y-93684502D01*
X122139664Y-93799411D01*
X121993411Y-93945664D01*
X121878502Y-94117638D01*
X121799350Y-94308726D01*
X121759000Y-94511584D01*
X121759000Y-94718416D01*
X121799350Y-94921274D01*
X121878502Y-95112362D01*
X121993411Y-95284336D01*
X122139664Y-95430589D01*
X122311638Y-95545498D01*
X122502726Y-95624650D01*
X122705584Y-95665000D01*
X122912416Y-95665000D01*
X123115274Y-95624650D01*
X123306362Y-95545498D01*
X123478336Y-95430589D01*
X123624589Y-95284336D01*
X123739498Y-95112362D01*
X123818650Y-94921274D01*
X123859000Y-94718416D01*
X123859000Y-94511584D01*
X123818650Y-94308726D01*
X123739498Y-94117638D01*
X123624589Y-93945664D01*
X123478336Y-93799411D01*
X123306362Y-93684502D01*
X123253245Y-93662500D01*
X123306362Y-93640498D01*
X123478336Y-93525589D01*
X123624589Y-93379336D01*
X123739498Y-93207362D01*
X123818650Y-93016274D01*
X123836987Y-92924084D01*
X134205000Y-92924084D01*
X134205000Y-93130916D01*
X134245350Y-93333774D01*
X134324502Y-93524862D01*
X134439411Y-93696836D01*
X134585664Y-93843089D01*
X134757638Y-93957998D01*
X134948726Y-94037150D01*
X135151584Y-94077500D01*
X135358416Y-94077500D01*
X135561274Y-94037150D01*
X135752362Y-93957998D01*
X135924336Y-93843089D01*
X136070589Y-93696836D01*
X136185498Y-93524862D01*
X136264650Y-93333774D01*
X136305000Y-93130916D01*
X136305000Y-92924084D01*
X136264650Y-92721226D01*
X136185498Y-92530138D01*
X136070589Y-92358164D01*
X135924336Y-92211911D01*
X135752362Y-92097002D01*
X135699245Y-92075000D01*
X138615000Y-92075000D01*
X138615000Y-97790000D01*
X138623647Y-97877791D01*
X138649254Y-97962208D01*
X138690839Y-98040007D01*
X138746802Y-98108198D01*
X138814993Y-98164161D01*
X138892792Y-98205746D01*
X138977209Y-98231353D01*
X139065000Y-98240000D01*
X141605000Y-98240000D01*
X141692791Y-98231353D01*
X141777208Y-98205746D01*
X141855007Y-98164161D01*
X141923198Y-98108198D01*
X141979161Y-98040007D01*
X142020746Y-97962208D01*
X142046353Y-97877791D01*
X142055000Y-97790000D01*
X142055000Y-97560000D01*
X156202823Y-97560000D01*
X156202823Y-99210000D01*
X156211511Y-99298215D01*
X156237243Y-99383041D01*
X156279029Y-99461216D01*
X156335263Y-99529737D01*
X156403784Y-99585971D01*
X156481959Y-99627757D01*
X156566785Y-99653489D01*
X156655000Y-99662177D01*
X158305000Y-99662177D01*
X158393215Y-99653489D01*
X158478041Y-99627757D01*
X158556216Y-99585971D01*
X158624737Y-99529737D01*
X158680971Y-99461216D01*
X158722757Y-99383041D01*
X158748489Y-99298215D01*
X158757177Y-99210000D01*
X158757177Y-97560000D01*
X158748489Y-97471785D01*
X158722757Y-97386959D01*
X158680971Y-97308784D01*
X158624737Y-97240263D01*
X158556216Y-97184029D01*
X158478041Y-97142243D01*
X158393215Y-97116511D01*
X158305000Y-97107823D01*
X156655000Y-97107823D01*
X156566785Y-97116511D01*
X156481959Y-97142243D01*
X156403784Y-97184029D01*
X156335263Y-97240263D01*
X156279029Y-97308784D01*
X156237243Y-97386959D01*
X156211511Y-97471785D01*
X156202823Y-97560000D01*
X142055000Y-97560000D01*
X142055000Y-95775750D01*
X142306823Y-95775750D01*
X142315511Y-95863965D01*
X142341243Y-95948791D01*
X142383029Y-96026966D01*
X142439263Y-96095487D01*
X142507784Y-96151721D01*
X142585959Y-96193507D01*
X142670785Y-96219239D01*
X142759000Y-96227927D01*
X142859000Y-96225750D01*
X142971500Y-96113250D01*
X142971500Y-95250750D01*
X143671500Y-95250750D01*
X143671500Y-96113250D01*
X143784000Y-96225750D01*
X143884000Y-96227927D01*
X143972215Y-96219239D01*
X144057041Y-96193507D01*
X144135216Y-96151721D01*
X144203737Y-96095487D01*
X144259971Y-96026966D01*
X144301757Y-95948791D01*
X144327489Y-95863965D01*
X144336177Y-95775750D01*
X144334000Y-95363250D01*
X144221500Y-95250750D01*
X143671500Y-95250750D01*
X142971500Y-95250750D01*
X142421500Y-95250750D01*
X142309000Y-95363250D01*
X142306823Y-95775750D01*
X142055000Y-95775750D01*
X142055000Y-94025750D01*
X142306823Y-94025750D01*
X142309000Y-94438250D01*
X142421500Y-94550750D01*
X142971500Y-94550750D01*
X142971500Y-93688250D01*
X143671500Y-93688250D01*
X143671500Y-94550750D01*
X144221500Y-94550750D01*
X144334000Y-94438250D01*
X144336177Y-94025750D01*
X144327489Y-93937535D01*
X144301757Y-93852709D01*
X144259971Y-93774534D01*
X144203737Y-93706013D01*
X144135216Y-93649779D01*
X144057041Y-93607993D01*
X143972215Y-93582261D01*
X143884000Y-93573573D01*
X143784000Y-93575750D01*
X143671500Y-93688250D01*
X142971500Y-93688250D01*
X142859000Y-93575750D01*
X142759000Y-93573573D01*
X142670785Y-93582261D01*
X142585959Y-93607993D01*
X142507784Y-93649779D01*
X142439263Y-93706013D01*
X142383029Y-93774534D01*
X142341243Y-93852709D01*
X142315511Y-93937535D01*
X142306823Y-94025750D01*
X142055000Y-94025750D01*
X142055000Y-93259423D01*
X156205000Y-93259423D01*
X156205000Y-93510577D01*
X156253998Y-93756904D01*
X156350110Y-93988939D01*
X156489643Y-94197765D01*
X156667235Y-94375357D01*
X156876061Y-94514890D01*
X157108096Y-94611002D01*
X157354423Y-94660000D01*
X157605577Y-94660000D01*
X157851904Y-94611002D01*
X158083939Y-94514890D01*
X158292765Y-94375357D01*
X158470357Y-94197765D01*
X158609890Y-93988939D01*
X158706002Y-93756904D01*
X158755000Y-93510577D01*
X158755000Y-93259423D01*
X158706002Y-93013096D01*
X158609890Y-92781061D01*
X158470357Y-92572235D01*
X158292765Y-92394643D01*
X158083939Y-92255110D01*
X157851904Y-92158998D01*
X157605577Y-92110000D01*
X157354423Y-92110000D01*
X157108096Y-92158998D01*
X156876061Y-92255110D01*
X156667235Y-92394643D01*
X156489643Y-92572235D01*
X156350110Y-92781061D01*
X156253998Y-93013096D01*
X156205000Y-93259423D01*
X142055000Y-93259423D01*
X142055000Y-92075000D01*
X142046353Y-91987209D01*
X142020746Y-91902792D01*
X141979161Y-91824993D01*
X141923198Y-91756802D01*
X141855007Y-91700839D01*
X141777208Y-91659254D01*
X141692791Y-91633647D01*
X141605000Y-91625000D01*
X139065000Y-91625000D01*
X138977209Y-91633647D01*
X138892792Y-91659254D01*
X138814993Y-91700839D01*
X138746802Y-91756802D01*
X138690839Y-91824993D01*
X138649254Y-91902792D01*
X138623647Y-91987209D01*
X138615000Y-92075000D01*
X135699245Y-92075000D01*
X135561274Y-92017850D01*
X135358416Y-91977500D01*
X135151584Y-91977500D01*
X134948726Y-92017850D01*
X134757638Y-92097002D01*
X134585664Y-92211911D01*
X134439411Y-92358164D01*
X134324502Y-92530138D01*
X134245350Y-92721226D01*
X134205000Y-92924084D01*
X123836987Y-92924084D01*
X123859000Y-92813416D01*
X123859000Y-92606584D01*
X123818650Y-92403726D01*
X123739498Y-92212638D01*
X123624589Y-92040664D01*
X123478336Y-91894411D01*
X123402890Y-91844000D01*
X125730000Y-91844000D01*
X125759264Y-91841118D01*
X125787403Y-91832582D01*
X125813336Y-91818720D01*
X125836066Y-91800066D01*
X125854720Y-91777336D01*
X125868582Y-91751403D01*
X125877118Y-91723264D01*
X125880000Y-91694000D01*
X125880000Y-88415584D01*
X151985000Y-88415584D01*
X151985000Y-88622416D01*
X152025350Y-88825274D01*
X152104502Y-89016362D01*
X152196468Y-89154000D01*
X152104502Y-89291638D01*
X152025350Y-89482726D01*
X151985000Y-89685584D01*
X151985000Y-89892416D01*
X152025350Y-90095274D01*
X152104502Y-90286362D01*
X152219411Y-90458336D01*
X152365664Y-90604589D01*
X152537638Y-90719498D01*
X152728726Y-90798650D01*
X152931584Y-90839000D01*
X153138416Y-90839000D01*
X153341274Y-90798650D01*
X153532362Y-90719498D01*
X153704336Y-90604589D01*
X153850589Y-90458336D01*
X153965498Y-90286362D01*
X154044650Y-90095274D01*
X154085000Y-89892416D01*
X154085000Y-89685584D01*
X154044650Y-89482726D01*
X153965498Y-89291638D01*
X153873532Y-89154000D01*
X153965498Y-89016362D01*
X154044650Y-88825274D01*
X154085000Y-88622416D01*
X154085000Y-88415584D01*
X154044650Y-88212726D01*
X153965498Y-88021638D01*
X153850589Y-87849664D01*
X153704336Y-87703411D01*
X153532362Y-87588502D01*
X153341274Y-87509350D01*
X153138416Y-87469000D01*
X152931584Y-87469000D01*
X152728726Y-87509350D01*
X152537638Y-87588502D01*
X152365664Y-87703411D01*
X152219411Y-87849664D01*
X152104502Y-88021638D01*
X152025350Y-88212726D01*
X151985000Y-88415584D01*
X125880000Y-88415584D01*
X125880000Y-86200000D01*
X161450000Y-86200000D01*
X161450001Y-117000000D01*
X92550000Y-117000000D01*
X92550000Y-113307584D01*
X151985000Y-113307584D01*
X151985000Y-113514416D01*
X152025350Y-113717274D01*
X152104502Y-113908362D01*
X152196468Y-114046000D01*
X152104502Y-114183638D01*
X152025350Y-114374726D01*
X151985000Y-114577584D01*
X151985000Y-114784416D01*
X152025350Y-114987274D01*
X152104502Y-115178362D01*
X152219411Y-115350336D01*
X152365664Y-115496589D01*
X152537638Y-115611498D01*
X152728726Y-115690650D01*
X152931584Y-115731000D01*
X153138416Y-115731000D01*
X153341274Y-115690650D01*
X153532362Y-115611498D01*
X153704336Y-115496589D01*
X153850589Y-115350336D01*
X153965498Y-115178362D01*
X154044650Y-114987274D01*
X154085000Y-114784416D01*
X154085000Y-114577584D01*
X154044650Y-114374726D01*
X153965498Y-114183638D01*
X153873532Y-114046000D01*
X153965498Y-113908362D01*
X154044650Y-113717274D01*
X154085000Y-113514416D01*
X154085000Y-113307584D01*
X154044650Y-113104726D01*
X153965498Y-112913638D01*
X153850589Y-112741664D01*
X153704336Y-112595411D01*
X153532362Y-112480502D01*
X153341274Y-112401350D01*
X153138416Y-112361000D01*
X152931584Y-112361000D01*
X152728726Y-112401350D01*
X152537638Y-112480502D01*
X152365664Y-112595411D01*
X152219411Y-112741664D01*
X152104502Y-112913638D01*
X152025350Y-113104726D01*
X151985000Y-113307584D01*
X92550000Y-113307584D01*
X92550000Y-111656584D01*
X118965000Y-111656584D01*
X118965000Y-111863416D01*
X119005350Y-112066274D01*
X119084502Y-112257362D01*
X119199411Y-112429336D01*
X119345664Y-112575589D01*
X119517638Y-112690498D01*
X119708726Y-112769650D01*
X119911584Y-112810000D01*
X120118416Y-112810000D01*
X120321274Y-112769650D01*
X120512362Y-112690498D01*
X120684336Y-112575589D01*
X120830589Y-112429336D01*
X120945498Y-112257362D01*
X121024650Y-112066274D01*
X121065000Y-111863416D01*
X121065000Y-111656584D01*
X121024650Y-111453726D01*
X120945498Y-111262638D01*
X120830589Y-111090664D01*
X120684336Y-110944411D01*
X120512362Y-110829502D01*
X120321274Y-110750350D01*
X120118416Y-110710000D01*
X119911584Y-110710000D01*
X119708726Y-110750350D01*
X119517638Y-110829502D01*
X119345664Y-110944411D01*
X119199411Y-111090664D01*
X119084502Y-111262638D01*
X119005350Y-111453726D01*
X118965000Y-111656584D01*
X92550000Y-111656584D01*
X92550000Y-108608584D01*
X92930000Y-108608584D01*
X92930000Y-108815416D01*
X92970350Y-109018274D01*
X93049502Y-109209362D01*
X93164411Y-109381336D01*
X93310664Y-109527589D01*
X93482638Y-109642498D01*
X93673726Y-109721650D01*
X93876584Y-109762000D01*
X94083416Y-109762000D01*
X94286274Y-109721650D01*
X94477362Y-109642498D01*
X94504172Y-109624584D01*
X99280000Y-109624584D01*
X99280000Y-109831416D01*
X99320350Y-110034274D01*
X99399502Y-110225362D01*
X99514411Y-110397336D01*
X99660664Y-110543589D01*
X99832638Y-110658498D01*
X100023726Y-110737650D01*
X100226584Y-110778000D01*
X100433416Y-110778000D01*
X100636274Y-110737650D01*
X100827362Y-110658498D01*
X100999336Y-110543589D01*
X101145589Y-110397336D01*
X101260498Y-110225362D01*
X101339650Y-110034274D01*
X101380000Y-109831416D01*
X101380000Y-109624584D01*
X101339650Y-109421726D01*
X101260498Y-109230638D01*
X101145589Y-109058664D01*
X100999336Y-108912411D01*
X100827362Y-108797502D01*
X100636274Y-108718350D01*
X100433416Y-108678000D01*
X100226584Y-108678000D01*
X100023726Y-108718350D01*
X99832638Y-108797502D01*
X99660664Y-108912411D01*
X99514411Y-109058664D01*
X99399502Y-109230638D01*
X99320350Y-109421726D01*
X99280000Y-109624584D01*
X94504172Y-109624584D01*
X94649336Y-109527589D01*
X94795589Y-109381336D01*
X94910498Y-109209362D01*
X94989650Y-109018274D01*
X95030000Y-108815416D01*
X95030000Y-108608584D01*
X94989650Y-108405726D01*
X94910498Y-108214638D01*
X94795589Y-108042664D01*
X94649336Y-107896411D01*
X94477362Y-107781502D01*
X94286274Y-107702350D01*
X94083416Y-107662000D01*
X93876584Y-107662000D01*
X93673726Y-107702350D01*
X93482638Y-107781502D01*
X93310664Y-107896411D01*
X93164411Y-108042664D01*
X93049502Y-108214638D01*
X92970350Y-108405726D01*
X92930000Y-108608584D01*
X92550000Y-108608584D01*
X92550000Y-107338584D01*
X95470000Y-107338584D01*
X95470000Y-107545416D01*
X95510350Y-107748274D01*
X95589502Y-107939362D01*
X95704411Y-108111336D01*
X95850664Y-108257589D01*
X96022638Y-108372498D01*
X96213726Y-108451650D01*
X96416584Y-108492000D01*
X96623416Y-108492000D01*
X96826274Y-108451650D01*
X97017362Y-108372498D01*
X97189336Y-108257589D01*
X97335589Y-108111336D01*
X97450498Y-107939362D01*
X97529650Y-107748274D01*
X97570000Y-107545416D01*
X97570000Y-107338584D01*
X97529650Y-107135726D01*
X97450498Y-106944638D01*
X97335589Y-106772664D01*
X97189336Y-106626411D01*
X97017362Y-106511502D01*
X96826274Y-106432350D01*
X96623416Y-106392000D01*
X96416584Y-106392000D01*
X96213726Y-106432350D01*
X96022638Y-106511502D01*
X95850664Y-106626411D01*
X95704411Y-106772664D01*
X95589502Y-106944638D01*
X95510350Y-107135726D01*
X95470000Y-107338584D01*
X92550000Y-107338584D01*
X92550000Y-106068584D01*
X98010000Y-106068584D01*
X98010000Y-106275416D01*
X98050350Y-106478274D01*
X98129502Y-106669362D01*
X98244411Y-106841336D01*
X98390664Y-106987589D01*
X98562638Y-107102498D01*
X98753726Y-107181650D01*
X98956584Y-107222000D01*
X99163416Y-107222000D01*
X99366274Y-107181650D01*
X99557362Y-107102498D01*
X99729336Y-106987589D01*
X99875589Y-106841336D01*
X99990498Y-106669362D01*
X100069650Y-106478274D01*
X100110000Y-106275416D01*
X100110000Y-106068584D01*
X100069650Y-105865726D01*
X99990498Y-105674638D01*
X99875589Y-105502664D01*
X99729336Y-105356411D01*
X99557362Y-105241502D01*
X99366274Y-105162350D01*
X99163416Y-105122000D01*
X98956584Y-105122000D01*
X98753726Y-105162350D01*
X98562638Y-105241502D01*
X98390664Y-105356411D01*
X98244411Y-105502664D01*
X98129502Y-105674638D01*
X98050350Y-105865726D01*
X98010000Y-106068584D01*
X92550000Y-106068584D01*
X92550000Y-103974423D01*
X95245000Y-103974423D01*
X95245000Y-104225577D01*
X95293998Y-104471904D01*
X95390110Y-104703939D01*
X95529643Y-104912765D01*
X95707235Y-105090357D01*
X95916061Y-105229890D01*
X96148096Y-105326002D01*
X96394423Y-105375000D01*
X96645577Y-105375000D01*
X96891904Y-105326002D01*
X97123939Y-105229890D01*
X97332765Y-105090357D01*
X97510357Y-104912765D01*
X97649890Y-104703939D01*
X97746002Y-104471904D01*
X97795000Y-104225577D01*
X97795000Y-103974423D01*
X97746002Y-103728096D01*
X97649890Y-103496061D01*
X97510357Y-103287235D01*
X97332765Y-103109643D01*
X97123939Y-102970110D01*
X96891904Y-102873998D01*
X96645577Y-102825000D01*
X96394423Y-102825000D01*
X96148096Y-102873998D01*
X95916061Y-102970110D01*
X95707235Y-103109643D01*
X95529643Y-103287235D01*
X95390110Y-103496061D01*
X95293998Y-103728096D01*
X95245000Y-103974423D01*
X92550000Y-103974423D01*
X92550000Y-100861584D01*
X112361000Y-100861584D01*
X112361000Y-101068416D01*
X112401350Y-101271274D01*
X112480502Y-101462362D01*
X112595411Y-101634336D01*
X112741664Y-101780589D01*
X112913638Y-101895498D01*
X112966755Y-101917500D01*
X112913638Y-101939502D01*
X112741664Y-102054411D01*
X112595411Y-102200664D01*
X112480502Y-102372638D01*
X112401350Y-102563726D01*
X112361000Y-102766584D01*
X112361000Y-102973416D01*
X112401350Y-103176274D01*
X112480502Y-103367362D01*
X112595411Y-103539336D01*
X112741664Y-103685589D01*
X112913638Y-103800498D01*
X112966755Y-103822500D01*
X112913638Y-103844502D01*
X112741664Y-103959411D01*
X112595411Y-104105664D01*
X112480502Y-104277638D01*
X112401350Y-104468726D01*
X112361000Y-104671584D01*
X112361000Y-104878416D01*
X112401350Y-105081274D01*
X112480502Y-105272362D01*
X112595411Y-105444336D01*
X112741664Y-105590589D01*
X112913638Y-105705498D01*
X113104726Y-105784650D01*
X113307584Y-105825000D01*
X113514416Y-105825000D01*
X113717274Y-105784650D01*
X113908362Y-105705498D01*
X114080336Y-105590589D01*
X114226589Y-105444336D01*
X114341498Y-105272362D01*
X114420650Y-105081274D01*
X114461000Y-104878416D01*
X114461000Y-104671584D01*
X121759000Y-104671584D01*
X121759000Y-104878416D01*
X121799350Y-105081274D01*
X121878502Y-105272362D01*
X121993411Y-105444336D01*
X122139664Y-105590589D01*
X122311638Y-105705498D01*
X122502726Y-105784650D01*
X122705584Y-105825000D01*
X122912416Y-105825000D01*
X123115274Y-105784650D01*
X123306362Y-105705498D01*
X123478336Y-105590589D01*
X123624589Y-105444336D01*
X123647531Y-105410000D01*
X138615000Y-105410000D01*
X138615000Y-111125000D01*
X138623647Y-111212791D01*
X138649254Y-111297208D01*
X138690839Y-111375007D01*
X138746802Y-111443198D01*
X138814993Y-111499161D01*
X138892792Y-111540746D01*
X138977209Y-111566353D01*
X139065000Y-111575000D01*
X141605000Y-111575000D01*
X141692791Y-111566353D01*
X141777208Y-111540746D01*
X141855007Y-111499161D01*
X141923198Y-111443198D01*
X141979161Y-111375007D01*
X142020746Y-111297208D01*
X142046353Y-111212791D01*
X142055000Y-111125000D01*
X142055000Y-109174250D01*
X142306823Y-109174250D01*
X142315511Y-109262465D01*
X142341243Y-109347291D01*
X142383029Y-109425466D01*
X142439263Y-109493987D01*
X142507784Y-109550221D01*
X142585959Y-109592007D01*
X142670785Y-109617739D01*
X142759000Y-109626427D01*
X142859000Y-109624250D01*
X142971500Y-109511750D01*
X142971500Y-108649250D01*
X143671500Y-108649250D01*
X143671500Y-109511750D01*
X143784000Y-109624250D01*
X143884000Y-109626427D01*
X143972215Y-109617739D01*
X144057041Y-109592007D01*
X144135216Y-109550221D01*
X144203737Y-109493987D01*
X144259971Y-109425466D01*
X144301757Y-109347291D01*
X144327489Y-109262465D01*
X144336177Y-109174250D01*
X144335205Y-108990000D01*
X156202823Y-108990000D01*
X156202823Y-110640000D01*
X156211511Y-110728215D01*
X156237243Y-110813041D01*
X156279029Y-110891216D01*
X156335263Y-110959737D01*
X156403784Y-111015971D01*
X156481959Y-111057757D01*
X156566785Y-111083489D01*
X156655000Y-111092177D01*
X158305000Y-111092177D01*
X158393215Y-111083489D01*
X158478041Y-111057757D01*
X158556216Y-111015971D01*
X158624737Y-110959737D01*
X158680971Y-110891216D01*
X158722757Y-110813041D01*
X158748489Y-110728215D01*
X158757177Y-110640000D01*
X158757177Y-108990000D01*
X158748489Y-108901785D01*
X158722757Y-108816959D01*
X158680971Y-108738784D01*
X158624737Y-108670263D01*
X158556216Y-108614029D01*
X158478041Y-108572243D01*
X158393215Y-108546511D01*
X158305000Y-108537823D01*
X156655000Y-108537823D01*
X156566785Y-108546511D01*
X156481959Y-108572243D01*
X156403784Y-108614029D01*
X156335263Y-108670263D01*
X156279029Y-108738784D01*
X156237243Y-108816959D01*
X156211511Y-108901785D01*
X156202823Y-108990000D01*
X144335205Y-108990000D01*
X144334000Y-108761750D01*
X144221500Y-108649250D01*
X143671500Y-108649250D01*
X142971500Y-108649250D01*
X142421500Y-108649250D01*
X142309000Y-108761750D01*
X142306823Y-109174250D01*
X142055000Y-109174250D01*
X142055000Y-107424250D01*
X142306823Y-107424250D01*
X142309000Y-107836750D01*
X142421500Y-107949250D01*
X142971500Y-107949250D01*
X142971500Y-107086750D01*
X143671500Y-107086750D01*
X143671500Y-107949250D01*
X144221500Y-107949250D01*
X144334000Y-107836750D01*
X144336177Y-107424250D01*
X144327489Y-107336035D01*
X144301757Y-107251209D01*
X144259971Y-107173034D01*
X144203737Y-107104513D01*
X144135216Y-107048279D01*
X144057041Y-107006493D01*
X143972215Y-106980761D01*
X143884000Y-106972073D01*
X143784000Y-106974250D01*
X143671500Y-107086750D01*
X142971500Y-107086750D01*
X142859000Y-106974250D01*
X142759000Y-106972073D01*
X142670785Y-106980761D01*
X142585959Y-107006493D01*
X142507784Y-107048279D01*
X142439263Y-107104513D01*
X142383029Y-107173034D01*
X142341243Y-107251209D01*
X142315511Y-107336035D01*
X142306823Y-107424250D01*
X142055000Y-107424250D01*
X142055000Y-105410000D01*
X142046353Y-105322209D01*
X142020746Y-105237792D01*
X141979161Y-105159993D01*
X141923198Y-105091802D01*
X141855007Y-105035839D01*
X141777208Y-104994254D01*
X141692791Y-104968647D01*
X141605000Y-104960000D01*
X139065000Y-104960000D01*
X138977209Y-104968647D01*
X138892792Y-104994254D01*
X138814993Y-105035839D01*
X138746802Y-105091802D01*
X138690839Y-105159993D01*
X138649254Y-105237792D01*
X138623647Y-105322209D01*
X138615000Y-105410000D01*
X123647531Y-105410000D01*
X123739498Y-105272362D01*
X123818650Y-105081274D01*
X123859000Y-104878416D01*
X123859000Y-104671584D01*
X123818650Y-104468726D01*
X123739498Y-104277638D01*
X123624589Y-104105664D01*
X123478336Y-103959411D01*
X123306362Y-103844502D01*
X123115274Y-103765350D01*
X122912416Y-103725000D01*
X122705584Y-103725000D01*
X122502726Y-103765350D01*
X122311638Y-103844502D01*
X122139664Y-103959411D01*
X121993411Y-104105664D01*
X121878502Y-104277638D01*
X121799350Y-104468726D01*
X121759000Y-104671584D01*
X114461000Y-104671584D01*
X114420650Y-104468726D01*
X114341498Y-104277638D01*
X114226589Y-104105664D01*
X114080336Y-103959411D01*
X113908362Y-103844502D01*
X113855245Y-103822500D01*
X113908362Y-103800498D01*
X114080336Y-103685589D01*
X114226589Y-103539336D01*
X114341498Y-103367362D01*
X114420650Y-103176274D01*
X114461000Y-102973416D01*
X114461000Y-102766584D01*
X151985000Y-102766584D01*
X151985000Y-102973416D01*
X152025350Y-103176274D01*
X152104502Y-103367362D01*
X152196468Y-103505000D01*
X152104502Y-103642638D01*
X152025350Y-103833726D01*
X151985000Y-104036584D01*
X151985000Y-104243416D01*
X152025350Y-104446274D01*
X152104502Y-104637362D01*
X152219411Y-104809336D01*
X152365664Y-104955589D01*
X152537638Y-105070498D01*
X152728726Y-105149650D01*
X152931584Y-105190000D01*
X153138416Y-105190000D01*
X153341274Y-105149650D01*
X153532362Y-105070498D01*
X153704336Y-104955589D01*
X153850589Y-104809336D01*
X153930712Y-104689423D01*
X156205000Y-104689423D01*
X156205000Y-104940577D01*
X156253998Y-105186904D01*
X156350110Y-105418939D01*
X156489643Y-105627765D01*
X156667235Y-105805357D01*
X156876061Y-105944890D01*
X157108096Y-106041002D01*
X157354423Y-106090000D01*
X157605577Y-106090000D01*
X157851904Y-106041002D01*
X158083939Y-105944890D01*
X158292765Y-105805357D01*
X158470357Y-105627765D01*
X158609890Y-105418939D01*
X158706002Y-105186904D01*
X158755000Y-104940577D01*
X158755000Y-104689423D01*
X158706002Y-104443096D01*
X158609890Y-104211061D01*
X158470357Y-104002235D01*
X158292765Y-103824643D01*
X158083939Y-103685110D01*
X157851904Y-103588998D01*
X157605577Y-103540000D01*
X157354423Y-103540000D01*
X157108096Y-103588998D01*
X156876061Y-103685110D01*
X156667235Y-103824643D01*
X156489643Y-104002235D01*
X156350110Y-104211061D01*
X156253998Y-104443096D01*
X156205000Y-104689423D01*
X153930712Y-104689423D01*
X153965498Y-104637362D01*
X154044650Y-104446274D01*
X154085000Y-104243416D01*
X154085000Y-104036584D01*
X154044650Y-103833726D01*
X153965498Y-103642638D01*
X153873532Y-103505000D01*
X153965498Y-103367362D01*
X154044650Y-103176274D01*
X154085000Y-102973416D01*
X154085000Y-102766584D01*
X154044650Y-102563726D01*
X153965498Y-102372638D01*
X153850589Y-102200664D01*
X153704336Y-102054411D01*
X153532362Y-101939502D01*
X153341274Y-101860350D01*
X153138416Y-101820000D01*
X152931584Y-101820000D01*
X152728726Y-101860350D01*
X152537638Y-101939502D01*
X152365664Y-102054411D01*
X152219411Y-102200664D01*
X152104502Y-102372638D01*
X152025350Y-102563726D01*
X151985000Y-102766584D01*
X114461000Y-102766584D01*
X114420650Y-102563726D01*
X114341498Y-102372638D01*
X114226589Y-102200664D01*
X114080336Y-102054411D01*
X113908362Y-101939502D01*
X113855245Y-101917500D01*
X113908362Y-101895498D01*
X114080336Y-101780589D01*
X114226589Y-101634336D01*
X114341498Y-101462362D01*
X114420650Y-101271274D01*
X114461000Y-101068416D01*
X114461000Y-100861584D01*
X114420650Y-100658726D01*
X114341498Y-100467638D01*
X114226589Y-100295664D01*
X114080336Y-100149411D01*
X113908362Y-100034502D01*
X113717274Y-99955350D01*
X113514416Y-99915000D01*
X113307584Y-99915000D01*
X113104726Y-99955350D01*
X112913638Y-100034502D01*
X112741664Y-100149411D01*
X112595411Y-100295664D01*
X112480502Y-100467638D01*
X112401350Y-100658726D01*
X112361000Y-100861584D01*
X92550000Y-100861584D01*
X92550000Y-99925000D01*
X95242823Y-99925000D01*
X95251511Y-100013215D01*
X95277243Y-100098041D01*
X95319029Y-100176216D01*
X95375263Y-100244737D01*
X95443784Y-100300971D01*
X95521959Y-100342757D01*
X95606785Y-100368489D01*
X95695000Y-100377177D01*
X96057500Y-100375000D01*
X96170000Y-100262500D01*
X96170000Y-99450000D01*
X96870000Y-99450000D01*
X96870000Y-100262500D01*
X96982500Y-100375000D01*
X97345000Y-100377177D01*
X97433215Y-100368489D01*
X97518041Y-100342757D01*
X97596216Y-100300971D01*
X97664737Y-100244737D01*
X97720971Y-100176216D01*
X97762757Y-100098041D01*
X97788489Y-100013215D01*
X97797177Y-99925000D01*
X97795000Y-99562500D01*
X97682500Y-99450000D01*
X96870000Y-99450000D01*
X96170000Y-99450000D01*
X95357500Y-99450000D01*
X95245000Y-99562500D01*
X95242823Y-99925000D01*
X92550000Y-99925000D01*
X92550000Y-98275000D01*
X95242823Y-98275000D01*
X95245000Y-98637500D01*
X95357500Y-98750000D01*
X96170000Y-98750000D01*
X96170000Y-97937500D01*
X96870000Y-97937500D01*
X96870000Y-98750000D01*
X97682500Y-98750000D01*
X97795000Y-98637500D01*
X97797177Y-98275000D01*
X97788489Y-98186785D01*
X97762757Y-98101959D01*
X97720971Y-98023784D01*
X97664737Y-97955263D01*
X97596216Y-97899029D01*
X97518041Y-97857243D01*
X97433215Y-97831511D01*
X97345000Y-97822823D01*
X96982500Y-97825000D01*
X96870000Y-97937500D01*
X96170000Y-97937500D01*
X96057500Y-97825000D01*
X95695000Y-97822823D01*
X95606785Y-97831511D01*
X95521959Y-97857243D01*
X95443784Y-97899029D01*
X95375263Y-97955263D01*
X95319029Y-98023784D01*
X95277243Y-98101959D01*
X95251511Y-98186785D01*
X95242823Y-98275000D01*
X92550000Y-98275000D01*
X92550000Y-93124000D01*
X97573323Y-93124000D01*
X97575500Y-93161500D01*
X97688000Y-93274000D01*
X98175500Y-93274000D01*
X98175500Y-92786500D01*
X98063000Y-92674000D01*
X98025500Y-92671823D01*
X97937285Y-92680511D01*
X97852459Y-92706243D01*
X97774284Y-92748029D01*
X97705763Y-92804263D01*
X97649529Y-92872784D01*
X97607743Y-92950959D01*
X97582011Y-93035785D01*
X97573323Y-93124000D01*
X92550000Y-93124000D01*
X92550000Y-89332500D01*
X99220823Y-89332500D01*
X99229511Y-89420715D01*
X99255243Y-89505541D01*
X99297029Y-89583716D01*
X99353263Y-89652237D01*
X99421784Y-89708471D01*
X99499959Y-89750257D01*
X99584785Y-89775989D01*
X99673000Y-89784677D01*
X99710500Y-89782500D01*
X99823000Y-89670000D01*
X99823000Y-88932500D01*
X99335500Y-88932500D01*
X99223000Y-89045000D01*
X99220823Y-89332500D01*
X92550000Y-89332500D01*
X92550000Y-87832500D01*
X99220823Y-87832500D01*
X99223000Y-88120000D01*
X99335500Y-88232500D01*
X99823000Y-88232500D01*
X99823000Y-87495000D01*
X99710500Y-87382500D01*
X99673000Y-87380323D01*
X99584785Y-87389011D01*
X99499959Y-87414743D01*
X99421784Y-87456529D01*
X99353263Y-87512763D01*
X99297029Y-87581284D01*
X99255243Y-87659459D01*
X99229511Y-87744285D01*
X99220823Y-87832500D01*
X92550000Y-87832500D01*
X92550000Y-86200000D01*
X101103419Y-86200000D01*
X100901481Y-86401939D01*
G37*
%TD.AperFunction*%
D17*
X105726500Y-88232500D02*
X105727823Y-88232500D01*
X105727823Y-88932500D01*
X105726500Y-88932500D01*
X105726500Y-89670000D01*
X105839000Y-89782500D01*
X105876500Y-89784677D01*
X105877798Y-89784549D01*
X105880000Y-89784677D01*
X105968215Y-89775989D01*
X106030000Y-89757246D01*
X106091785Y-89775989D01*
X106180000Y-89784677D01*
X107133500Y-89784677D01*
X107133501Y-91812249D01*
X107129389Y-91854000D01*
X107145800Y-92020629D01*
X107194403Y-92180854D01*
X107215055Y-92219490D01*
X107273333Y-92328519D01*
X107379553Y-92457948D01*
X107411981Y-92484561D01*
X107480501Y-92553081D01*
X107480500Y-93069685D01*
X107422765Y-92961670D01*
X107341659Y-92862841D01*
X107242830Y-92781735D01*
X107130077Y-92721467D01*
X107007733Y-92684354D01*
X106880500Y-92671823D01*
X106479500Y-92671823D01*
X106352267Y-92684354D01*
X106229923Y-92721467D01*
X106117170Y-92781735D01*
X106018341Y-92862841D01*
X105937235Y-92961670D01*
X105876967Y-93074423D01*
X105876837Y-93074853D01*
X105872989Y-93035785D01*
X105847257Y-92950959D01*
X105819786Y-92899565D01*
X105846257Y-92850041D01*
X105871989Y-92765215D01*
X105880677Y-92677000D01*
X105878500Y-92639500D01*
X105766000Y-92527000D01*
X105278500Y-92527000D01*
X105278500Y-93014500D01*
X105279500Y-93015500D01*
X105279500Y-93274000D01*
X105399500Y-93274000D01*
X105399500Y-93924000D01*
X105279500Y-93924000D01*
X105279500Y-94411500D01*
X105392000Y-94524000D01*
X105429500Y-94526177D01*
X105517715Y-94517489D01*
X105602541Y-94491757D01*
X105680716Y-94449971D01*
X105749237Y-94393737D01*
X105805471Y-94325216D01*
X105847257Y-94247041D01*
X105872989Y-94162215D01*
X105876837Y-94123147D01*
X105876967Y-94123577D01*
X105937235Y-94236330D01*
X106018341Y-94335159D01*
X106079500Y-94385350D01*
X106079500Y-94458026D01*
X106076597Y-94487500D01*
X106088182Y-94605120D01*
X106104830Y-94660000D01*
X106122491Y-94718221D01*
X106178205Y-94822455D01*
X106253184Y-94913817D01*
X106276081Y-94932608D01*
X106281268Y-94937795D01*
X106265000Y-95019584D01*
X106265000Y-95226416D01*
X106305350Y-95429274D01*
X106384502Y-95620362D01*
X106499411Y-95792336D01*
X106645664Y-95938589D01*
X106817638Y-96053498D01*
X107008726Y-96132650D01*
X107211584Y-96173000D01*
X107418416Y-96173000D01*
X107621274Y-96132650D01*
X107812362Y-96053498D01*
X107862001Y-96020331D01*
X107862001Y-96305000D01*
X105383079Y-96305000D01*
X103152079Y-94074000D01*
X104177323Y-94074000D01*
X104186011Y-94162215D01*
X104211743Y-94247041D01*
X104253529Y-94325216D01*
X104309763Y-94393737D01*
X104378284Y-94449971D01*
X104456459Y-94491757D01*
X104541285Y-94517489D01*
X104629500Y-94526177D01*
X104667000Y-94524000D01*
X104779500Y-94411500D01*
X104779500Y-93924000D01*
X104292000Y-93924000D01*
X104179500Y-94036500D01*
X104177323Y-94074000D01*
X103152079Y-94074000D01*
X102578677Y-93500599D01*
X102578677Y-93324000D01*
X102576500Y-93301896D01*
X102576500Y-92729445D01*
X102635235Y-92839330D01*
X102716341Y-92938159D01*
X102815170Y-93019265D01*
X102927923Y-93079533D01*
X103050267Y-93116646D01*
X103177500Y-93129177D01*
X103578500Y-93129177D01*
X103705733Y-93116646D01*
X103828077Y-93079533D01*
X103940830Y-93019265D01*
X104039659Y-92938159D01*
X104120765Y-92839330D01*
X104181033Y-92726577D01*
X104181163Y-92726147D01*
X104185011Y-92765215D01*
X104210743Y-92850041D01*
X104238214Y-92901435D01*
X104211743Y-92950959D01*
X104186011Y-93035785D01*
X104177323Y-93124000D01*
X104179500Y-93161500D01*
X104292000Y-93274000D01*
X104779500Y-93274000D01*
X104779500Y-92786500D01*
X104778500Y-92785500D01*
X104778500Y-92527000D01*
X104658500Y-92527000D01*
X104658500Y-91877000D01*
X104778500Y-91877000D01*
X104778500Y-91389500D01*
X105278500Y-91389500D01*
X105278500Y-91877000D01*
X105766000Y-91877000D01*
X105878500Y-91764500D01*
X105880677Y-91727000D01*
X105871989Y-91638785D01*
X105846257Y-91553959D01*
X105804471Y-91475784D01*
X105748237Y-91407263D01*
X105679716Y-91351029D01*
X105601541Y-91309243D01*
X105516715Y-91283511D01*
X105428500Y-91274823D01*
X105391000Y-91277000D01*
X105278500Y-91389500D01*
X104778500Y-91389500D01*
X104666000Y-91277000D01*
X104628500Y-91274823D01*
X104540285Y-91283511D01*
X104455459Y-91309243D01*
X104377284Y-91351029D01*
X104308763Y-91407263D01*
X104252529Y-91475784D01*
X104210743Y-91553959D01*
X104185011Y-91638785D01*
X104181163Y-91677853D01*
X104181033Y-91677423D01*
X104120765Y-91564670D01*
X104104407Y-91544737D01*
X104181498Y-91429362D01*
X104260650Y-91238274D01*
X104301000Y-91035416D01*
X104301000Y-90828584D01*
X104260650Y-90625726D01*
X104181498Y-90434638D01*
X104066589Y-90262664D01*
X103920336Y-90116411D01*
X103748362Y-90001502D01*
X103566142Y-89926023D01*
X103609018Y-89784677D01*
X104576500Y-89784677D01*
X104664715Y-89775989D01*
X104726500Y-89757246D01*
X104788285Y-89775989D01*
X104876500Y-89784677D01*
X104878702Y-89784549D01*
X104880000Y-89784677D01*
X104917500Y-89782500D01*
X105030000Y-89670000D01*
X105030000Y-88932500D01*
X105028677Y-88932500D01*
X105028677Y-88232500D01*
X105030000Y-88232500D01*
X105030000Y-88212500D01*
X105726500Y-88212500D01*
X105726500Y-88232500D01*
%TA.AperFunction,Conductor*%
D18*
G36*
X105726500Y-88232500D02*
G01*
X105727823Y-88232500D01*
X105727823Y-88932500D01*
X105726500Y-88932500D01*
X105726500Y-89670000D01*
X105839000Y-89782500D01*
X105876500Y-89784677D01*
X105877798Y-89784549D01*
X105880000Y-89784677D01*
X105968215Y-89775989D01*
X106030000Y-89757246D01*
X106091785Y-89775989D01*
X106180000Y-89784677D01*
X107133500Y-89784677D01*
X107133501Y-91812249D01*
X107129389Y-91854000D01*
X107145800Y-92020629D01*
X107194403Y-92180854D01*
X107215055Y-92219490D01*
X107273333Y-92328519D01*
X107379553Y-92457948D01*
X107411981Y-92484561D01*
X107480501Y-92553081D01*
X107480500Y-93069685D01*
X107422765Y-92961670D01*
X107341659Y-92862841D01*
X107242830Y-92781735D01*
X107130077Y-92721467D01*
X107007733Y-92684354D01*
X106880500Y-92671823D01*
X106479500Y-92671823D01*
X106352267Y-92684354D01*
X106229923Y-92721467D01*
X106117170Y-92781735D01*
X106018341Y-92862841D01*
X105937235Y-92961670D01*
X105876967Y-93074423D01*
X105876837Y-93074853D01*
X105872989Y-93035785D01*
X105847257Y-92950959D01*
X105819786Y-92899565D01*
X105846257Y-92850041D01*
X105871989Y-92765215D01*
X105880677Y-92677000D01*
X105878500Y-92639500D01*
X105766000Y-92527000D01*
X105278500Y-92527000D01*
X105278500Y-93014500D01*
X105279500Y-93015500D01*
X105279500Y-93274000D01*
X105399500Y-93274000D01*
X105399500Y-93924000D01*
X105279500Y-93924000D01*
X105279500Y-94411500D01*
X105392000Y-94524000D01*
X105429500Y-94526177D01*
X105517715Y-94517489D01*
X105602541Y-94491757D01*
X105680716Y-94449971D01*
X105749237Y-94393737D01*
X105805471Y-94325216D01*
X105847257Y-94247041D01*
X105872989Y-94162215D01*
X105876837Y-94123147D01*
X105876967Y-94123577D01*
X105937235Y-94236330D01*
X106018341Y-94335159D01*
X106079500Y-94385350D01*
X106079500Y-94458026D01*
X106076597Y-94487500D01*
X106088182Y-94605120D01*
X106104830Y-94660000D01*
X106122491Y-94718221D01*
X106178205Y-94822455D01*
X106253184Y-94913817D01*
X106276081Y-94932608D01*
X106281268Y-94937795D01*
X106265000Y-95019584D01*
X106265000Y-95226416D01*
X106305350Y-95429274D01*
X106384502Y-95620362D01*
X106499411Y-95792336D01*
X106645664Y-95938589D01*
X106817638Y-96053498D01*
X107008726Y-96132650D01*
X107211584Y-96173000D01*
X107418416Y-96173000D01*
X107621274Y-96132650D01*
X107812362Y-96053498D01*
X107862001Y-96020331D01*
X107862001Y-96305000D01*
X105383079Y-96305000D01*
X103152079Y-94074000D01*
X104177323Y-94074000D01*
X104186011Y-94162215D01*
X104211743Y-94247041D01*
X104253529Y-94325216D01*
X104309763Y-94393737D01*
X104378284Y-94449971D01*
X104456459Y-94491757D01*
X104541285Y-94517489D01*
X104629500Y-94526177D01*
X104667000Y-94524000D01*
X104779500Y-94411500D01*
X104779500Y-93924000D01*
X104292000Y-93924000D01*
X104179500Y-94036500D01*
X104177323Y-94074000D01*
X103152079Y-94074000D01*
X102578677Y-93500599D01*
X102578677Y-93324000D01*
X102576500Y-93301896D01*
X102576500Y-92729445D01*
X102635235Y-92839330D01*
X102716341Y-92938159D01*
X102815170Y-93019265D01*
X102927923Y-93079533D01*
X103050267Y-93116646D01*
X103177500Y-93129177D01*
X103578500Y-93129177D01*
X103705733Y-93116646D01*
X103828077Y-93079533D01*
X103940830Y-93019265D01*
X104039659Y-92938159D01*
X104120765Y-92839330D01*
X104181033Y-92726577D01*
X104181163Y-92726147D01*
X104185011Y-92765215D01*
X104210743Y-92850041D01*
X104238214Y-92901435D01*
X104211743Y-92950959D01*
X104186011Y-93035785D01*
X104177323Y-93124000D01*
X104179500Y-93161500D01*
X104292000Y-93274000D01*
X104779500Y-93274000D01*
X104779500Y-92786500D01*
X104778500Y-92785500D01*
X104778500Y-92527000D01*
X104658500Y-92527000D01*
X104658500Y-91877000D01*
X104778500Y-91877000D01*
X104778500Y-91389500D01*
X105278500Y-91389500D01*
X105278500Y-91877000D01*
X105766000Y-91877000D01*
X105878500Y-91764500D01*
X105880677Y-91727000D01*
X105871989Y-91638785D01*
X105846257Y-91553959D01*
X105804471Y-91475784D01*
X105748237Y-91407263D01*
X105679716Y-91351029D01*
X105601541Y-91309243D01*
X105516715Y-91283511D01*
X105428500Y-91274823D01*
X105391000Y-91277000D01*
X105278500Y-91389500D01*
X104778500Y-91389500D01*
X104666000Y-91277000D01*
X104628500Y-91274823D01*
X104540285Y-91283511D01*
X104455459Y-91309243D01*
X104377284Y-91351029D01*
X104308763Y-91407263D01*
X104252529Y-91475784D01*
X104210743Y-91553959D01*
X104185011Y-91638785D01*
X104181163Y-91677853D01*
X104181033Y-91677423D01*
X104120765Y-91564670D01*
X104104407Y-91544737D01*
X104181498Y-91429362D01*
X104260650Y-91238274D01*
X104301000Y-91035416D01*
X104301000Y-90828584D01*
X104260650Y-90625726D01*
X104181498Y-90434638D01*
X104066589Y-90262664D01*
X103920336Y-90116411D01*
X103748362Y-90001502D01*
X103566142Y-89926023D01*
X103609018Y-89784677D01*
X104576500Y-89784677D01*
X104664715Y-89775989D01*
X104726500Y-89757246D01*
X104788285Y-89775989D01*
X104876500Y-89784677D01*
X104878702Y-89784549D01*
X104880000Y-89784677D01*
X104917500Y-89782500D01*
X105030000Y-89670000D01*
X105030000Y-88932500D01*
X105028677Y-88932500D01*
X105028677Y-88232500D01*
X105030000Y-88232500D01*
X105030000Y-88212500D01*
X105726500Y-88212500D01*
X105726500Y-88232500D01*
G37*
%TD.AperFunction*%
%TD*%
D17*
%TO.N,/SENB*%
X141455000Y-110975000D02*
X139215000Y-110975000D01*
X139215000Y-109174250D01*
X139381823Y-109174250D01*
X139390511Y-109262465D01*
X139416243Y-109347291D01*
X139458029Y-109425466D01*
X139514263Y-109493987D01*
X139582784Y-109550221D01*
X139660959Y-109592007D01*
X139745785Y-109617739D01*
X139834000Y-109626427D01*
X139934000Y-109624250D01*
X140046500Y-109511750D01*
X140046500Y-108649250D01*
X140746500Y-108649250D01*
X140746500Y-109511750D01*
X140859000Y-109624250D01*
X140959000Y-109626427D01*
X141047215Y-109617739D01*
X141132041Y-109592007D01*
X141210216Y-109550221D01*
X141278737Y-109493987D01*
X141334971Y-109425466D01*
X141376757Y-109347291D01*
X141402489Y-109262465D01*
X141411177Y-109174250D01*
X141409000Y-108761750D01*
X141296500Y-108649250D01*
X140746500Y-108649250D01*
X140046500Y-108649250D01*
X139496500Y-108649250D01*
X139384000Y-108761750D01*
X139381823Y-109174250D01*
X139215000Y-109174250D01*
X139215000Y-107424250D01*
X139381823Y-107424250D01*
X139384000Y-107836750D01*
X139496500Y-107949250D01*
X140046500Y-107949250D01*
X140046500Y-107086750D01*
X140746500Y-107086750D01*
X140746500Y-107949250D01*
X141296500Y-107949250D01*
X141409000Y-107836750D01*
X141411177Y-107424250D01*
X141402489Y-107336035D01*
X141376757Y-107251209D01*
X141334971Y-107173034D01*
X141278737Y-107104513D01*
X141210216Y-107048279D01*
X141132041Y-107006493D01*
X141047215Y-106980761D01*
X140959000Y-106972073D01*
X140859000Y-106974250D01*
X140746500Y-107086750D01*
X140046500Y-107086750D01*
X139934000Y-106974250D01*
X139834000Y-106972073D01*
X139745785Y-106980761D01*
X139660959Y-107006493D01*
X139582784Y-107048279D01*
X139514263Y-107104513D01*
X139458029Y-107173034D01*
X139416243Y-107251209D01*
X139390511Y-107336035D01*
X139381823Y-107424250D01*
X139215000Y-107424250D01*
X139215000Y-105560000D01*
X141455000Y-105560000D01*
X141455000Y-110975000D01*
%TA.AperFunction,Conductor*%
D18*
G36*
X141455000Y-110975000D02*
G01*
X139215000Y-110975000D01*
X139215000Y-109174250D01*
X139381823Y-109174250D01*
X139390511Y-109262465D01*
X139416243Y-109347291D01*
X139458029Y-109425466D01*
X139514263Y-109493987D01*
X139582784Y-109550221D01*
X139660959Y-109592007D01*
X139745785Y-109617739D01*
X139834000Y-109626427D01*
X139934000Y-109624250D01*
X140046500Y-109511750D01*
X140046500Y-108649250D01*
X140746500Y-108649250D01*
X140746500Y-109511750D01*
X140859000Y-109624250D01*
X140959000Y-109626427D01*
X141047215Y-109617739D01*
X141132041Y-109592007D01*
X141210216Y-109550221D01*
X141278737Y-109493987D01*
X141334971Y-109425466D01*
X141376757Y-109347291D01*
X141402489Y-109262465D01*
X141411177Y-109174250D01*
X141409000Y-108761750D01*
X141296500Y-108649250D01*
X140746500Y-108649250D01*
X140046500Y-108649250D01*
X139496500Y-108649250D01*
X139384000Y-108761750D01*
X139381823Y-109174250D01*
X139215000Y-109174250D01*
X139215000Y-107424250D01*
X139381823Y-107424250D01*
X139384000Y-107836750D01*
X139496500Y-107949250D01*
X140046500Y-107949250D01*
X140046500Y-107086750D01*
X140746500Y-107086750D01*
X140746500Y-107949250D01*
X141296500Y-107949250D01*
X141409000Y-107836750D01*
X141411177Y-107424250D01*
X141402489Y-107336035D01*
X141376757Y-107251209D01*
X141334971Y-107173034D01*
X141278737Y-107104513D01*
X141210216Y-107048279D01*
X141132041Y-107006493D01*
X141047215Y-106980761D01*
X140959000Y-106972073D01*
X140859000Y-106974250D01*
X140746500Y-107086750D01*
X140046500Y-107086750D01*
X139934000Y-106974250D01*
X139834000Y-106972073D01*
X139745785Y-106980761D01*
X139660959Y-107006493D01*
X139582784Y-107048279D01*
X139514263Y-107104513D01*
X139458029Y-107173034D01*
X139416243Y-107251209D01*
X139390511Y-107336035D01*
X139381823Y-107424250D01*
X139215000Y-107424250D01*
X139215000Y-105560000D01*
X141455000Y-105560000D01*
X141455000Y-110975000D01*
G37*
%TD.AperFunction*%
%TD*%
D17*
%TO.N,/SENA*%
X141455000Y-97640000D02*
X139215000Y-97640000D01*
X139215000Y-95775750D01*
X139381823Y-95775750D01*
X139390511Y-95863965D01*
X139416243Y-95948791D01*
X139458029Y-96026966D01*
X139514263Y-96095487D01*
X139582784Y-96151721D01*
X139660959Y-96193507D01*
X139745785Y-96219239D01*
X139834000Y-96227927D01*
X139934000Y-96225750D01*
X140046500Y-96113250D01*
X140046500Y-95250750D01*
X140746500Y-95250750D01*
X140746500Y-96113250D01*
X140859000Y-96225750D01*
X140959000Y-96227927D01*
X141047215Y-96219239D01*
X141132041Y-96193507D01*
X141210216Y-96151721D01*
X141278737Y-96095487D01*
X141334971Y-96026966D01*
X141376757Y-95948791D01*
X141402489Y-95863965D01*
X141411177Y-95775750D01*
X141409000Y-95363250D01*
X141296500Y-95250750D01*
X140746500Y-95250750D01*
X140046500Y-95250750D01*
X139496500Y-95250750D01*
X139384000Y-95363250D01*
X139381823Y-95775750D01*
X139215000Y-95775750D01*
X139215000Y-94025750D01*
X139381823Y-94025750D01*
X139384000Y-94438250D01*
X139496500Y-94550750D01*
X140046500Y-94550750D01*
X140046500Y-93688250D01*
X140746500Y-93688250D01*
X140746500Y-94550750D01*
X141296500Y-94550750D01*
X141409000Y-94438250D01*
X141411177Y-94025750D01*
X141402489Y-93937535D01*
X141376757Y-93852709D01*
X141334971Y-93774534D01*
X141278737Y-93706013D01*
X141210216Y-93649779D01*
X141132041Y-93607993D01*
X141047215Y-93582261D01*
X140959000Y-93573573D01*
X140859000Y-93575750D01*
X140746500Y-93688250D01*
X140046500Y-93688250D01*
X139934000Y-93575750D01*
X139834000Y-93573573D01*
X139745785Y-93582261D01*
X139660959Y-93607993D01*
X139582784Y-93649779D01*
X139514263Y-93706013D01*
X139458029Y-93774534D01*
X139416243Y-93852709D01*
X139390511Y-93937535D01*
X139381823Y-94025750D01*
X139215000Y-94025750D01*
X139215000Y-92225000D01*
X141455000Y-92225000D01*
X141455000Y-97640000D01*
%TA.AperFunction,Conductor*%
D18*
G36*
X141455000Y-97640000D02*
G01*
X139215000Y-97640000D01*
X139215000Y-95775750D01*
X139381823Y-95775750D01*
X139390511Y-95863965D01*
X139416243Y-95948791D01*
X139458029Y-96026966D01*
X139514263Y-96095487D01*
X139582784Y-96151721D01*
X139660959Y-96193507D01*
X139745785Y-96219239D01*
X139834000Y-96227927D01*
X139934000Y-96225750D01*
X140046500Y-96113250D01*
X140046500Y-95250750D01*
X140746500Y-95250750D01*
X140746500Y-96113250D01*
X140859000Y-96225750D01*
X140959000Y-96227927D01*
X141047215Y-96219239D01*
X141132041Y-96193507D01*
X141210216Y-96151721D01*
X141278737Y-96095487D01*
X141334971Y-96026966D01*
X141376757Y-95948791D01*
X141402489Y-95863965D01*
X141411177Y-95775750D01*
X141409000Y-95363250D01*
X141296500Y-95250750D01*
X140746500Y-95250750D01*
X140046500Y-95250750D01*
X139496500Y-95250750D01*
X139384000Y-95363250D01*
X139381823Y-95775750D01*
X139215000Y-95775750D01*
X139215000Y-94025750D01*
X139381823Y-94025750D01*
X139384000Y-94438250D01*
X139496500Y-94550750D01*
X140046500Y-94550750D01*
X140046500Y-93688250D01*
X140746500Y-93688250D01*
X140746500Y-94550750D01*
X141296500Y-94550750D01*
X141409000Y-94438250D01*
X141411177Y-94025750D01*
X141402489Y-93937535D01*
X141376757Y-93852709D01*
X141334971Y-93774534D01*
X141278737Y-93706013D01*
X141210216Y-93649779D01*
X141132041Y-93607993D01*
X141047215Y-93582261D01*
X140959000Y-93573573D01*
X140859000Y-93575750D01*
X140746500Y-93688250D01*
X140046500Y-93688250D01*
X139934000Y-93575750D01*
X139834000Y-93573573D01*
X139745785Y-93582261D01*
X139660959Y-93607993D01*
X139582784Y-93649779D01*
X139514263Y-93706013D01*
X139458029Y-93774534D01*
X139416243Y-93852709D01*
X139390511Y-93937535D01*
X139381823Y-94025750D01*
X139215000Y-94025750D01*
X139215000Y-92225000D01*
X141455000Y-92225000D01*
X141455000Y-97640000D01*
G37*
%TD.AperFunction*%
%TD*%
M02*
